  0
SECTION
  2
HEADER
  9
$ACADVER
  1
AC1018
  9
$ACADMAINTVER
 70
     0
  9
$DWGCODEPAGE
  3
ANSI_932
  9
$INSBASE
 10
0.0
 20
0.0
 30
0.0
  9
$EXTMIN
 10
1.000000000000000E+20
 20
1.000000000000000E+20
 30
1.000000000000000E+20
  9
$EXTMAX
 10
-1.000000000000000E+20
 20
-1.000000000000000E+20
 30
-1.000000000000000E+20
  9
$LIMMIN
 10
0.0
 20
0.0
  9
$LIMMAX
 10
12.0
 20
9.0
  9
$ORTHOMODE
 70
     0
  9
$REGENMODE
 70
     1
  9
$FILLMODE
 70
     1
  9
$QTEXTMODE
 70
     0
  9
$MIRRTEXT
 70
     1
  9
$LTSCALE
 40
1.0
  9
$ATTMODE
 70
     1
  9
$TEXTSIZE
 40
0.2
  9
$TRACEWID
 40
0.05
  9
$TEXTSTYLE
  7
Standard
  9
$CLAYER
  8
0
  9
$CELTYPE
  6
ByLayer
  9
$CECOLOR
 62
   256
  9
$CELTSCALE
 40
1.0
  9
$DISPSILH
 70
     0
  9
$DIMSCALE
 40
1.0
  9
$DIMASZ
 40
0.18
  9
$DIMEXO
 40
0.0625
  9
$DIMDLI
 40
0.38
  9
$DIMRND
 40
0.0
  9
$DIMDLE
 40
0.0
  9
$DIMEXE
 40
0.18
  9
$DIMTP
 40
0.0
  9
$DIMTM
 40
0.0
  9
$DIMTXT
 40
0.18
  9
$DIMCEN
 40
0.09
  9
$DIMTSZ
 40
0.0
  9
$DIMTOL
 70
     0
  9
$DIMLIM
 70
     0
  9
$DIMTIH
 70
     1
  9
$DIMTOH
 70
     1
  9
$DIMSE1
 70
     0
  9
$DIMSE2
 70
     0
  9
$DIMTAD
 70
     0
  9
$DIMZIN
 70
     0
  9
$DIMBLK
  1

  9
$DIMASO
 70
     1
  9
$DIMSHO
 70
     1
  9
$DIMPOST
  1

  9
$DIMAPOST
  1

  9
$DIMALT
 70
     0
  9
$DIMALTD
 70
     2
  9
$DIMALTF
 40
25.4
  9
$DIMLFAC
 40
1.0
  9
$DIMTOFL
 70
     0
  9
$DIMTVP
 40
0.0
  9
$DIMTIX
 70
     0
  9
$DIMSOXD
 70
     0
  9
$DIMSAH
 70
     0
  9
$DIMBLK1
  1

  9
$DIMBLK2
  1

  9
$DIMSTYLE
  2
Standard
  9
$DIMCLRD
 70
     0
  9
$DIMCLRE
 70
     0
  9
$DIMCLRT
 70
     0
  9
$DIMTFAC
 40
1.0
  9
$DIMGAP
 40
0.09
  9
$DIMJUST
 70
     0
  9
$DIMSD1
 70
     0
  9
$DIMSD2
 70
     0
  9
$DIMTOLJ
 70
     1
  9
$DIMTZIN
 70
     0
  9
$DIMALTZ
 70
     0
  9
$DIMALTTZ
 70
     0
  9
$DIMUPT
 70
     0
  9
$DIMDEC
 70
     4
  9
$DIMTDEC
 70
     4
  9
$DIMALTU
 70
     2
  9
$DIMALTTD
 70
     2
  9
$DIMTXSTY
  7
Standard
  9
$DIMAUNIT
 70
     0
  9
$DIMADEC
 70
     0
  9
$DIMALTRND
 40
0.0
  9
$DIMAZIN
 70
     0
  9
$DIMDSEP
 70
    46
  9
$DIMATFIT
 70
     3
  9
$DIMFRAC
 70
     0
  9
$DIMLDRBLK
  1

  9
$DIMLUNIT
 70
     2
  9
$DIMLWD
 70
    -2
  9
$DIMLWE
 70
    -2
  9
$DIMTMOVE
 70
     0
  9
$LUNITS
 70
     2
  9
$LUPREC
 70
     4
  9
$SKETCHINC
 40
0.1
  9
$FILLETRAD
 40
0.5
  9
$AUNITS
 70
     0
  9
$AUPREC
 70
     0
  9
$MENU
  1
.
  9
$ELEVATION
 40
0.0
  9
$PELEVATION
 40
0.0
  9
$THICKNESS
 40
0.0
  9
$LIMCHECK
 70
     0
  9
$CHAMFERA
 40
0.5
  9
$CHAMFERB
 40
0.5
  9
$CHAMFERC
 40
1.0
  9
$CHAMFERD
 40
0.0
  9
$SKPOLY
 70
     0
  9
$TDCREATE
 40
2456665.453240741
  9
$TDUCREATE
 40
2456665.411574074
  9
$TDUPDATE
 40
2456665.453240752
  9
$TDUUPDATE
 40
2456665.411574086
  9
$TDINDWG
 40
0.0000000116
  9
$TDUSRTIMER
 40
0.0000000116
  9
$USRTIMER
 70
     1
  9
$ANGBASE
 50
0.0
  9
$ANGDIR
 70
     0
  9
$PDMODE
 70
     0
  9
$PDSIZE
 40
0.0
  9
$PLINEWID
 40
0.0
  9
$SPLFRAME
 70
     0
  9
$SPLINETYPE
 70
     6
  9
$SPLINESEGS
 70
     8
  9
$HANDSEED
  5
A0
  9
$SURFTAB1
 70
     6
  9
$SURFTAB2
 70
     6
  9
$SURFTYPE
 70
     6
  9
$SURFU
 70
     6
  9
$SURFV
 70
     6
  9
$UCSBASE
  2

  9
$UCSNAME
  2

  9
$UCSORG
 10
0.0
 20
0.0
 30
0.0
  9
$UCSXDIR
 10
1.0
 20
0.0
 30
0.0
  9
$UCSYDIR
 10
0.0
 20
1.0
 30
0.0
  9
$UCSORTHOREF
  2

  9
$UCSORTHOVIEW
 70
     0
  9
$UCSORGTOP
 10
0.0
 20
0.0
 30
0.0
  9
$UCSORGBOTTOM
 10
0.0
 20
0.0
 30
0.0
  9
$UCSORGLEFT
 10
0.0
 20
0.0
 30
0.0
  9
$UCSORGRIGHT
 10
0.0
 20
0.0
 30
0.0
  9
$UCSORGFRONT
 10
0.0
 20
0.0
 30
0.0
  9
$UCSORGBACK
 10
0.0
 20
0.0
 30
0.0
  9
$PUCSBASE
  2

  9
$PUCSNAME
  2

  9
$PUCSORG
 10
0.0
 20
0.0
 30
0.0
  9
$PUCSXDIR
 10
1.0
 20
0.0
 30
0.0
  9
$PUCSYDIR
 10
0.0
 20
1.0
 30
0.0
  9
$PUCSORTHOREF
  2

  9
$PUCSORTHOVIEW
 70
     0
  9
$PUCSORGTOP
 10
0.0
 20
0.0
 30
0.0
  9
$PUCSORGBOTTOM
 10
0.0
 20
0.0
 30
0.0
  9
$PUCSORGLEFT
 10
0.0
 20
0.0
 30
0.0
  9
$PUCSORGRIGHT
 10
0.0
 20
0.0
 30
0.0
  9
$PUCSORGFRONT
 10
0.0
 20
0.0
 30
0.0
  9
$PUCSORGBACK
 10
0.0
 20
0.0
 30
0.0
  9
$USERI1
 70
     0
  9
$USERI2
 70
     0
  9
$USERI3
 70
     0
  9
$USERI4
 70
     0
  9
$USERI5
 70
     0
  9
$USERR1
 40
0.0
  9
$USERR2
 40
0.0
  9
$USERR3
 40
0.0
  9
$USERR4
 40
0.0
  9
$USERR5
 40
0.0
  9
$WORLDVIEW
 70
     1
  9
$SHADEDGE
 70
     3
  9
$SHADEDIF
 70
    70
  9
$TILEMODE
 70
     1
  9
$MAXACTVP
 70
    64
  9
$PINSBASE
 10
0.0
 20
0.0
 30
0.0
  9
$PLIMCHECK
 70
     0
  9
$PEXTMIN
 10
1.000000000000000E+20
 20
1.000000000000000E+20
 30
1.000000000000000E+20
  9
$PEXTMAX
 10
-1.000000000000000E+20
 20
-1.000000000000000E+20
 30
-1.000000000000000E+20
  9
$PLIMMIN
 10
0.0
 20
0.0
  9
$PLIMMAX
 10
12.0
 20
9.0
  9
$UNITMODE
 70
     0
  9
$VISRETAIN
 70
     1
  9
$PLINEGEN
 70
     0
  9
$PSLTSCALE
 70
     1
  9
$TREEDEPTH
 70
  3020
  9
$CMLSTYLE
  2
Standard
  9
$CMLJUST
 70
     0
  9
$CMLSCALE
 40
1.0
  9
$PROXYGRAPHICS
 70
     1
  9
$MEASUREMENT
 70
     0
  9
$CELWEIGHT
370
    -1
  9
$ENDCAPS
280
     0
  9
$JOINSTYLE
280
     0
  9
$LWDISPLAY
290
     1
  9
$INSUNITS
 70
     1
  9
$HYPERLINKBASE
  1

  9
$STYLESHEET
  1

  9
$XEDIT
290
     1
  9
$CEPSNTYPE
380
     0
  9
$PSTYLEMODE
290
     1
  9
$FINGERPRINTGUID
  2
{E1B6AFEF-BB63-56E0-529B-74C8B759461F}
  9
$VERSIONGUID
  2
{FAEB1C32-E019-11D5-929B-00C0DF256EC4}
  9
$EXTNAMES
290
     1
  9
$PSVPSCALE
 40
0.0
  9
$OLESTARTUP
290
     0
  9
$SORTENTS
280
   127
  9
$INDEXCTL
280
     0
  9
$HIDETEXT
280
     1
  9
$XCLIPFRAME
290
     0
  9
$HALOGAP
280
     0
  9
$OBSCOLOR
 70
   257
  9
$OBSLTYPE
280
     0
  9
$INTERSECTIONDISPLAY
280
     0
  9
$INTERSECTIONCOLOR
 70
   257
  9
$DIMASSOC
280
     2
  9
$PROJECTNAME
  1

  0
ENDSEC
  0
SECTION
  2
CLASSES
  0
CLASS
  1
ACDBDICTIONARYWDFLT
  2
AcDbDictionaryWithDefault
  3
ObjectDBX Classes
 90
        0
 91
        3
280
     0
281
     0
  0
CLASS
  1
VISUALSTYLE
  2
AcDbVisualStyle
  3
ObjectDBX Classes
 90
     4095
 91
        3
280
     0
281
     0
  0
ENDSEC
  0
SECTION
  2
TABLES
  0
TABLE
  2
VPORT
  5
8
330
0
100
AcDbSymbolTable
 70
     1
  0
VPORT
  5
29
330
8
100
AcDbSymbolTableRecord
100
AcDbViewportTableRecord
  2
*Active
 70
     0
 10
0.0
 20
0.0
 11
1.0
 21
1.0
 12
0.0
 22
0.0
 13
0.0
 23
0.0
 14
0.5
 24
0.5
 15
0.5
 25
0.5
 16
0.0
 26
0.0
 36
1.0
 17
209.9997571632119
 27
-148.4999796178229
 37
0.0
 40
296.9999592356459
 41
1.414139972972816
 42
50.0
 43
0.0
 44
0.0
 50
0.0
 51
0.0
 71
     0
 72
   100
 73
     1
 74
     3
 75
     0
 76
     0
 77
     0
 78
     0
281
     0
 65
     1
110
0.0
120
0.0
130
0.0
111
1.0
121
0.0
131
0.0
112
0.0
122
1.0
132
0.0
 79
     0
146
0.0
  0
ENDTAB
  0
TABLE
  2
LTYPE
  5
5
330
0
100
AcDbSymbolTable
 70
     1
  0
LTYPE
  5
14
330
5
100
AcDbSymbolTableRecord
100
AcDbLinetypeTableRecord
  2
ByBlock
 70
     0
  3

 72
    65
 73
     0
 40
0.0
  0
LTYPE
  5
15
330
5
100
AcDbSymbolTableRecord
100
AcDbLinetypeTableRecord
  2
ByLayer
 70
     0
  3

 72
    65
 73
     0
 40
0.0
  0
LTYPE
  5
16
330
5
100
AcDbSymbolTableRecord
100
AcDbLinetypeTableRecord
  2
Continuous
 70
     0
  3
Solid line
 72
    65
 73
     0
 40
0.0
  0
ENDTAB
  0
TABLE
  2
LAYER
  5
2
330
0
100
AcDbSymbolTable
 70
     2
  0
LAYER
  5
10
330
2
100
AcDbSymbolTableRecord
100
AcDbLayerTableRecord
  2
0
 70
     0
 62
     7
  6
Continuous
370
    -3
390
F
  0
LAYER
  5
3B
330
2
100
AcDbSymbolTableRecord
100
AcDbLayerTableRecord
  2
Layer 1
 70
     0
 62
     7
  6
Continuous
370
    -3
390
F
  0
ENDTAB
  0
TABLE
  2
STYLE
  5
3
330
0
100
AcDbSymbolTable
 70
     1
  0
STYLE
  5
11
330
3
100
AcDbSymbolTableRecord
100
AcDbTextStyleTableRecord
  2
Standard
 70
     0
 40
0.0
 41
1.0
 50
0.0
 71
     0
 42
0.2
  3
txt
  4

  0
ENDTAB
  0
TABLE
  2
VIEW
  5
6
330
0
100
AcDbSymbolTable
 70
     0
  0
ENDTAB
  0
TABLE
  2
UCS
  5
7
330
0
100
AcDbSymbolTable
 70
     0
  0
ENDTAB
  0
TABLE
  2
APPID
  5
9
330
0
100
AcDbSymbolTable
 70
     1
  0
APPID
  5
12
330
9
100
AcDbSymbolTableRecord
100
AcDbRegAppTableRecord
  2
ACAD
 70
     0
  0
ENDTAB
  0
TABLE
  2
DIMSTYLE
  5
A
330
0
100
AcDbSymbolTable
 70
     1
100
AcDbDimStyleTable
  0
DIMSTYLE
105
27
330
A
100
AcDbSymbolTableRecord
100
AcDbDimStyleTableRecord
  2
Standard
 70
     0
340
11
  0
ENDTAB
  0
TABLE
  2
BLOCK_RECORD
  5
1
330
0
100
AcDbSymbolTable
 70
     2
  0
BLOCK_RECORD
  5
1F
330
1
100
AcDbSymbolTableRecord
100
AcDbBlockTableRecord
  2
*Model_Space
340
22
  0
BLOCK_RECORD
  5
1B
330
1
100
AcDbSymbolTableRecord
100
AcDbBlockTableRecord
  2
*Paper_Space
340
1E
  0
BLOCK_RECORD
  5
23
330
1
100
AcDbSymbolTableRecord
100
AcDbBlockTableRecord
  2
*Paper_Space0
340
26
  0
BLOCK_RECORD
  5
3C
330
1
100
AcDbSymbolTableRecord
100
AcDbBlockTableRecord
  2
block 2
340
0
102
{BLKREFS
331
3D
102
}
  0
ENDTAB
  0
ENDSEC
  0
SECTION
  2
BLOCKS
  0
BLOCK
  5
20
330
1F
100
AcDbEntity
  8
0
100
AcDbBlockBegin
  2
*Model_Space
 70
     0
 71
     0
 10
0.0
 20
0.0
 30
0.0
  3
*Model_Space
  1

  0
ENDBLK
  5
21
330
1F
100
AcDbEntity
  8
0
100
AcDbBlockEnd
  0
BLOCK
  5
1C
330
1B
100
AcDbEntity
 67
     1
  8
0
100
AcDbBlockBegin
  2
*Paper_Space
 70
     0
 71
     0
 10
0.0
 20
0.0
 30
0.0
  3
*Paper_Space
  1

  0
ENDBLK
  5
1D
330
1B
100
AcDbEntity
 67
     1
  8
0
100
AcDbBlockEnd
  0
BLOCK
  5
24
330
23
100
AcDbEntity
  8
0
100
AcDbBlockBegin
  2
*Paper_Space0
 70
     0
 71
     0
 10
0.0
 20
0.0
 30
0.0
  3
*Paper_Space0
  1

  0
ENDBLK
  5
25
330
23
100
AcDbEntity
  8
0
100
AcDbBlockEnd
  0
BLOCK
  5
3E
330
3C
100
AcDbEntity
  8
0
100
AcDbBlockBegin
  2
block 2
 70
     0
 71
     0
 10
0.0
 20
0.0
 30
0.0
  3
block 2
  1

  0
SPLINE
  5
40
330
3C
100
AcDbEntity
  8
Layer 1
 62
     7
370
    35
100
AcDbSpline
210
0.0
220
0.0
230
1.0
 70
    11
 71
     3
 72
    11
 73
     7
 74
     0
 42
0.0000000001
 43
0.0000000001
 40
0.0
 40
0.0
 40
0.0
 40
0.0
 40
1.0
 40
1.0
 40
1.0
 40
2.0
 40
2.0
 40
2.0
 40
2.0
 10
237.990641216544
 20
-224.4924125957866
 30
0.0
 10
243.161729539904
 20
-228.9086804983284
 30
0.0
 10
247.6675699250623
 20
-225.3147568881158
 30
0.0
 10
249.9940429062515
 20
-219.4667073019042
 30
0.0
 10
247.1625189269247
 20
-221.3873480349309
 30
0.0
 10
241.5308213371868
 20
-224.2677923701483
 30
0.0
 10
237.990641216544
 20
-224.4924125957866
 30
0.0
  0
SPLINE
  5
41
330
3C
100
AcDbEntity
  8
Layer 1
 62
     7
370
    35
100
AcDbSpline
210
0.0
220
0.0
230
1.0
 70
    11
 71
     3
 72
    11
 73
     7
 74
     0
 42
0.0000000001
 43
0.0000000001
 40
0.0
 40
0.0
 40
0.0
 40
0.0
 40
1.0
 40
1.0
 40
1.0
 40
2.0
 40
2.0
 40
2.0
 40
2.0
 10
151.1897379179318
 20
-241.4453829691525
 30
0.0
 10
156.7301404773105
 20
-245.388983771118
 30
0.0
 10
160.9016343456253
 20
-241.4109320143
 30
0.0
 10
162.7039360487337
 20
-235.3813258960158
 30
0.0
 10
160.0524183085112
 20
-237.5441568416556
 30
0.0
 10
154.6965006123675
 20
-240.9093261116477
 30
0.0
 10
151.1897379179318
 20
-241.4453829691525
 30
0.0
  0
SPLINE
  5
42
330
3C
100
AcDbEntity
  8
Layer 1
 62
     7
370
    35
100
AcDbSpline
210
0.0
220
0.0
230
1.0
 70
     8
 71
     3
 72
    38
 73
    34
 74
     0
 42
0.0000000001
 43
0.0000000001
 40
0.0
 40
0.0
 40
0.0
 40
0.0
 40
1.0
 40
1.0
 40
1.0
 40
2.0
 40
2.0
 40
2.0
 40
3.0
 40
3.0
 40
3.0
 40
4.0
 40
4.0
 40
4.0
 40
5.0
 40
5.0
 40
5.0
 40
6.0
 40
6.0
 40
6.0
 40
7.0
 40
7.0
 40
7.0
 40
8.0
 40
8.0
 40
8.0
 40
9.0
 40
9.0
 40
9.0
 40
10.0
 40
10.0
 40
10.0
 40
11.0
 40
11.0
 40
11.0
 40
11.0
 10
209.7870225169977
 20
-117.7183959666642
 30
0.0
 10
209.7870225169977
 20
-117.7183959666642
 30
0.0
 10
233.3035888088616
 20
-118.7713894017308
 30
0.0
 10
233.3035888088616
 20
-118.7713894017308
 30
0.0
 10
233.3035888088616
 20
-118.7713894017308
 30
0.0
 10
276.124747652323
 20
-101.9236666954392
 30
0.0
 10
276.124747652323
 20
-101.9236666954392
 30
0.0
 10
276.124747652323
 20
-101.9236666954392
 30
0.0
 10
303.1594454537241
 20
-84.88680824700747
 30
0.0
 10
309.4691378349591
 20
-79.81097681381462
 30
0.0
 10
312.8518770919259
 20
-75.07689885275856
 30
0.0
 10
332.4592935366769
 20
-27.8634155203779
 30
0.0
 10
332.4592935366769
 20
-27.8634155203779
 30
0.0
 10
340.2982638038143
 20
-21.13600531155628
 30
0.0
 10
346.9090575304602
 20
-20.55102809816086
 30
0.0
 10
354.3966280581022
 20
-18.73752983472534
 30
0.0
 10
354.3966280581022
 20
-18.73752983472534
 30
0.0
 10
344.2177489373831
 20
-79.10869409914645
 30
0.0
 10
344.2177489373831
 20
-79.10869409914645
 30
0.0
 10
346.967279644161
 20
-80.45417614091076
 30
0.0
 10
345.6801919708716
 20
-82.8526516177417
 30
0.0
 10
341.5850069675552
 20
-85.42648245477186
 30
0.0
 10
341.5850069675552
 20
-85.42648245477186
 30
0.0
 10
353.6945175982083
 20
-81.91627466485079
 30
0.0
 10
353.6945175982083
 20
-81.91627466485079
 30
0.0
 10
353.6945175982083
 20
-81.91627466485079
 30
0.0
 10
390.1374266602782
 20
-98.20227455227236
 30
0.0
 10
389.8470051108716
 20
-101.5722669559437
 30
0.0
 10
387.7475639221603
 20
-106.0009372022324
 30
0.0
 10
378.0547877744099
 20
-112.3650620921344
 30
0.0
 10
369.8403020993802
 20
-114.0328328165439
 30
0.0
 10
359.5742620628842
 20
-113.072856959579
 30
0.0
 10
330.3533066665436
 20
-102.7132825806585
 30
0.0
 10
317.1913193651466
 20
-99.11539711063782
 30
0.0
  0
POLYLINE
  5
43
330
3C
100
AcDbEntity
  8
Layer 1
 62
     7
370
    35
100
AcDb2dPolyline
 66
     1
 10
0.0
 20
0.0
 30
0.0
  0
VERTEX
  5
44
330
43
100
AcDbEntity
  8
Layer 1
 62
     7
370
    35
100
AcDbVertex
100
AcDb2dVertex
 10
324.3864012860909
 20
-101.5726114654923
 30
0.0
  0
VERTEX
  5
45
330
43
100
AcDbEntity
  8
Layer 1
 62
     7
370
    35
100
AcDbVertex
100
AcDb2dVertex
 10
275.5983370621768
 20
-147.3773952539543
 30
0.0
  0
SEQEND
  5
46
330
43
100
AcDbEntity
  8
Layer 1
370
    35
  0
SPLINE
  5
47
330
3C
100
AcDbEntity
  8
Layer 1
 62
     7
370
    35
100
AcDbSpline
210
0.0
220
0.0
230
1.0
 70
     8
 71
     3
 72
    17
 73
    13
 74
     0
 42
0.0000000001
 43
0.0000000001
 40
0.0
 40
0.0
 40
0.0
 40
0.0
 40
1.0
 40
1.0
 40
1.0
 40
2.0
 40
2.0
 40
2.0
 40
3.0
 40
3.0
 40
3.0
 40
4.0
 40
4.0
 40
4.0
 40
4.0
 10
240.9827066454835
 20
-132.5419528205971
 30
0.0
 10
240.9827066454835
 20
-132.5419528205971
 30
0.0
 10
403.2098414790587
 20
-207.2221489282292
 30
0.0
 10
403.2098414790587
 20
-207.2221489282292
 30
0.0
 10
403.2098414790587
 20
-207.2221489282292
 30
0.0
 10
379.7077445882328
 20
-226.0306477299507
 30
0.0
 10
366.6814940489546
 20
-226.5270859893752
 30
0.0
 10
364.577229726564
 20
-226.607012204633
 30
0.0
 10
266.9983452023477
 20
-194.2355169870314
 30
0.0
 10
266.9983452023477
 20
-194.2355169870314
 30
0.0
 10
266.9983452023477
 20
-194.2355169870314
 30
0.0
 10
197.3157768603933
 20
-162.5733669298428
 30
0.0
 10
191.3595512759449
 20
-160.0129719652051
 30
0.0
  0
POLYLINE
  5
48
330
3C
100
AcDbEntity
  8
Layer 1
 62
     7
370
    35
100
AcDb2dPolyline
 66
     1
 10
0.0
 20
0.0
 30
0.0
  0
VERTEX
  5
49
330
48
100
AcDbEntity
  8
Layer 1
 62
     7
370
    35
100
AcDbVertex
100
AcDb2dVertex
 10
251.028605080472
 20
-187.2154459167378
 30
0.0
  0
VERTEX
  5
4A
330
48
100
AcDbEntity
  8
Layer 1
 62
     7
370
    35
100
AcDbVertex
100
AcDb2dVertex
 10
202.4158962167571
 20
-204.4143961077506
 30
0.0
  0
VERTEX
  5
4B
330
48
100
AcDbEntity
  8
Layer 1
 62
     7
370
    35
100
AcDbVertex
100
AcDb2dVertex
 10
194.3431762209455
 20
-208.9770805684155
 30
0.0
  0
SEQEND
  5
4C
330
48
100
AcDbEntity
  8
Layer 1
370
    35
  0
SPLINE
  5
4D
330
3C
100
AcDbEntity
  8
Layer 1
 62
     7
370
    35
100
AcDbSpline
210
0.0
220
0.0
230
1.0
 70
     8
 71
     3
 72
    14
 73
    10
 74
     0
 42
0.0000000001
 43
0.0000000001
 40
0.0
 40
0.0
 40
0.0
 40
0.0
 40
1.0
 40
1.0
 40
1.0
 40
2.0
 40
2.0
 40
2.0
 40
3.0
 40
3.0
 40
3.0
 40
3.0
 10
194.5429917590899
 20
-209.1400335848678
 30
0.0
 10
180.8404689760573
 20
-215.1923773333547
 30
0.0
 10
166.2811509458429
 20
-220.953610513338
 30
0.0
 10
150.4683349233204
 20
-224.2764051088615
 30
0.0
 10
145.6569145686205
 20
-224.4142089282714
 30
0.0
 10
141.3421047281194
 20
-225.1728189541235
 30
0.0
 10
136.7792480126802
 20
-224.0703883988435
 30
0.0
 10
131.2379841794301
 20
-222.5989881170933
 30
0.0
 10
127.1235066413962
 20
-220.4451144197151
 30
0.0
 10
122.3263834329601
 20
-217.112673556833
 30
0.0
  0
SPLINE
  5
4E
330
3C
100
AcDbEntity
  8
Layer 1
 62
     7
370
    35
100
AcDbSpline
210
0.0
220
0.0
230
1.0
 70
     8
 71
     3
 72
    29
 73
    25
 74
     0
 42
0.0000000001
 43
0.0000000001
 40
0.0
 40
0.0
 40
0.0
 40
0.0
 40
1.0
 40
1.0
 40
1.0
 40
2.0
 40
2.0
 40
2.0
 40
3.0
 40
3.0
 40
3.0
 40
4.0
 40
4.0
 40
4.0
 40
5.0
 40
5.0
 40
5.0
 40
6.0
 40
6.0
 40
6.0
 40
7.0
 40
7.0
 40
7.0
 40
8.0
 40
8.0
 40
8.0
 40
8.0
 10
115.8260050166164
 20
-208.3890027690833
 30
0.0
 10
113.1281507421173
 20
-204.3296467588134
 30
0.0
 10
112.0431179190378
 20
-197.2920057015451
 30
0.0
 10
115.5493638491509
 20
-192.4878200473642
 30
0.0
 10
124.0904445761823
 20
-182.9304361521841
 30
0.0
 10
132.6310085388909
 20
-175.6065076600914
 30
0.0
 10
144.1502020581465
 20
-167.9105088555918
 30
0.0
 10
146.7987914672066
 20
-158.3627712277704
 30
0.0
 10
148.7025512323556
 20
-151.5452717720095
 30
0.0
 10
154.3290811788657
 20
-142.9900661534886
 30
0.0
 10
154.3290811788657
 20
-142.9900661534886
 30
0.0
 10
89.64345158349192
 20
-114.1659857570488
 30
0.0
 10
89.64345158349192
 20
-114.1659857570488
 30
0.0
 10
89.64345158349192
 20
-114.1659857570488
 30
0.0
 10
21.72081027017744
 20
-75.31547171511211
 30
0.0
 10
21.72081027017744
 20
-75.31547171511211
 30
0.0
 10
21.72081027017744
 20
-75.31547171511211
 30
0.0
 10
15.62695312109326
 20
-72.32392305049541
 30
0.0
 10
17.99821234359073
 20
-66.39491372038044
 30
0.0
 10
21.80487060001753
 20
-56.8749091112153
 30
0.0
 10
46.3260267353803
 20
-51.52553709649361
 30
0.0
 10
46.3260267353803
 20
-51.52553709649361
 30
0.0
 10
101.7769056277676
 20
-71.85211722379044
 30
0.0
 10
154.7462822421294
 20
-92.92404375932108
 30
0.0
 10
211.190898927237
 20
-117.7182237118899
 30
0.0
  0
SPLINE
  5
4F
330
3C
100
AcDbEntity
  8
Layer 1
 62
     7
370
    35
100
AcDbSpline
210
0.0
220
0.0
230
1.0
 70
     8
 71
     3
 72
    17
 73
    13
 74
     0
 42
0.0000000001
 43
0.0000000001
 40
0.0
 40
0.0
 40
0.0
 40
0.0
 40
1.0
 40
1.0
 40
1.0
 40
2.0
 40
2.0
 40
2.0
 40
3.0
 40
3.0
 40
3.0
 40
4.0
 40
4.0
 40
4.0
 40
4.0
 10
294.5039875565823
 20
-89.51839461737735
 30
0.0
 10
294.5039875565823
 20
-89.51839461737735
 30
0.0
 10
276.3304198527924
 20
-77.29364554274257
 30
0.0
 10
276.3304198527924
 20
-77.29364554274257
 30
0.0
 10
274.0645805521436
 20
-75.75833873974098
 30
0.0
 10
271.636132744591
 20
-75.0706976808851
 30
0.0
 10
271.3563909911887
 20
-72.04624835438428
 30
0.0
 10
279.1950167487777
 20
-64.33147377949005
 30
0.0
 10
285.0482339782171
 20
-64.31045869703003
 30
0.0
 10
293.3832979952306
 20
-62.05512693761122
 30
0.0
 10
293.3832979952306
 20
-62.05512693761122
 30
0.0
 10
314.2626436931357
 20
-68.68176810348929
 30
0.0
 10
314.2626436931357
 20
-68.68176810348929
 30
0.0
  0
SPLINE
  5
50
330
3C
100
AcDbEntity
  8
Layer 1
 62
     7
370
    35
100
AcDbSpline
210
0.0
220
0.0
230
1.0
 70
     8
 71
     3
 72
     8
 73
     4
 74
     0
 42
0.0000000001
 43
0.0000000001
 40
0.0
 40
0.0
 40
0.0
 40
0.0
 40
1.0
 40
1.0
 40
1.0
 40
1.0
 10
100.5597533928288
 20
-119.3205376220796
 30
0.0
 10
101.2615193431742
 20
-120.7244140323189
 30
0.0
 10
140.8499728380514
 20
-169.2971597884049
 30
0.0
 10
140.8499728380514
 20
-169.2971597884049
 30
0.0
  0
POLYLINE
  5
51
330
3C
100
AcDbEntity
  8
Layer 1
 62
     7
370
    35
100
AcDb2dPolyline
 66
     1
 10
0.0
 20
0.0
 30
0.0
  0
VERTEX
  5
52
330
51
100
AcDbEntity
  8
Layer 1
 62
     7
370
    35
100
AcDbVertex
100
AcDb2dVertex
 10
112.6813218576804
 20
-124.9188177856106
 30
0.0
  0
VERTEX
  5
53
330
51
100
AcDbEntity
  8
Layer 1
 62
     7
370
    35
100
AcDbVertex
100
AcDb2dVertex
 10
144.4060003979263
 20
-165.6067735046053
 30
0.0
  0
SEQEND
  5
54
330
51
100
AcDbEntity
  8
Layer 1
370
    35
  0
POLYLINE
  5
55
330
3C
100
AcDbEntity
  8
Layer 1
 62
     7
370
    35
100
AcDb2dPolyline
 66
     1
 10
0.0
 20
0.0
 30
0.0
  0
VERTEX
  5
56
330
55
100
AcDbEntity
  8
Layer 1
 62
     7
370
    35
100
AcDbVertex
100
AcDb2dVertex
 10
246.2902207500594
 20
-185.2851589163523
 30
0.0
  0
VERTEX
  5
57
330
55
100
AcDbEntity
  8
Layer 1
 62
     7
370
    35
100
AcDbVertex
100
AcDb2dVertex
 10
202.4160684715314
 20
-201.255588057325
 30
0.0
  0
SEQEND
  5
58
330
55
100
AcDbEntity
  8
Layer 1
370
    35
  0
SPLINE
  5
59
330
3C
100
AcDbEntity
  8
Layer 1
 62
     7
370
    35
100
AcDbSpline
210
0.0
220
0.0
230
1.0
 70
     8
 71
     3
 72
     8
 73
     4
 74
     0
 42
0.0000000001
 43
0.0000000001
 40
0.0
 40
0.0
 40
0.0
 40
0.0
 40
1.0
 40
1.0
 40
1.0
 40
1.0
 10
317.1913193651466
 20
-98.94004175043861
 30
0.0
 10
317.5423745950936
 20
-94.37735728977373
 30
0.0
 10
341.5853514771037
 20
-85.42665470954611
 30
0.0
 10
341.5853514771037
 20
-85.42665470954611
 30
0.0
  0
POLYLINE
  5
5A
330
3C
100
AcDbEntity
  8
Layer 1
 62
     7
370
    35
100
AcDb2dPolyline
 66
     1
 10
0.0
 20
0.0
 30
0.0
  0
VERTEX
  5
5B
330
5A
100
AcDbEntity
  8
Layer 1
 62
     7
370
    35
100
AcDbVertex
100
AcDb2dVertex
 10
335.2677353762525
 20
-87.8836968096263
 30
0.0
  0
VERTEX
  5
5C
330
5A
100
AcDbEntity
  8
Layer 1
 62
     7
370
    35
100
AcDbVertex
100
AcDb2dVertex
 10
383.8800997304189
 20
-107.0129340010245
 30
0.0
  0
SEQEND
  5
5D
330
5A
100
AcDbEntity
  8
Layer 1
370
    35
  0
SPLINE
  5
5E
330
3C
100
AcDbEntity
  8
Layer 1
 62
     7
370
    35
100
AcDbSpline
210
0.0
220
0.0
230
1.0
 70
     8
 71
     3
 72
     8
 73
     4
 74
     0
 42
0.0000000001
 43
0.0000000001
 40
0.0
 40
0.0
 40
0.0
 40
0.0
 40
1.0
 40
1.0
 40
1.0
 40
1.0
 10
345.6216253476224
 20
-25.93312851999241
 30
0.0
 10
345.2709146272239
 20
-27.16147731525824
 30
0.0
 10
330.0025959461452
 20
-85.07559947959916
 30
0.0
 10
330.0025959461452
 20
-85.07559947959916
 30
0.0
  0
SPLINE
  5
5F
330
3C
100
AcDbEntity
  8
Layer 1
 62
     7
370
    35
100
AcDbSpline
210
0.0
220
0.0
230
1.0
 70
     8
 71
     3
 72
     8
 73
     4
 74
     0
 42
0.0000000001
 43
0.0000000001
 40
0.0
 40
0.0
 40
0.0
 40
0.0
 40
1.0
 40
1.0
 40
1.0
 40
1.0
 10
331.7575275863315
 20
-29.79387477553765
 30
0.0
 10
336.6712672769433
 20
-32.07556151541861
 30
0.0
 10
354.0455728281553
 20
-20.66816134465935
 30
0.0
 10
354.0455728281553
 20
-20.66816134465935
 30
0.0
  0
SPLINE
  5
60
330
3C
100
AcDbEntity
  8
Layer 1
 62
     7
370
    35
100
AcDbSpline
210
0.0
220
0.0
230
1.0
 70
     8
 71
     3
 72
    14
 73
    10
 74
     0
 42
0.0000000001
 43
0.0000000001
 40
0.0
 40
0.0
 40
0.0
 40
0.0
 40
1.0
 40
1.0
 40
1.0
 40
2.0
 40
2.0
 40
2.0
 40
3.0
 40
3.0
 40
3.0
 40
3.0
 10
276.124747652323
 20
-102.0990220556384
 30
0.0
 10
275.2472818322299
 20
-102.0990220556384
 30
0.0
 10
254.5388128703931
 20
-116.3141750468763
 30
0.0
 10
254.5388128703931
 20
-116.3141750468763
 30
0.0
 10
252.6030137172312
 20
-117.4622531173358
 30
0.0
 10
252.8290119810636
 20
-119.3286335964699
 30
0.0
 10
255.7669894108847
 20
-118.2444620472618
 30
0.0
 10
255.7669894108847
 20
-118.2444620472618
 30
0.0
 10
343.6916828567854
 20
-79.4597493290934
 30
0.0
 10
343.6916828567854
 20
-79.4597493290934
 30
0.0
  0
SPLINE
  5
61
330
3C
100
AcDbEntity
  8
Layer 1
 62
     7
370
    35
100
AcDbSpline
210
0.0
220
0.0
230
1.0
 70
     8
 71
     3
 72
     8
 73
     4
 74
     0
 42
0.0000000001
 43
0.0000000001
 40
0.0
 40
0.0
 40
0.0
 40
0.0
 40
1.0
 40
1.0
 40
1.0
 40
1.0
 10
280.8627874731871
 20
-65.41977944328048
 30
0.0
 10
281.915953163028
 20
-66.12206215794865
 30
0.0
 10
310.1712482948531
 20
-78.75781112397374
 30
0.0
 10
310.1712482948531
 20
-78.75781112397374
 30
0.0
  0
SPLINE
  5
62
330
3C
100
AcDbEntity
  8
Layer 1
 62
     7
370
    35
100
AcDbSpline
210
0.0
220
0.0
230
1.0
 70
     8
 71
     3
 72
    14
 73
    10
 74
     0
 42
0.0000000001
 43
0.0000000001
 40
0.0
 40
0.0
 40
0.0
 40
0.0
 40
1.0
 40
1.0
 40
1.0
 40
2.0
 40
2.0
 40
2.0
 40
3.0
 40
3.0
 40
3.0
 40
3.0
 10
191.2851372134635
 20
-159.8793022603774
 30
0.0
 10
189.3774155885064
 20
-157.8315375039449
 30
0.0
 10
191.8809664776374
 20
-152.8289143498136
 30
0.0
 10
193.9125392852892
 20
-150.6657388946252
 30
0.0
 10
201.0680026081531
 20
-153.4121690154664
 30
0.0
 10
265.8876464179031
 20
-183.6756103056436
 30
0.0
 10
265.8876464179031
 20
-183.6756103056436
 30
0.0
 10
265.8876464179031
 20
-183.6756103056436
 30
0.0
 10
366.9016356504621
 20
-219.415375379174
 30
0.0
 10
366.9016356504621
 20
-219.415375379174
 30
0.0
  0
SPLINE
  5
63
330
3C
100
AcDbEntity
  8
Layer 1
 62
     7
370
    35
100
AcDbSpline
210
0.0
220
0.0
230
1.0
 70
     8
 71
     3
 72
     8
 73
     4
 74
     0
 42
0.0000000001
 43
0.0000000001
 40
0.0
 40
0.0
 40
0.0
 40
0.0
 40
1.0
 40
1.0
 40
1.0
 40
1.0
 10
363.4265678344906
 20
-223.6342393104109
 30
0.0
 10
362.1859889502521
 20
-217.1815754665379
 30
0.0
 10
393.4581541985105
 20
-204.771652509571
 30
0.0
 10
393.4581541985105
 20
-204.771652509571
 30
0.0
  0
POLYLINE
  5
64
330
3C
100
AcDbEntity
  8
Layer 1
 62
     7
370
    35
100
AcDb2dPolyline
 66
     1
 10
0.0
 20
0.0
 30
0.0
  0
VERTEX
  5
65
330
64
100
AcDbEntity
  8
Layer 1
 62
     7
370
    35
100
AcDbVertex
100
AcDb2dVertex
 10
387.7496309794515
 20
-206.757405547269
 30
0.0
  0
VERTEX
  5
66
330
64
100
AcDbEntity
  8
Layer 1
 62
     7
370
    35
100
AcDbVertex
100
AcDb2dVertex
 10
300.3864880976465
 20
-165.8059000236527
 30
0.0
  0
SEQEND
  5
67
330
64
100
AcDbEntity
  8
Layer 1
370
    35
  0
SPLINE
  5
68
330
3C
100
AcDbEntity
  8
Layer 1
 62
     7
370
    35
100
AcDbSpline
210
0.0
220
0.0
230
1.0
 70
     8
 71
     3
 72
    20
 73
    16
 74
     0
 42
0.0000000001
 43
0.0000000001
 40
0.0
 40
0.0
 40
0.0
 40
0.0
 40
1.0
 40
1.0
 40
1.0
 40
2.0
 40
2.0
 40
2.0
 40
3.0
 40
3.0
 40
3.0
 40
4.0
 40
4.0
 40
4.0
 40
5.0
 40
5.0
 40
5.0
 40
5.0
 10
306.0946668071569
 20
-162.3311767172297
 30
0.0
 10
306.0946668071569
 20
-162.3311767172297
 30
0.0
 10
296.6637179162855
 20
-168.2880913207752
 30
0.0
 10
295.919232781923
 20
-167.2948702923777
 30
0.0
 10
295.1747476475605
 20
-166.3023382830772
 30
0.0
 10
228.1628173257718
 20
-136.5191433035438
 30
0.0
 10
228.1628173257718
 20
-136.5191433035438
 30
0.0
 10
228.1628173257718
 20
-136.5191433035438
 30
0.0
 10
235.6286837518567
 20
-134.9275091893584
 30
0.0
 10
241.0684895230662
 20
-132.5481539924706
 30
0.0
 10
243.1041964453003
 20
-130.374298741278
 30
0.0
 10
240.3842935596956
 20
-129.4368882597415
 30
0.0
 10
236.8492810822808
 20
-127.0878499031239
 30
0.0
 10
233.4589626152464
 20
-124.8349297105447
 30
0.0
 10
211.0375921781434
 20
-117.6565565027039
 30
0.0
 10
211.0375921781434
 20
-117.6565565027039
 30
0.0
  0
SPLINE
  5
69
330
3C
100
AcDbEntity
  8
Layer 1
 62
     7
370
    35
100
AcDbSpline
210
0.0
220
0.0
230
1.0
 70
     8
 71
     3
 72
     8
 73
     4
 74
     0
 42
0.0000000001
 43
0.0000000001
 40
0.0
 40
0.0
 40
0.0
 40
0.0
 40
1.0
 40
1.0
 40
1.0
 40
1.0
 10
19.43412814184286
 20
-70.99687226957717
 30
0.0
 10
18.44125162299385
 20
-65.28834905051819
 30
0.0
 10
47.97605521804071
 20
-54.61630451108551
 30
0.0
 10
47.97605521804071
 20
-54.61630451108551
 30
0.0
  0
SPLINE
  5
6A
330
3C
100
AcDbEntity
  8
Layer 1
 62
     7
370
    35
100
AcDbSpline
210
0.0
220
0.0
230
1.0
 70
     8
 71
     3
 72
    14
 73
    10
 74
     0
 42
0.0000000001
 43
0.0000000001
 40
0.0
 40
0.0
 40
0.0
 40
0.0
 40
1.0
 40
1.0
 40
1.0
 40
2.0
 40
2.0
 40
2.0
 40
3.0
 40
3.0
 40
3.0
 40
3.0
 10
21.66775579970459
 20
-66.52910018953092
 30
0.0
 10
21.66775579970459
 20
-66.52910018953092
 30
0.0
 10
96.86953936380345
 20
-108.2256076118325
 30
0.0
 10
96.86953936380345
 20
-108.2256076118325
 30
0.0
 10
96.86953936380345
 20
-108.2256076118325
 30
0.0
 10
147.500557417552
 20
-128.4527967343799
 30
0.0
 10
162.3921549073186
 20
-136.2707519190573
 30
0.0
 10
159.5583916159264
 20
-137.5953911331359
 30
0.0
 10
157.9321342921142
 20
-138.4945610547861
 30
0.0
 10
154.3295979431884
 20
-142.8319362707156
 30
0.0
  0
SPLINE
  5
6B
330
3C
100
AcDbEntity
  8
Layer 1
 62
     7
370
    35
100
AcDbSpline
210
0.0
220
0.0
230
1.0
 70
     8
 71
     3
 72
     8
 73
     4
 74
     0
 42
0.0000000001
 43
0.0000000001
 40
0.0
 40
0.0
 40
0.0
 40
0.0
 40
1.0
 40
1.0
 40
1.0
 40
1.0
 10
190.4374714693177
 20
-121.8759371982637
 30
0.0
 10
180.6554673484993
 20
-124.5257323907436
 30
0.0
 10
170.171352767787
 20
-129.6325696833037
 30
0.0
 10
161.091114597314
 20
-135.2658175660099
 30
0.0
  0
SPLINE
  5
6C
330
3C
100
AcDbEntity
  8
Layer 1
 62
     7
370
    35
100
AcDbSpline
210
0.0
220
0.0
230
1.0
 70
     8
 71
     3
 72
    14
 73
    10
 74
     0
 42
0.0000000001
 43
0.0000000001
 40
0.0
 40
0.0
 40
0.0
 40
0.0
 40
1.0
 40
1.0
 40
1.0
 40
2.0
 40
2.0
 40
2.0
 40
3.0
 40
3.0
 40
3.0
 40
3.0
 10
145.7633680191147
 20
-89.85928681564282
 30
0.0
 10
144.5221001157792
 20
-90.10767820012933
 30
0.0
 10
131.119817404286
 20
-93.33418237684008
 30
0.0
 10
131.119817404286
 20
-93.33418237684008
 30
0.0
 10
131.119817404286
 20
-93.33418237684008
 30
0.0
 10
193.4157565163162
 20
-121.8759371982637
 30
0.0
 10
194.4086330351652
 20
-121.1312798091269
 30
0.0
 10
195.4011650444657
 20
-120.3867946747644
 30
0.0
 10
210.9755804594089
 20
-117.6565565027039
 30
0.0
 10
210.9755804594089
 20
-117.6565565027039
 30
0.0
  0
POLYLINE
  5
6D
330
3C
100
AcDbEntity
  8
Layer 1
 62
     7
370
    35
100
AcDb2dPolyline
 66
     1
 10
0.0
 20
0.0
 30
0.0
  0
VERTEX
  5
6E
330
6D
100
AcDbEntity
  8
Layer 1
 62
     7
370
    35
100
AcDbVertex
100
AcDb2dVertex
 10
134.8429320951955
 20
-92.09291447350455
 30
0.0
  0
VERTEX
  5
6F
330
6D
100
AcDbEntity
  8
Layer 1
 62
     7
370
    35
100
AcDbVertex
100
AcDb2dVertex
 10
45.49420843046673
 20
-55.85705565009824
 30
0.0
  0
SEQEND
  5
70
330
6D
100
AcDbEntity
  8
Layer 1
370
    35
  0
SPLINE
  5
71
330
3C
100
AcDbEntity
  8
Layer 1
 62
     7
370
    35
100
AcDbSpline
210
0.0
220
0.0
230
1.0
 70
     8
 71
     3
 72
     8
 73
     4
 74
     0
 42
0.0000000001
 43
0.0000000001
 40
0.0
 40
0.0
 40
0.0
 40
0.0
 40
1.0
 40
1.0
 40
1.0
 40
1.0
 10
177.1983140290511
 20
-199.1485676585462
 30
0.0
 10
167.8896660279061
 20
-205.5619574138873
 30
0.0
 10
145.2646904476248
 20
-216.9576442599967
 30
0.0
 10
137.3978149070568
 20
-213.252788575159
 30
0.0
  0
SPLINE
  5
72
330
3C
100
AcDbEntity
  8
Layer 1
 62
     7
370
    35
100
AcDbSpline
210
0.0
220
0.0
230
1.0
 70
     8
 71
     3
 72
     8
 73
     4
 74
     0
 42
0.0000000001
 43
0.0000000001
 40
0.0
 40
0.0
 40
0.0
 40
0.0
 40
1.0
 40
1.0
 40
1.0
 40
1.0
 10
113.8316392402053
 20
-195.6187228243592
 30
0.0
 10
127.0690741327293
 20
-189.3662190281793
 30
0.0
 10
158.2256564274575
 20
-218.3473957787465
 30
0.0
 10
136.5572116086558
 20
-224.1482475568102
 30
0.0
  0
SPLINE
  5
73
330
3C
100
AcDbEntity
  8
Layer 1
 62
     7
370
    35
100
AcDbSpline
210
0.0
220
0.0
230
1.0
 70
     8
 71
     3
 72
    11
 73
     7
 74
     0
 42
0.0000000001
 43
0.0000000001
 40
0.0
 40
0.0
 40
0.0
 40
0.0
 40
1.0
 40
1.0
 40
1.0
 40
2.0
 40
2.0
 40
2.0
 40
2.0
 10
141.6116834498401
 20
-169.9520724401509
 30
0.0
 10
157.9049180377807
 20
-168.698746702617
 30
0.0
 10
178.2439005088245
 20
-182.5060003884013
 30
0.0
 10
177.5319715267976
 20
-196.333235628
 30
0.0
 10
177.0405286558267
 20
-206.0501274441472
 30
0.0
 10
175.7465507915668
 20
-214.13542203848
 30
0.0
 10
173.2647040039928
 20
-217.362098469965
 30
0.0
  0
SPLINE
  5
74
330
3C
100
AcDbEntity
  8
Layer 1
 62
     7
370
    35
100
AcDbSpline
210
0.0
220
0.0
230
1.0
 70
     8
 71
     3
 72
     8
 73
     4
 74
     0
 42
0.0000000001
 43
0.0000000001
 40
0.0
 40
0.0
 40
0.0
 40
0.0
 40
1.0
 40
1.0
 40
1.0
 40
1.0
 10
197.8835285963625
 20
-197.8225504062735
 30
0.0
 10
197.8835285963625
 20
-196.581282502938
 30
0.0
 10
198.525005375716
 20
-163.8025769989799
 30
0.0
 10
198.525005375716
 20
-163.8025769989799
 30
0.0
  0
SPLINE
  5
75
330
3C
100
AcDbEntity
  8
Layer 1
 62
     7
370
    35
100
AcDbSpline
210
0.0
220
0.0
230
1.0
 70
     8
 71
     3
 72
     8
 73
     4
 74
     0
 42
0.0000000001
 43
0.0000000001
 40
0.0
 40
0.0
 40
0.0
 40
0.0
 40
1.0
 40
1.0
 40
1.0
 40
1.0
 10
194.6268798341558
 20
-208.7180093879247
 30
0.0
 10
193.2931111170413
 20
-205.5219943062584
 30
0.0
 10
198.2945284877528
 20
-200.6854247545162
 30
0.0
 10
202.338381568339
 20
-201.399937558157
 30
0.0
  0
SPLINE
  5
76
330
3C
100
AcDbEntity
  8
Layer 1
 62
     7
370
    35
100
AcDbSpline
210
0.0
220
0.0
230
1.0
 70
     8
 71
     3
 72
     8
 73
     4
 74
     0
 42
0.0000000001
 43
0.0000000001
 40
0.0
 40
0.0
 40
0.0
 40
0.0
 40
1.0
 40
1.0
 40
1.0
 40
1.0
 10
224.9864392883715
 20
-137.8747883769896
 30
0.0
 10
215.2047796771016
 20
-140.5244113146953
 30
0.0
 10
204.7203205868408
 20
-145.6310763524811
 30
0.0
 10
195.6399101615935
 20
-151.2644964899617
 30
0.0
  0
POLYLINE
  5
77
330
3C
100
AcDbEntity
  8
Layer 1
 62
     7
370
    35
100
AcDb2dPolyline
 66
     1
 10
0.0
 20
0.0
 30
0.0
  0
VERTEX
  5
78
330
77
100
AcDbEntity
  8
Layer 1
 62
     7
370
    35
100
AcDbVertex
100
AcDb2dVertex
 10
160.1239040398301
 20
-137.3704263979491
 30
0.0
  0
VERTEX
  5
79
330
77
100
AcDbEntity
  8
Layer 1
 62
     7
370
    35
100
AcDbVertex
100
AcDb2dVertex
 10
192.5134860087293
 20
-152.1815809081352
 30
0.0
  0
SEQEND
  5
7A
330
77
100
AcDbEntity
  8
Layer 1
370
    35
  0
POLYLINE
  5
7B
330
3C
100
AcDbEntity
  8
Layer 1
 62
     7
370
    35
100
AcDb2dPolyline
 66
     1
 10
0.0
 20
0.0
 30
0.0
  0
VERTEX
  5
7C
330
7B
100
AcDbEntity
  8
Layer 1
 62
     7
370
    35
100
AcDbVertex
100
AcDb2dVertex
 10
161.2215114614307
 20
-142.4102565833211
 30
0.0
  0
VERTEX
  5
7D
330
7B
100
AcDbEntity
  8
Layer 1
 62
     7
370
    35
100
AcDbVertex
100
AcDb2dVertex
 10
189.1240288155662
 20
-155.0496228996057
 30
0.0
  0
SEQEND
  5
7E
330
7B
100
AcDbEntity
  8
Layer 1
370
    35
  0
SPLINE
  5
7F
330
3C
100
AcDbEntity
  8
Layer 1
 62
     7
370
    35
100
AcDbSpline
210
0.0
220
0.0
230
1.0
 70
     8
 71
     3
 72
    14
 73
    10
 74
     0
 42
0.0000000001
 43
0.0000000001
 40
0.0
 40
0.0
 40
0.0
 40
0.0
 40
1.0
 40
1.0
 40
1.0
 40
2.0
 40
2.0
 40
2.0
 40
3.0
 40
3.0
 40
3.0
 40
3.0
 10
144.164326949636
 20
-167.6004502619193
 30
0.0
 10
156.8817246786615
 20
-165.9151095505351
 30
0.0
 10
173.0743624784328
 20
-178.0118733278929
 30
0.0
 10
177.9403875965739
 20
-180.7806965693882
 30
0.0
 10
183.492158971054
 20
-181.2667995423569
 30
0.0
 10
188.7995008208557
 20
-181.7783962219165
 30
0.0
 10
195.1178059408039
 20
-177.9178222211455
 30
0.0
 10
195.5412081759411
 20
-172.0091389543936
 30
0.0
 10
195.4624877441031
 20
-172.0163736549126
 30
0.0
 10
195.6421494736589
 20
-162.0007920601942
 30
0.0
  0
SPLINE
  5
80
330
3C
100
AcDbEntity
  8
Layer 1
 62
     7
370
    35
100
AcDbSpline
210
0.0
220
0.0
230
1.0
 70
     8
 71
     3
 72
    11
 73
     7
 74
     0
 42
0.0000000001
 43
0.0000000001
 40
0.0
 40
0.0
 40
0.0
 40
0.0
 40
1.0
 40
1.0
 40
1.0
 40
2.0
 40
2.0
 40
2.0
 40
2.0
 10
147.9050116275203
 20
-165.2908582486079
 30
0.0
 10
152.4949123425186
 20
-157.2548285197141
 30
0.0
 10
158.5110825884104
 20
-160.4422308626672
 30
0.0
 10
169.8016940222197
 20
-163.7646809486422
 30
0.0
 10
181.2259751608567
 20
-167.126405123149
 30
0.0
 10
187.6757106735672
 20
-174.6491156247405
 30
0.0
 10
186.620994690758
 20
-178.8607448554584
 30
0.0
  0
POLYLINE
  5
81
330
3C
100
AcDbEntity
  8
Layer 1
 62
     7
370
    35
100
AcDb2dPolyline
 66
     1
 10
0.0
 20
0.0
 30
0.0
  0
VERTEX
  5
82
330
81
100
AcDbEntity
  8
Layer 1
 62
     7
370
    35
100
AcDbVertex
100
AcDb2dVertex
 10
173.7952487087213
 20
-157.2799777167564
 30
0.0
  0
VERTEX
  5
83
330
81
100
AcDbEntity
  8
Layer 1
 62
     7
370
    35
100
AcDbVertex
100
AcDb2dVertex
 10
163.3025213892959
 20
-161.6356119387578
 30
0.0
  0
SEQEND
  5
84
330
81
100
AcDbEntity
  8
Layer 1
370
    35
  0
POLYLINE
  5
85
330
3C
100
AcDbEntity
  8
Layer 1
 62
     7
370
    35
100
AcDb2dPolyline
 66
     1
 10
0.0
 20
0.0
 30
0.0
  0
VERTEX
  5
86
330
85
100
AcDbEntity
  8
Layer 1
 62
     7
370
    35
100
AcDbVertex
100
AcDb2dVertex
 10
159.6350449904732
 20
-145.6310763524811
 30
0.0
  0
VERTEX
  5
87
330
85
100
AcDbEntity
  8
Layer 1
 62
     7
370
    35
100
AcDbVertex
100
AcDb2dVertex
 10
159.0765950123142
 20
-160.3998561881986
 30
0.0
  0
SEQEND
  5
88
330
85
100
AcDbEntity
  8
Layer 1
370
    35
  0
POLYLINE
  5
89
330
3C
100
AcDbEntity
  8
Layer 1
 62
     7
370
    35
100
AcDb2dPolyline
 66
     1
 10
0.0
 20
0.0
 30
0.0
  0
VERTEX
  5
8A
330
89
100
AcDbEntity
  8
Layer 1
 62
     7
370
    35
100
AcDbVertex
100
AcDb2dVertex
 10
156.1039943728664
 20
-153.1923719235075
 30
0.0
  0
VERTEX
  5
8B
330
89
100
AcDbEntity
  8
Layer 1
 62
     7
370
    35
100
AcDbVertex
100
AcDb2dVertex
 10
156.0009860178574
 20
-160.1111571865347
 30
0.0
  0
SEQEND
  5
8C
330
89
100
AcDbEntity
  8
Layer 1
370
    35
  0
SPLINE
  5
8D
330
3C
100
AcDbEntity
  8
Layer 1
 62
     7
370
    35
100
AcDbSpline
210
0.0
220
0.0
230
1.0
 70
    11
 71
     3
 72
    17
 73
    13
 74
     0
 42
0.0000000001
 43
0.0000000001
 40
0.0
 40
0.0
 40
0.0
 40
0.0
 40
1.0
 40
1.0
 40
1.0
 40
2.0
 40
2.0
 40
2.0
 40
3.0
 40
3.0
 40
3.0
 40
4.0
 40
4.0
 40
4.0
 40
4.0
 10
172.5793022572024
 20
-134.5251220366812
 30
0.0
 10
175.7346652121427
 20
-133.0244384433064
 30
0.0
 10
181.7311984137686
 20
-130.9448065536353
 30
0.0
 10
185.5626613576892
 20
-129.4270697376085
 30
0.0
 10
187.2729790113415
 20
-128.781631098447
 30
0.0
 10
194.449801926214
 20
-129.1120157554824
 30
0.0
 10
191.1817843489059
 20
-131.8982367291782
 30
0.0
 10
186.4800902854112
 20
-133.7964843415509
 30
0.0
 10
181.4836683031534
 20
-136.6862304345784
 30
0.0
 10
175.8802204963945
 20
-138.4869818447185
 30
0.0
 10
166.7717325429425
 20
-138.2303222310674
 30
0.0
 10
171.3383788634154
 20
-134.6088378569728
 30
0.0
 10
172.5793022572024
 20
-134.5251220366812
 30
0.0
  0
SPLINE
  5
8E
330
3C
100
AcDbEntity
  8
Layer 1
 62
     7
370
    35
100
AcDbSpline
210
0.0
220
0.0
230
1.0
 70
    11
 71
     3
 72
    20
 73
    16
 74
     0
 42
0.0000000001
 43
0.0000000001
 40
0.0
 40
0.0
 40
0.0
 40
0.0
 40
1.0
 40
1.0
 40
1.0
 40
2.0
 40
2.0
 40
2.0
 40
3.0
 40
3.0
 40
3.0
 40
4.0
 40
4.0
 40
4.0
 40
5.0
 40
5.0
 40
5.0
 40
5.0
 10
237.6468206871161
 20
-206.9151909204934
 30
0.0
 10
233.1716416517766
 20
-209.0208332810781
 30
0.0
 10
229.047517846384
 20
-221.6567545018775
 30
0.0
 10
234.0932046940809
 20
-224.2894964717054
 30
0.0
 10
239.9233397837692
 20
-225.5304198654924
 30
0.0
 10
253.1452717466095
 20
-218.8128281788038
 30
0.0
 10
257.3906629130829
 20
-212.8383435882835
 30
0.0
 10
260.9442789061181
 20
-207.8367539627978
 30
0.0
 10
261.6026366533494
 20
-201.4746961301869
 30
0.0
 10
257.3906629130829
 20
-201.3434379921989
 30
0.0
 10
252.9147948586463
 20
-202.6594644675643
 30
0.0
 10
248.346598245205
 20
-203.8742051356634
 30
0.0
 10
244.3599337496739
 20
-203.8001355827305
 30
0.0
 10
241.7537190150824
 20
-203.751904245937
 30
0.0
 10
239.8406574921232
 20
-205.4672172880429
 30
0.0
 10
237.6468206871161
 20
-206.9151909204934
 30
0.0
  0
SPLINE
  5
8F
330
3C
100
AcDbEntity
  8
Layer 1
 62
     7
370
    35
100
AcDbSpline
210
0.0
220
0.0
230
1.0
 70
     8
 71
     3
 72
    14
 73
    10
 74
     0
 42
0.0000000001
 43
0.0000000001
 40
0.0
 40
0.0
 40
0.0
 40
0.0
 40
1.0
 40
1.0
 40
1.0
 40
2.0
 40
2.0
 40
2.0
 40
3.0
 40
3.0
 40
3.0
 40
3.0
 10
151.9805595865708
 20
-224.2095702564476
 30
0.0
 10
145.0209499420434
 20
-227.0741671524329
 30
0.0
 10
141.0999145155063
 20
-241.2493570360418
 30
0.0
 10
148.1776909351778
 20
-241.7647433206352
 30
0.0
 10
157.3040933851532
 20
-241.4119655429456
 30
0.0
 10
164.2671481251658
 20
-233.688405974564
 30
0.0
 10
168.6596448688594
 20
-230.3025661316605
 30
0.0
 10
175.1257445851248
 20
-225.3185464931495
 30
0.0
 10
171.815180078574
 20
-218.3050211042779
 30
0.0
 10
171.815180078574
 20
-218.3050211042779
 30
0.0
  0
SPLINE
  5
90
330
3C
100
AcDbEntity
  8
Layer 1
 62
     7
370
    35
100
AcDbSpline
210
0.0
220
0.0
230
1.0
 70
     8
 71
     3
 72
    11
 73
     7
 74
     0
 42
0.0000000001
 43
0.0000000001
 40
0.0
 40
0.0
 40
0.0
 40
0.0
 40
1.0
 40
1.0
 40
1.0
 40
2.0
 40
2.0
 40
2.0
 40
2.0
 10
236.0920490946228
 20
-180.709727602392
 30
0.0
 10
234.0728786307179
 20
-183.5853488039301
 30
0.0
 10
229.7406710580162
 20
-185.3595729788337
 30
0.0
 10
228.0012423475136
 20
-187.3821885382239
 30
0.0
 10
229.0544080373545
 20
-189.8392306383041
 30
0.0
 10
229.7523843826661
 20
-190.9737005815969
 30
0.0
 10
229.7523843826661
 20
-190.9737005815969
 30
0.0
  0
SPLINE
  5
91
330
3C
100
AcDbEntity
  8
Layer 1
 62
     7
370
    35
100
AcDbSpline
210
0.0
220
0.0
230
1.0
 70
     8
 71
     3
 72
     8
 73
     4
 74
     0
 42
0.0000000001
 43
0.0000000001
 40
0.0
 40
0.0
 40
0.0
 40
0.0
 40
1.0
 40
1.0
 40
1.0
 40
1.0
 10
219.5614474277485
 20
-192.5853162495967
 30
0.0
 10
219.6003770067319
 20
-188.1676703088609
 30
0.0
 10
226.4395805640498
 20
-187.0311333082769
 30
0.0
 10
228.4425590791741
 20
-186.6835231738152
 30
0.0
  0
SPLINE
  5
92
330
3C
100
AcDbEntity
  8
Layer 1
 62
     7
370
    35
100
AcDbSpline
210
0.0
220
0.0
230
1.0
 70
     8
 71
     3
 72
     8
 73
     4
 74
     0
 42
0.0000000001
 43
0.0000000001
 40
0.0
 40
0.0
 40
0.0
 40
0.0
 40
1.0
 40
1.0
 40
1.0
 40
1.0
 10
172.6128919381836
 20
-223.035826224623
 30
0.0
 10
164.7313747418033
 20
-230.6904838832996
 30
0.0
 10
152.4685573620565
 20
-240.2871418670116
 30
0.0
 10
144.6011650571657
 20
-237.8232095759609
 30
0.0
  0
SPLINE
  5
93
330
3C
100
AcDbEntity
  8
Layer 1
 62
     7
370
    35
100
AcDbSpline
210
0.0
220
0.0
230
1.0
 70
     8
 71
     3
 72
     8
 73
     4
 74
     0
 42
0.0000000001
 43
0.0000000001
 40
0.0
 40
0.0
 40
0.0
 40
0.0
 40
1.0
 40
1.0
 40
1.0
 40
1.0
 10
259.7905164281079
 20
-207.7912787023925
 30
0.0
 10
252.2812417989089
 20
-214.0189778110786
 30
0.0
 10
235.5508245938901
 20
-222.8708061508795
 30
0.0
 10
231.840456756276
 20
-218.6075004878828
 30
0.0
  0
SPLINE
  5
94
330
3C
100
AcDbEntity
  8
Layer 1
 62
     7
370
    35
100
AcDbSpline
210
0.0
220
0.0
230
1.0
 70
     8
 71
     3
 72
     8
 73
     4
 74
     0
 42
0.0000000001
 43
0.0000000001
 40
0.0
 40
0.0
 40
0.0
 40
0.0
 40
1.0
 40
1.0
 40
1.0
 40
1.0
 10
224.6880940193488
 20
-196.5192707842035
 30
0.0
 10
224.9984971225698
 20
-197.0160535531766
 30
0.0
 10
234.9878959916003
 20
-209.3012640535775
 30
0.0
 10
234.9878959916003
 20
-209.3012640535775
 30
0.0
  0
SPLINE
  5
95
330
3C
100
AcDbEntity
  8
Layer 1
 62
     7
370
    35
100
AcDbSpline
210
0.0
220
0.0
230
1.0
 70
     8
 71
     3
 72
     8
 73
     4
 74
     0
 42
0.0000000001
 43
0.0000000001
 40
0.0
 40
0.0
 40
0.0
 40
0.0
 40
1.0
 40
1.0
 40
1.0
 40
1.0
 10
231.8235757883983
 20
-194.0374239966295
 30
0.0
 10
232.1339788916193
 20
-194.8442653592751
 30
0.0
 10
239.0210692761822
 20
-205.8265407471545
 30
0.0
 10
239.0210692761822
 20
-205.8265407471545
 30
0.0
  0
SPLINE
  5
96
330
3C
100
AcDbEntity
  8
Layer 1
 62
     7
370
    35
100
AcDbSpline
210
0.0
220
0.0
230
1.0
 70
     8
 71
     3
 72
    14
 73
    10
 74
     0
 42
0.0000000001
 43
0.0000000001
 40
0.0
 40
0.0
 40
0.0
 40
0.0
 40
1.0
 40
1.0
 40
1.0
 40
2.0
 40
2.0
 40
2.0
 40
3.0
 40
3.0
 40
3.0
 40
3.0
 10
201.1100327730732
 20
-164.5649766298657
 30
0.0
 10
201.1720444918077
 20
-166.2709879141614
 30
0.0
 10
201.1412108872147
 20
-172.6929904082156
 30
0.0
 10
201.2030503511749
 20
-174.1902289061052
 30
0.0
 10
201.2650620699094
 20
-175.4387315099598
 30
0.0
 10
201.9165296261702
 20
-175.3615613710902
 30
0.0
 10
202.9712456089794
 20
-175.1128254770551
 30
0.0
 10
206.0118868842609
 20
-174.1206379773032
 30
0.0
 10
211.3479952813644
 20
-170.9559732645527
 30
0.0
 10
213.5814506844519
 20
-170.1494764114557
 30
0.0
  0
SPLINE
  5
97
330
3C
100
AcDbEntity
  8
Layer 1
 62
     7
370
    35
100
AcDbSpline
210
0.0
220
0.0
230
1.0
 70
    11
 71
     3
 72
    17
 73
    13
 74
     0
 42
0.0000000001
 43
0.0000000001
 40
0.0
 40
0.0
 40
0.0
 40
0.0
 40
1.0
 40
1.0
 40
1.0
 40
2.0
 40
2.0
 40
2.0
 40
3.0
 40
3.0
 40
3.0
 40
4.0
 40
4.0
 40
4.0
 40
4.0
 10
187.85606142222
 20
-141.7574109888662
 30
0.0
 10
191.0115966319346
 20
-140.2560383763943
 30
0.0
 10
196.511691574136
 20
-137.1837022226485
 30
0.0
 10
200.3426377537338
 20
-135.6664821709445
 30
0.0
 10
202.0532999169346
 20
-135.0205267674602
 30
0.0
 10
209.6023653989883
 20
-135.4749348619646
 30
0.0
 10
206.3348645860031
 20
-138.2609835808861
 30
0.0
 10
201.6328260129599
 20
-140.1595757028073
 30
0.0
 10
196.7602552133968
 20
-143.9174858581179
 30
0.0
 10
191.1569796614122
 20
-145.7192707969035
 30
0.0
 10
182.0486639627344
 20
-145.4619221641554
 30
0.0
 10
186.6154825379816
 20
-141.8404377900607
 30
0.0
 10
187.85606142222
 20
-141.7574109888662
 30
0.0
  0
SPLINE
  5
98
330
3C
100
AcDbEntity
  8
Layer 1
 62
     7
370
    35
100
AcDbSpline
210
0.0
220
0.0
230
1.0
 70
     8
 71
     3
 72
     8
 73
     4
 74
     0
 42
0.0000000001
 43
0.0000000001
 40
0.0
 40
0.0
 40
0.0
 40
0.0
 40
1.0
 40
1.0
 40
1.0
 40
1.0
 10
215.5940754669348
 20
-196.429698301587
 30
0.0
 10
218.8937879227071
 20
-192.540874517837
 30
0.0
 10
221.3990613595808
 20
-191.3664414669153
 30
0.0
 10
223.2342637245734
 20
-193.7549261668391
 30
0.0
  0
SPLINE
  5
99
330
3C
100
AcDbEntity
  8
Layer 1
 62
     7
370
    35
100
AcDbSpline
210
0.0
220
0.0
230
1.0
 70
    11
 71
     3
 72
    14
 73
    10
 74
     0
 42
0.0000000001
 43
0.0000000001
 40
0.0
 40
0.0
 40
0.0
 40
0.0
 40
1.0
 40
1.0
 40
1.0
 40
2.0
 40
2.0
 40
2.0
 40
3.0
 40
3.0
 40
3.0
 40
3.0
 10
113.6521497654238
 20
-215.8741617298856
 30
0.0
 10
119.4826293646606
 20
-217.1150851236726
 30
0.0
 10
128.1001912114645
 20
-218.1947780487499
 30
0.0
 10
131.0550496091633
 20
-214.6607990999806
 30
0.0
 10
134.3735378353302
 20
-210.6920491009728
 30
0.0
 10
128.0073458881371
 20
-201.3117431137346
 30
0.0
 10
123.7953721478706
 20
-201.1797959566495
 30
0.0
 10
119.8969020967619
 20
-202.0462374711898
 30
0.0
 10
114.006650090856
 20
-209.5968532462119
 30
0.0
 10
113.6521497654238
 20
-215.8741617298856
 30
0.0
  0
SPLINE
  5
9A
330
3C
100
AcDbEntity
  8
Layer 1
 62
     7
370
    35
100
AcDbSpline
210
0.0
220
0.0
230
1.0
 70
     8
 71
     3
 72
     8
 73
     4
 74
     0
 42
0.0000000001
 43
0.0000000001
 40
0.0
 40
0.0
 40
0.0
 40
0.0
 40
1.0
 40
1.0
 40
1.0
 40
1.0
 10
129.7188693252092
 20
-216.0460719945996
 30
0.0
 10
141.1534857503019
 20
-220.2652804353851
 30
0.0
 10
139.316733092341
 20
-212.1103949122502
 30
0.0
 10
130.5255384330804
 20
-207.1732285723386
 30
0.0
  0
SPLINE
  5
9B
330
3C
100
AcDbEntity
  8
Layer 1
 62
     7
370
    35
100
AcDbSpline
210
0.0
220
0.0
230
1.0
 70
     8
 71
     3
 72
     8
 73
     4
 74
     0
 42
0.0000000001
 43
0.0000000001
 40
0.0
 40
0.0
 40
0.0
 40
0.0
 40
1.0
 40
1.0
 40
1.0
 40
1.0
 10
117.6553507192841
 20
-205.3387152264431
 30
0.0
 10
115.7762233868546
 20
-202.9802028572411
 30
0.0
 10
115.6894069806263
 20
-198.0519937655912
 30
0.0
 10
122.0607665710473
 20
-201.7396239730026
 30
0.0
  0
SPLINE
  5
9C
330
3C
100
AcDbEntity
  8
Layer 1
 62
     7
370
    35
100
AcDbSpline
210
0.0
220
0.0
230
1.0
 70
    11
 71
     3
 72
    17
 73
    13
 74
     0
 42
0.0000000001
 43
0.0000000001
 40
0.0
 40
0.0
 40
0.0
 40
0.0
 40
1.0
 40
1.0
 40
1.0
 40
2.0
 40
2.0
 40
2.0
 40
3.0
 40
3.0
 40
3.0
 40
4.0
 40
4.0
 40
4.0
 40
4.0
 10
212.638528050139
 20
-117.9816012617372
 30
0.0
 10
214.6129122727357
 20
-118.0256984839484
 30
0.0
 10
233.1278889391139
 20
-118.7274644342938
 30
0.0
 10
233.1278889391139
 20
-118.7274644342938
 30
0.0
 10
233.1278889391139
 20
-118.7274644342938
 30
0.0
 10
242.7366047570242
 20
-122.281080427329
 30
0.0
 10
242.7366047570242
 20
-122.281080427329
 30
0.0
 10
242.7366047570242
 20
-122.281080427329
 30
0.0
 10
224.967146753654
 20
-122.3691026169772
 30
0.0
 10
224.967146753654
 20
-122.3691026169772
 30
0.0
 10
224.967146753654
 20
-122.3691026169772
 30
0.0
 10
212.638528050139
 20
-117.9816012617372
 30
0.0
 10
212.638528050139
 20
-117.9816012617372
 30
0.0
  0
SPLINE
  5
9D
330
3C
100
AcDbEntity
  8
Layer 1
 62
     7
370
    35
100
AcDbSpline
210
0.0
220
0.0
230
1.0
 70
    11
 71
     3
 72
    20
 73
    16
 74
     0
 42
0.0000000001
 43
0.0000000001
 40
0.0
 40
0.0
 40
0.0
 40
0.0
 40
1.0
 40
1.0
 40
1.0
 40
2.0
 40
2.0
 40
2.0
 40
3.0
 40
3.0
 40
3.0
 40
4.0
 40
4.0
 40
4.0
 40
5.0
 40
5.0
 40
5.0
 40
5.0
 10
230.2760388964241
 20
-124.0363565770638
 30
0.0
 10
230.5392441914971
 20
-124.0802815445008
 30
0.0
 10
244.1056857028625
 20
-123.0408962366009
 30
0.0
 10
245.7634656503647
 20
-123.8167317398792
 30
0.0
 10
259.5404024958788
 20
-130.2662949978154
 30
0.0
 10
255.5475368284743
 20
-134.3466660905453
 30
0.0
 10
253.6610025407514
 20
-138.2513373135274
 30
0.0
 10
251.2918103755451
 20
-137.5933240758447
 30
0.0
 10
241.1570284770371
 20
-132.5038845154851
 30
0.0
 10
241.1570284770371
 20
-132.5038845154851
 30
0.0
 10
241.1570284770371
 20
-132.5038845154851
 30
0.0
 10
245.1933023475559
 20
-131.1437608179085
 30
0.0
 10
235.2776285219098
 20
-126.2737738399593
 30
0.0
 10
232.0316595557074
 20
-124.6731824775123
 30
0.0
 10
231.5031819082701
 20
-124.9403496323934
 30
0.0
 10
230.2760388964241
 20
-124.0363565770638
 30
0.0
  0
SPLINE
  5
9E
330
3C
100
AcDbEntity
  8
Layer 1
 62
     7
370
    35
100
AcDbSpline
210
0.0
220
0.0
230
1.0
 70
    11
 71
     3
 72
    32
 73
    28
 74
     0
 42
0.0000000001
 43
0.0000000001
 40
0.0
 40
0.0
 40
0.0
 40
0.0
 40
1.0
 40
1.0
 40
1.0
 40
2.0
 40
2.0
 40
2.0
 40
3.0
 40
3.0
 40
3.0
 40
4.0
 40
4.0
 40
4.0
 40
5.0
 40
5.0
 40
5.0
 40
6.0
 40
6.0
 40
6.0
 40
7.0
 40
7.0
 40
7.0
 40
8.0
 40
8.0
 40
8.0
 40
9.0
 40
9.0
 40
9.0
 40
9.0
 10
160.1208034538934
 20
-137.2860215585604
 30
0.0
 10
153.3014091956156
 20
-141.3770724472946
 30
0.0
 10
147.3684380056926
 20
-154.4274386549695
 30
0.0
 10
144.2382242477946
 20
-167.6473035605187
 30
0.0
 10
157.8976833372617
 20
-166.0677272805317
 30
0.0
 10
172.4347805015962
 20
-178.089387976311
 30
0.0
 10
177.8461642350524
 20
-180.8096353714643
 30
0.0
 10
185.7435288706648
 20
-182.1552896680029
 30
0.0
 10
190.5694186264028
 20
-180.4292968298927
 30
0.0
 10
194.957092236417
 20
-178.0015380414371
 30
0.0
 10
194.957092236417
 20
-178.0015380414371
 30
0.0
 10
195.6592026963109
 20
-162.2071532797607
 30
0.0
 10
195.6592026963109
 20
-162.2071532797607
 30
0.0
 10
195.6592026963109
 20
-162.2071532797607
 30
0.0
 10
192.0609727167417
 20
-160.2765217698267
 30
0.0
 10
192.0609727167417
 20
-160.2765217698267
 30
0.0
 10
190.7740572982266
 20
-159.7211723776044
 30
0.0
 10
190.627985249652
 20
-158.7265733110128
 30
0.0
 10
190.5694186264028
 20
-157.2930690796003
 30
0.0
 10
190.5694186264028
 20
-157.2930690796003
 30
0.0
 10
191.0961737260975
 20
-155.0992322745932
 30
0.0
 10
191.7104342511175
 20
-153.9589056689755
 30
0.0
 10
192.0657958504211
 20
-153.2984808644532
 30
0.0
 10
192.5879000712107
 20
-152.2036295192408
 30
0.0
 10
192.5879000712107
 20
-152.2036295192408
 30
0.0
 10
192.5879000712107
 20
-152.2036295192408
 30
0.0
 10
160.1208034538934
 20
-137.2860215585604
 30
0.0
 10
160.1208034538934
 20
-137.2860215585604
 30
0.0
  0
ENDBLK
  5
3F
330
3C
100
AcDbEntity
  8
0
100
AcDbBlockEnd
  0
ENDSEC
  0
SECTION
  2
ENTITIES
  0
INSERT
  5
3D
330
1F
100
AcDbEntity
  8
Layer 1
100
AcDbBlockReference
  2
block 2
 10
0.0
 20
0.0
 30
0.0
  0
ENDSEC
  0
SECTION
  2
OBJECTS
  0
DICTIONARY
  5
C
330
0
100
AcDbDictionary
281
     1
  3
ACAD_GROUP
350
D
  3
ACAD_LAYOUT
350
1A
  3
ACAD_MLINESTYLE
350
17
  3
ACAD_PLOTSETTINGS
350
19
  3
ACAD_PLOTSTYLENAME
350
E
  3
ACAD_TABLESTYLE
350
9F
  3
ACAD_VISUALSTYLE
350
2A
  0
DICTIONARY
  5
D
102
{ACAD_REACTORS
330
C
102
}
330
C
100
AcDbDictionary
281
     1
  0
DICTIONARY
  5
1A
102
{ACAD_REACTORS
330
C
102
}
330
C
100
AcDbDictionary
281
     1
  3
Layout1
350
1E
  3
Layout2
350
26
  3
Model
350
22
  0
DICTIONARY
  5
17
102
{ACAD_REACTORS
330
C
102
}
330
C
100
AcDbDictionary
281
     1
  3
Standard
350
18
  0
DICTIONARY
  5
19
102
{ACAD_REACTORS
330
C
102
}
330
C
100
AcDbDictionary
281
     1
  0
ACDBDICTIONARYWDFLT
  5
E
102
{ACAD_REACTORS
330
C
102
}
330
C
100
AcDbDictionary
281
     1
  3
Normal
350
F
100
AcDbDictionaryWithDefault
340
F
  0
DICTIONARY
  5
9F
102
{ACAD_REACTORS
330
C
102
}
330
C
100
AcDbDictionary
281
     1
  0
DICTIONARY
  5
2A
102
{ACAD_REACTORS
330
C
102
}
330
C
100
AcDbDictionary
281
     1
  3
2dWireframe
350
2F
  3
3D Hidden
350
31
  3
3dWireframe
350
30
  3
Basic
350
32
  3
Brighten
350
36
  3
ColorChange
350
3A
  3
Conceptual
350
34
  3
Dim
350
35
  3
Facepattern
350
39
  3
Flat
350
2B
  3
FlatWithEdges
350
2C
  3
Gouraud
350
2D
  3
GouraudWithEdges
350
2E
  3
Linepattern
350
38
  3
Realistic
350
33
  3
Thicken
350
37
  0
LAYOUT
  5
1E
102
{ACAD_REACTORS
330
1A
102
}
330
1A
100
AcDbPlotSettings
  1

  2
none_device
  4

  6

 40
0.0
 41
0.0
 42
0.0
 43
0.0
 44
0.0
 45
0.0
 46
0.0
 47
0.0
 48
0.0
 49
0.0
140
0.0
141
0.0
142
1.0
143
1.0
 70
   688
 72
     0
 73
     0
 74
     5
  7

 75
    16
 76
     0
 77
     2
 78
   300
147
1.0
148
0.0
149
0.0
100
AcDbLayout
  1
Layout1
 70
     1
 71
     1
 10
0.0
 20
0.0
 11
12.0
 21
9.0
 12
0.0
 22
0.0
 32
0.0
 14
1.000000000000000E+20
 24
1.000000000000000E+20
 34
1.000000000000000E+20
 15
-1.000000000000000E+20
 25
-1.000000000000000E+20
 35
-1.000000000000000E+20
146
0.0
 13
0.0
 23
0.0
 33
0.0
 16
1.0
 26
0.0
 36
0.0
 17
0.0
 27
1.0
 37
0.0
 76
     0
330
1B
  0
LAYOUT
  5
26
102
{ACAD_REACTORS
330
1A
102
}
330
1A
100
AcDbPlotSettings
  1

  2
none_device
  4

  6

 40
0.0
 41
0.0
 42
0.0
 43
0.0
 44
0.0
 45
0.0
 46
0.0
 47
0.0
 48
0.0
 49
0.0
140
0.0
141
0.0
142
1.0
143
1.0
 70
   688
 72
     0
 73
     0
 74
     5
  7

 75
    16
 76
     0
 77
     2
 78
   300
147
1.0
148
0.0
149
0.0
100
AcDbLayout
  1
Layout2
 70
     1
 71
     2
 10
0.0
 20
0.0
 11
0.0
 21
0.0
 12
0.0
 22
0.0
 32
0.0
 14
0.0
 24
0.0
 34
0.0
 15
0.0
 25
0.0
 35
0.0
146
0.0
 13
0.0
 23
0.0
 33
0.0
 16
1.0
 26
0.0
 36
0.0
 17
0.0
 27
1.0
 37
0.0
 76
     0
330
23
  0
LAYOUT
  5
22
102
{ACAD_REACTORS
330
1A
102
}
330
1A
100
AcDbPlotSettings
  1

  2
none_device
  4

  6

 40
0.0
 41
0.0
 42
0.0
 43
0.0
 44
0.0
 45
0.0
 46
0.0
 47
0.0
 48
0.0
 49
0.0
140
0.0
141
0.0
142
1.0
143
1.0
 70
  1712
 72
     0
 73
     0
 74
     0
  7

 75
     0
 76
     0
 77
     2
 78
   300
147
1.0
148
0.0
149
0.0
100
AcDbLayout
  1
Model
 70
     1
 71
     0
 10
0.0
 20
0.0
 11
12.0
 21
9.0
 12
0.0
 22
0.0
 32
0.0
 14
1.000000000000000E+20
 24
1.000000000000000E+20
 34
1.000000000000000E+20
 15
-1.000000000000000E+20
 25
-1.000000000000000E+20
 35
-1.000000000000000E+20
146
0.0
 13
0.0
 23
0.0
 33
0.0
 16
1.0
 26
0.0
 36
0.0
 17
0.0
 27
1.0
 37
0.0
 76
     0
330
1F
331
29
  0
MLINESTYLE
  5
18
102
{ACAD_REACTORS
330
17
102
}
330
17
100
AcDbMlineStyle
  2
Standard
 70
     0
  3

 62
   256
 51
90.0
 52
90.0
 71
     2
 49
0.5
 62
   256
  6
BYLAYER
 49
-0.5
 62
   256
  6
BYLAYER
  0
ACDBPLACEHOLDER
  5
F
102
{ACAD_REACTORS
330
E
102
}
330
E
  0
VISUALSTYLE
  5
2F
102
{ACAD_REACTORS
330
2A
102
}
330
2A
100
AcDbVisualStyle
  2
2dWireframe
 70
     4
 71
     0
 72
     2
 73
     0
 90
        0
 40
-0.6
 41
-30.0
 62
     5
 63
     7
421
 16777215
 74
     1
 91
        4
 64
     7
 65
   257
 75
     1
175
     1
 42
1.0
 92
        0
 66
   257
 43
1.0
 76
     1
 77
     6
 78
     2
 67
     7
 79
     5
170
     0
171
     0
290
     0
174
     0
 93
        1
 44
0.0
173
     0
291
     0
 45
0.0
1001
ACAD
1000
AcDbSavedByObjectVersion
1070
     0
  0
VISUALSTYLE
  5
31
102
{ACAD_REACTORS
330
2A
102
}
330
2A
100
AcDbVisualStyle
  2
3D Hidden
 70
     6
 71
     1
 72
     2
 73
     2
 90
        0
 40
-0.6
 41
-30.0
 62
     5
 63
     7
421
 16777215
 74
     2
 91
        2
 64
     7
 65
   257
 75
     2
175
     1
 42
40.0
 92
        0
 66
   257
 43
1.0
 76
     1
 77
     6
 78
     2
 67
     7
 79
     3
170
     0
171
     0
290
     0
174
     0
 93
        1
 44
0.0
173
     0
291
     0
 45
0.0
1001
ACAD
1000
AcDbSavedByObjectVersion
1070
     0
  0
VISUALSTYLE
  5
30
102
{ACAD_REACTORS
330
2A
102
}
330
2A
100
AcDbVisualStyle
  2
3dWireframe
 70
     5
 71
     0
 72
     2
 73
     0
 90
        0
 40
-0.6
 41
-30.0
 62
     5
 63
     7
421
 16777215
 74
     1
 91
        4
 64
     7
 65
   257
 75
     1
175
     1
 42
1.0
 92
        0
 66
   257
 43
1.0
 76
     1
 77
     6
 78
     2
 67
     7
 79
     5
170
     0
171
     0
290
     0
174
     0
 93
        1
 44
0.0
173
     0
291
     0
 45
0.0
1001
ACAD
1000
AcDbSavedByObjectVersion
1070
     0
  0
VISUALSTYLE
  5
32
102
{ACAD_REACTORS
330
2A
102
}
330
2A
100
AcDbVisualStyle
  2
Basic
 70
     7
 71
     1
 72
     0
 73
     1
 90
        0
 40
-0.6
 41
-30.0
 62
     5
 63
     7
421
 16777215
 74
     0
 91
        4
 64
     7
 65
   257
 75
     1
175
     1
 42
1.0
 92
        8
 66
     7
 43
1.0
 76
     1
 77
     6
 78
     2
 67
     7
 79
     5
170
     0
171
     0
290
     0
174
     0
 93
        1
 44
0.0
173
     0
291
     1
 45
0.0
1001
ACAD
1000
AcDbSavedByObjectVersion
1070
     0
  0
VISUALSTYLE
  5
36
102
{ACAD_REACTORS
330
2A
102
}
330
2A
100
AcDbVisualStyle
  2
Brighten
 70
    12
 71
     2
 72
     2
 73
     0
 90
        0
 40
-0.6
 41
-30.0
 62
     5
 63
     7
421
 16777215
 74
     1
 91
        4
 64
     7
 65
   257
 75
     1
175
     1
 42
1.0
 92
        8
 66
     7
 43
1.0
 76
     1
 77
     6
 78
     2
 67
     7
 79
     5
170
     0
171
     0
290
     0
174
     0
 93
        1
 44
50.0
173
     0
291
     1
 45
0.0
1001
ACAD
1000
AcDbSavedByObjectVersion
1070
     0
  0
VISUALSTYLE
  5
3A
102
{ACAD_REACTORS
330
2A
102
}
330
2A
100
AcDbVisualStyle
  2
ColorChange
 70
    16
 71
     2
 72
     2
 73
     3
 90
        0
 40
-0.6
 41
-30.0
 62
     5
 63
     8
421
  8421504
 74
     1
 91
        4
 64
     7
 65
   257
 75
     1
175
     1
 42
1.0
 92
        8
 66
     8
424
  8421504
 43
1.0
 76
     1
 77
     6
 78
     2
 67
     7
 79
     5
170
     0
171
     0
290
     0
174
     0
 93
        1
 44
0.0
173
     0
291
     1
 45
0.0
1001
ACAD
1000
AcDbSavedByObjectVersion
1070
     0
  0
VISUALSTYLE
  5
34
102
{ACAD_REACTORS
330
2A
102
}
330
2A
100
AcDbVisualStyle
  2
Conceptual
 70
     9
 71
     3
 72
     2
 73
     0
 90
        0
 40
-0.6
 41
-30.0
 62
     5
 63
     7
421
 16777215
 74
     2
 91
        2
 64
     7
 65
   257
 75
     1
175
     1
 42
40.0
 92
        8
 66
     7
 43
1.0
 76
     1
 77
     6
 78
     2
 67
     7
 79
     3
170
     0
171
     0
290
     0
174
     0
 93
        1
 44
0.0
173
     0
291
     0
 45
0.0
1001
ACAD
1000
AcDbSavedByObjectVersion
1070
     0
  0
VISUALSTYLE
  5
35
102
{ACAD_REACTORS
330
2A
102
}
330
2A
100
AcDbVisualStyle
  2
Dim
 70
    11
 71
     2
 72
     2
 73
     0
 90
        0
 40
-0.6
 41
-30.0
 62
     5
 63
     7
421
 16777215
 74
     1
 91
        4
 64
     7
 65
   257
 75
     1
175
     1
 42
1.0
 92
        8
 66
     7
 43
1.0
 76
     1
 77
     6
 78
     2
 67
     7
 79
     5
170
     0
171
     0
290
     0
174
     0
 93
        1
 44
-50.0
173
     0
291
     1
 45
0.0
1001
ACAD
1000
AcDbSavedByObjectVersion
1070
     0
  0
VISUALSTYLE
  5
39
102
{ACAD_REACTORS
330
2A
102
}
330
2A
100
AcDbVisualStyle
  2
Facepattern
 70
    15
 71
     2
 72
     2
 73
     0
 90
        0
 40
-0.6
 41
-30.0
 62
     5
 63
     7
421
 16777215
 74
     1
 91
        4
 64
     7
 65
   257
 75
     1
175
     1
 42
1.0
 92
        8
 66
     7
 43
1.0
 76
     1
 77
     6
 78
     2
 67
     7
 79
     5
170
     0
171
     0
290
     0
174
     0
 93
        1
 44
0.0
173
     0
291
     1
 45
0.0
1001
ACAD
1000
AcDbSavedByObjectVersion
1070
     0
  0
VISUALSTYLE
  5
2B
102
{ACAD_REACTORS
330
2A
102
}
330
2A
100
AcDbVisualStyle
  2
Flat
 70
     0
 71
     2
 72
     1
 73
     1
 90
        2
 40
-0.6
 41
30.0
 62
     5
 63
     7
421
 16777215
 74
     0
 91
        4
 64
     7
 65
   257
 75
     1
175
     1
 42
1.0
 92
        8
 66
     7
 43
1.0
 76
     1
 77
     6
 78
     2
 67
     7
 79
     5
170
     0
171
     0
290
     0
174
     0
 93
       13
 44
0.0
173
     0
291
     1
 45
0.0
1001
ACAD
1000
AcDbSavedByObjectVersion
1070
     0
  0
VISUALSTYLE
  5
2C
102
{ACAD_REACTORS
330
2A
102
}
330
2A
100
AcDbVisualStyle
  2
FlatWithEdges
 70
     1
 71
     2
 72
     1
 73
     1
 90
        2
 40
-0.6
 41
30.0
 62
     5
 63
     7
421
 16777215
 74
     1
 91
        4
 64
     7
 65
   257
 75
     1
175
     1
 42
1.0
 92
        0
 66
   257
 43
1.0
 76
     1
 77
     6
 78
     2
 67
     7
 79
     5
170
     0
171
     0
290
     0
174
     0
 93
       13
 44
0.0
173
     0
291
     1
 45
0.0
1001
ACAD
1000
AcDbSavedByObjectVersion
1070
     0
  0
VISUALSTYLE
  5
2D
102
{ACAD_REACTORS
330
2A
102
}
330
2A
100
AcDbVisualStyle
  2
Gouraud
 70
     2
 71
     2
 72
     2
 73
     1
 90
        2
 40
-0.6
 41
30.0
 62
     5
 63
     7
421
 16777215
 74
     0
 91
        4
 64
     7
 65
   257
 75
     1
175
     1
 42
1.0
 92
        0
 66
     7
 43
1.0
 76
     1
 77
     6
 78
     2
 67
     7
 79
     5
170
     0
171
     0
290
     0
174
     0
 93
       13
 44
0.0
173
     0
291
     1
 45
0.0
1001
ACAD
1000
AcDbSavedByObjectVersion
1070
     0
  0
VISUALSTYLE
  5
2E
102
{ACAD_REACTORS
330
2A
102
}
330
2A
100
AcDbVisualStyle
  2
GouraudWithEdges
 70
     3
 71
     2
 72
     2
 73
     1
 90
        2
 40
-0.6
 41
30.0
 62
     5
 63
     7
421
 16777215
 74
     1
 91
        4
 64
     7
 65
   257
 75
     1
175
     1
 42
1.0
 92
        0
 66
   257
 43
1.0
 76
     1
 77
     6
 78
     2
 67
     7
 79
     5
170
     0
171
     0
290
     0
174
     0
 93
       13
 44
0.0
173
     0
291
     1
 45
0.0
1001
ACAD
1000
AcDbSavedByObjectVersion
1070
     0
  0
VISUALSTYLE
  5
38
102
{ACAD_REACTORS
330
2A
102
}
330
2A
100
AcDbVisualStyle
  2
Linepattern
 70
    14
 71
     2
 72
     2
 73
     0
 90
        0
 40
-0.6
 41
-30.0
 62
     5
 63
     7
421
 16777215
 74
     1
 91
        4
 64
     7
 65
   257
 75
     7
175
     7
 42
1.0
 92
        8
 66
     7
 43
1.0
 76
     1
 77
     6
 78
     2
 67
     7
 79
     5
170
     0
171
     0
290
     0
174
     0
 93
        1
 44
0.0
173
     0
291
     1
 45
0.0
1001
ACAD
1000
AcDbSavedByObjectVersion
1070
     0
  0
VISUALSTYLE
  5
33
102
{ACAD_REACTORS
330
2A
102
}
330
2A
100
AcDbVisualStyle
  2
Realistic
 70
     8
 71
     2
 72
     2
 73
     0
 90
        0
 40
-0.6
 41
-30.0
 62
     5
 63
     7
421
 16777215
 74
     1
 91
        0
 64
     7
 65
   257
 75
     1
175
     1
 42
1.0
 92
        8
 66
     8
424
  7895160
 43
1.0
 76
     1
 77
     6
 78
     2
 67
     7
 79
     5
170
     0
171
     0
290
     0
174
     0
 93
       13
 44
0.0
173
     0
291
     0
 45
0.0
1001
ACAD
1000
AcDbSavedByObjectVersion
1070
     0
  0
VISUALSTYLE
  5
37
102
{ACAD_REACTORS
330
2A
102
}
330
2A
100
AcDbVisualStyle
  2
Thicken
 70
    13
 71
     2
 72
     2
 73
     0
 90
        0
 40
-0.6
 41
-30.0
 62
     5
 63
     7
421
 16777215
 74
     1
 91
        4
 64
     7
 65
   257
 75
     1
175
     1
 42
1.0
 92
       12
 66
     7
 43
1.0
 76
     1
 77
     6
 78
     2
 67
     7
 79
     5
170
     0
171
     0
290
     0
174
     0
 93
        1
 44
0.0
173
     0
291
     1
 45
0.0
1001
ACAD
1000
AcDbSavedByObjectVersion
1070
     0
  0
ENDSEC
  0
EOF
