  0
SECTION
  2
HEADER
  9
$ACADVER
  1
AC1018
  9
$ACADMAINTVER
 70
     0
  9
$DWGCODEPAGE
  3
ANSI_932
  9
$INSBASE
 10
0.0
 20
0.0
 30
0.0
  9
$EXTMIN
 10
1.000000000000000E+20
 20
1.000000000000000E+20
 30
1.000000000000000E+20
  9
$EXTMAX
 10
-1.000000000000000E+20
 20
-1.000000000000000E+20
 30
-1.000000000000000E+20
  9
$LIMMIN
 10
0.0
 20
0.0
  9
$LIMMAX
 10
12.0
 20
9.0
  9
$ORTHOMODE
 70
     0
  9
$REGENMODE
 70
     1
  9
$FILLMODE
 70
     1
  9
$QTEXTMODE
 70
     0
  9
$MIRRTEXT
 70
     1
  9
$LTSCALE
 40
1.0
  9
$ATTMODE
 70
     1
  9
$TEXTSIZE
 40
0.2
  9
$TRACEWID
 40
0.05
  9
$TEXTSTYLE
  7
Standard
  9
$CLAYER
  8
0
  9
$CELTYPE
  6
ByLayer
  9
$CECOLOR
 62
   256
  9
$CELTSCALE
 40
1.0
  9
$DISPSILH
 70
     0
  9
$DIMSCALE
 40
1.0
  9
$DIMASZ
 40
0.18
  9
$DIMEXO
 40
0.0625
  9
$DIMDLI
 40
0.38
  9
$DIMRND
 40
0.0
  9
$DIMDLE
 40
0.0
  9
$DIMEXE
 40
0.18
  9
$DIMTP
 40
0.0
  9
$DIMTM
 40
0.0
  9
$DIMTXT
 40
0.18
  9
$DIMCEN
 40
0.09
  9
$DIMTSZ
 40
0.0
  9
$DIMTOL
 70
     0
  9
$DIMLIM
 70
     0
  9
$DIMTIH
 70
     1
  9
$DIMTOH
 70
     1
  9
$DIMSE1
 70
     0
  9
$DIMSE2
 70
     0
  9
$DIMTAD
 70
     0
  9
$DIMZIN
 70
     0
  9
$DIMBLK
  1

  9
$DIMASO
 70
     1
  9
$DIMSHO
 70
     1
  9
$DIMPOST
  1

  9
$DIMAPOST
  1

  9
$DIMALT
 70
     0
  9
$DIMALTD
 70
     2
  9
$DIMALTF
 40
25.4
  9
$DIMLFAC
 40
1.0
  9
$DIMTOFL
 70
     0
  9
$DIMTVP
 40
0.0
  9
$DIMTIX
 70
     0
  9
$DIMSOXD
 70
     0
  9
$DIMSAH
 70
     0
  9
$DIMBLK1
  1

  9
$DIMBLK2
  1

  9
$DIMSTYLE
  2
Standard
  9
$DIMCLRD
 70
     0
  9
$DIMCLRE
 70
     0
  9
$DIMCLRT
 70
     0
  9
$DIMTFAC
 40
1.0
  9
$DIMGAP
 40
0.09
  9
$DIMJUST
 70
     0
  9
$DIMSD1
 70
     0
  9
$DIMSD2
 70
     0
  9
$DIMTOLJ
 70
     1
  9
$DIMTZIN
 70
     0
  9
$DIMALTZ
 70
     0
  9
$DIMALTTZ
 70
     0
  9
$DIMUPT
 70
     0
  9
$DIMDEC
 70
     4
  9
$DIMTDEC
 70
     4
  9
$DIMALTU
 70
     2
  9
$DIMALTTD
 70
     2
  9
$DIMTXSTY
  7
Standard
  9
$DIMAUNIT
 70
     0
  9
$DIMADEC
 70
     0
  9
$DIMALTRND
 40
0.0
  9
$DIMAZIN
 70
     0
  9
$DIMDSEP
 70
    46
  9
$DIMATFIT
 70
     3
  9
$DIMFRAC
 70
     0
  9
$DIMLDRBLK
  1

  9
$DIMLUNIT
 70
     2
  9
$DIMLWD
 70
    -2
  9
$DIMLWE
 70
    -2
  9
$DIMTMOVE
 70
     0
  9
$LUNITS
 70
     2
  9
$LUPREC
 70
     4
  9
$SKETCHINC
 40
0.1
  9
$FILLETRAD
 40
0.5
  9
$AUNITS
 70
     0
  9
$AUPREC
 70
     0
  9
$MENU
  1
.
  9
$ELEVATION
 40
0.0
  9
$PELEVATION
 40
0.0
  9
$THICKNESS
 40
0.0
  9
$LIMCHECK
 70
     0
  9
$CHAMFERA
 40
0.5
  9
$CHAMFERB
 40
0.5
  9
$CHAMFERC
 40
1.0
  9
$CHAMFERD
 40
0.0
  9
$SKPOLY
 70
     0
  9
$TDCREATE
 40
2456675.542314815
  9
$TDUCREATE
 40
2456675.500648148
  9
$TDUPDATE
 40
2456675.542314827
  9
$TDUUPDATE
 40
2456675.50064816
  9
$TDINDWG
 40
0.0000000116
  9
$TDUSRTIMER
 40
0.0000000116
  9
$USRTIMER
 70
     1
  9
$ANGBASE
 50
0.0
  9
$ANGDIR
 70
     0
  9
$PDMODE
 70
     0
  9
$PDSIZE
 40
0.0
  9
$PLINEWID
 40
0.0
  9
$SPLFRAME
 70
     0
  9
$SPLINETYPE
 70
     6
  9
$SPLINESEGS
 70
     8
  9
$HANDSEED
  5
A0
  9
$SURFTAB1
 70
     6
  9
$SURFTAB2
 70
     6
  9
$SURFTYPE
 70
     6
  9
$SURFU
 70
     6
  9
$SURFV
 70
     6
  9
$UCSBASE
  2

  9
$UCSNAME
  2

  9
$UCSORG
 10
0.0
 20
0.0
 30
0.0
  9
$UCSXDIR
 10
1.0
 20
0.0
 30
0.0
  9
$UCSYDIR
 10
0.0
 20
1.0
 30
0.0
  9
$UCSORTHOREF
  2

  9
$UCSORTHOVIEW
 70
     0
  9
$UCSORGTOP
 10
0.0
 20
0.0
 30
0.0
  9
$UCSORGBOTTOM
 10
0.0
 20
0.0
 30
0.0
  9
$UCSORGLEFT
 10
0.0
 20
0.0
 30
0.0
  9
$UCSORGRIGHT
 10
0.0
 20
0.0
 30
0.0
  9
$UCSORGFRONT
 10
0.0
 20
0.0
 30
0.0
  9
$UCSORGBACK
 10
0.0
 20
0.0
 30
0.0
  9
$PUCSBASE
  2

  9
$PUCSNAME
  2

  9
$PUCSORG
 10
0.0
 20
0.0
 30
0.0
  9
$PUCSXDIR
 10
1.0
 20
0.0
 30
0.0
  9
$PUCSYDIR
 10
0.0
 20
1.0
 30
0.0
  9
$PUCSORTHOREF
  2

  9
$PUCSORTHOVIEW
 70
     0
  9
$PUCSORGTOP
 10
0.0
 20
0.0
 30
0.0
  9
$PUCSORGBOTTOM
 10
0.0
 20
0.0
 30
0.0
  9
$PUCSORGLEFT
 10
0.0
 20
0.0
 30
0.0
  9
$PUCSORGRIGHT
 10
0.0
 20
0.0
 30
0.0
  9
$PUCSORGFRONT
 10
0.0
 20
0.0
 30
0.0
  9
$PUCSORGBACK
 10
0.0
 20
0.0
 30
0.0
  9
$USERI1
 70
     0
  9
$USERI2
 70
     0
  9
$USERI3
 70
     0
  9
$USERI4
 70
     0
  9
$USERI5
 70
     0
  9
$USERR1
 40
0.0
  9
$USERR2
 40
0.0
  9
$USERR3
 40
0.0
  9
$USERR4
 40
0.0
  9
$USERR5
 40
0.0
  9
$WORLDVIEW
 70
     1
  9
$SHADEDGE
 70
     3
  9
$SHADEDIF
 70
    70
  9
$TILEMODE
 70
     1
  9
$MAXACTVP
 70
    64
  9
$PINSBASE
 10
0.0
 20
0.0
 30
0.0
  9
$PLIMCHECK
 70
     0
  9
$PEXTMIN
 10
1.000000000000000E+20
 20
1.000000000000000E+20
 30
1.000000000000000E+20
  9
$PEXTMAX
 10
-1.000000000000000E+20
 20
-1.000000000000000E+20
 30
-1.000000000000000E+20
  9
$PLIMMIN
 10
0.0
 20
0.0
  9
$PLIMMAX
 10
12.0
 20
9.0
  9
$UNITMODE
 70
     0
  9
$VISRETAIN
 70
     1
  9
$PLINEGEN
 70
     0
  9
$PSLTSCALE
 70
     1
  9
$TREEDEPTH
 70
  3020
  9
$CMLSTYLE
  2
Standard
  9
$CMLJUST
 70
     0
  9
$CMLSCALE
 40
1.0
  9
$PROXYGRAPHICS
 70
     1
  9
$MEASUREMENT
 70
     0
  9
$CELWEIGHT
370
    -1
  9
$ENDCAPS
280
     0
  9
$JOINSTYLE
280
     0
  9
$LWDISPLAY
290
     1
  9
$INSUNITS
 70
     1
  9
$HYPERLINKBASE
  1

  9
$STYLESHEET
  1

  9
$XEDIT
290
     1
  9
$CEPSNTYPE
380
     0
  9
$PSTYLEMODE
290
     1
  9
$FINGERPRINTGUID
  2
{0149A2DA-385D-6FB2-69FC-139F060C4079}
  9
$VERSIONGUID
  2
{FAEB1C32-E019-11D5-929B-00C0DF256EC4}
  9
$EXTNAMES
290
     1
  9
$PSVPSCALE
 40
0.0
  9
$OLESTARTUP
290
     0
  9
$SORTENTS
280
   127
  9
$INDEXCTL
280
     0
  9
$HIDETEXT
280
     1
  9
$XCLIPFRAME
290
     0
  9
$HALOGAP
280
     0
  9
$OBSCOLOR
 70
   257
  9
$OBSLTYPE
280
     0
  9
$INTERSECTIONDISPLAY
280
     0
  9
$INTERSECTIONCOLOR
 70
   257
  9
$DIMASSOC
280
     2
  9
$PROJECTNAME
  1

  0
ENDSEC
  0
SECTION
  2
CLASSES
  0
CLASS
  1
ACDBDICTIONARYWDFLT
  2
AcDbDictionaryWithDefault
  3
ObjectDBX Classes
 90
        0
 91
        3
280
     0
281
     0
  0
CLASS
  1
VISUALSTYLE
  2
AcDbVisualStyle
  3
ObjectDBX Classes
 90
     4095
 91
        3
280
     0
281
     0
  0
ENDSEC
  0
SECTION
  2
TABLES
  0
TABLE
  2
VPORT
  5
8
330
0
100
AcDbSymbolTable
 70
     1
  0
VPORT
  5
29
330
8
100
AcDbSymbolTableRecord
100
AcDbViewportTableRecord
  2
*Active
 70
     0
 10
0.0
 20
0.0
 11
1.0
 21
1.0
 12
0.0
 22
0.0
 13
0.0
 23
0.0
 14
0.5
 24
0.5
 15
0.5
 25
0.5
 16
0.0
 26
0.0
 36
1.0
 17
1500.000603194878
 27
-1500.000603194878
 37
0.0
 40
3000.001206389757
 41
1.0
 42
50.0
 43
0.0
 44
0.0
 50
0.0
 51
0.0
 71
     0
 72
   100
 73
     1
 74
     3
 75
     0
 76
     0
 77
     0
 78
     0
281
     0
 65
     1
110
0.0
120
0.0
130
0.0
111
1.0
121
0.0
131
0.0
112
0.0
122
1.0
132
0.0
 79
     0
146
0.0
  0
ENDTAB
  0
TABLE
  2
LTYPE
  5
5
330
0
100
AcDbSymbolTable
 70
     1
  0
LTYPE
  5
14
330
5
100
AcDbSymbolTableRecord
100
AcDbLinetypeTableRecord
  2
ByBlock
 70
     0
  3

 72
    65
 73
     0
 40
0.0
  0
LTYPE
  5
15
330
5
100
AcDbSymbolTableRecord
100
AcDbLinetypeTableRecord
  2
ByLayer
 70
     0
  3

 72
    65
 73
     0
 40
0.0
  0
LTYPE
  5
16
330
5
100
AcDbSymbolTableRecord
100
AcDbLinetypeTableRecord
  2
Continuous
 70
     0
  3
Solid line
 72
    65
 73
     0
 40
0.0
  0
ENDTAB
  0
TABLE
  2
LAYER
  5
2
330
0
100
AcDbSymbolTable
 70
     2
  0
LAYER
  5
10
330
2
100
AcDbSymbolTableRecord
100
AcDbLayerTableRecord
  2
0
 70
     0
 62
     7
  6
Continuous
370
    -3
390
F
  0
LAYER
  5
3B
330
2
100
AcDbSymbolTableRecord
100
AcDbLayerTableRecord
  2
Layer 1
 70
     0
 62
     7
  6
Continuous
370
    -3
390
F
  0
ENDTAB
  0
TABLE
  2
STYLE
  5
3
330
0
100
AcDbSymbolTable
 70
     1
  0
STYLE
  5
11
330
3
100
AcDbSymbolTableRecord
100
AcDbTextStyleTableRecord
  2
Standard
 70
     0
 40
0.0
 41
1.0
 50
0.0
 71
     0
 42
0.2
  3
txt
  4

  0
ENDTAB
  0
TABLE
  2
VIEW
  5
6
330
0
100
AcDbSymbolTable
 70
     0
  0
ENDTAB
  0
TABLE
  2
UCS
  5
7
330
0
100
AcDbSymbolTable
 70
     0
  0
ENDTAB
  0
TABLE
  2
APPID
  5
9
330
0
100
AcDbSymbolTable
 70
     1
  0
APPID
  5
12
330
9
100
AcDbSymbolTableRecord
100
AcDbRegAppTableRecord
  2
ACAD
 70
     0
  0
ENDTAB
  0
TABLE
  2
DIMSTYLE
  5
A
330
0
100
AcDbSymbolTable
 70
     1
100
AcDbDimStyleTable
  0
DIMSTYLE
105
27
330
A
100
AcDbSymbolTableRecord
100
AcDbDimStyleTableRecord
  2
Standard
 70
     0
340
11
  0
ENDTAB
  0
TABLE
  2
BLOCK_RECORD
  5
1
330
0
100
AcDbSymbolTable
 70
     2
  0
BLOCK_RECORD
  5
1F
330
1
100
AcDbSymbolTableRecord
100
AcDbBlockTableRecord
  2
*Model_Space
340
22
  0
BLOCK_RECORD
  5
1B
330
1
100
AcDbSymbolTableRecord
100
AcDbBlockTableRecord
  2
*Paper_Space
340
1E
  0
BLOCK_RECORD
  5
23
330
1
100
AcDbSymbolTableRecord
100
AcDbBlockTableRecord
  2
*Paper_Space0
340
26
  0
BLOCK_RECORD
  5
3C
330
1
100
AcDbSymbolTableRecord
100
AcDbBlockTableRecord
  2
block 2
340
0
102
{BLKREFS
331
3D
102
}
  0
ENDTAB
  0
ENDSEC
  0
SECTION
  2
BLOCKS
  0
BLOCK
  5
20
330
1F
100
AcDbEntity
  8
0
100
AcDbBlockBegin
  2
*Model_Space
 70
     0
 71
     0
 10
0.0
 20
0.0
 30
0.0
  3
*Model_Space
  1

  0
ENDBLK
  5
21
330
1F
100
AcDbEntity
  8
0
100
AcDbBlockEnd
  0
BLOCK
  5
1C
330
1B
100
AcDbEntity
 67
     1
  8
0
100
AcDbBlockBegin
  2
*Paper_Space
 70
     0
 71
     0
 10
0.0
 20
0.0
 30
0.0
  3
*Paper_Space
  1

  0
ENDBLK
  5
1D
330
1B
100
AcDbEntity
 67
     1
  8
0
100
AcDbBlockEnd
  0
BLOCK
  5
24
330
23
100
AcDbEntity
  8
0
100
AcDbBlockBegin
  2
*Paper_Space0
 70
     0
 71
     0
 10
0.0
 20
0.0
 30
0.0
  3
*Paper_Space0
  1

  0
ENDBLK
  5
25
330
23
100
AcDbEntity
  8
0
100
AcDbBlockEnd
  0
BLOCK
  5
3E
330
3C
100
AcDbEntity
  8
0
100
AcDbBlockBegin
  2
block 2
 70
     0
 71
     0
 10
0.0
 20
0.0
 30
0.0
  3
block 2
  1

  0
SPLINE
  5
40
330
3C
100
AcDbEntity
  8
Layer 1
 62
     7
370
    35
100
AcDbSpline
210
0.0
220
0.0
230
1.0
 70
    11
 71
     3
 72
    11
 73
     7
 74
     0
 42
0.0000000001
 43
0.0000000001
 40
0.0
 40
0.0
 40
0.0
 40
0.0
 40
1.0
 40
1.0
 40
1.0
 40
2.0
 40
2.0
 40
2.0
 40
2.0
 10
1710.700059251144
 20
-2207.808045237979
 30
0.0
 10
1749.876996090309
 20
-2241.266123571628
 30
0.0
 10
1784.015136272746
 20
-2214.036088856213
 30
0.0
 10
1801.640244775284
 20
-2169.732849934997
 30
0.0
 10
1780.186946169537
 20
-2184.282866207402
 30
0.0
 10
1737.519438584717
 20
-2206.106857087362
 30
0.0
 10
1710.700059251144
 20
-2207.808045237979
 30
0.0
  0
SPLINE
  5
41
330
3C
100
AcDbEntity
  8
Layer 1
 62
     7
370
    35
100
AcDbSpline
210
0.0
220
0.0
230
1.0
 70
    11
 71
     3
 72
    11
 73
     7
 74
     0
 42
0.0000000001
 43
0.0000000001
 40
0.0
 40
0.0
 40
0.0
 40
0.0
 40
1.0
 40
1.0
 40
1.0
 40
2.0
 40
2.0
 40
2.0
 40
2.0
 10
1053.092653816588
 20
-2336.24189394719
 30
0.0
 10
1095.069075247066
 20
-2366.120518071664
 30
0.0
 10
1126.673003190554
 20
-2335.983511785796
 30
0.0
 10
1140.32798365589
 20
-2290.300856632286
 30
0.0
 10
1120.238253843204
 20
-2306.688486836522
 30
0.0
 10
1079.661230198835
 20
-2332.182882446468
 30
0.0
 10
1053.092653816588
 20
-2336.24189394719
 30
0.0
  0
SPLINE
  5
42
330
3C
100
AcDbEntity
  8
Layer 1
 62
     7
370
    35
100
AcDbSpline
210
0.0
220
0.0
230
1.0
 70
     8
 71
     3
 72
    38
 73
    34
 74
     0
 42
0.0000000001
 43
0.0000000001
 40
0.0
 40
0.0
 40
0.0
 40
0.0
 40
1.0
 40
1.0
 40
1.0
 40
2.0
 40
2.0
 40
2.0
 40
3.0
 40
3.0
 40
3.0
 40
4.0
 40
4.0
 40
4.0
 40
5.0
 40
5.0
 40
5.0
 40
6.0
 40
6.0
 40
6.0
 40
7.0
 40
7.0
 40
7.0
 40
8.0
 40
8.0
 40
8.0
 40
9.0
 40
9.0
 40
9.0
 40
10.0
 40
10.0
 40
10.0
 40
11.0
 40
11.0
 40
11.0
 40
11.0
 10
1497.026969026785
 20
-1398.883777862085
 30
0.0
 10
1497.026969026785
 20
-1398.883777862085
 30
0.0
 10
1675.188014989189
 20
-1406.860551948632
 30
0.0
 10
1675.188014989189
 20
-1406.860551948632
 30
0.0
 10
1675.188014989189
 20
-1406.860551948632
 30
0.0
 10
1999.607833701487
 20
-1279.22114225832
 30
0.0
 10
1999.607833701487
 20
-1279.22114225832
 30
0.0
 10
1999.607833701487
 20
-1279.22114225832
 30
0.0
 10
2204.424272452366
 20
-1150.149261865241
 30
0.0
 10
2252.224972310208
 20
-1111.694417039785
 30
0.0
 10
2277.852348605884
 20
-1075.82959500014
 30
0.0
 10
2426.401420834372
 20
-718.1370440912991
 30
0.0
 10
2426.401420834372
 20
-718.1370440912991
 30
0.0
 10
2485.787976809109
 20
-667.170301482513
 30
0.0
 10
2535.872085954574
 20
-662.7385306502877
 30
0.0
 10
2592.597650176504
 20
-648.9994898551113
 30
0.0
 10
2592.597650176504
 20
-648.9994898551113
 30
0.0
 10
2515.483321853768
 20
-1106.373811572365
 30
0.0
 10
2515.483321853768
 20
-1106.373811572365
 30
0.0
 10
2536.311680138492
 20
-1116.567849113219
 30
0.0
 10
2526.561370896138
 20
-1134.738660740621
 30
0.0
 10
2495.53897507056
 20
-1154.237901187135
 30
0.0
 10
2495.53897507056
 20
-1154.237901187135
 30
0.0
 10
2587.278422747278
 20
-1127.645209136492
 30
0.0
 10
2587.278422747278
 20
-1127.645209136492
 30
0.0
 10
2587.278422747278
 20
-1127.645209136492
 30
0.0
 10
2863.371131011588
 20
-1251.029236883423
 30
0.0
 10
2861.171093034707
 20
-1276.558083448222
 30
0.0
 10
2845.265776198406
 20
-1310.110557398167
 30
0.0
 10
2771.834254949403
 20
-1358.325357733335
 30
0.0
 10
2709.600672065656
 20
-1370.961278954135
 30
0.0
 10
2631.825574428849
 20
-1363.687993365675
 30
0.0
 10
2410.444427565792
 20
-1285.203206058908
 30
0.0
 10
2310.728205802526
 20
-1257.944232541417
 30
0.0
  0
POLYLINE
  5
43
330
3C
100
AcDbEntity
  8
Layer 1
 62
     7
370
    35
100
AcDb2dPolyline
 66
     1
 10
0.0
 20
0.0
 30
0.0
  0
VERTEX
  5
44
330
43
100
AcDbEntity
  8
Layer 1
 62
     7
370
    35
100
AcDbVertex
100
AcDb2dVertex
 10
2365.239951665635
 20
-1276.561528543707
 30
0.0
  0
VERTEX
  5
45
330
43
100
AcDbEntity
  8
Layer 1
 62
     7
370
    35
100
AcDbVertex
100
AcDb2dVertex
 10
1995.619102148665
 20
-1623.581862658341
 30
0.0
  0
SEQEND
  5
46
330
43
100
AcDbEntity
  8
Layer 1
370
    35
  0
SPLINE
  5
47
330
3C
100
AcDbEntity
  8
Layer 1
 62
     7
370
    35
100
AcDbSpline
210
0.0
220
0.0
230
1.0
 70
     8
 71
     3
 72
    17
 73
    13
 74
     0
 42
0.0000000001
 43
0.0000000001
 40
0.0
 40
0.0
 40
0.0
 40
0.0
 40
1.0
 40
1.0
 40
1.0
 40
2.0
 40
2.0
 40
2.0
 40
3.0
 40
3.0
 40
3.0
 40
4.0
 40
4.0
 40
4.0
 40
4.0
 10
1733.368098524991
 20
-1511.186311471162
 30
0.0
 10
1733.368098524991
 20
-1511.186311471162
 30
0.0
 10
2962.41073602155
 20
-2076.968141841869
 30
0.0
 10
2962.41073602155
 20
-2076.968141841869
 30
0.0
 10
2962.41073602155
 20
-2076.968141841869
 30
0.0
 10
2784.355109980995
 20
-2219.462114245482
 30
0.0
 10
2685.668282748722
 20
-2223.222780477181
 30
0.0
 10
2669.72575888118
 20
-2223.828428263487
 30
0.0
 10
1930.466145350717
 20
-1978.578281840425
 30
0.0
 10
1930.466145350717
 20
-1978.578281840425
 30
0.0
 10
1930.466145350717
 20
-1978.578281840425
 30
0.0
 10
1402.546603382002
 20
-1738.703862412546
 30
0.0
 10
1357.422053697103
 20
-1719.310041887881
 30
0.0
  0
POLYLINE
  5
48
330
3C
100
AcDbEntity
  8
Layer 1
 62
     7
370
    35
100
AcDb2dPolyline
 66
     1
 10
0.0
 20
0.0
 30
0.0
  0
VERTEX
  5
49
330
48
100
AcDbEntity
  8
Layer 1
 62
     7
370
    35
100
AcDbVertex
100
AcDb2dVertex
 10
1809.478526023325
 20
-1925.397720872817
 30
0.0
  0
VERTEX
  5
4A
330
48
100
AcDbEntity
  8
Layer 1
 62
     7
370
    35
100
AcDbVertex
100
AcDb2dVertex
 10
1441.18541630637
 20
-2055.696055258646
 30
0.0
  0
VERTEX
  5
4B
330
48
100
AcDbEntity
  8
Layer 1
 62
     7
370
    35
100
AcDbVertex
100
AcDb2dVertex
 10
1380.026014194924
 20
-2090.263454338545
 30
0.0
  0
SEQEND
  5
4C
330
48
100
AcDbEntity
  8
Layer 1
370
    35
  0
SPLINE
  5
4D
330
3C
100
AcDbEntity
  8
Layer 1
 62
     7
370
    35
100
AcDbSpline
210
0.0
220
0.0
230
1.0
 70
     8
 71
     3
 72
    14
 73
    10
 74
     0
 42
0.0000000001
 43
0.0000000001
 40
0.0
 40
0.0
 40
0.0
 40
0.0
 40
1.0
 40
1.0
 40
1.0
 40
2.0
 40
2.0
 40
2.0
 40
3.0
 40
3.0
 40
3.0
 40
3.0
 10
1381.54047817024
 20
-2091.499554598653
 30
0.0
 10
1277.72872689411
 20
-2137.35101943094
 30
0.0
 10
1167.427793761962
 20
-2180.997623152668
 30
0.0
 10
1047.628732376982
 20
-2206.168868806097
 30
0.0
 10
1011.178244104844
 20
-2207.214110776321
 30
0.0
 10
978.4891110835027
 20
-2212.961908083912
 30
0.0
 10
943.9203339654089
 20
-2204.608929570375
 30
0.0
 10
901.9384003821543
 20
-2193.464045675592
 30
0.0
 10
870.7671764316138
 20
-2177.143939342867
 30
0.0
 10
834.4241751386162
 20
-2151.896901588762
 30
0.0
  0
SPLINE
  5
4E
330
3C
100
AcDbEntity
  8
Layer 1
 62
     7
370
    35
100
AcDbSpline
210
0.0
220
0.0
230
1.0
 70
     8
 71
     3
 72
    29
 73
    25
 74
     0
 42
0.0000000001
 43
0.0000000001
 40
0.0
 40
0.0
 40
0.0
 40
0.0
 40
1.0
 40
1.0
 40
1.0
 40
2.0
 40
2.0
 40
2.0
 40
3.0
 40
3.0
 40
3.0
 40
4.0
 40
4.0
 40
4.0
 40
5.0
 40
5.0
 40
5.0
 40
6.0
 40
6.0
 40
6.0
 40
7.0
 40
7.0
 40
7.0
 40
8.0
 40
8.0
 40
8.0
 40
8.0
 10
785.1772241960668
 20
-2085.806189799729
 30
0.0
 10
764.7374726820796
 20
-2055.052511422001
 30
0.0
 10
756.5174748542735
 20
-2001.733457615886
 30
0.0
 10
783.082606141035
 20
-1965.338090871513
 30
0.0
 10
847.7883895449974
 20
-1892.93183003892
 30
0.0
 10
912.4927949107657
 20
-1837.445811172583
 30
0.0
 10
999.7625757049206
 20
-1779.142393218409
 30
0.0
 10
1019.827500830113
 20
-1706.807101352812
 30
0.0
 10
1034.251426607757
 20
-1655.156851799753
 30
0.0
 10
1076.880349123141
 20
-1590.34358141665
 30
0.0
 10
1076.880349123141
 20
-1590.34358141665
 30
0.0
 10
586.8168943845458
 20
-1371.970002912216
 30
0.0
 10
586.8168943845458
 20
-1371.970002912216
 30
0.0
 10
586.8168943845458
 20
-1371.970002912216
 30
0.0
 10
72.23124998194218
 20
-1077.636203072605
 30
0.0
 10
72.23124998194218
 20
-1077.636203072605
 30
0.0
 10
72.23124998194218
 20
-1077.636203072605
 30
0.0
 10
26.06352538410912
 20
-1054.97229791334
 30
0.0
 10
44.02694226329882
 20
-1010.054453957556
 30
0.0
 10
72.86928166581046
 20
-937.9306909547535
 30
0.0
 10
258.6405435551316
 20
-897.4032766853715
 30
0.0
 10
258.6405435551316
 20
-897.4032766853715
 30
0.0
 10
678.740310160176
 20
-1051.398355856942
 30
0.0
 10
1080.039501683115
 20
-1211.039946528837
 30
0.0
 10
1507.664734866139
 20
-1398.882399823891
 30
0.0
  0
SPLINE
  5
4F
330
3C
100
AcDbEntity
  8
Layer 1
 62
     7
370
    35
100
AcDbSpline
210
0.0
220
0.0
230
1.0
 70
     8
 71
     3
 72
    17
 73
    13
 74
     0
 42
0.0000000001
 43
0.0000000001
 40
0.0
 40
0.0
 40
0.0
 40
0.0
 40
1.0
 40
1.0
 40
1.0
 40
2.0
 40
2.0
 40
2.0
 40
3.0
 40
3.0
 40
3.0
 40
4.0
 40
4.0
 40
4.0
 40
4.0
 10
2138.849635967024
 20
-1185.238248401607
 30
0.0
 10
2138.849635967024
 20
-1185.238248401607
 30
0.0
 10
2001.163638822626
 20
-1092.623746471636
 30
0.0
 10
2001.163638822626
 20
-1092.623746471636
 30
0.0
 10
1984.000173115111
 20
-1080.991726075238
 30
0.0
 10
1965.600607147489
 20
-1075.782052682443
 30
0.0
 10
1963.481184404963
 20
-1052.868722610047
 30
0.0
 10
2022.8677403797
 20
-994.4219886836862
 30
0.0
 10
2067.21438750403
 20
-994.2621362531706
 30
0.0
 10
2130.360920691368
 20
-977.1765297036226
 30
0.0
 10
2130.360920691368
 20
-977.1765297036226
 30
0.0
 10
2288.540412839323
 20
-1027.379839152877
 30
0.0
 10
2288.540412839323
 20
-1027.379839152877
 30
0.0
  0
SPLINE
  5
50
330
3C
100
AcDbEntity
  8
Layer 1
 62
     7
370
    35
100
AcDbSpline
210
0.0
220
0.0
230
1.0
 70
     8
 71
     3
 72
     8
 73
     4
 74
     0
 42
0.0000000001
 43
0.0000000001
 40
0.0
 40
0.0
 40
0.0
 40
0.0
 40
1.0
 40
1.0
 40
1.0
 40
1.0
 10
669.5184785652593
 20
-1411.022916313911
 30
0.0
 10
674.8335718799027
 20
-1421.65723705778
 30
0.0
 10
974.7573836538802
 20
-1789.643733276547
 30
0.0
 10
974.7573836538802
 20
-1789.643733276547
 30
0.0
  0
POLYLINE
  5
51
330
3C
100
AcDbEntity
  8
Layer 1
 62
     7
370
    35
100
AcDb2dPolyline
 66
     1
 10
0.0
 20
0.0
 30
0.0
  0
VERTEX
  5
52
330
51
100
AcDbEntity
  8
Layer 1
 62
     7
370
    35
100
AcDbVertex
100
AcDb2dVertex
 10
761.3530108773701
 20
-1453.434108794628
 30
0.0
  0
VERTEX
  5
53
330
51
100
AcDbEntity
  8
Layer 1
 62
     7
370
    35
100
AcDbVertex
100
AcDb2dVertex
 10
1001.700097405825
 20
-1761.684027337357
 30
0.0
  0
SEQEND
  5
54
330
51
100
AcDbEntity
  8
Layer 1
370
    35
  0
POLYLINE
  5
55
330
3C
100
AcDbEntity
  8
Layer 1
 62
     7
370
    35
100
AcDb2dPolyline
 66
     1
 10
0.0
 20
0.0
 30
0.0
  0
VERTEX
  5
56
330
55
100
AcDbEntity
  8
Layer 1
 62
     7
370
    35
100
AcDbVertex
100
AcDb2dVertex
 10
1773.580631067022
 20
-1910.771912499738
 30
0.0
  0
VERTEX
  5
57
330
55
100
AcDbEntity
  8
Layer 1
 62
     7
370
    35
100
AcDbVertex
100
AcDb2dVertex
 10
1441.18541630637
 20
-2031.762976922615
 30
0.0
  0
SEQEND
  5
58
330
55
100
AcDbEntity
  8
Layer 1
370
    35
  0
SPLINE
  5
59
330
3C
100
AcDbEntity
  8
Layer 1
 62
     7
370
    35
100
AcDbSpline
210
0.0
220
0.0
230
1.0
 70
     8
 71
     3
 72
     8
 73
     4
 74
     0
 42
0.0000000001
 43
0.0000000001
 40
0.0
 40
0.0
 40
0.0
 40
0.0
 40
1.0
 40
1.0
 40
1.0
 40
1.0
 10
2310.728205802526
 20
-1256.617181760499
 30
0.0
 10
2313.38988657443
 20
-1222.049782680599
 30
0.0
 10
2495.53897507056
 20
-1154.239279225329
 30
0.0
 10
2495.53897507056
 20
-1154.239279225329
 30
0.0
  0
POLYLINE
  5
5A
330
3C
100
AcDbEntity
  8
Layer 1
 62
     7
370
    35
100
AcDb2dPolyline
 66
     1
 10
0.0
 20
0.0
 30
0.0
  0
VERTEX
  5
5B
330
5A
100
AcDbEntity
  8
Layer 1
 62
     7
370
    35
100
AcDbVertex
100
AcDb2dVertex
 10
2447.672818398499
 20
-1172.853819151231
 30
0.0
  0
VERTEX
  5
5C
330
5A
100
AcDbEntity
  8
Layer 1
 62
     7
370
    35
100
AcDbVertex
100
AcDb2dVertex
 10
2815.96661713455
 20
-1317.777961910139
 30
0.0
  0
SEQEND
  5
5D
330
5A
100
AcDbEntity
  8
Layer 1
370
    35
  0
SPLINE
  5
5E
330
3C
100
AcDbEntity
  8
Layer 1
 62
     7
370
    35
100
AcDbSpline
210
0.0
220
0.0
230
1.0
 70
     8
 71
     3
 72
     8
 73
     4
 74
     0
 42
0.0000000001
 43
0.0000000001
 40
0.0
 40
0.0
 40
0.0
 40
0.0
 40
1.0
 40
1.0
 40
1.0
 40
1.0
 10
2526.121087693123
 20
-703.5133027755106
 30
0.0
 10
2523.460095940316
 20
-712.8198837193645
 30
0.0
 10
2407.78688090847
 20
-1151.580354529813
 30
0.0
 10
2407.78688090847
 20
-1151.580354529813
 30
0.0
  0
SPLINE
  5
5F
330
3C
100
AcDbEntity
  8
Layer 1
 62
     7
370
    35
100
AcDbSpline
210
0.0
220
0.0
230
1.0
 70
     8
 71
     3
 72
     8
 73
     4
 74
     0
 42
0.0000000001
 43
0.0000000001
 40
0.0
 40
0.0
 40
0.0
 40
0.0
 40
1.0
 40
1.0
 40
1.0
 40
1.0
 10
2421.082193405146
 20
-732.7628524643787
 30
0.0
 10
2458.310584237853
 20
-750.0482745520713
 30
0.0
 10
2589.940103519182
 20
-663.6252982281909
 30
0.0
 10
2589.940103519182
 20
-663.6252982281909
 30
0.0
  0
SPLINE
  5
60
330
3C
100
AcDbEntity
  8
Layer 1
 62
     7
370
    35
100
AcDbSpline
210
0.0
220
0.0
230
1.0
 70
     8
 71
     3
 72
    14
 73
    10
 74
     0
 42
0.0000000001
 43
0.0000000001
 40
0.0
 40
0.0
 40
0.0
 40
0.0
 40
1.0
 40
1.0
 40
1.0
 40
2.0
 40
2.0
 40
2.0
 40
3.0
 40
3.0
 40
3.0
 40
3.0
 10
1999.607833701487
 20
-1280.550260096529
 30
0.0
 10
1992.958110395858
 20
-1280.550260096529
 30
0.0
 10
1836.069151016677
 20
-1388.242566927245
 30
0.0
 10
1836.069151016677
 20
-1388.242566927245
 30
0.0
 10
1821.406824631454
 20
-1396.942811065695
 30
0.0
 10
1823.119037087623
 20
-1411.08148293716
 30
0.0
 10
1845.375731960531
 20
-1402.868375300325
 30
0.0
 10
1845.375731960531
 20
-1402.868375300325
 30
0.0
 10
2511.495279320043
 20
-1109.032736267881
 30
0.0
 10
2511.495279320043
 20
-1109.032736267881
 30
0.0
  0
SPLINE
  5
61
330
3C
100
AcDbEntity
  8
Layer 1
 62
     7
370
    35
100
AcDbSpline
210
0.0
220
0.0
230
1.0
 70
     8
 71
     3
 72
     8
 73
     4
 74
     0
 42
0.0000000001
 43
0.0000000001
 40
0.0
 40
0.0
 40
0.0
 40
0.0
 40
1.0
 40
1.0
 40
1.0
 40
1.0
 10
2035.505039638693
 20
-1002.667480218083
 30
0.0
 10
2043.481813725241
 20
-1007.986018628212
 30
0.0
 10
2257.543510720337
 20
-1103.716264915043
 30
0.0
 10
2257.543510720337
 20
-1103.716264915043
 30
0.0
  0
SPLINE
  5
62
330
3C
100
AcDbEntity
  8
Layer 1
 62
     7
370
    35
100
AcDbSpline
210
0.0
220
0.0
230
1.0
 70
     8
 71
     3
 72
    14
 73
    10
 74
     0
 42
0.0000000001
 43
0.0000000001
 40
0.0
 40
0.0
 40
0.0
 40
0.0
 40
1.0
 40
1.0
 40
1.0
 40
2.0
 40
2.0
 40
2.0
 40
3.0
 40
3.0
 40
3.0
 40
3.0
 10
1356.858436075716
 20
-1718.295805777023
 30
0.0
 10
1342.405571495996
 20
-1702.781162768749
 30
0.0
 10
1361.374267237781
 20
-1664.883734392807
 30
0.0
 10
1376.763508770392
 20
-1648.494726150376
 30
0.0
 10
1430.974842307187
 20
-1669.301035823994
 30
0.0
 10
1922.049777080251
 20
-1898.577652520147
 30
0.0
 10
1922.049777080251
 20
-1898.577652520147
 30
0.0
 10
1922.049777080251
 20
-1898.577652520147
 30
0.0
 10
2687.33639798268
 20
-2169.340109049679
 30
0.0
 10
2687.33639798268
 20
-2169.340109049679
 30
0.0
  0
SPLINE
  5
63
330
3C
100
AcDbEntity
  8
Layer 1
 62
     7
370
    35
100
AcDbSpline
210
0.0
220
0.0
230
1.0
 70
     8
 71
     3
 72
     8
 73
     4
 74
     0
 42
0.0000000001
 43
0.0000000001
 40
0.0
 40
0.0
 40
0.0
 40
0.0
 40
1.0
 40
1.0
 40
1.0
 40
1.0
 10
2661.011734360789
 20
-2201.307839076409
 30
0.0
 10
2651.610068781542
 20
-2152.42055610252
 30
0.0
 10
2888.528596283076
 20
-2058.404589329149
 30
0.0
 10
2888.528596283076
 20
-2058.404589329149
 30
0.0
  0
POLYLINE
  5
64
330
3C
100
AcDbEntity
  8
Layer 1
 62
     7
370
    35
100
AcDb2dPolyline
 66
     1
 10
0.0
 20
0.0
 30
0.0
  0
VERTEX
  5
65
330
64
100
AcDbEntity
  8
Layer 1
 62
     7
370
    35
100
AcDbVertex
100
AcDb2dVertex
 10
2845.283690694929
 20
-2073.445187198653
 30
0.0
  0
VERTEX
  5
66
330
64
100
AcDbEntity
  8
Layer 1
 62
     7
370
    35
100
AcDbVertex
100
AcDb2dVertex
 10
2183.414702145119
 20
-1763.195046217187
 30
0.0
  0
SEQEND
  5
67
330
64
100
AcDbEntity
  8
Layer 1
370
    35
  0
SPLINE
  5
68
330
3C
100
AcDbEntity
  8
Layer 1
 62
     7
370
    35
100
AcDbSpline
210
0.0
220
0.0
230
1.0
 70
     8
 71
     3
 72
    20
 73
    16
 74
     0
 42
0.0000000001
 43
0.0000000001
 40
0.0
 40
0.0
 40
0.0
 40
0.0
 40
1.0
 40
1.0
 40
1.0
 40
2.0
 40
2.0
 40
2.0
 40
3.0
 40
3.0
 40
3.0
 40
4.0
 40
4.0
 40
4.0
 40
5.0
 40
5.0
 40
5.0
 40
5.0
 10
2226.663052828751
 20
-1736.871760633491
 30
0.0
 10
2226.663052828751
 20
-1736.871760633491
 30
0.0
 10
2155.209705407378
 20
-1781.999755413875
 30
0.0
 10
2149.570773117121
 20
-1774.477733931381
 30
0.0
 10
2143.928395731379
 20
-1766.955712448886
 30
0.0
 10
1636.243966604828
 20
-1541.318494623351
 30
0.0
 10
1636.243966604828
 20
-1541.318494623351
 30
0.0
 10
1636.243966604828
 20
-1541.318494623351
 30
0.0
 10
1692.80554428166
 20
-1529.259282386782
 30
0.0
 10
1734.018532552607
 20
-1511.233853788858
 30
0.0
 10
1749.444292097361
 20
-1494.76491933117
 30
0.0
 10
1728.834352866403
 20
-1487.66457753607
 30
0.0
 10
1702.054936640459
 20
-1469.866525240172
 30
0.0
 10
1676.36968274063
 20
-1452.797455148954
 30
0.0
 10
1506.500981611222
 20
-1398.415244876091
 30
0.0
 10
1506.500981611222
 20
-1398.415244876091
 30
0.0
  0
SPLINE
  5
69
330
3C
100
AcDbEntity
  8
Layer 1
 62
     7
370
    35
100
AcDbSpline
210
0.0
220
0.0
230
1.0
 70
     8
 71
     3
 72
     8
 73
     4
 74
     0
 42
0.0000000001
 43
0.0000000001
 40
0.0
 40
0.0
 40
0.0
 40
0.0
 40
1.0
 40
1.0
 40
1.0
 40
1.0
 10
54.90724282481486
 20
-1044.918131249187
 30
0.0
 10
47.38522134232036
 20
-1001.671158603749
 30
0.0
 10
271.1414170329091
 20
-920.8182126604205
 30
0.0
 10
271.1414170329091
 20
-920.8182126604205
 30
0.0
  0
SPLINE
  5
6A
330
3C
100
AcDbEntity
  8
Layer 1
 62
     7
370
    35
100
AcDbSpline
210
0.0
220
0.0
230
1.0
 70
     8
 71
     3
 72
    14
 73
    10
 74
     0
 42
0.0000000001
 43
0.0000000001
 40
0.0
 40
0.0
 40
0.0
 40
0.0
 40
1.0
 40
1.0
 40
1.0
 40
2.0
 40
2.0
 40
2.0
 40
3.0
 40
3.0
 40
3.0
 40
3.0
 10
71.82955184836206
 20
-1011.070757125705
 30
0.0
 10
71.82955184836206
 20
-1011.070757125705
 30
0.0
 10
641.5608396833599
 20
-1326.965342550203
 30
0.0
 10
641.5608396833599
 20
-1326.965342550203
 30
0.0
 10
641.5608396833599
 20
-1326.965342550203
 30
0.0
 10
1025.146039240241
 20
-1480.208012867795
 30
0.0
 10
1137.964648153009
 20
-1539.436783469308
 30
0.0
 10
1116.494813088932
 20
-1549.473035636937
 30
0.0
 10
1104.174462614581
 20
-1556.281922353985
 30
0.0
 10
1076.883794218626
 20
-1589.143999168686
 30
0.0
  0
SPLINE
  5
6B
330
3C
100
AcDbEntity
  8
Layer 1
 62
     7
370
    35
100
AcDbSpline
210
0.0
220
0.0
230
1.0
 70
     8
 71
     3
 72
     8
 73
     4
 74
     0
 42
0.0000000001
 43
0.0000000001
 40
0.0
 40
0.0
 40
0.0
 40
0.0
 40
1.0
 40
1.0
 40
1.0
 40
1.0
 10
1350.438156129404
 20
-1430.38090784553
 30
0.0
 10
1276.32726205071
 20
-1450.454790218984
 30
0.0
 10
1196.899207600081
 20
-1489.143901537436
 30
0.0
 10
1128.106851931515
 20
-1531.823811466003
 30
0.0
  0
SPLINE
  5
6C
330
3C
100
AcDbEntity
  8
Layer 1
 62
     7
370
    35
100
AcDbSpline
210
0.0
220
0.0
230
1.0
 70
     8
 71
     3
 72
    14
 73
    10
 74
     0
 42
0.0000000001
 43
0.0000000001
 40
0.0
 40
0.0
 40
0.0
 40
0.0
 40
1.0
 40
1.0
 40
1.0
 40
2.0
 40
2.0
 40
2.0
 40
3.0
 40
3.0
 40
3.0
 40
3.0
 10
1011.981640372005
 20
-1187.821380996447
 30
0.0
 10
1002.579974792758
 20
-1189.7010250932
 30
0.0
 10
901.0440535941834
 20
-1214.146044618338
 30
0.0
 10
901.0440535941834
 20
-1214.146044618338
 30
0.0
 10
901.0440535941834
 20
-1214.146044618338
 30
0.0
 10
1373.000775481403
 20
-1430.38090784553
 30
0.0
 10
1380.522796963897
 20
-1424.738530459788
 30
0.0
 10
1388.044818446392
 20
-1419.097531112239
 30
0.0
 10
1506.032448625228
 20
-1398.415244876091
 30
0.0
 10
1506.032448625228
 20
-1398.415244876091
 30
0.0
  0
POLYLINE
  5
6D
330
3C
100
AcDbEntity
  8
Layer 1
 62
     7
370
    35
100
AcDb2dPolyline
 66
     1
 10
0.0
 20
0.0
 30
0.0
  0
VERTEX
  5
6E
330
6D
100
AcDbEntity
  8
Layer 1
 62
     7
370
    35
100
AcDbVertex
100
AcDb2dVertex
 10
929.250428370118
 20
-1204.743001000898
 30
0.0
  0
VERTEX
  5
6F
330
6D
100
AcDbEntity
  8
Layer 1
 62
     7
370
    35
100
AcDbVertex
100
AcDb2dVertex
 10
252.3394639126096
 20
-930.2178111823762
 30
0.0
  0
SEQEND
  5
70
330
6D
100
AcDbEntity
  8
Layer 1
370
    35
  0
SPLINE
  5
71
330
3C
100
AcDbEntity
  8
Layer 1
 62
     7
370
    35
100
AcDbSpline
210
0.0
220
0.0
230
1.0
 70
     8
 71
     3
 72
     8
 73
     4
 74
     0
 42
0.0000000001
 43
0.0000000001
 40
0.0
 40
0.0
 40
0.0
 40
0.0
 40
1.0
 40
1.0
 40
1.0
 40
1.0
 10
1250.136957152744
 20
-2015.801160520355
 30
0.0
 10
1179.613785512388
 20
-2064.388720187028
 30
0.0
 10
1008.205815720171
 20
-2150.726258142874
 30
0.0
 10
948.6063528444457
 20
-2122.656309148155
 30
0.0
  0
SPLINE
  5
72
330
3C
100
AcDbEntity
  8
Layer 1
 62
     7
370
    35
100
AcDbSpline
210
0.0
220
0.0
230
1.0
 70
     8
 71
     3
 72
     8
 73
     4
 74
     0
 42
0.0000000001
 43
0.0000000001
 40
0.0
 40
0.0
 40
0.0
 40
0.0
 40
1.0
 40
1.0
 40
1.0
 40
1.0
 10
770.0677244168581
 20
-1989.059640344749
 30
0.0
 10
870.3544539924809
 20
-1941.692333498952
 30
0.0
 10
1106.399305278956
 20
-2161.255158964895
 30
0.0
 10
942.2370603113158
 20
-2205.199418936547
 30
0.0
  0
SPLINE
  5
73
330
3C
100
AcDbEntity
  8
Layer 1
 62
     7
370
    35
100
AcDbSpline
210
0.0
220
0.0
230
1.0
 70
     8
 71
     3
 72
    11
 73
     7
 74
     0
 42
0.0000000001
 43
0.0000000001
 40
0.0
 40
0.0
 40
0.0
 40
0.0
 40
1.0
 40
1.0
 40
1.0
 40
2.0
 40
2.0
 40
2.0
 40
2.0
 10
980.5306746680618
 20
-1794.608115870793
 30
0.0
 10
1103.968445904563
 20
-1785.11205467525
 30
0.0
 10
1258.058609711527
 20
-1889.718244970279
 30
0.0
 10
1252.663590181626
 20
-1994.47119633298
 30
0.0
 10
1248.940820000265
 20
-2068.088063719089
 30
0.0
 10
1239.138834325632
 20
-2129.341861446831
 30
0.0
 10
1220.336192186235
 20
-2153.787569991067
 30
0.0
  0
SPLINE
  5
74
330
3C
100
AcDbEntity
  8
Layer 1
 62
     7
370
    35
100
AcDbSpline
210
0.0
220
0.0
230
1.0
 70
     8
 71
     3
 72
     8
 73
     4
 74
     0
 42
0.0000000001
 43
0.0000000001
 40
0.0
 40
0.0
 40
0.0
 40
0.0
 40
1.0
 40
1.0
 40
1.0
 40
1.0
 10
1406.847460585788
 20
-2005.75457306627
 30
0.0
 10
1406.847460585788
 20
-1996.352907487023
 30
0.0
 10
1411.708490315476
 20
-1748.018022566468
 30
0.0
 10
1411.708490315476
 20
-1748.018022566468
 30
0.0
  0
SPLINE
  5
75
330
3C
100
AcDbEntity
  8
Layer 1
 62
     7
370
    35
100
AcDbSpline
210
0.0
220
0.0
230
1.0
 70
     8
 71
     3
 72
     8
 73
     4
 74
     0
 42
0.0000000001
 43
0.0000000001
 40
0.0
 40
0.0
 40
0.0
 40
0.0
 40
1.0
 40
1.0
 40
1.0
 40
1.0
 10
1382.177131815914
 20
-2088.299749911953
 30
0.0
 10
1372.073355776773
 20
-2064.083484727035
 30
0.0
 10
1409.963204942648
 20
-2027.446272279597
 30
0.0
 10
1440.598372035684
 20
-2032.859206306021
 30
0.0
  0
SPLINE
  5
76
330
3C
100
AcDbEntity
  8
Layer 1
 62
     7
370
    35
100
AcDbSpline
210
0.0
220
0.0
230
1.0
 70
     8
 71
     3
 72
     8
 73
     4
 74
     0
 42
0.0000000001
 43
0.0000000001
 40
0.0
 40
0.0
 40
0.0
 40
0.0
 40
1.0
 40
1.0
 40
1.0
 40
1.0
 10
1612.183419735843
 20
-1551.588324264881
 30
0.0
 10
1538.072525657149
 20
-1571.66082860014
 30
0.0
 10
1458.643782187422
 20
-1610.35062893769
 30
0.0
 10
1389.851426518857
 20
-1653.028471808965
 30
0.0
  0
POLYLINE
  5
77
330
3C
100
AcDbEntity
  8
Layer 1
 62
     7
370
    35
100
AcDb2dPolyline
 66
     1
 10
0.0
 20
0.0
 30
0.0
  0
VERTEX
  5
78
330
77
100
AcDbEntity
  8
Layer 1
 62
     7
370
    35
100
AcDbVertex
100
AcDb2dVertex
 10
1120.779822853486
 20
-1547.767713371739
 30
0.0
  0
VERTEX
  5
79
330
77
100
AcDbEntity
  8
Layer 1
 62
     7
370
    35
100
AcDbVertex
100
AcDb2dVertex
 10
1366.163638981376
 20
-1659.977918421811
 30
0.0
  0
SEQEND
  5
7A
330
77
100
AcDbEntity
  8
Layer 1
370
    35
  0
POLYLINE
  5
7B
330
3C
100
AcDbEntity
  8
Layer 1
 62
     7
370
    35
100
AcDb2dPolyline
 66
     1
 10
0.0
 20
0.0
 30
0.0
  0
VERTEX
  5
7C
330
7B
100
AcDbEntity
  8
Layer 1
 62
     7
370
    35
100
AcDbVertex
100
AcDb2dVertex
 10
1129.094216297588
 20
-1585.95039565386
 30
0.0
  0
VERTEX
  5
7D
330
7B
100
AcDbEntity
  8
Layer 1
 62
     7
370
    35
100
AcDbVertex
100
AcDb2dVertex
 10
1340.485964291615
 20
-1681.705446628185
 30
0.0
  0
SEQEND
  5
7E
330
7B
100
AcDbEntity
  8
Layer 1
370
    35
  0
SPLINE
  5
7F
330
3C
100
AcDbEntity
  8
Layer 1
 62
     7
370
    35
100
AcDbSpline
210
0.0
220
0.0
230
1.0
 70
     8
 71
     3
 72
    14
 73
    10
 74
     0
 42
0.0000000001
 43
0.0000000001
 40
0.0
 40
0.0
 40
0.0
 40
0.0
 40
1.0
 40
1.0
 40
1.0
 40
2.0
 40
2.0
 40
2.0
 40
3.0
 40
3.0
 40
3.0
 40
3.0
 10
999.8714407222544
 20
-1776.79008202108
 30
0.0
 10
1096.217670081848
 20
-1764.021869133647
 30
0.0
 10
1218.892697177916
 20
-1855.667610213166
 30
0.0
 10
1255.75728592738
 20
-1876.646174661047
 30
0.0
 10
1297.819145725892
 20
-1880.328981734779
 30
0.0
 10
1338.030300229729
 20
-1884.204714155685
 30
0.0
 10
1385.895767882693
 20
-1854.95447544772
 30
0.0
 10
1389.102462760363
 20
-1810.191660788772
 30
0.0
 10
1388.506461241415
 20
-1810.246093297439
 30
0.0
 10
1389.867962977186
 20
-1734.366487196617
 30
0.0
  0
SPLINE
  5
80
330
3C
100
AcDbEntity
  8
Layer 1
 62
     7
370
    35
100
AcDbSpline
210
0.0
220
0.0
230
1.0
 70
     8
 71
     3
 72
    11
 73
     7
 74
     0
 42
0.0000000001
 43
0.0000000001
 40
0.0
 40
0.0
 40
0.0
 40
0.0
 40
1.0
 40
1.0
 40
1.0
 40
2.0
 40
2.0
 40
2.0
 40
2.0
 10
1028.208729126628
 20
-1759.293820089691
 30
0.0
 10
1062.981455897449
 20
-1698.414848750744
 30
0.0
 10
1108.560758186401
 20
-1722.560144968666
 30
0.0
 10
1194.099723008767
 20
-1747.731390622095
 30
0.0
 10
1280.650167865601
 20
-1773.20029252545
 30
0.0
 10
1329.5119571329
 20
-1830.193196157035
 30
0.0
 10
1321.520713645314
 20
-1862.100292503225
 30
0.0
  0
POLYLINE
  5
81
330
3C
100
AcDbEntity
  8
Layer 1
 62
     7
370
    35
100
AcDb2dPolyline
 66
     1
 10
0.0
 20
0.0
 30
0.0
  0
VERTEX
  5
82
330
81
100
AcDbEntity
  8
Layer 1
 62
     7
370
    35
100
AcDbVertex
100
AcDb2dVertex
 10
1224.355240579328
 20
-1698.601572926044
 30
0.0
  0
VERTEX
  5
83
330
81
100
AcDbEntity
  8
Layer 1
 62
     7
370
    35
100
AcDbVertex
100
AcDb2dVertex
 10
1144.861729314479
 20
-1731.602142579252
 30
0.0
  0
SEQEND
  5
84
330
81
100
AcDbEntity
  8
Layer 1
370
    35
  0
POLYLINE
  5
85
330
3C
100
AcDbEntity
  8
Layer 1
 62
     7
370
    35
100
AcDb2dPolyline
 66
     1
 10
0.0
 20
0.0
 30
0.0
  0
VERTEX
  5
86
330
85
100
AcDbEntity
  8
Layer 1
 62
     7
370
    35
100
AcDbVertex
100
AcDb2dVertex
 10
1117.074967168648
 20
-1610.354074033175
 30
0.0
  0
VERTEX
  5
87
330
85
100
AcDbEntity
  8
Layer 1
 62
     7
370
    35
100
AcDbVertex
100
AcDb2dVertex
 10
1112.845078931858
 20
-1722.238373050343
 30
0.0
  0
SEQEND
  5
88
330
85
100
AcDbEntity
  8
Layer 1
370
    35
  0
POLYLINE
  5
89
330
3C
100
AcDbEntity
  8
Layer 1
 62
     7
370
    35
100
AcDb2dPolyline
 66
     1
 10
0.0
 20
0.0
 30
0.0
  0
VERTEX
  5
8A
330
89
100
AcDbEntity
  8
Layer 1
 62
     7
370
    35
100
AcDbVertex
100
AcDb2dVertex
 10
1090.32448974478
 20
-1667.63429862823
 30
0.0
  0
VERTEX
  5
8B
330
89
100
AcDbEntity
  8
Layer 1
 62
     7
370
    35
100
AcDbVertex
100
AcDb2dVertex
 10
1089.543142088725
 20
-1720.051426436307
 30
0.0
  0
SEQEND
  5
8C
330
89
100
AcDbEntity
  8
Layer 1
370
    35
  0
SPLINE
  5
8D
330
3C
100
AcDbEntity
  8
Layer 1
 62
     7
370
    35
100
AcDbSpline
210
0.0
220
0.0
230
1.0
 70
    11
 71
     3
 72
    17
 73
    13
 74
     0
 42
0.0000000001
 43
0.0000000001
 40
0.0
 40
0.0
 40
0.0
 40
0.0
 40
1.0
 40
1.0
 40
1.0
 40
2.0
 40
2.0
 40
2.0
 40
3.0
 40
3.0
 40
3.0
 40
4.0
 40
4.0
 40
4.0
 40
4.0
 10
1215.142366232673
 20
-1526.212439939628
 30
0.0
 10
1239.047883804821
 20
-1514.840179742818
 30
0.0
 10
1284.478357968811
 20
-1499.087136126964
 30
0.0
 10
1313.504665470235
 20
-1487.588096416298
 30
0.0
 10
1326.465114685745
 20
-1482.698127884534
 30
0.0
 10
1380.834922614861
 20
-1485.199267206825
 30
0.0
 10
1356.077088419661
 20
-1506.309434302242
 30
0.0
 10
1320.455490121275
 20
-1520.693396972257
 30
0.0
 10
1282.602158967544
 20
-1542.583533685535
 30
0.0
 10
1240.149625341004
 20
-1556.227489845318
 30
0.0
 10
1171.145051790547
 20
-1554.282388934346
 30
0.0
 10
1205.740700653426
 20
-1526.84702652801
 30
0.0
 10
1215.142366232673
 20
-1526.212439939628
 30
0.0
  0
SPLINE
  5
8E
330
3C
100
AcDbEntity
  8
Layer 1
 62
     7
370
    35
100
AcDbSpline
210
0.0
220
0.0
230
1.0
 70
    11
 71
     3
 72
    20
 73
    16
 74
     0
 42
0.0000000001
 43
0.0000000001
 40
0.0
 40
0.0
 40
0.0
 40
0.0
 40
1.0
 40
1.0
 40
1.0
 40
2.0
 40
2.0
 40
2.0
 40
3.0
 40
3.0
 40
3.0
 40
4.0
 40
4.0
 40
4.0
 40
5.0
 40
5.0
 40
5.0
 40
5.0
 10
1708.09694510249
 20
-2074.641324351132
 30
0.0
 10
1674.191693374855
 20
-2090.597628600614
 30
0.0
 10
1642.947433400027
 20
-2186.325807830155
 30
0.0
 10
1681.172145847068
 20
-2206.270154613363
 30
0.0
 10
1725.344471139844
 20
-2215.67182019261
 30
0.0
 10
1825.514756488066
 20
-2164.777424589014
 30
0.0
 10
1857.67541186197
 20
-2119.515071084705
 30
0.0
 10
1884.596766021906
 20
-2081.621087804248
 30
0.0
 10
1889.584575265451
 20
-2033.424890984699
 30
0.0
 10
1857.67541186197
 20
-2032.428569370365
 30
0.0
 10
1823.770160134335
 20
-2042.399364723775
 30
0.0
 10
1789.159352851321
 20
-2051.602592803072
 30
0.0
 10
1758.951377598457
 20
-2051.04242027717
 30
0.0
 10
1739.210291448878
 20
-2050.677240155734
 30
0.0
 10
1724.718841799723
 20
-2063.670762287902
 30
0.0
 10
1708.09694510249
 20
-2074.641324351132
 30
0.0
  0
SPLINE
  5
8F
330
3C
100
AcDbEntity
  8
Layer 1
 62
     7
370
    35
100
AcDbSpline
210
0.0
220
0.0
230
1.0
 70
     8
 71
     3
 72
    14
 73
    10
 74
     0
 42
0.0000000001
 43
0.0000000001
 40
0.0
 40
0.0
 40
0.0
 40
0.0
 40
1.0
 40
1.0
 40
1.0
 40
2.0
 40
2.0
 40
2.0
 40
3.0
 40
3.0
 40
3.0
 40
3.0
 10
1059.085741922729
 20
-2205.667262903444
 30
0.0
 10
1006.359244540077
 20
-2227.367919365033
 30
0.0
 10
976.6528751898646
 20
-2334.758435831241
 30
0.0
 10
1030.275786417778
 20
-2338.665174111514
 30
0.0
 10
1099.416785749451
 20
-2335.991090995863
 30
0.0
 10
1152.168776838694
 20
-2277.476833197992
 30
0.0
 10
1185.447021188013
 20
-2251.826030253016
 30
0.0
 10
1234.434900950072
 20
-2214.06709471558
 30
0.0
 10
1209.353227779259
 20
-2160.931319989281
 30
0.0
 10
1209.353227779259
 20
-2160.931319989281
 30
0.0
  0
SPLINE
  5
90
330
3C
100
AcDbEntity
  8
Layer 1
 62
     7
370
    35
100
AcDbSpline
210
0.0
220
0.0
230
1.0
 70
     8
 71
     3
 72
    11
 73
     7
 74
     0
 42
0.0000000001
 43
0.0000000001
 40
0.0
 40
0.0
 40
0.0
 40
0.0
 40
1.0
 40
1.0
 40
1.0
 40
2.0
 40
2.0
 40
2.0
 40
2.0
 10
1696.318163638421
 20
-1876.108050746251
 30
0.0
 10
1681.019183607523
 20
-1897.89276753768
 30
0.0
 10
1648.197758919548
 20
-1911.334841102027
 30
0.0
 10
1635.022335745758
 20
-1926.659314839516
 30
0.0
 10
1642.998420813209
 20
-1945.273165746321
 30
0.0
 10
1648.288709440358
 20
-1953.867300943825
 30
0.0
 10
1648.288709440358
 20
-1953.867300943825
 30
0.0
  0
SPLINE
  5
91
330
3C
100
AcDbEntity
  8
Layer 1
 62
     7
370
    35
100
AcDbSpline
210
0.0
220
0.0
230
1.0
 70
     8
 71
     3
 72
     8
 73
     4
 74
     0
 42
0.0000000001
 43
0.0000000001
 40
0.0
 40
0.0
 40
0.0
 40
0.0
 40
1.0
 40
1.0
 40
1.0
 40
1.0
 10
1571.079985501327
 20
-1966.077408362647
 30
0.0
 10
1571.374196655768
 20
-1932.610372780736
 30
0.0
 10
1623.188432753925
 20
-1924.001768182194
 30
0.0
 10
1638.366834442839
 20
-1921.369026212366
 30
0.0
  0
SPLINE
  5
92
330
3C
100
AcDbEntity
  8
Layer 1
 62
     7
370
    35
100
AcDbSpline
210
0.0
220
0.0
230
1.0
 70
     8
 71
     3
 72
     8
 73
     4
 74
     0
 42
0.0000000001
 43
0.0000000001
 40
0.0
 40
0.0
 40
0.0
 40
0.0
 40
1.0
 40
1.0
 40
1.0
 40
1.0
 10
1215.398681336775
 20
-2196.77409341782
 30
0.0
 10
1155.688286386425
 20
-2254.76331866374
 30
0.0
 10
1062.781640359305
 20
-2327.469302803549
 30
0.0
 10
1003.178043368997
 20
-2308.800330368981
 30
0.0
  0
SPLINE
  5
93
330
3C
100
AcDbEntity
  8
Layer 1
 62
     7
370
    35
100
AcDbSpline
210
0.0
220
0.0
230
1.0
 70
     8
 71
     3
 72
     8
 73
     4
 74
     0
 42
0.0000000001
 43
0.0000000001
 40
0.0
 40
0.0
 40
0.0
 40
0.0
 40
1.0
 40
1.0
 40
1.0
 40
1.0
 10
1875.856558775828
 20
-2081.279334332111
 30
0.0
 10
1818.9670080088
 20
-2128.458538964413
 30
0.0
 10
1692.217121972779
 20
-2195.522145718481
 30
0.0
 10
1664.106520851335
 20
-2163.221619467875
 30
0.0
  0
SPLINE
  5
94
330
3C
100
AcDbEntity
  8
Layer 1
 62
     7
370
    35
100
AcDbSpline
210
0.0
220
0.0
230
1.0
 70
     8
 71
     3
 72
     8
 73
     4
 74
     0
 42
0.0000000001
 43
0.0000000001
 40
0.0
 40
0.0
 40
0.0
 40
0.0
 40
1.0
 40
1.0
 40
1.0
 40
1.0
 10
1609.922059059325
 20
-1995.882307443738
 30
0.0
 10
1612.270925161168
 20
-1999.645040732728
 30
0.0
 10
1687.95209376204
 20
-2092.719118400431
 30
0.0
 10
1687.95209376204
 20
-2092.719118400431
 30
0.0
  0
SPLINE
  5
95
330
3C
100
AcDbEntity
  8
Layer 1
 62
     7
370
    35
100
AcDbSpline
210
0.0
220
0.0
230
1.0
 70
     8
 71
     3
 72
     8
 73
     4
 74
     0
 42
0.0000000001
 43
0.0000000001
 40
0.0
 40
0.0
 40
0.0
 40
0.0
 40
1.0
 40
1.0
 40
1.0
 40
1.0
 10
1663.979741337477
 20
-1977.081043342535
 30
0.0
 10
1666.331363515709
 20
-1983.191953714271
 30
0.0
 10
1718.509401697109
 20
-2066.393765759443
 30
0.0
 10
1718.509401697109
 20
-2066.393765759443
 30
0.0
  0
SPLINE
  5
96
330
3C
100
AcDbEntity
  8
Layer 1
 62
     7
370
    35
100
AcDbSpline
210
0.0
220
0.0
230
1.0
 70
     8
 71
     3
 72
    14
 73
    10
 74
     0
 42
0.0000000001
 43
0.0000000001
 40
0.0
 40
0.0
 40
0.0
 40
0.0
 40
1.0
 40
1.0
 40
1.0
 40
2.0
 40
2.0
 40
2.0
 40
3.0
 40
3.0
 40
3.0
 40
3.0
 10
1431.29179109183
 20
-1753.795447695232
 30
0.0
 10
1431.762391135115
 20
-1766.719378898598
 30
0.0
 10
1431.527435623021
 20
-1815.374462436781
 30
0.0
 10
1431.996657628112
 20
-1826.715716774224
 30
0.0
 10
1432.467257671397
 20
-1836.175259957623
 30
0.0
 10
1437.402701463566
 20
-1835.588215686936
 30
0.0
 10
1445.393944951152
 20
-1833.706504532893
 30
0.0
 10
1468.428542384629
 20
-1826.18655010769
 30
0.0
 10
1508.853292808551
 20
-1802.212130625836
 30
0.0
 10
1525.776979870292
 20
-1796.102598292294
 30
0.0
  0
SPLINE
  5
97
330
3C
100
AcDbEntity
  8
Layer 1
 62
     7
370
    35
100
AcDbSpline
210
0.0
220
0.0
230
1.0
 70
    11
 71
     3
 72
    17
 73
    13
 74
     0
 42
0.0000000001
 43
0.0000000001
 40
0.0
 40
0.0
 40
0.0
 40
0.0
 40
1.0
 40
1.0
 40
1.0
 40
2.0
 40
2.0
 40
2.0
 40
3.0
 40
3.0
 40
3.0
 40
4.0
 40
4.0
 40
4.0
 40
4.0
 10
1330.882416116932
 20
-1581.001860498847
 30
0.0
 10
1354.786555650887
 20
-1569.628222263843
 30
0.0
 10
1396.45567456408
 20
-1546.353157165495
 30
0.0
 10
1425.479915008213
 20
-1534.856184512119
 30
0.0
 10
1438.438986185529
 20
-1529.966215980356
 30
0.0
 10
1495.631705355259
 20
-1533.407177351023
 30
0.0
 10
1470.877316255545
 20
-1554.515277389149
 30
0.0
 10
1435.254339918964
 20
-1568.899240059164
 30
0.0
 10
1398.338763756318
 20
-1597.369509149269
 30
0.0
 10
1355.88829718707
 20
-1611.017599423634
 30
0.0
 10
1286.883034617515
 20
-1609.070431455371
 30
0.0
 10
1321.480750537685
 20
-1581.630934934454
 30
0.0
 10
1330.882416116932
 20
-1581.001860498847
 30
0.0
  0
SPLINE
  5
98
330
3C
100
AcDbEntity
  8
Layer 1
 62
     7
370
    35
100
AcDbSpline
210
0.0
220
0.0
230
1.0
 70
     8
 71
     3
 72
     8
 73
     4
 74
     0
 42
0.0000000001
 43
0.0000000001
 40
0.0
 40
0.0
 40
0.0
 40
0.0
 40
1.0
 40
1.0
 40
1.0
 40
1.0
 10
1541.024972488008
 20
-1995.204312652241
 30
0.0
 10
1566.022585328981
 20
-1965.741167043287
 30
0.0
 10
1585.00437243361
 20
-1956.843174423984
 30
0.0
 10
1598.906710754787
 20
-1974.939571988904
 30
0.0
  0
SPLINE
  5
99
330
3C
100
AcDbEntity
  8
Layer 1
 62
     7
370
    35
100
AcDbSpline
210
0.0
220
0.0
230
1.0
 70
    11
 71
     3
 72
    14
 73
    10
 74
     0
 42
0.0000000001
 43
0.0000000001
 40
0.0
 40
0.0
 40
0.0
 40
0.0
 40
1.0
 40
1.0
 40
1.0
 40
2.0
 40
2.0
 40
2.0
 40
3.0
 40
3.0
 40
3.0
 40
3.0
 10
768.7076007192815
 20
-2142.51521756333
 30
0.0
 10
812.8799260120578
 20
-2151.916883142576
 30
0.0
 10
878.1658634957364
 20
-2160.098984920045
 30
0.0
 10
900.5534719970839
 20
-2133.323013789586
 30
0.0
 10
925.6930227720491
 20
-2103.252842356131
 30
0.0
 10
877.4637530358424
 20
-2032.190168762786
 30
0.0
 10
845.5525225750703
 20
-2031.192469110257
 30
0.0
 10
816.0190970182175
 20
-2037.754686990561
 30
0.0
 10
771.3947751977763
 20
-2094.956363408553
 30
0.0
 10
768.7076007192815
 20
-2142.51521756333
 30
0.0
  0
SPLINE
  5
9A
330
3C
100
AcDbEntity
  8
Layer 1
 62
     7
370
    35
100
AcDbSpline
210
0.0
220
0.0
230
1.0
 70
     8
 71
     3
 72
     8
 73
     4
 74
     0
 42
0.0000000001
 43
0.0000000001
 40
0.0
 40
0.0
 40
0.0
 40
0.0
 40
1.0
 40
1.0
 40
1.0
 40
1.0
 10
890.4304034232258
 20
-2143.818841694948
 30
0.0
 10
977.058707438027
 20
-2175.782437607096
 30
0.0
 10
963.1432777540059
 20
-2114.001540270111
 30
0.0
 10
896.541313794962
 20
-2076.596760548559
 30
0.0
  0
SPLINE
  5
9B
330
3C
100
AcDbEntity
  8
Layer 1
 62
     7
370
    35
100
AcDbSpline
210
0.0
220
0.0
230
1.0
 70
     8
 71
     3
 72
     8
 73
     4
 74
     0
 42
0.0000000001
 43
0.0000000001
 40
0.0
 40
0.0
 40
0.0
 40
0.0
 40
1.0
 40
1.0
 40
1.0
 40
1.0
 10
799.0354652950329
 20
-2062.694422227382
 30
0.0
 10
784.8023978072716
 20
-2044.831602136362
 30
0.0
 10
784.1423175122978
 20
-2007.495724324515
 30
0.0
 10
832.4136174134244
 20
-2035.431314595309
 30
0.0
  0
SPLINE
  5
9C
330
3C
100
AcDbEntity
  8
Layer 1
 62
     7
370
    35
100
AcDbSpline
210
0.0
220
0.0
230
1.0
 70
    11
 71
     3
 72
    17
 73
    13
 74
     0
 42
0.0000000001
 43
0.0000000001
 40
0.0
 40
0.0
 40
0.0
 40
0.0
 40
1.0
 40
1.0
 40
1.0
 40
2.0
 40
2.0
 40
2.0
 40
3.0
 40
3.0
 40
3.0
 40
4.0
 40
4.0
 40
4.0
 40
4.0
 10
1518.633229872078
 20
-1400.876421090753
 30
0.0
 10
1533.589767411742
 20
-1401.210595352822
 30
0.0
 10
1673.860964208271
 20
-1406.529822782048
 30
0.0
 10
1673.860964208271
 20
-1406.529822782048
 30
0.0
 10
1673.860964208271
 20
-1406.529822782048
 30
0.0
 10
1746.6558318116
 20
-1433.451176941984
 30
0.0
 10
1746.6558318116
 20
-1433.451176941984
 30
0.0
 10
1746.6558318116
 20
-1433.451176941984
 30
0.0
 10
1612.03459161088
 20
-1434.116080370638
 30
0.0
 10
1612.03459161088
 20
-1434.116080370638
 30
0.0
 10
1612.03459161088
 20
-1434.116080370638
 30
0.0
 10
1518.633229872078
 20
-1400.876421090753
 30
0.0
 10
1518.633229872078
 20
-1400.876421090753
 30
0.0
  0
SPLINE
  5
9D
330
3C
100
AcDbEntity
  8
Layer 1
 62
     7
370
    35
100
AcDbSpline
210
0.0
220
0.0
230
1.0
 70
    11
 71
     3
 72
    20
 73
    16
 74
     0
 42
0.0000000001
 43
0.0000000001
 40
0.0
 40
0.0
 40
0.0
 40
0.0
 40
1.0
 40
1.0
 40
1.0
 40
2.0
 40
2.0
 40
2.0
 40
3.0
 40
3.0
 40
3.0
 40
4.0
 40
4.0
 40
4.0
 40
5.0
 40
5.0
 40
5.0
 40
5.0
 10
1652.254703362978
 20
-1446.747867476855
 30
0.0
 10
1654.247346591647
 20
-1447.08066370073
 30
0.0
 10
1757.02832529859
 20
-1439.205864440546
 30
0.0
 10
1769.589143437811
 20
-1445.084575376576
 30
0.0
 10
1873.962445278037
 20
-1493.947053662972
 30
0.0
 10
1843.714506917544
 20
-1524.859895452119
 30
0.0
 10
1829.422872806533
 20
-1554.442241364862
 30
0.0
 10
1811.470480232896
 20
-1549.456499178608
 30
0.0
 10
1734.687570095842
 20
-1510.899679526789
 30
0.0
 10
1734.687570095842
 20
-1510.899679526789
 30
0.0
 10
1734.687570095842
 20
-1510.899679526789
 30
0.0
 10
1765.269682718405
 20
-1500.59470991131
 30
0.0
 10
1690.147997624338
 20
-1463.699115302478
 30
0.0
 10
1665.557595069722
 20
-1451.572379194399
 30
0.0
 10
1661.550949020376
 20
-1453.595339263337
 30
0.0
 10
1652.254703362978
 20
-1446.747867476855
 30
0.0
  0
SPLINE
  5
9E
330
3C
100
AcDbEntity
  8
Layer 1
 62
     7
370
    35
100
AcDbSpline
210
0.0
220
0.0
230
1.0
 70
    11
 71
     3
 72
    32
 73
    28
 74
     0
 42
0.0000000001
 43
0.0000000001
 40
0.0
 40
0.0
 40
0.0
 40
0.0
 40
1.0
 40
1.0
 40
1.0
 40
2.0
 40
2.0
 40
2.0
 40
3.0
 40
3.0
 40
3.0
 40
4.0
 40
4.0
 40
4.0
 40
5.0
 40
5.0
 40
5.0
 40
6.0
 40
6.0
 40
6.0
 40
7.0
 40
7.0
 40
7.0
 40
8.0
 40
8.0
 40
8.0
 40
9.0
 40
9.0
 40
9.0
 40
9.0
 10
1120.755707185089
 20
-1547.129681687871
 30
0.0
 10
1069.093055288282
 20
-1578.121071654081
 30
0.0
 10
1024.146272530422
 20
-1676.990488947072
 30
0.0
 10
1000.428168152671
 20
-1777.146304894255
 30
0.0
 10
1103.914013395897
 20
-1765.178043178497
 30
0.0
 10
1214.048203906558
 20
-1856.256032522047
 30
0.0
 10
1255.044840181031
 20
-1876.862526657521
 30
0.0
 10
1314.875124454267
 20
-1887.058631255666
 30
0.0
 10
1351.437922839224
 20
-1873.983115850949
 30
0.0
 10
1384.678271138205
 20
-1855.591129093394
 30
0.0
 10
1384.678271138205
 20
-1855.591129093394
 30
0.0
 10
1389.996809548334
 20
-1735.929871527823
 30
0.0
 10
1389.996809548334
 20
-1735.929871527823
 30
0.0
 10
1389.996809548334
 20
-1735.929871527823
 30
0.0
 10
1362.737147011746
 20
-1721.306130212035
 30
0.0
 10
1362.737147011746
 20
-1721.306130212035
 30
0.0
 10
1352.986837769392
 20
-1717.094156471768
 30
0.0
 10
1351.879584080433
 20
-1709.561110683721
 30
0.0
 10
1351.437922839224
 20
-1698.701480695116
 30
0.0
 10
1351.437922839224
 20
-1698.701480695116
 30
0.0
 10
1355.425965372949
 20
-1682.081651055174
 30
0.0
 10
1360.079600354425
 20
-1673.442040597265
 30
0.0
 10
1362.77366502389
 20
-1668.439072933585
 30
0.0
 10
1366.729323660054
 20
-1660.146728100588
 30
0.0
 10
1366.729323660054
 20
-1660.146728100588
 30
0.0
 10
1366.729323660054
 20
-1660.146728100588
 30
0.0
 10
1120.755707185089
 20
-1547.129681687871
 30
0.0
 10
1120.755707185089
 20
-1547.129681687871
 30
0.0
  0
ENDBLK
  5
3F
330
3C
100
AcDbEntity
  8
0
100
AcDbBlockEnd
  0
ENDSEC
  0
SECTION
  2
ENTITIES
  0
INSERT
  5
3D
330
1F
100
AcDbEntity
  8
Layer 1
100
AcDbBlockReference
  2
block 2
 10
0.0
 20
0.0
 30
0.0
  0
ENDSEC
  0
SECTION
  2
OBJECTS
  0
DICTIONARY
  5
C
330
0
100
AcDbDictionary
281
     1
  3
ACAD_GROUP
350
D
  3
ACAD_LAYOUT
350
1A
  3
ACAD_MLINESTYLE
350
17
  3
ACAD_PLOTSETTINGS
350
19
  3
ACAD_PLOTSTYLENAME
350
E
  3
ACAD_TABLESTYLE
350
9F
  3
ACAD_VISUALSTYLE
350
2A
  0
DICTIONARY
  5
D
102
{ACAD_REACTORS
330
C
102
}
330
C
100
AcDbDictionary
281
     1
  0
DICTIONARY
  5
1A
102
{ACAD_REACTORS
330
C
102
}
330
C
100
AcDbDictionary
281
     1
  3
Layout1
350
1E
  3
Layout2
350
26
  3
Model
350
22
  0
DICTIONARY
  5
17
102
{ACAD_REACTORS
330
C
102
}
330
C
100
AcDbDictionary
281
     1
  3
Standard
350
18
  0
DICTIONARY
  5
19
102
{ACAD_REACTORS
330
C
102
}
330
C
100
AcDbDictionary
281
     1
  0
ACDBDICTIONARYWDFLT
  5
E
102
{ACAD_REACTORS
330
C
102
}
330
C
100
AcDbDictionary
281
     1
  3
Normal
350
F
100
AcDbDictionaryWithDefault
340
F
  0
DICTIONARY
  5
9F
102
{ACAD_REACTORS
330
C
102
}
330
C
100
AcDbDictionary
281
     1
  0
DICTIONARY
  5
2A
102
{ACAD_REACTORS
330
C
102
}
330
C
100
AcDbDictionary
281
     1
  3
2dWireframe
350
2F
  3
3D Hidden
350
31
  3
3dWireframe
350
30
  3
Basic
350
32
  3
Brighten
350
36
  3
ColorChange
350
3A
  3
Conceptual
350
34
  3
Dim
350
35
  3
Facepattern
350
39
  3
Flat
350
2B
  3
FlatWithEdges
350
2C
  3
Gouraud
350
2D
  3
GouraudWithEdges
350
2E
  3
Linepattern
350
38
  3
Realistic
350
33
  3
Thicken
350
37
  0
LAYOUT
  5
1E
102
{ACAD_REACTORS
330
1A
102
}
330
1A
100
AcDbPlotSettings
  1

  2
none_device
  4

  6

 40
0.0
 41
0.0
 42
0.0
 43
0.0
 44
0.0
 45
0.0
 46
0.0
 47
0.0
 48
0.0
 49
0.0
140
0.0
141
0.0
142
1.0
143
1.0
 70
   688
 72
     0
 73
     0
 74
     5
  7

 75
    16
 76
     0
 77
     2
 78
   300
147
1.0
148
0.0
149
0.0
100
AcDbLayout
  1
Layout1
 70
     1
 71
     1
 10
0.0
 20
0.0
 11
12.0
 21
9.0
 12
0.0
 22
0.0
 32
0.0
 14
1.000000000000000E+20
 24
1.000000000000000E+20
 34
1.000000000000000E+20
 15
-1.000000000000000E+20
 25
-1.000000000000000E+20
 35
-1.000000000000000E+20
146
0.0
 13
0.0
 23
0.0
 33
0.0
 16
1.0
 26
0.0
 36
0.0
 17
0.0
 27
1.0
 37
0.0
 76
     0
330
1B
  0
LAYOUT
  5
26
102
{ACAD_REACTORS
330
1A
102
}
330
1A
100
AcDbPlotSettings
  1

  2
none_device
  4

  6

 40
0.0
 41
0.0
 42
0.0
 43
0.0
 44
0.0
 45
0.0
 46
0.0
 47
0.0
 48
0.0
 49
0.0
140
0.0
141
0.0
142
1.0
143
1.0
 70
   688
 72
     0
 73
     0
 74
     5
  7

 75
    16
 76
     0
 77
     2
 78
   300
147
1.0
148
0.0
149
0.0
100
AcDbLayout
  1
Layout2
 70
     1
 71
     2
 10
0.0
 20
0.0
 11
0.0
 21
0.0
 12
0.0
 22
0.0
 32
0.0
 14
0.0
 24
0.0
 34
0.0
 15
0.0
 25
0.0
 35
0.0
146
0.0
 13
0.0
 23
0.0
 33
0.0
 16
1.0
 26
0.0
 36
0.0
 17
0.0
 27
1.0
 37
0.0
 76
     0
330
23
  0
LAYOUT
  5
22
102
{ACAD_REACTORS
330
1A
102
}
330
1A
100
AcDbPlotSettings
  1

  2
none_device
  4

  6

 40
0.0
 41
0.0
 42
0.0
 43
0.0
 44
0.0
 45
0.0
 46
0.0
 47
0.0
 48
0.0
 49
0.0
140
0.0
141
0.0
142
1.0
143
1.0
 70
  1712
 72
     0
 73
     0
 74
     0
  7

 75
     0
 76
     0
 77
     2
 78
   300
147
1.0
148
0.0
149
0.0
100
AcDbLayout
  1
Model
 70
     1
 71
     0
 10
0.0
 20
0.0
 11
12.0
 21
9.0
 12
0.0
 22
0.0
 32
0.0
 14
1.000000000000000E+20
 24
1.000000000000000E+20
 34
1.000000000000000E+20
 15
-1.000000000000000E+20
 25
-1.000000000000000E+20
 35
-1.000000000000000E+20
146
0.0
 13
0.0
 23
0.0
 33
0.0
 16
1.0
 26
0.0
 36
0.0
 17
0.0
 27
1.0
 37
0.0
 76
     0
330
1F
331
29
  0
MLINESTYLE
  5
18
102
{ACAD_REACTORS
330
17
102
}
330
17
100
AcDbMlineStyle
  2
Standard
 70
     0
  3

 62
   256
 51
90.0
 52
90.0
 71
     2
 49
0.5
 62
   256
  6
BYLAYER
 49
-0.5
 62
   256
  6
BYLAYER
  0
ACDBPLACEHOLDER
  5
F
102
{ACAD_REACTORS
330
E
102
}
330
E
  0
VISUALSTYLE
  5
2F
102
{ACAD_REACTORS
330
2A
102
}
330
2A
100
AcDbVisualStyle
  2
2dWireframe
 70
     4
 71
     0
 72
     2
 73
     0
 90
        0
 40
-0.6
 41
-30.0
 62
     5
 63
     7
421
 16777215
 74
     1
 91
        4
 64
     7
 65
   257
 75
     1
175
     1
 42
1.0
 92
        0
 66
   257
 43
1.0
 76
     1
 77
     6
 78
     2
 67
     7
 79
     5
170
     0
171
     0
290
     0
174
     0
 93
        1
 44
0.0
173
     0
291
     0
 45
0.0
1001
ACAD
1000
AcDbSavedByObjectVersion
1070
     0
  0
VISUALSTYLE
  5
31
102
{ACAD_REACTORS
330
2A
102
}
330
2A
100
AcDbVisualStyle
  2
3D Hidden
 70
     6
 71
     1
 72
     2
 73
     2
 90
        0
 40
-0.6
 41
-30.0
 62
     5
 63
     7
421
 16777215
 74
     2
 91
        2
 64
     7
 65
   257
 75
     2
175
     1
 42
40.0
 92
        0
 66
   257
 43
1.0
 76
     1
 77
     6
 78
     2
 67
     7
 79
     3
170
     0
171
     0
290
     0
174
     0
 93
        1
 44
0.0
173
     0
291
     0
 45
0.0
1001
ACAD
1000
AcDbSavedByObjectVersion
1070
     0
  0
VISUALSTYLE
  5
30
102
{ACAD_REACTORS
330
2A
102
}
330
2A
100
AcDbVisualStyle
  2
3dWireframe
 70
     5
 71
     0
 72
     2
 73
     0
 90
        0
 40
-0.6
 41
-30.0
 62
     5
 63
     7
421
 16777215
 74
     1
 91
        4
 64
     7
 65
   257
 75
     1
175
     1
 42
1.0
 92
        0
 66
   257
 43
1.0
 76
     1
 77
     6
 78
     2
 67
     7
 79
     5
170
     0
171
     0
290
     0
174
     0
 93
        1
 44
0.0
173
     0
291
     0
 45
0.0
1001
ACAD
1000
AcDbSavedByObjectVersion
1070
     0
  0
VISUALSTYLE
  5
32
102
{ACAD_REACTORS
330
2A
102
}
330
2A
100
AcDbVisualStyle
  2
Basic
 70
     7
 71
     1
 72
     0
 73
     1
 90
        0
 40
-0.6
 41
-30.0
 62
     5
 63
     7
421
 16777215
 74
     0
 91
        4
 64
     7
 65
   257
 75
     1
175
     1
 42
1.0
 92
        8
 66
     7
 43
1.0
 76
     1
 77
     6
 78
     2
 67
     7
 79
     5
170
     0
171
     0
290
     0
174
     0
 93
        1
 44
0.0
173
     0
291
     1
 45
0.0
1001
ACAD
1000
AcDbSavedByObjectVersion
1070
     0
  0
VISUALSTYLE
  5
36
102
{ACAD_REACTORS
330
2A
102
}
330
2A
100
AcDbVisualStyle
  2
Brighten
 70
    12
 71
     2
 72
     2
 73
     0
 90
        0
 40
-0.6
 41
-30.0
 62
     5
 63
     7
421
 16777215
 74
     1
 91
        4
 64
     7
 65
   257
 75
     1
175
     1
 42
1.0
 92
        8
 66
     7
 43
1.0
 76
     1
 77
     6
 78
     2
 67
     7
 79
     5
170
     0
171
     0
290
     0
174
     0
 93
        1
 44
50.0
173
     0
291
     1
 45
0.0
1001
ACAD
1000
AcDbSavedByObjectVersion
1070
     0
  0
VISUALSTYLE
  5
3A
102
{ACAD_REACTORS
330
2A
102
}
330
2A
100
AcDbVisualStyle
  2
ColorChange
 70
    16
 71
     2
 72
     2
 73
     3
 90
        0
 40
-0.6
 41
-30.0
 62
     5
 63
     8
421
  8421504
 74
     1
 91
        4
 64
     7
 65
   257
 75
     1
175
     1
 42
1.0
 92
        8
 66
     8
424
  8421504
 43
1.0
 76
     1
 77
     6
 78
     2
 67
     7
 79
     5
170
     0
171
     0
290
     0
174
     0
 93
        1
 44
0.0
173
     0
291
     1
 45
0.0
1001
ACAD
1000
AcDbSavedByObjectVersion
1070
     0
  0
VISUALSTYLE
  5
34
102
{ACAD_REACTORS
330
2A
102
}
330
2A
100
AcDbVisualStyle
  2
Conceptual
 70
     9
 71
     3
 72
     2
 73
     0
 90
        0
 40
-0.6
 41
-30.0
 62
     5
 63
     7
421
 16777215
 74
     2
 91
        2
 64
     7
 65
   257
 75
     1
175
     1
 42
40.0
 92
        8
 66
     7
 43
1.0
 76
     1
 77
     6
 78
     2
 67
     7
 79
     3
170
     0
171
     0
290
     0
174
     0
 93
        1
 44
0.0
173
     0
291
     0
 45
0.0
1001
ACAD
1000
AcDbSavedByObjectVersion
1070
     0
  0
VISUALSTYLE
  5
35
102
{ACAD_REACTORS
330
2A
102
}
330
2A
100
AcDbVisualStyle
  2
Dim
 70
    11
 71
     2
 72
     2
 73
     0
 90
        0
 40
-0.6
 41
-30.0
 62
     5
 63
     7
421
 16777215
 74
     1
 91
        4
 64
     7
 65
   257
 75
     1
175
     1
 42
1.0
 92
        8
 66
     7
 43
1.0
 76
     1
 77
     6
 78
     2
 67
     7
 79
     5
170
     0
171
     0
290
     0
174
     0
 93
        1
 44
-50.0
173
     0
291
     1
 45
0.0
1001
ACAD
1000
AcDbSavedByObjectVersion
1070
     0
  0
VISUALSTYLE
  5
39
102
{ACAD_REACTORS
330
2A
102
}
330
2A
100
AcDbVisualStyle
  2
Facepattern
 70
    15
 71
     2
 72
     2
 73
     0
 90
        0
 40
-0.6
 41
-30.0
 62
     5
 63
     7
421
 16777215
 74
     1
 91
        4
 64
     7
 65
   257
 75
     1
175
     1
 42
1.0
 92
        8
 66
     7
 43
1.0
 76
     1
 77
     6
 78
     2
 67
     7
 79
     5
170
     0
171
     0
290
     0
174
     0
 93
        1
 44
0.0
173
     0
291
     1
 45
0.0
1001
ACAD
1000
AcDbSavedByObjectVersion
1070
     0
  0
VISUALSTYLE
  5
2B
102
{ACAD_REACTORS
330
2A
102
}
330
2A
100
AcDbVisualStyle
  2
Flat
 70
     0
 71
     2
 72
     1
 73
     1
 90
        2
 40
-0.6
 41
30.0
 62
     5
 63
     7
421
 16777215
 74
     0
 91
        4
 64
     7
 65
   257
 75
     1
175
     1
 42
1.0
 92
        8
 66
     7
 43
1.0
 76
     1
 77
     6
 78
     2
 67
     7
 79
     5
170
     0
171
     0
290
     0
174
     0
 93
       13
 44
0.0
173
     0
291
     1
 45
0.0
1001
ACAD
1000
AcDbSavedByObjectVersion
1070
     0
  0
VISUALSTYLE
  5
2C
102
{ACAD_REACTORS
330
2A
102
}
330
2A
100
AcDbVisualStyle
  2
FlatWithEdges
 70
     1
 71
     2
 72
     1
 73
     1
 90
        2
 40
-0.6
 41
30.0
 62
     5
 63
     7
421
 16777215
 74
     1
 91
        4
 64
     7
 65
   257
 75
     1
175
     1
 42
1.0
 92
        0
 66
   257
 43
1.0
 76
     1
 77
     6
 78
     2
 67
     7
 79
     5
170
     0
171
     0
290
     0
174
     0
 93
       13
 44
0.0
173
     0
291
     1
 45
0.0
1001
ACAD
1000
AcDbSavedByObjectVersion
1070
     0
  0
VISUALSTYLE
  5
2D
102
{ACAD_REACTORS
330
2A
102
}
330
2A
100
AcDbVisualStyle
  2
Gouraud
 70
     2
 71
     2
 72
     2
 73
     1
 90
        2
 40
-0.6
 41
30.0
 62
     5
 63
     7
421
 16777215
 74
     0
 91
        4
 64
     7
 65
   257
 75
     1
175
     1
 42
1.0
 92
        0
 66
     7
 43
1.0
 76
     1
 77
     6
 78
     2
 67
     7
 79
     5
170
     0
171
     0
290
     0
174
     0
 93
       13
 44
0.0
173
     0
291
     1
 45
0.0
1001
ACAD
1000
AcDbSavedByObjectVersion
1070
     0
  0
VISUALSTYLE
  5
2E
102
{ACAD_REACTORS
330
2A
102
}
330
2A
100
AcDbVisualStyle
  2
GouraudWithEdges
 70
     3
 71
     2
 72
     2
 73
     1
 90
        2
 40
-0.6
 41
30.0
 62
     5
 63
     7
421
 16777215
 74
     1
 91
        4
 64
     7
 65
   257
 75
     1
175
     1
 42
1.0
 92
        0
 66
   257
 43
1.0
 76
     1
 77
     6
 78
     2
 67
     7
 79
     5
170
     0
171
     0
290
     0
174
     0
 93
       13
 44
0.0
173
     0
291
     1
 45
0.0
1001
ACAD
1000
AcDbSavedByObjectVersion
1070
     0
  0
VISUALSTYLE
  5
38
102
{ACAD_REACTORS
330
2A
102
}
330
2A
100
AcDbVisualStyle
  2
Linepattern
 70
    14
 71
     2
 72
     2
 73
     0
 90
        0
 40
-0.6
 41
-30.0
 62
     5
 63
     7
421
 16777215
 74
     1
 91
        4
 64
     7
 65
   257
 75
     7
175
     7
 42
1.0
 92
        8
 66
     7
 43
1.0
 76
     1
 77
     6
 78
     2
 67
     7
 79
     5
170
     0
171
     0
290
     0
174
     0
 93
        1
 44
0.0
173
     0
291
     1
 45
0.0
1001
ACAD
1000
AcDbSavedByObjectVersion
1070
     0
  0
VISUALSTYLE
  5
33
102
{ACAD_REACTORS
330
2A
102
}
330
2A
100
AcDbVisualStyle
  2
Realistic
 70
     8
 71
     2
 72
     2
 73
     0
 90
        0
 40
-0.6
 41
-30.0
 62
     5
 63
     7
421
 16777215
 74
     1
 91
        0
 64
     7
 65
   257
 75
     1
175
     1
 42
1.0
 92
        8
 66
     8
424
  7895160
 43
1.0
 76
     1
 77
     6
 78
     2
 67
     7
 79
     5
170
     0
171
     0
290
     0
174
     0
 93
       13
 44
0.0
173
     0
291
     0
 45
0.0
1001
ACAD
1000
AcDbSavedByObjectVersion
1070
     0
  0
VISUALSTYLE
  5
37
102
{ACAD_REACTORS
330
2A
102
}
330
2A
100
AcDbVisualStyle
  2
Thicken
 70
    13
 71
     2
 72
     2
 73
     0
 90
        0
 40
-0.6
 41
-30.0
 62
     5
 63
     7
421
 16777215
 74
     1
 91
        4
 64
     7
 65
   257
 75
     1
175
     1
 42
1.0
 92
       12
 66
     7
 43
1.0
 76
     1
 77
     6
 78
     2
 67
     7
 79
     5
170
     0
171
     0
290
     0
174
     0
 93
        1
 44
0.0
173
     0
291
     1
 45
0.0
1001
ACAD
1000
AcDbSavedByObjectVersion
1070
     0
  0
ENDSEC
  0
EOF
