<!-- Created with Inkscape (http://www.inkscape.org/) -->
<svg xmlns:rdf="http://www.w3.org/1999/02/22-rdf-syntax-ns#" xmlns="http://www.w3.org/2000/svg" height="776.4" width="453.43" version="1.1" xmlns:cc="http://creativecommons.org/ns#" xmlns:dc="http://purl.org/dc/elements/1.1/">
 <metadata>
  <rdf:RDF>
   <cc:Work rdf:about="">
    <dc:format>image/svg+xml</dc:format>
    <dc:type rdf:resource="http://purl.org/dc/dcmitype/StillImage"/>
    <dc:title/>
   </cc:Work>
  </rdf:RDF>
 </metadata>
 <defs></defs>
 <path fill="#000" d="M327,0.011122c-2.87,0.048555-17.51,3.5287-21.25,5.0625-0.41,0.1694-2.04,0.5124-2.25,0.4688-0.2-0.0437-0.57,0.4777-0.5,0.7187,0.19,0.6607-5.88,7.1249-6.68,7.1249-1.34,0-4.15-1.887-3.88-2.594,0.15-0.389-0.22-1.4059-0.5-1.4059s-1.27,0.7909-1.37,1.0939c-0.14,0.396-5.81,0.479-8.85,0.125-5.57-0.6491-25.2,0.601-28.03,1.781-1.25,0.523-6.69,2.291-7.5,2.438-3.48,0.629-8.64,2.655-8.91,3.5-0.28,0.907-8.28,4.97-10.87,5.531-0.79,0.17-6.7,3.526-8.16,4.625-4.1,3.097-12.81,4.481-12,1.906,0.13-0.397,0.12-1.653,0-1.812,0.18-0.344,0.5-1.976,0.5-2.157,0-0.191,2.33-4.05,2.72-4.812,0.91-0.785,6.07-6.18,7.35-7.719,1.13-1.367-0.77-0.071-2.88,1.969-2.84,2.448-9.55,13.07-10.09,16.781l-1,4.25,0.25-3.75c0.13-1.922-1.18-3.567-1.72-2.156-0.17,0.435-0.63,5.169-0.63,6.531,0,1.476-1.18,6.737-1.68,7.5l-1.66,2.563-43.09-0.688c-21.94-0.359-73.92,1.473-86.567,3.063-12.079,1.518-27.792,5.276-29.719,7.093l-3.562,3.344,0.531,8.75c0.17,2.922,2.329,14.079,3.25,16.75,1.324,3.841,13.382,30.184,21.969,48.004,2.12,4.4,10.869,22.52,12.062,25,4.934,10.23,26.191,43.5,32.716,51.18,14.32,16.85,38.63,52.66,40.38,59.47,0.62,2.45,1.24,16.73,1.03,23.75l-0.5,17.6-3.41,6.5c-0.96,1.84-4.69,12.78-5.22,15.28-0.84,4.01-1.15,16.76-0.56,23.5,0.48,5.41,2.49,16.85,3.19,18.09,0.57,1,1.75,6.02,1.69,7.16-0.07,1.04,0.61,4.83,0.93,5.22,0.42,0.5,0.54,3.59,0.19,4.81-0.27,0.94-0.96,10.32-0.97,12.94,0,2.61-1.09,13.48-1.5,15-0.41,1.51-2.99,14.17-3.56,17.46-0.57,3.3-3.1,14.18-3.5,15-0.88,1.84-18.51,21.63-21.97,24.66-1.38,1.21-16.038,10.12-20.217,12.28-4.18,2.16-18.116,10.34-19.219,11.28-2.216,1.9-6.031,1.51-6.031-0.62,0-1.83-4.685-7.41-6.688-7.97-1.883-0.53-6.666,3.51-8.218,6.94-1.283,2.83-1.348,10.57-0.094,12.47,1.197,1.8,1.485,7.49,0.406,7.9-0.435,0.17-4.443,0.6-5.531,0.6-2.531,0-12.454,5.07-14.063,7.18-2.351,3.1-14.7,27.99-15.718,31.69-0.558,2.03-3.522,9.91-4.094,10.88-1.294,2.19-6.7852,24.3-6.4065,25.81,0.2178,0.87-1.3196,3.35-2.5312,4.06-2.1802,1.29-0.8834,4.99,1.8125,5.19l4.3125,0.31-0.4375,3.69c-0.1221,1.01-1.7926,9.49-2.3125,11.69-1.2999,5.5-1.422,63.1-0.1563,74.25,0.4764,4.19,2.4634,29.57,2.75,35,0.2866,5.42,2.099,29.42,2.5,33.09s1.469,13.64,1.469,13.75c0,0.38,90.017,0.03,90.027-0.34,0.01-0.21,1.1-10.54,1.5-14.25,0.73-6.72,3.51-38.09,4.5-50.5,0.29-3.58,2.17-21.7,2.6-25,0.42-3.3,1.29-16.54,1.19-18.25-0.11-1.72,0.11-6.25,0.31-6.25s7.46,3.26,10,4.5c2.54,1.23,11.33,4.5,12.12,4.5,2.01,0,14.38,12.81,16.41,17,0.87,1.78,6.53,13.59,7.81,16.28,2.42,5.04,23.31,43.19,27.5,50.22,1.31,2.2,7.5,13.25,8.53,15.25l3.75,7.25h57.38c15.78,0,57.37-0.32,57.37-0.44,0-0.28-6.97-19.34-8.62-23.56-0.7-1.79-4.92-11.58-5.81-13.5-0.9-1.93-4.16-10.81-4.5-12.25-0.35-1.45-1.75-5.25-1.94-5.25s-0.82-1.77-0.88-2.44c-0.09-1.14,1.33-1.91,2.69-1.44,1.02,0.36,4.28,0.29,5-0.09,1.35-0.72,0.75-3.44-1.12-5.19-1.68-1.56-7.03-13.81-7.16-16.34-0.04-0.83-1.07-4.59-1.41-5.19s-1.25-4.95-1.25-6c0-2.43-4.57-26.49-5.65-29.78-0.94-2.84-11.35-25.85-12.85-28.38-1.09-1.84-9.99-7.15-11.97-7.15-0.69,0-2.53-0.82-2.53-1.13,0-0.38,2.81-0.7,4.25-0.47,5.31,0.85,15.2,1.17,17.35,0.56,3.05-0.85,6.93-6.96,6.22-9.78-1.11-4.37-14.37-5.43-20.47-1.62-2.06,1.28-7.77,4.36-7.88,4.25s0.68-3.98,1.1-5.35c0.41-1.36,2.58-18.36,3-23.43,0.85-10.53,6.23-38.15,8.68-44.66,2.07-5.49,12.46-24.47,15.72-28.72,1.33-1.73,8.17-11.52,9.44-13.5,1.26-1.97,8.83-12.41,10.44-14.4,3.68-4.56,15.91-23.35,15.56-23.91-0.15-0.23,0.29-0.84,0.59-0.84,0.31,0,0.67-0.73,0.5-1-0.17-0.28,0.11-1,0.38-1s1.5-1.59,1.69-2.19c0.78-2.48,12.09-19.01,13.18-19.28,0.62-0.16,2.25-1.29,2.25-1.57,0-0.27,3.18-6.26,4.38-8.25,1.2-1.98,5.98-10.41,6.59-11.62,1.01-2,9.17-23.39,9.38-24.59,0.04-0.28,0.56-1.37,0.72-1.5,1.04-0.95,16.94-37.61,18.43-42.5,3.66-12,11.2-31.36,13.66-35.13,1.37-2.1,14.26-17.18,17.78-20.78s16.25-18.44,17.56-20.47c6.12-9.46,25.57-60.02,26.6-69.12,0.72-6.4-2.08-23.25-4.44-26.75-1.93-2.87-24.57-29.79-27.06-32.19-1.02-0.98-3.6-5.08-3.6-5.72,0-0.62-0.97-2.81-1.34-3.03s-2.18-2.4-2.5-3c-0.32-0.61-3.35-3.51-4.19-4-0.83-0.49-3.49-3.62-3.65-4.31-0.41-1.68-4.06-0.93-3.91-2.19,0.03-0.28-1.68,0.98-1.97,0.97-0.28-0.02,0.05-1.65,0.34-2,0.32-0.38,0.59-3.75,0.38-4.78-0.28-1.41-2.64-4.09-3.94-4.47-1.77-0.53-2.92-4.02-2.19-6.659,0.57-2.031,5.19-4.479,5.72-3.031,0.17,0.46,1.19,2.067,1.41,2.219,0.55,0.372,1.26,12.681,0.72,12.341-0.7-0.43-0.29,1.84,0.44,2.44,0.48,0.4,2.11,0.35,2.56-0.09,0.48-0.48,1.78-0.34,2.15,0.25,0.42,0.66,0.99,0.66,1.04,0,0.08-1.43-0.38-15.42-0.57-16.91-0.39-3.075-8.91-15.781-11.5-17.156-1.5-0.799-2.2-1.888-1.22-1.907,0.63-0.012,2.69-1.097,2.85-1.5,0.73-1.907,10.23,0.49,12.28,3.094,0.57,0.73,2.09,1.885,2.09,1.594,0-0.65-6.42-7.219-7.06-7.219-0.74,0-0.13-3.251,0.81-4.344,0.81-0.935,0.08-0.881-1.37,0.125l-3.13,2.188-7.37-2.563c-4.45-1.541-9.97-6.378-10.13-8.875-0.1-1.693,1.16-4.311,2.25-4.625,1.14-0.328,0.67-0.767-0.87-0.812-1.52-0.045-2.62-1.019-2-1.781,0.46-0.575,0.55-1.193,0.12-0.938-1.04,0.628-0.2-1.438,1-2.437,1.29-1.073,4.71-1.637,4.16-0.688-0.21,0.363-0.08,0.649,0.19,0.406,0.25-0.229,0.9-1.656,0.9-1.968,0-0.313,1.65-1.968,2.28-2.282,0.63-0.313,3.9-2.601,4.5-3.156,0.61-0.555,6.21-4.31,7.72-5.187,1.52-0.878,3.69-2.692,3-2.5-1.6,0.446-10.77,5.223-15.93,8.312-5.46,3.261-14.79,5.311-16.47,3.625-0.72-0.715-2.6-2.975-2.6-3.125,0-0.54-5.31-4.327-6.09-4.344-0.44-0.009-4.98-3.293-6.25-4.531-1.68-1.635-6.49-4.5-7.56-4.5-2.01,0-8.1-2.492-8.1-3.312,0-0.372-2.49-3.43-3.43-4.219-0.95-0.789-3.08-3.438-2.94-3.656,0.13-0.219-0.67-0.353-1.1-0.188-0.56,0.218-1.16-0.415-0.93-1,0.39-1.023,7.68-1.117,10.06-0.125,2.12,0.885,4.25,1.161,3.84,0.5-0.37-0.597-11.07-5.312-11.28-4.969-0.08,0.133-0.8-0.368-1-0.687-0.4-0.657-12.22-2.2284-12.22-1.625,0,0.215-2.54,0.963-3.5,1.031-0.98,0.07-3.5-0.512-3.5-0.812,0-0.31-1.59-0.6461-2.25-0.469-1.04,0.281-0.9-0.1795,0.25-0.875,0.69-0.4143,1.49-1.5528,1.1-1.5625-0.39-0.0098-1.05-0.4186-0.91-0.5625,0.47-0.4667,3.49,1.2398,3.16,1.7812-0.19,0.3091,0.18,0.5568,0.53,0.3438,0.32-0.199,0.74-1.3771,0.59-1.625-0.64-1.041,10.31-1.4985,15.03-0.625,0.55,0.1017,1.1,0.0557,0.75-0.0625-1.43-0.4916,0.6-2.2417,2.28-1.9688,2.31,0.3744,1-1.6709-1.56-2.4375-1.09-0.3261-3.97-1.6185-3.97-1.7812,0-0.16272-4.89-0.5001-6.75-0.46875v-0.0001zm1.38,2.3438c1.06-0.0091,3.45,0.2552,3.28,0.4062-0.12,0.1011-5.39,0.7297-7.28,0.875-2.08,0.1591-5.92-0.0786-5.5-0.3437,0.4-0.2568,7.73-0.9225,9.5-0.9375zm-12.41,2.0937c0.07,0.0019,0.28,0.0865,0.31,0.125,0.16,0.154-0.75,1.0623-1.25,1.25-0.71,0.2714-1.02-0.0687-0.53-0.5625,0.26-0.2563,1.28-0.8182,1.47-0.8125zm20.88,9.0624c0.17-0.007,0.91,0.115,1.09,0.188,0.4,0.159-0.01,0.601-0.59,0.625-0.53,0.021-1.48-0.365-1.32-0.532,0.09-0.083,0.64-0.274,0.82-0.281zm-4.57,5.375c0.71-0.065,6.04,3.016,6.79,4.031,1.08,1.486,0.23,1.818-1.29,0.5-0.62-0.541-3.63-2.398-4.15-2.562s-1.88-1.227-1.88-1.469c0-0.151,0.37-0.485,0.53-0.5zm-2.81,2.5c0.98,0,9.16,4.89,9,5.375-0.22,0.688-5.58,1.418-6.4,0.875-0.69-0.448-3.09-6.25-2.6-6.25zm-1.9,0.25c0.05,0.005,0.18,0.26,0.18,0.406,0.01,0.322,0.46,2.315,0.63,2.75,0.2,0.519-0.47,1.594-1,1.594-0.44,0-1.6-0.906-1.6-1.25,0.01-0.659,1.54-3.521,1.79-3.5zm61.5,49.094c0.09-0.021,0.65,0.132,0.84,0.25,0.32,0.197,3.58,0.628,4.5,0.594,1.89-0.072,2.79,1.731,1.09,2.187-1.63,0.436-4.86,0.11-5.53-0.562-0.57-0.576-1.19-2.405-0.9-2.469zm7.03,12c0.13,0,0.71,0.023,0.87,0.031,1.13,0.061,7.72,7.104,7.75,8.281,0.01,0.321,0.92,1.484,1.25,1.594,0.35,0.117,0.5,0.795,0.22,0.969-0.26,0.163-4.57-3.365-5.94-4.875-0.19-0.708-5.74-5.858-4.15-6zm-213.07,1.906c0.41-0.012,1.34,0.027,1.38,0.063,0.14,0.136-0.27,3.286-0.56,4.343-0.3,1.057-1.07,4.932-1.07,5.344,0.01,0.667,0.58,0.667,1.04,0,0.36-0.529,0.49,1.088,0.21,2.5-0.72,3.694,0.17,20.594,1.19,22.504,0.86,1.6,4.32,19.07,5.06,25.5,0.48,4.12,4.16,22.69,4.66,23.5,0.34,0.54,0.59-0.1,0.38-1-0.16-0.69-1.75-9.18-2.19-11.72-0.8-4.59-0.34-12.39,0.69-11.75,0.29,0.18,0.67,1.68,0.53,2.06-0.15,0.38,0.22,1.41,0.5,1.41,0.27,0,0.81,0.9,0.75,1.25-0.07,0.34,0.88,3.42,1.31,4.25,0.43,0.82,3.2,7.93,3.81,9.81,1.44,4.37,2.27,3.78,0.94-0.66-1.03-3.42-6.66-29.18-6.44-29.44,0.07-0.07,1.38,0.18,1.81,0.35,0.86,0.33,4.08,7.46,4.25,9.44,0.15,1.6,4.73,24.25,5.47,27,0.33,0.98,1.25,4.98,1.44,6-0.05,1.08,5.45,14.4,6.56,16.28,0.62,1.04,2.6,3.47,2.72,3.34,0.13-0.12-0.83-2.38-1.31-3.12-1.55-4.17-7.98-20.67-8.97-25-0.88-3.74-0.95-9.17-0.09-7,1.37,3.48,15.93,26.92,19.87,32,5.2,6.69,11.52,17.44,11.19,19-0.57,2.72-7.92,12.31-10.34,13.5-1.26,0.61-8.96,3.47-10.63,3.93-2.77,0.78-7.38,0.84-8.47,0.13-2.42-1.59-16.97-19.7-16.97-21.13,0-1.11-6.67-10.67-8.5-12.18-0.82-0.69-8.32-5.92-10.34-7.22-3.83-2.48-18.95-14.1-20.69-15.91-0.56-0.58-8.83-11.55-11.4-15.12-5.89-8.17-18.32-23.17-24.44-29.54-5.7-5.92-14.42-15.95-13.88-15.96,0.21-0.01,0-0.55-0.28-0.75-0.64-0.47-4.501-6.53-4.28-6.72,0.695-0.61,46.25-15.02,48.81-15.44,4.25-0.698,33.41-3.762,36.28-3.844zm223.35,12.125c0.05-0.002,0.27,0.415,0.34,0.625,0.23,0.688,0.91,6.304,0.94,7.754,0.03,1.44-0.45,5.25-0.66,5.25-0.2-0.01-0.86-5.63-0.9-7.75-0.05-1.96,0.13-5.871,0.28-5.879zm-55.25,28.279l0.94,2.91c0.25,0.8,2.29,4.43,2.81,5,1,1.1,1.7,3.45,0.87,2.94-0.27-0.17-1,0.07-1,0.34s0.91,1.29,1.25,1.41c0.49,0.16,0.53,1.31,0.07,1.87-1.38,1.66,6.45,18.37,10.12,21.63,1.17,1.03,5.51,5.74,6,6.5,0.49,0.75,2.56,2.27,2.84,2.09,0.33-0.2,0.68,0.78,0.5,1.44-0.35,1.36,3.84,5.24,5.38,4.97,1.08-0.2,0.61-1.11-0.91-1.69-1.89-0.73-2.59-3.02-1-3.25,0.9-0.13,3.37,2.1,4.1,3.69,1.85,4.06,9.66,24.54,9.65,25.34-0.01,1.41-6.96,12.17-9,13.91-1.07,0.91-7.57,8.81-8.97,10.9-2.71,4.06-10.77,11.74-15.03,14.31-1.51,0.92-6.95,4.27-7.5,4.63-0.88,0.58-7.19-1.43-11.28-3.59-2.55-1.35-13.51-7.46-15.12-8.44-2.68-1.71-7.89-4.95-8.44-8.06-0.13-1.38-0.97-7-1.16-7.75-0.53-2.1,1.98-0.11,3.94,3.12,2.01,3.31,12.03,13.13,13.41,13.13,1.5,0,6.14-5.95,5.78-7.41-0.44-1.76-9.6-10.2-12.22-11.28-1.21-0.5-4.41-2.41-4.41-2.63,0-0.76-7.77-3.32-8.34-2.75-0.96,0.97-2.66-0.87-2.66-2.87,0-1.09-0.72-4.39-1-4.56-0.78-0.49,1.09-2.46,2.32-2.44,5.31,0.08,13.68-3.73,13.68-6.22,0-1.63-3.94-2.6-5.56-1.38-1.22,0.93-8.49,1.18-8.09,0.29,0.15-0.35,2.64-6.28,3.43-8.19,0.8-1.91,3.89-7.44,4.29-7.63,0.39-0.18,4.86-2.2,6.15-2.78,3.69-1.64,13.45-11.61,14.44-14.75,0.47-1.48,2.35-5.4,2.59-5.4,0.25,0,0.36-1.64,0.16-2.25-0.2-0.62-0.81-7.22-0.84-9.1-0.05-2.74,0.88-7.35,1.56-7.72,0.46-0.25,3.34-3.58,3.97-4.59l2.28-3.69zm-148.88,9.66c0.13,0.01,0.93,0.36,1.16,0.5,0.3,0.19,1.41,7.37,1.53,9.94,0.12,2.54,0.23,9.25,0.16,9.25-0.24,0-3.24-19.43-3.03-19.63,0.01-0.02,0.14-0.06,0.18-0.06zm162.94,11.69c0.12,0,0.89,0.72,1.06,1,0.17,0.27-0.14,1-0.43,1-0.3,0-1.07-0.73-1.07-1,0-0.28,0.32-1,0.44-1zm2.81,2.21h0.16c0.88,0.16,10.22,14.65,11.5,18.04,0.59,1.57-0.13,2.32-1.38,1.4-0.52-0.38-1.3-2.19-1.09-2.53,0.44-0.7-6.27-13-7.59-13.94-0.51-0.36-1.85-2.1-1.85-2.4,0-0.16,0.18-0.54,0.25-0.57zm-1.75,3.07c0.52-0.07,5.51,3.15,5.5,3.59,0,0.18-0.59,1.53-0.81,1.88-0.28,0.44-2.28-0.71-3.09-1.82-0.63-0.84-1.89-3.45-1.75-3.59,0.01-0.02,0.12-0.06,0.15-0.06zm-58.43,6.25c0.05,0,0.3,0.07,0.37,0.09,0.99,0.38,1.56,10.84,0.78,14.34-0.81,3.65-3.25,4.8-2.72,1.29,0.2-1.31,0.65-8.9,0.63-10.47-0.03-1.95,0.55-5.25,0.94-5.25zm5.59,13.72c0.12-0.05,0.34,0.95,0.34,1.53,0.01,0.62,1.13,2.71,1.57,2.87,0.91,0.35-0.16,6.89-1.75,10.6-1.27,2.95-4.74,3.76-4.29,1,0.73-4.45,3.03-14.55,3.47-15.25,0.15-0.23,0.59-0.73,0.66-0.75zm15.41,48.75c0.06-0.01,0.93,0.59,1.31,0.9,0.48,0.39,2.45,2.75,2.72,3.25,0.27,0.51,0.69,1.85,0.59,1.85-0.26,0-3.7-4.09-4.22-5-0.18-0.33-0.47-1-0.4-1zm-287.22,305.31c0.055,0,0.156,0.06,0.156,0.09,0,0.13-4.237,6.14-5.844,8.28-1.607,2.15-8.612,12.77-9.656,14.66-2.108,3.8-8.5,11.68-8.5,10.47,0-1.46,5.569-15.55,7.062-17.88,1.588-2.47,12.875-13.84,14.75-14.84,0.452-0.24,1.865-0.78,2.032-0.78zm233.56,82.65c1.03-0.02,3.78,0.51,3.97,0.82,0.32,0.52-8.99,3.19-14.38,4.12-1.51,0.27-6.77,1.44-7.25,1.63-1.63,0.63,0.47-1.73,2.69-3.03,1.66-0.98,12.71-3.49,14.97-3.54zm-16.63,16.32c0.05-0.01,0.26-0.01,0.32,0,0.15,0.01,0.92,0.21,1.15,0.28,1.62,0.49,8.77,5,9.07,5.72,0.14,0.34,1.68,3.93,2.12,4.97,0.93,2.18-1.17,2.93-3.75,1.34-2.92-1.79-9.69-9.02-9.69-10.34,0-0.66,0.46-1.94,0.78-1.97zm14.5,34.93c0.94-0.07,2.8,4.04,3.32,6.88,0.29,1.63,0.97,5.91,0.93,5.91-0.03,0-3.09-4.28-4.21-5.91l-4.1-5.94,2.5-0.62c0.31-0.08,1.35-0.3,1.56-0.32zm-0.93,15.91c0.06-0.01,0.74,0.97,1.22,1.03,1.29,0.18,11.18,18.06,10.18,18.46-0.16,0.06-10.1-16.59-10.59-17.24-0.34-0.75-0.89-2.23-0.81-2.25z"/>
</svg>
