<?xml version="1.0" standalone="no"?>
<!DOCTYPE svg PUBLIC "-//W3C//DTD SVG 20010904//EN"
 "http://www.w3.org/TR/2001/REC-SVG-20010904/DTD/svg10.dtd">
<svg version="1.0" xmlns="http://www.w3.org/2000/svg"
 width="792.000000pt" height="1188.000000pt" viewBox="0 0 792.000000 1188.000000"
 preserveAspectRatio="xMidYMid meet">
<metadata>
Created by potrace 1.10, written by Peter Selinger 2001-2011
</metadata>
<g transform="translate(0.000000,1188.000000) scale(0.100000,-0.100000)"
fill="#000000" stroke="none">
<path d="M3618 10095 c-1 -2 -80 -6 -173 -9 -177 -5 -264 -19 -402 -62 -54
-17 -83 -31 -83 -41 0 -9 -6 -12 -18 -9 -22 8 -164 -63 -200 -99 -13 -14 -41
-29 -61 -35 -20 -5 -59 -25 -87 -44 -28 -19 -66 -41 -85 -49 -35 -14 -118 -86
-249 -213 -41 -40 -89 -84 -107 -96 -95 -71 -209 -245 -277 -423 -35 -93 -27
-149 9 -62 38 91 61 133 88 159 26 26 35 48 20 48 -5 0 -17 -14 -28 -30 -11
-16 -24 -30 -28 -30 -11 0 23 47 65 90 19 19 45 50 57 68 13 19 33 44 45 57
38 41 91 120 88 131 -1 6 13 19 33 28 19 9 46 32 61 51 14 19 31 35 37 35 6 0
-16 -28 -50 -62 -66 -68 -199 -263 -232 -341 -23 -52 -27 -87 -11 -87 5 0 7 6
4 14 -3 8 3 22 14 32 11 9 17 24 15 35 -3 10 4 30 16 45 12 15 21 31 21 36 0
11 78 128 86 128 2 0 0 -9 -6 -19 -13 -25 -13 -31 0 -31 6 0 10 6 10 13 0 8
10 22 21 33 l21 19 -17 -40 c-9 -22 -20 -49 -23 -60 -3 -11 -10 -23 -16 -27
-8 -6 -8 -8 0 -8 15 0 40 30 48 56 8 27 102 129 118 129 7 0 19 12 26 28 7 15
18 27 23 27 12 0 3 -17 -46 -90 -36 -54 -85 -143 -85 -156 0 -3 9 4 21 17 18
21 20 21 13 4 -4 -11 -7 -28 -8 -37 0 -10 -5 -18 -10 -18 -5 0 -7 -3 -4 -6 3
-3 0 -27 -7 -55 -8 -29 -9 -49 -3 -49 5 0 7 -20 4 -47 -2 -27 -5 -60 -5 -75
-1 -35 -18 -36 -31 -3 -11 29 -24 34 -15 5 3 -10 2 -28 -4 -38 -13 -24 -25
-124 -23 -184 1 -26 -3 -50 -8 -53 -6 -3 -10 -17 -10 -31 0 -38 -27 -29 -34
12 -5 26 -11 34 -22 30 -8 -3 -14 0 -13 7 3 28 -2 48 -11 42 -6 -4 -10 8 -10
29 0 19 -4 38 -10 41 -5 3 -10 -1 -10 -9 0 -9 -7 -16 -15 -16 -20 0 -19 34 1
54 14 14 14 16 0 16 -20 0 -62 -82 -71 -140 -9 -62 -15 -81 -24 -76 -14 9 -4
110 17 168 17 48 18 56 5 51 -11 -4 -14 -2 -11 8 3 8 11 13 18 11 8 -2 10 3 7
13 -4 8 -2 15 3 15 6 0 10 20 10 45 0 25 4 45 8 45 4 0 8 12 9 28 2 37 -58
-88 -68 -143 -11 -56 -30 -127 -40 -147 -5 -10 -9 -30 -9 -45 0 -16 -4 -43 -9
-60 -6 -19 -6 -35 -1 -38 5 -3 14 13 20 35 6 22 15 40 20 40 10 0 -7 -59 -21
-75 -5 -5 -9 -19 -9 -32 0 -13 -4 -23 -10 -23 -5 0 -7 -6 -4 -14 3 -8 0 -17
-5 -21 -6 -3 -9 -11 -6 -16 4 -5 1 -9 -4 -9 -6 0 -11 -12 -11 -27 0 -31 -15
-22 -16 10 -2 73 -4 82 -14 67 -5 -8 -10 -27 -10 -42 0 -15 -5 -30 -10 -33
-12 -8 -13 -55 -1 -55 19 0 20 -34 3 -83 -14 -44 -17 -48 -20 -25 -2 19 -8 25
-18 21 -7 -3 -11 -9 -8 -14 3 -6 0 -16 -6 -24 -7 -8 -10 -21 -7 -28 5 -13 -27
-60 -35 -51 -3 2 -8 -10 -12 -28 -4 -23 -9 -29 -17 -21 -8 8 -8 17 0 31 5 10
11 37 12 58 1 21 7 45 13 53 9 12 8 13 -4 6 -12 -7 -13 -6 -4 6 7 8 17 39 23
69 6 30 18 75 25 100 8 25 17 59 20 75 6 29 6 29 -10 10 -9 -11 -26 -44 -39
-72 -26 -57 -38 -70 -26 -25 12 41 51 115 71 134 12 11 16 27 14 49 -5 42 -7
43 -30 17 -10 -12 -13 -18 -6 -14 10 6 13 3 10 -8 -1 -10 -7 -16 -12 -16 -13
2 -26 -22 -26 -48 0 -13 -6 -38 -13 -55 -12 -27 -33 -101 -53 -182 -2 -11 -10
-51 -16 -88 -9 -55 -9 -70 1 -77 9 -5 10 -10 2 -14 -16 -10 -14 -26 2 -20 26
10 37 -84 26 -208 -5 -62 -12 -123 -14 -135 -2 -13 0 -23 5 -23 11 0 7 -53 -5
-62 -6 -5 -6 -11 3 -16 7 -5 12 -17 11 -28 -4 -40 4 -58 10 -21 7 41 26 51 26
13 0 -12 5 -34 11 -47 33 -71 38 -90 39 -153 0 -39 -1 -62 -3 -53 -2 9 -8 17
-13 17 -5 0 -9 8 -9 19 0 10 -7 34 -15 52 -15 33 -16 32 -11 -51 6 -101 15
-150 30 -169 6 -7 11 -21 11 -30 3 -47 18 -102 26 -89 6 9 9 7 9 -8 0 -11 14
-36 31 -55 29 -31 31 -32 25 -9 -17 63 -18 80 -7 80 6 0 12 -3 13 -7 4 -21 8
-70 8 -88 -1 -11 -1 -24 -1 -30 -1 -17 32 -129 42 -145 7 -10 9 -1 8 30 -3 53
6 89 34 149 l22 43 -29 23 c-16 13 -42 26 -57 29 -21 4 -29 11 -29 26 0 17 6
20 33 18 28 -3 32 0 30 20 -4 35 5 26 17 -18 6 -22 16 -40 21 -40 16 0 0 180
-17 197 -7 8 -19 33 -26 56 -6 23 -15 44 -18 47 -3 3 -11 17 -18 31 -12 23
-12 31 4 60 l17 34 13 -30 c6 -16 14 -48 18 -70 3 -22 10 -55 15 -72 5 -18 7
-33 5 -33 -3 0 1 -7 9 -15 8 -8 18 -37 22 -65 4 -27 11 -50 16 -50 6 0 15 -13
20 -30 6 -16 15 -27 20 -24 5 3 9 -4 9 -16 0 -31 15 -17 28 27 46 155 52 312
22 520 -32 217 -33 376 -2 379 7 1 18 2 25 3 8 0 14 7 14 14 4 66 18 159 24
163 5 3 9 -2 9 -10 0 -9 5 -16 10 -16 6 0 10 7 10 16 0 20 25 45 35 36 5 -4 5
1 2 11 -4 11 -1 20 8 23 8 3 23 34 35 69 12 36 32 80 46 100 13 20 24 40 24
45 0 5 6 13 13 17 12 7 69 186 72 224 1 10 14 34 30 55 23 31 25 36 10 30 -17
-6 -17 -4 3 17 26 28 30 45 5 26 -11 -9 -9 -3 6 19 12 18 24 43 26 55 4 32 32
149 42 172 4 11 14 20 21 21 6 1 21 2 32 3 12 0 20 8 20 19 0 10 14 31 30 47
17 16 30 36 30 46 0 9 8 20 18 24 16 6 16 7 -1 17 -16 8 -30 -1 -93 -64 -41
-41 -74 -71 -74 -66 0 5 9 18 20 30 11 12 20 27 20 32 0 6 -4 4 -10 -4 -5 -8
-11 -12 -15 -9 -3 3 5 14 17 25 12 10 18 13 14 7 -4 -7 -3 -13 1 -13 5 0 37
36 72 80 34 44 67 80 72 80 5 0 9 6 9 13 0 7 28 33 63 57 34 24 53 34 43 22
-11 -12 -14 -22 -8 -22 6 0 14 5 17 10 3 6 11 10 17 10 6 0 6 -6 -2 -15 -11
-13 -10 -14 6 -9 10 4 -12 -23 -51 -59 -38 -37 -75 -65 -82 -63 -6 3 -19 -4
-29 -15 -10 -11 -12 -19 -6 -19 7 0 12 5 12 10 0 6 4 10 9 10 5 0 8 -6 7 -12
-5 -25 -34 -86 -45 -92 -18 -11 -13 -32 8 -32 10 0 17 6 14 12 -7 19 77 133
93 127 13 -5 12 -9 -3 -27 -10 -11 -22 -24 -27 -28 -5 -3 -11 -14 -12 -23 -2
-17 -79 -139 -101 -163 -15 -15 -18 -36 -4 -28 8 6 -29 -115 -49 -159 -5 -11
-18 -42 -28 -70 -12 -34 -24 -50 -34 -49 -9 1 -19 -5 -23 -13 -3 -10 -1 -13 9
-10 10 4 13 1 9 -8 -3 -8 -10 -12 -16 -8 -6 4 -8 0 -4 -10 3 -9 3 -17 -1 -19
-4 -2 -16 -18 -26 -37 -17 -30 -17 -34 -3 -28 12 5 17 1 17 -14 0 -11 5 -17
10 -14 6 3 10 -2 10 -12 1 -17 2 -17 15 1 21 28 20 53 0 36 -13 -11 -14 -10
-9 3 3 8 12 18 19 21 19 7 47 63 52 106 3 19 12 47 19 63 21 40 51 141 48 161
-2 17 41 126 51 126 2 0 2 -7 -1 -15 -4 -8 -4 -15 0 -15 8 0 37 57 42 83 2 11
19 45 39 74 38 58 59 73 27 21 -11 -18 -23 -44 -27 -58 -4 -14 -21 -54 -38
-90 -16 -36 -31 -81 -33 -100 -4 -31 -3 -33 6 -11 14 33 23 21 10 -13 -6 -17
-14 -24 -22 -20 -8 5 -9 2 -5 -10 4 -9 1 -31 -6 -49 -8 -18 -12 -38 -9 -46 2
-8 0 -11 -5 -8 -8 5 -26 -38 -39 -93 0 -3 -8 -22 -17 -42 -10 -21 -17 -41 -17
-46 0 -5 -7 -15 -15 -22 -9 -7 -14 -18 -12 -24 2 -6 -4 -27 -14 -46 -39 -80
-52 -114 -54 -141 -3 -57 24 -19 41 56 9 39 63 145 75 145 5 0 18 18 29 40 25
48 43 44 33 -8 -3 -20 -7 -74 -7 -119 -1 -77 0 -81 17 -66 9 9 17 22 17 28 0
7 18 68 40 136 22 68 45 142 51 164 10 37 12 38 20 18 5 -13 13 -23 18 -23 12
0 51 49 51 65 0 7 7 18 15 25 25 20 18 -5 -15 -57 -39 -61 -38 -70 8 -69 34 1
37 3 35 29 -2 25 6 31 34 28 8 -1 10 5 7 14 -4 8 -1 15 6 15 6 0 10 6 8 12 -3
7 4 21 13 32 10 10 16 23 13 27 -2 4 4 12 13 18 17 10 17 10 0 11 -17 0 -17 3
6 43 13 23 22 48 20 55 -3 7 1 11 8 10 12 -3 20 18 34 85 3 15 9 27 14 27 5 0
7 -10 4 -22 -2 -13 14 14 37 60 47 93 63 102 31 18 -28 -75 -62 -211 -66 -266
-2 -25 -6 -63 -9 -85 -3 -22 -7 -76 -10 -120 -2 -44 -1 -66 1 -48 3 23 17 42
51 70 25 21 52 38 58 38 12 0 106 63 271 183 88 63 99 69 89 53 -13 -21 47
-21 90 0 36 17 47 19 59 9 12 -10 16 -9 21 5 5 13 14 15 44 10 33 -6 39 -4 45
14 4 14 15 21 33 21 15 0 38 6 52 13 14 7 45 14 69 15 24 2 52 7 61 12 10 5
19 7 22 5 2 -3 19 -1 36 4 18 5 32 8 32 5 0 -3 -16 -18 -35 -35 -19 -17 -35
-36 -35 -42 0 -6 12 0 28 14 39 36 67 56 59 43 -9 -15 45 -26 58 -12 7 8 6 8
-4 3 -10 -6 -12 -4 -6 5 6 10 12 7 26 -11 l19 -24 1 25 c1 14 1 28 0 33 0 4 4
7 10 7 6 0 9 -7 5 -15 -3 -9 4 -25 17 -38 12 -12 21 -25 20 -29 -2 -4 6 -10
17 -13 11 -4 20 -11 20 -16 0 -5 -9 -4 -20 3 -10 7 -23 8 -27 4 -4 -5 -2 -11
5 -13 6 -3 12 -11 12 -18 0 -8 10 -19 21 -26 17 -9 19 -13 8 -20 -10 -6 -10
-9 -2 -9 10 0 10 -6 1 -25 -7 -15 -17 -24 -25 -21 -7 3 -13 0 -13 -6 0 -7 -5
-6 -15 2 -8 7 -15 9 -15 5 0 -9 42 -44 53 -45 5 0 6 4 2 9 -3 5 -1 12 4 15 5
3 11 -1 15 -9 3 -8 13 -15 22 -15 11 0 14 5 9 18 -4 12 -3 14 5 6 6 -6 8 -18
4 -27 -7 -19 -29 -23 -39 -7 -4 6 -11 8 -16 4 -5 -3 -7 -10 -3 -15 3 -5 0 -16
-6 -24 -7 -8 -9 -15 -4 -16 5 0 0 -5 -11 -10 -17 -8 -16 -9 5 -4 14 3 30 7 37
9 22 4 27 16 7 16 -18 1 -18 1 0 11 12 7 21 8 25 2 3 -6 13 -12 21 -15 9 -3
-2 -10 -28 -18 -41 -13 -42 -14 -25 -33 17 -19 17 -20 1 -14 -10 4 -18 2 -18
-3 0 -6 4 -10 9 -10 11 0 31 -55 31 -87 0 -16 -4 -22 -12 -17 -6 4 -24 8 -39
9 l-28 3 22 -30 c18 -24 19 -32 9 -48 -7 -11 -8 -20 -3 -20 6 0 13 5 16 10 10
16 25 12 25 -7 0 -13 3 -14 12 -5 23 23 28 12 5 -14 -29 -33 -41 -74 -21 -74
8 0 27 8 41 18 15 9 24 11 20 5 -6 -9 0 -13 22 -13 24 0 31 -4 31 -19 0 -14
-5 -18 -20 -14 -11 3 -20 9 -20 14 0 5 -7 9 -15 9 -8 0 -15 -9 -15 -20 0 -11
4 -20 9 -20 4 0 7 -13 5 -30 -4 -31 9 -40 23 -17 4 8 17 17 27 20 16 6 17 5 6
-8 -11 -13 -8 -16 19 -21 25 -5 29 -9 20 -21 -10 -11 -9 -12 5 -7 21 8 21 -5
-1 -21 -15 -11 -15 -13 7 -20 l23 -7 -23 -18 c-19 -15 -22 -21 -12 -32 6 -8 9
-18 5 -21 -3 -4 -1 -7 5 -7 7 0 12 -5 12 -11 0 -6 -9 -8 -22 -4 -20 5 -21 5
-5 -5 10 -7 25 -9 34 -6 12 5 13 4 5 -7 -7 -8 -9 -17 -5 -20 3 -4 -1 -7 -10
-7 -9 0 -19 5 -22 10 -3 6 -17 10 -31 10 -14 0 -22 4 -19 10 3 6 2 10 -4 10
-6 0 -13 -11 -17 -25 -6 -24 -24 -36 -24 -16 0 12 -78 3 -108 -12 -18 -8 -33
-7 -68 6 -24 9 -44 12 -44 7 0 -6 5 -10 12 -10 6 0 9 -3 6 -6 -4 -3 -16 0 -28
6 -15 8 -25 9 -29 2 -3 -5 -39 -12 -80 -15 -46 -3 -77 -10 -82 -18 -6 -10 -9
-11 -9 -2 0 14 -39 12 -80 -5 -14 -5 -37 -8 -51 -7 -15 2 -32 -1 -40 -6 -11
-7 -11 -9 -1 -9 7 0 10 -5 7 -10 -4 -6 -11 -8 -16 -4 -6 3 -9 0 -7 -8 5 -21
-41 -78 -63 -78 -11 0 -22 7 -25 15 -5 12 -9 13 -21 4 -12 -11 -12 -14 2 -22
12 -7 13 -12 5 -22 -7 -8 -13 -33 -15 -55 -2 -24 -11 -47 -20 -54 -13 -9 -14
-17 -6 -38 8 -21 7 -31 -5 -43 -18 -17 -27 -92 -13 -100 5 -4 9 -23 9 -44 0
-21 9 -59 20 -84 18 -39 19 -50 8 -68 -10 -17 -10 -23 0 -26 17 -7 15 -43 -3
-43 -16 0 -21 -25 -6 -34 15 -9 23 -58 11 -66 -6 -3 -13 -24 -15 -45 -3 -22
-10 -44 -15 -49 -19 -19 -9 -113 11 -100 10 6 12 -7 9 -45 -1 -14 2 -21 9 -17
7 4 11 -1 11 -14 0 -11 6 -23 13 -26 17 -6 16 -113 -2 -165 -8 -25 -9 -44 -2
-62 5 -14 7 -28 3 -32 -3 -3 0 -11 8 -16 13 -9 12 -10 -2 -6 -22 8 -52 -27
-45 -53 3 -11 1 -20 -5 -20 -5 0 -6 -5 -3 -10 8 -13 -12 -39 -40 -52 -43 -20
-90 -47 -82 -48 24 -1 -26 -30 -52 -30 -54 0 -47 -8 78 -99 34 -24 61 -48 61
-55 0 -6 7 -24 15 -40 9 -16 13 -36 11 -43 -3 -7 -2 -13 3 -13 13 0 20 -35 10
-52 -6 -10 -4 -20 6 -28 13 -10 15 -9 16 11 1 15 4 8 9 -16 4 -22 4 -50 -1
-62 -11 -29 -33 -31 -24 -3 6 20 -12 58 -42 88 -7 7 -13 21 -13 30 0 13 2 13
14 -4 13 -17 14 -15 2 18 -17 52 -23 55 -31 16 -7 -29 -53 -128 -60 -128 -1 0
2 23 8 50 11 58 7 66 -23 50 -20 -11 -21 -10 -10 9 14 28 3 27 -21 -1 -11 -15
-18 -18 -19 -9 0 11 -3 11 -15 1 -8 -7 -15 -18 -15 -24 0 -6 -13 -26 -30 -44
-19 -21 -30 -28 -30 -18 0 8 9 20 20 26 11 6 20 15 20 21 0 6 -4 7 -10 4 -5
-3 -10 -2 -10 3 0 5 9 12 20 15 20 5 28 27 10 27 -5 0 -10 -3 -10 -7 0 -5 -11
-13 -25 -20 -27 -12 -32 -5 -12 17 6 8 2 6 -10 -4 -13 -11 -23 -14 -23 -8 0 5
-6 9 -12 8 -20 -3 -79 -66 -72 -77 3 -5 0 -9 -5 -9 -6 0 -11 -7 -11 -15 0 -8
-4 -15 -10 -15 -6 0 -6 9 0 24 6 17 5 26 -3 30 -7 2 -5 5 5 5 9 1 20 10 23 21
4 11 11 18 16 15 5 -4 9 0 9 8 0 8 7 20 15 27 8 7 12 16 9 21 -3 5 0 8 7 7 6
-2 13 2 16 8 4 12 -21 11 -49 0 -9 -4 -21 -5 -27 -2 -5 4 -13 1 -16 -5 -4 -5
-13 -8 -21 -5 -8 3 -11 0 -8 -8 3 -7 -4 -20 -15 -30 -20 -18 -18 -46 3 -46 7
0 23 11 36 25 26 28 17 34 -12 8 -10 -9 -21 -13 -26 -9 -7 8 42 56 58 56 5 0
7 -7 4 -15 -4 -8 -1 -15 5 -15 8 0 7 -6 -1 -20 -7 -11 -18 -20 -24 -20 -13 0
-51 -40 -38 -40 5 0 1 -6 -8 -14 -23 -17 -59 -102 -52 -121 4 -8 2 -15 -4 -15
-5 0 -12 -7 -15 -14 -4 -10 -1 -13 9 -9 12 4 13 1 4 -21 -6 -17 -6 -26 1 -26
13 0 44 31 52 53 4 9 14 17 24 17 14 0 15 -2 4 -9 -7 -5 -11 -13 -7 -19 3 -5
-1 -12 -9 -16 -20 -7 -19 -25 1 -33 9 -3 27 6 45 23 31 29 36 27 17 -9 -10
-20 -10 -21 5 -8 9 7 23 11 32 8 10 -4 23 8 41 38 14 25 27 45 28 45 1 0 2
-16 2 -36 0 -21 -2 -32 -4 -25 -6 19 -20 12 -15 -9 3 -10 8 -19 12 -18 20 2
30 -4 25 -17 -4 -11 -2 -13 9 -9 8 3 18 1 22 -5 11 -19 32 -12 38 12 6 22 6
22 -10 2 -14 -18 -15 -18 -9 -2 3 10 6 27 6 38 0 36 49 10 51 -28 0 -15 2 -14
9 5 12 29 20 29 13 0 -5 -19 -3 -21 7 -11 11 10 16 9 26 -5 21 -27 16 -52 -11
-62 -15 -6 -25 -17 -25 -29 0 -21 -40 -37 -51 -19 -5 7 -8 7 -10 -1 -6 -16
-139 8 -139 25 0 8 -4 14 -10 14 -5 0 -7 -6 -5 -13 6 -14 -31 -40 -45 -32 -15
9 -12 25 5 25 8 0 15 4 15 9 0 17 -12 41 -21 41 -4 0 -5 -8 -2 -17 5 -12 2
-15 -10 -10 -16 6 -35 -5 -75 -43 -9 -8 -19 -15 -23 -15 -4 0 -11 -3 -15 -7
-12 -13 -26 -9 -18 5 4 6 -2 3 -14 -7 -12 -11 -24 -17 -27 -14 -3 3 4 13 15
23 24 22 27 43 3 24 -15 -13 -16 -11 -9 16 10 37 -1 28 -39 -37 -38 -64 -60
-75 -50 -27 4 19 13 44 21 57 15 23 6 30 -14 10 -23 -23 -12 4 19 47 17 24 29
51 27 61 -2 11 3 25 12 32 13 11 12 11 -7 3 -31 -16 -37 -14 -22 7 11 14 10
13 -9 -2 -23 -20 -27 -27 -14 -25 19 3 21 -3 8 -28 -8 -16 -27 -42 -43 -60
-26 -29 -28 -36 -26 -110 1 -43 5 -91 9 -107 4 -15 3 -31 -2 -35 -5 -3 -17
-18 -27 -33 -20 -32 -5 -38 16 -7 12 17 19 19 35 10 11 -6 22 -7 26 -4 17 18
2 -13 -29 -57 -21 -30 -28 -47 -19 -43 14 5 14 3 3 -15 -10 -17 -10 -23 4 -37
10 -9 15 -21 12 -26 -4 -5 -3 -9 2 -9 4 0 18 15 31 33 22 32 14 49 -14 27 -8
-7 -17 -11 -20 -8 -3 3 12 15 32 27 23 14 34 27 30 36 -3 10 3 17 20 21 19 5
22 9 13 20 -9 11 -8 15 4 20 9 3 23 23 31 45 12 30 23 41 46 45 16 4 37 15 46
25 9 11 22 19 27 19 5 0 20 11 32 24 33 36 95 49 189 41 91 -7 126 -13 143
-27 7 -5 16 -7 21 -4 5 3 29 8 53 10 24 2 67 7 95 11 35 5 54 4 59 -4 5 -9 10
-9 20 -1 11 9 18 5 35 -22 16 -27 18 -35 6 -43 -18 -13 -31 -55 -17 -55 6 0
10 -3 8 -7 -1 -5 1 -9 6 -10 4 -2 19 -15 32 -29 14 -15 26 -23 26 -18 1 5 2
14 3 19 0 6 7 20 14 33 14 24 37 20 28 -4 -3 -8 -1 -14 4 -14 18 0 10 -20 -7
-21 -15 0 -15 -2 2 -9 11 -5 17 -9 13 -11 -23 -5 -29 -7 -43 -8 -24 -2 -17
-15 14 -29 20 -9 29 -20 28 -33 -1 -16 -4 -17 -12 -7 -6 7 -23 24 -39 38 l-28
25 8 -30 c4 -16 7 -35 6 -42 -1 -7 -3 -20 -4 -28 -1 -10 -5 -12 -11 -6 -6 6
-14 5 -22 -2 -11 -10 -10 -16 3 -31 16 -18 16 -18 -6 -7 -16 9 -21 18 -17 31
4 12 -1 28 -14 42 -24 25 -41 17 -20 -8 13 -16 12 -17 -9 -11 -23 5 -23 4 -17
-43 4 -26 3 -50 -2 -53 -5 -3 -10 6 -11 20 -1 15 -8 34 -16 42 -7 9 -16 24
-19 34 -8 21 -29 18 -35 -4 -3 -12 -2 -12 6 0 8 11 12 10 20 -5 15 -28 18 -67
7 -71 -6 -2 -17 11 -24 29 -10 26 -15 29 -18 15 -3 -10 5 -33 16 -52 11 -19
16 -35 11 -35 -6 0 -10 5 -10 10 0 20 -20 9 -25 -13 -4 -13 -13 -24 -21 -24
-9 0 -13 6 -10 14 3 8 2 11 -4 8 -5 -3 -17 6 -26 20 -9 14 -23 24 -30 21 -8
-3 -14 0 -15 7 -1 7 -6 -5 -13 -26 -6 -21 -16 -38 -21 -38 -8 1 -10 -15 -6
-48 1 -5 9 -8 19 -7 11 1 16 -5 14 -16 -2 -10 3 -18 9 -18 7 0 3 -9 -9 -21
-12 -11 -19 -25 -16 -31 4 -7 10 -5 15 4 5 9 21 23 36 33 16 10 23 12 16 5 -6
-7 -9 -19 -6 -26 3 -8 -1 -14 -8 -14 -7 0 -9 -3 -6 -6 4 -4 13 -1 22 6 13 11
14 10 10 -3 -8 -20 12 -32 30 -17 11 10 15 10 15 1 0 -17 20 -3 31 23 6 15 7
11 3 -19 -5 -39 -5 -40 10 -15 10 16 15 20 16 9 0 -8 -7 -24 -15 -35 -16 -21
-20 -54 -6 -54 5 0 12 -13 16 -29 l6 -29 23 23 c13 13 26 30 29 39 4 9 11 16
18 16 6 0 9 -7 5 -15 -7 -19 3 -47 15 -39 5 3 9 0 9 -5 0 -6 -7 -11 -15 -11
-8 0 -15 -5 -15 -11 0 -6 7 -9 15 -5 19 7 19 -3 0 -27 -10 -14 -18 -16 -31 -9
-9 5 -25 7 -35 5 -11 -3 -19 0 -19 6 0 7 -5 9 -10 6 -6 -4 -10 5 -10 20 0 20
-4 26 -16 21 -8 -3 -13 -2 -10 2 2 4 1 14 -4 22 -7 12 -12 12 -22 2 -10 -10
-10 -17 -1 -31 11 -18 8 -31 -8 -31 -5 0 -6 7 -3 15 4 8 2 15 -4 15 -5 0 -13
-12 -16 -26 -5 -17 -12 -24 -21 -20 -8 3 -17 1 -20 -4 -4 -6 0 -10 8 -10 20 0
28 -37 11 -51 -11 -9 -14 -8 -14 4 0 32 -18 25 -22 -8 -3 -22 0 -34 6 -32 6 3
12 -6 12 -19 2 -24 -25 -42 -36 -24 -5 8 -9 6 -13 -5 -4 -9 -3 -14 2 -11 4 3
17 -2 27 -10 18 -15 18 -15 0 -10 -15 5 -17 2 -12 -20 8 -30 -11 -24 -22 7 -7
18 -8 18 -25 -2 -18 -20 -18 -21 2 -14 15 5 21 2 21 -9 0 -13 -7 -15 -32 -11
-29 4 -30 4 -13 -6 11 -7 21 -13 23 -15 2 -1 -1 -12 -8 -23 -7 -14 -7 -21 0
-21 5 0 10 6 10 14 0 8 5 18 10 21 7 4 9 -16 7 -56 -2 -41 -8 -64 -16 -67 -10
-3 -12 2 -7 23 7 29 -18 70 -36 59 -11 -7 -8 67 5 83 5 7 6 17 2 23 -4 7 -16
1 -30 -16 -13 -15 -22 -31 -19 -35 2 -4 -3 -9 -11 -12 -9 -4 -12 -1 -9 8 4 10
0 12 -15 8 -16 -4 -20 -2 -15 10 4 13 1 15 -18 12 -30 -6 -53 -36 -36 -46 7
-4 15 -6 19 -3 4 2 5 -6 1 -18 l-5 -23 23 20 24 20 -21 -30 c-29 -43 -63 -112
-57 -117 2 -3 -2 -11 -10 -17 -13 -11 -14 -9 -7 16 5 15 18 46 29 67 23 43 21
57 -6 49 -15 -4 -51 -53 -82 -111 -6 -13 -14 -22 -16 -19 -7 7 37 83 68 117
34 38 35 42 3 30 -22 -8 -27 -7 -33 11 -8 20 -10 19 -42 -13 -30 -29 -32 -30
-17 -6 9 15 13 29 9 32 -11 7 -94 -72 -88 -83 4 -5 1 -13 -5 -17 -8 -4 -9 -3
-5 4 4 7 1 12 -8 12 -17 0 -22 -25 -7 -34 4 -3 11 -19 14 -36 4 -16 12 -30 18
-30 6 0 23 -9 39 -20 15 -11 31 -16 35 -12 5 4 5 2 2 -5 -9 -14 18 -43 39 -43
8 0 12 -5 9 -11 -7 -10 30 -43 50 -44 12 -1 63 -14 85 -22 12 -4 11 -7 -5 -13
-19 -8 -19 -9 -1 -9 33 -2 96 -24 90 -32 -3 -5 6 -9 20 -9 28 0 43 -15 24 -24
-7 -3 2 -3 21 0 23 4 31 3 27 -5 -4 -6 -3 -11 3 -11 6 0 8 -6 6 -12 -3 -8 4
-14 20 -14 51 -3 95 -15 90 -25 -4 -5 -1 -9 5 -9 7 0 10 -7 6 -15 -6 -16 9
-21 19 -6 3 6 14 9 25 8 13 -1 16 -5 10 -11 -18 -18 -10 -29 8 -13 10 10 23
17 28 17 5 0 2 -4 -5 -9 -11 -7 -4 -14 30 -28 24 -9 50 -16 56 -15 8 2 10 -3
7 -13 -3 -8 -11 -15 -17 -15 -6 0 -7 -3 -4 -6 4 -4 13 -2 21 5 10 8 21 9 41 1
15 -6 30 -8 35 -5 9 6 40 -50 40 -72 0 -7 6 -13 13 -13 9 0 8 -3 -2 -9 -11 -7
-10 -10 4 -18 16 -9 16 -11 -5 -26 -20 -14 -21 -19 -10 -32 11 -13 10 -14 -5
-9 -15 6 -17 3 -12 -15 4 -17 2 -21 -9 -17 -8 3 -12 2 -9 -4 8 -13 -28 -116
-49 -139 -11 -12 -15 -27 -11 -40 3 -12 0 -23 -8 -28 -7 -4 -17 -16 -20 -27
-4 -11 -13 -16 -22 -12 -8 3 -15 1 -15 -4 0 -6 5 -10 10 -10 6 0 10 -4 10 -10
0 -5 -3 -9 -7 -9 -20 3 -23 -3 -13 -21 8 -14 8 -20 0 -20 -7 0 -5 -6 4 -15 16
-16 41 -21 32 -6 -4 5 3 7 14 4 11 -3 17 -9 14 -14 -3 -5 10 -9 29 -9 19 0 40
-7 47 -15 7 -8 17 -12 24 -8 6 3 3 -3 -7 -14 -21 -24 -6 -43 19 -22 8 6 18 9
21 5 4 -4 1 -11 -6 -16 -8 -4 -11 -15 -8 -24 7 -18 28 -22 25 -4 -2 6 8 15 22
19 14 4 53 16 88 26 50 16 62 17 62 6 0 -7 -11 -19 -25 -25 -18 -8 -22 -14
-13 -19 9 -6 8 -10 -5 -15 -9 -3 -17 -15 -17 -25 0 -12 5 -16 15 -13 31 12 37
-9 9 -32 -23 -18 -25 -23 -11 -24 20 0 24 -30 3 -30 -14 0 -28 -23 -31 -52 -2
-12 4 -15 23 -12 23 5 22 3 -12 -31 -20 -19 -45 -35 -56 -35 -11 0 -20 -4 -20
-10 0 -15 23 -12 46 5 31 24 72 16 47 -9 -5 -4 -8 -13 -8 -19 0 -5 -6 -12 -14
-15 -8 -3 -11 0 -7 7 4 6 3 11 -2 11 -5 0 -12 -9 -15 -20 -6 -25 26 -28 49 -5
9 8 25 15 37 15 12 0 31 7 41 15 11 8 29 15 40 14 21 0 21 0 1 -8 -25 -10 -62
-51 -47 -51 6 0 14 5 17 10 3 6 17 10 31 10 30 0 32 -25 2 -35 -21 -7 -20 -8
10 -12 34 -5 45 -23 13 -23 -14 0 -18 -5 -14 -20 6 -24 16 -25 33 -5 7 8 21
15 32 15 17 0 19 -2 7 -16 -11 -13 -9 -14 17 -8 26 7 28 6 15 -9 -8 -11 -9
-17 -3 -17 6 0 9 -7 6 -15 -7 -18 18 -20 49 -3 19 10 21 9 9 -4 -9 -11 -10
-18 -2 -23 27 -17 -15 -53 -70 -60 -18 -2 -40 -11 -49 -19 -14 -15 -13 -16 4
-16 38 -1 -11 -27 -75 -39 -33 -7 -62 -16 -65 -21 -9 -14 40 -12 104 4 31 8
76 19 101 24 25 5 81 21 125 35 69 21 106 34 230 82 28 11 -41 -36 -93 -63
-24 -12 -48 -20 -53 -17 -5 4 -9 -1 -9 -10 0 -9 -4 -13 -10 -10 -5 3 -10 -2
-10 -12 0 -15 -2 -16 -11 -3 -8 11 -9 7 -6 -20 3 -19 3 -29 0 -22 -7 17 -21
15 -27 -6 -3 -9 -4 -5 -2 9 1 15 -2 26 -10 26 -9 0 -11 -13 -9 -41 2 -23 1
-33 -2 -24 -7 28 -24 21 -17 -7 4 -16 2 -25 -6 -25 -8 0 -10 -12 -5 -42 6 -39
25 -77 25 -52 0 11 49 39 63 36 4 -1 7 8 7 20 0 19 2 20 10 8 8 -12 10 -10 10
10 1 24 1 24 15 6 8 -11 15 -14 15 -7 0 7 5 9 10 6 6 -3 10 4 10 16 0 22 0 22
15 3 14 -19 14 -19 15 1 1 18 2 17 15 -5 17 -29 19 -22 5 14 -5 14 -6 26 -1
26 5 0 12 -10 16 -22 4 -14 8 -18 12 -10 6 16 23 6 23 -14 0 -8 -4 -12 -10 -9
-15 9 -12 -19 5 -41 13 -18 14 -18 8 5 -4 17 -3 22 5 17 7 -4 12 -13 12 -21 0
-8 7 -11 20 -8 11 3 20 13 20 22 0 14 2 14 10 1 7 -11 10 -12 10 -2 0 24 26
42 40 29 10 -10 11 -7 5 13 -7 24 -7 24 9 5 8 -11 16 -27 17 -35 0 -8 5 0 10
18 7 23 15 32 25 28 7 -3 14 0 14 7 0 7 10 1 21 -13 19 -23 19 -23 9 -2 -9 17
-8 26 3 37 8 8 17 11 21 8 3 -4 6 2 6 12 0 10 2 16 5 13 10 -10 -7 -58 -18
-51 -7 4 -8 0 -4 -12 4 -9 2 -24 -4 -31 -9 -11 -8 -14 5 -14 15 0 21 12 16 35
-1 6 4 4 11 -2 17 -17 30 -16 23 0 -3 8 2 14 10 14 8 0 12 -5 9 -10 -4 -6 1
-8 11 -4 10 4 19 7 22 7 2 0 1 8 -2 18 -5 15 -4 16 8 1 14 -17 29 -9 41 21 4
12 6 12 6 1 1 -13 122 106 229 224 29 32 48 45 59 41 12 -5 13 -3 5 6 -13 17
31 63 49 52 8 -4 9 -3 5 4 -9 15 59 86 73 77 6 -3 9 0 6 8 -8 19 30 51 51 43
14 -5 15 -4 5 8 -13 15 1 32 18 22 5 -3 8 2 7 12 -1 11 5 16 18 14 10 -2 15 1
11 7 -8 14 30 55 44 47 7 -4 8 -1 5 8 -3 9 -2 16 3 16 5 0 37 26 70 58 33 31
100 93 149 137 49 44 102 92 119 107 16 16 58 47 92 70 60 41 76 58 53 58 -5
0 -10 -5 -10 -10 0 -7 -14 -8 -37 -4 -66 13 -123 7 -152 -13 l-26 -20 2 166
c2 103 6 167 13 169 15 5 12 22 -4 22 -11 0 -14 15 -12 66 1 36 -2 68 -6 70
-14 9 -21 97 -9 117 9 13 9 17 1 12 -7 -4 -14 2 -17 14 -7 26 -17 27 -42 0
-20 -22 -36 -12 -25 15 7 18 -11 22 -21 6 -4 -6 -16 -8 -27 -4 -12 3 -24 1
-28 -7 -6 -9 -12 -9 -25 4 -9 9 -13 21 -10 27 3 5 1 10 -5 10 -6 0 -13 -7 -16
-15 -7 -18 -31 -20 -37 -2 -3 8 -12 4 -28 -13 -21 -21 -24 -22 -27 -7 -4 21
-7 21 -37 1 -15 -10 -25 -12 -25 -5 0 17 -20 13 -27 -7 -16 -39 -49 -77 -65
-74 -11 2 -18 -3 -18 -12 0 -20 -5 -20 -41 1 -16 10 -28 24 -26 33 1 9 -4 14
-14 12 -29 -4 -68 51 -83 118 -26 115 -48 244 -47 278 1 17 -3 32 -8 32 -4 0
-7 19 -5 42 1 23 -2 48 -7 55 -7 8 -7 18 0 31 7 13 7 22 -1 30 -9 9 -9 12 0
12 7 0 12 5 12 11 0 6 -7 8 -16 5 -13 -5 -14 -3 -7 6 12 16 16 118 4 118 -5 0
-11 -14 -15 -31 -3 -16 -13 -37 -21 -45 -13 -14 -15 -13 -15 3 1 10 8 36 16
58 18 51 30 215 15 215 -7 0 -10 18 -6 50 3 30 0 52 -6 56 -8 5 -8 9 0 14 7 3
14 23 18 44 4 27 1 41 -12 56 -25 27 -50 28 -33 1 9 -15 9 -23 -3 -37 -8 -9
-13 -26 -11 -37 2 -10 -1 -17 -6 -13 -5 3 -17 -23 -27 -57 -10 -34 -24 -69
-32 -78 -7 -8 -13 -19 -13 -23 0 -17 -31 -36 -69 -42 -46 -7 -53 5 -26 43 11
16 13 28 5 48 -7 18 -7 33 0 46 13 22 25 26 16 4 -8 -22 2 -18 14 6 8 15 8 24
0 34 -7 9 -8 15 -1 19 6 4 8 13 5 20 -3 8 -1 17 5 20 6 4 8 14 5 24 -5 14 -4
15 5 2 9 -13 13 -12 26 8 9 12 20 20 24 18 11 -7 28 31 36 76 3 20 12 50 20
65 8 15 15 35 15 44 0 9 7 22 15 29 12 10 15 10 15 -4 0 -9 4 -16 10 -16 5 0
9 24 9 53 -1 28 2 73 6 98 4 30 3 49 -4 53 -6 4 -11 13 -11 19 0 7 7 3 15 -7
8 -11 17 -18 19 -15 4 4 -16 82 -29 112 -6 14 -4 16 10 11 15 -6 17 -2 13 34
-2 26 0 38 6 32 5 -5 10 -64 10 -130 1 -66 4 -120 8 -120 4 0 13 10 19 22 6
12 22 33 36 47 16 18 23 36 21 57 -1 19 5 38 15 49 10 10 15 25 12 35 -4 14 2
21 30 30 24 8 35 17 31 26 -3 9 1 14 14 14 10 0 26 8 36 17 10 10 20 18 24 18
4 0 21 14 38 31 28 28 32 40 36 100 4 67 8 84 27 132 5 13 9 31 9 42 0 10 5
20 12 22 8 3 14 81 19 279 9 334 16 423 33 463 20 45 36 233 39 451 l2 190
-28 60 c-16 33 -33 69 -38 80 -6 11 -8 43 -5 70 3 30 -3 82 -13 130 -28 121
-41 197 -41 236 0 20 -6 55 -14 80 -8 24 -17 66 -21 93 -9 65 -87 214 -173
329 -38 50 -86 121 -108 157 -43 71 -340 377 -459 472 -38 31 -101 86 -140
122 -87 83 -229 160 -283 154 -47 -6 -131 17 -153 41 -10 11 -32 22 -49 26
-16 4 -30 11 -30 15 0 5 -17 12 -37 15 -21 3 -55 10 -76 16 -21 6 -60 12 -85
14 -52 4 -107 13 -136 21 -12 4 -16 2 -12 -5 6 -10 -95 -8 -191 4 -17 2 -33 2
-35 0z m-1018 -355 c-14 -11 -54 -41 -90 -67 -36 -25 -79 -59 -97 -76 -17 -16
-37 -27 -43 -25 -7 2 15 23 48 48 34 24 59 47 56 51 -2 4 1 11 7 15 8 4 9 3 5
-4 -11 -18 10 -14 25 5 20 23 90 73 103 73 6 0 0 -9 -14 -20z m456 -139 c-9
-10 -16 -24 -14 -31 2 -8 -8 -19 -21 -26 -28 -15 -111 -140 -85 -130 9 3 3 -6
-14 -22 -16 -15 -33 -43 -37 -62 -4 -19 -18 -56 -31 -82 -29 -57 -31 -79 -5
-52 10 10 16 24 14 30 -2 7 1 15 8 20 8 5 10 3 4 -7 -8 -12 -6 -12 8 0 30 24
28 7 -3 -43 -17 -26 -38 -77 -48 -112 -10 -36 -22 -61 -27 -57 -4 4 -5 3 -2
-3 4 -7 -3 -34 -15 -60 -12 -27 -22 -52 -23 -56 0 -3 -4 -10 -9 -15 -5 -5 -6
-2 -1 6 5 10 4 12 -3 7 -7 -4 -9 -18 -6 -31 4 -16 -1 -30 -15 -44 -18 -18 -20
-18 -24 -3 -2 9 2 29 9 43 8 15 9 31 4 39 -7 12 -10 11 -16 -5 -16 -48 -74
-158 -80 -152 -6 6 24 89 40 107 7 8 19 33 26 55 7 22 16 45 21 51 5 6 6 13 3
16 -3 3 7 30 22 60 15 29 40 85 56 123 16 39 40 95 53 126 13 30 46 92 74 137
28 45 51 85 51 88 0 7 92 104 99 104 2 0 -4 -8 -13 -19z m49 -211 c-38 -38
-69 -78 -70 -88 -2 -20 -65 -105 -73 -97 -3 2 1 11 7 19 7 8 14 26 17 40 7 39
87 168 95 154 5 -8 19 -2 46 19 61 50 51 29 -22 -47z m-710 -31 c-5 -14 -3
-19 4 -15 5 4 4 -9 -5 -29 -8 -20 -12 -40 -9 -46 4 -5 0 -33 -8 -62 -8 -28
-22 -88 -32 -132 -9 -44 -19 -87 -22 -95 -3 -8 -5 -21 -4 -29 1 -8 -1 -17 -6
-20 -5 -3 -14 -17 -21 -31 -10 -21 -11 -14 -7 50 3 41 5 92 5 114 -1 51 34
176 71 254 30 61 47 82 34 41z m829 -63 c-5 -21 -3 -24 18 -22 20 2 24 -1 22
-18 -1 -12 -3 -21 -4 -21 -2 0 -4 -10 -5 -22 -3 -27 1 -28 21 -8 9 8 19 15 24
15 5 0 7 -7 4 -15 -4 -8 -10 -15 -15 -15 -5 0 -9 -7 -9 -15 0 -22 4 -19 49 26
43 44 64 46 74 8 6 -24 1 -31 -133 -153 -41 -37 -65 -63 -52 -57 37 19 25 -2
-34 -59 l-56 -55 6 107 c4 59 13 123 21 142 9 20 12 36 9 36 -4 0 -2 6 3 13 5
6 20 40 33 75 23 63 36 83 24 38z m-721 -3 c-3 -10 -10 -23 -15 -30 -6 -7 -6
-18 -2 -24 4 -8 3 -9 -4 -5 -7 4 -12 1 -12 -6 0 -17 -55 -123 -80 -156 -11
-14 -20 -33 -20 -43 0 -10 -4 -20 -8 -23 -9 -6 -8 30 2 64 23 72 67 161 77
154 4 -2 20 16 34 41 28 47 39 58 28 28z m508 -106 c-6 -8 -9 -16 -6 -19 8 -8
-60 -178 -71 -178 -4 0 -4 10 -1 21 5 19 3 19 -23 -6 -17 -16 -33 -38 -36 -49
-7 -20 -28 -46 -38 -46 -11 0 -6 21 11 47 22 33 26 68 6 51 -10 -8 -11 -13 -2
-18 8 -6 8 -9 -1 -15 -6 -4 -14 -4 -17 -1 -8 8 37 116 48 116 17 0 21 -29 10
-61 -9 -27 -9 -30 4 -19 8 7 15 19 15 27 0 14 60 114 88 146 18 20 30 24 13 4z
m443 -29 c-5 -7 -21 -23 -36 -36 -15 -13 -27 -28 -25 -34 2 -10 -83 -85 -148
-130 -26 -18 -24 -15 10 22 22 23 57 55 77 70 21 15 35 30 32 32 -2 3 16 24
41 47 45 41 63 52 49 29z m877 -1124 c7 -4 10 -3 6 3 -4 7 8 10 32 9 22 0 37
-4 35 -8 -9 -14 29 -26 48 -14 15 9 21 8 28 -4 5 -8 6 -18 3 -23 -3 -5 3 -6
14 -3 14 4 19 1 20 -14 1 -14 -4 -20 -20 -20 -17 0 -12 -5 18 -21 53 -28 53
-28 31 -45 -25 -18 -37 -18 -30 0 4 11 0 13 -15 9 -11 -3 -19 -9 -16 -13 2 -4
-6 -6 -18 -4 -233 34 -445 52 -417 34 18 -11 6 -16 -56 -23 -31 -4 -43 -1 -52
13 -9 14 -7 21 7 34 10 9 23 16 29 16 7 0 12 4 12 9 0 17 140 55 197 53 18 -1
43 5 58 12 26 14 64 14 86 0z m5 -145 c61 -16 55 -29 -13 -30 -77 0 -136 -12
-203 -39 -93 -38 -160 -71 -160 -80 0 -4 -7 -10 -15 -14 -30 -11 -14 13 58 87
41 41 84 77 98 80 49 9 192 7 235 -4z m-171 -162 c12 -74 62 -92 185 -66 50
11 86 4 42 -8 -13 -3 -22 -13 -22 -25 0 -14 5 -18 15 -14 21 7 19 2 -11 -44
-25 -38 -70 -60 -94 -45 -5 3 -19 1 -32 -6 -21 -11 -21 -12 -3 -25 10 -8 23
-10 29 -5 6 4 21 11 34 14 20 5 24 1 21 -19 -1 -9 23 -24 39 -24 7 0 11 4 7
10 -11 18 100 -33 123 -57 12 -13 27 -21 32 -18 6 3 10 0 10 -7 0 -8 4 -7 11
4 5 9 16 15 24 12 8 -4 13 -10 10 -14 -3 -5 0 -12 6 -15 5 -4 8 -13 5 -21 -3
-7 -1 -16 5 -20 6 -4 6 -11 -2 -20 -7 -8 -7 -14 -1 -14 5 0 15 7 22 15 8 9 21
13 32 9 10 -3 26 0 34 6 8 8 28 10 49 7 19 -3 35 -2 35 3 0 4 7 11 16 14 14 5
15 4 4 -9 -9 -11 -9 -22 -1 -46 14 -40 14 -40 -6 -32 -13 5 -15 2 -11 -15 4
-12 1 -25 -4 -29 -7 -4 -8 -1 -3 7 5 9 4 11 -3 6 -23 -14 -11 -31 33 -51 26
-11 41 -23 36 -28 -5 -5 -15 -6 -22 -2 -7 5 -26 9 -43 11 -27 2 -28 1 -11 -9
25 -15 30 -56 9 -72 -12 -8 -15 -21 -12 -39 4 -18 1 -29 -8 -33 -8 -3 -14 -14
-14 -25 0 -12 -4 -17 -12 -12 -10 6 -10 4 0 -7 14 -16 16 -33 2 -24 -5 3 -10
0 -10 -8 0 -8 -7 -17 -15 -21 -18 -7 -20 -26 -2 -26 26 0 38 -17 32 -43 -4
-15 -11 -24 -16 -21 -5 3 -6 10 -3 16 4 7 2 8 -4 4 -7 -4 -17 3 -24 18 -15 34
-32 33 -24 0 4 -16 2 -32 -6 -41 -11 -14 -10 -15 10 -9 25 8 32 -11 6 -21 -8
-3 -13 -12 -10 -19 3 -8 0 -11 -10 -7 -16 6 -18 -10 -4 -38 9 -15 7 -19 -5
-19 -9 0 -14 4 -11 9 6 9 -55 61 -72 61 -5 0 -12 -9 -15 -20 -3 -11 -1 -20 4
-20 5 0 9 -7 9 -15 0 -8 -6 -15 -14 -15 -8 0 -13 -7 -12 -16 0 -9 -9 -20 -21
-25 -16 -6 -21 -5 -17 5 4 9 -7 16 -30 20 -20 4 -36 11 -36 17 0 5 -9 4 -20
-3 -23 -14 -33 -8 -24 16 4 9 13 15 20 12 8 -3 14 -1 14 4 0 6 -5 10 -11 10
-6 0 -17 7 -26 15 -17 18 -40 14 -35 -5 1 -6 -3 -10 -10 -8 -7 3 -13 11 -13
19 0 19 -17 30 -37 23 -10 -3 -25 3 -35 15 -10 12 -24 21 -33 22 -13 0 -13 1
0 6 16 7 40 29 40 37 0 3 -8 6 -19 6 -12 0 -20 9 -24 29 -4 18 -14 30 -27 34
-14 4 -20 12 -18 24 1 11 -5 31 -15 46 -19 29 -15 47 9 47 8 0 14 9 14 20 0
11 -4 20 -9 20 -5 0 -16 11 -25 25 -16 24 -16 26 6 34 13 5 24 5 26 0 2 -5 8
-9 13 -9 6 0 7 5 3 11 -3 6 0 15 7 21 11 7 9 8 -6 6 -12 -2 -19 2 -17 10 2 9
-4 11 -18 7 -11 -4 -20 -2 -20 4 0 6 -3 10 -7 9 -5 -1 -21 4 -37 11 -24 9 -27
14 -16 24 10 9 13 9 17 0 3 -7 9 -13 14 -13 6 0 7 5 4 10 -3 6 -1 10 4 10 6 0
11 9 11 20 0 11 8 28 18 38 10 10 16 24 14 30 -6 18 -20 14 -18 -4 0 -9 -5
-19 -13 -22 -9 -3 -11 0 -6 8 5 8 3 11 -6 8 -7 -2 -23 7 -36 21 -16 18 -23 21
-23 11 0 -12 -4 -10 -15 4 -19 25 -19 42 0 26 12 -10 13 -6 8 27 -3 21 -11 44
-17 52 -8 10 -5 17 9 27 10 8 24 14 31 14 7 0 16 5 20 12 4 6 3 8 -3 5 -6 -4
-14 0 -17 9 -3 8 -11 12 -17 8 -6 -3 -15 0 -20 7 -8 12 -11 12 -19 -1 -13 -20
-13 -30 1 -30 5 0 7 -5 4 -10 -4 -6 -12 -5 -21 4 -11 11 -12 21 -4 41 6 17 7
33 1 43 -9 16 -10 16 -16 0 -8 -21 -25 -24 -25 -5 0 18 65 87 82 87 14 0 48
34 48 48 0 14 75 52 77 39 1 -7 4 -29 8 -50z m996 -391 c1 -6 1 -17 0 -23 -3
-18 9 -16 26 5 12 15 14 12 11 -25 -2 -24 1 -44 7 -47 6 -2 17 -23 24 -46 15
-51 15 -267 0 -306 -7 -19 -6 -31 1 -38 5 -5 10 -14 10 -20 0 -5 -7 -1 -15 10
-8 10 -15 15 -15 9 -1 -5 -3 -18 -5 -27 -2 -11 2 -15 11 -11 18 7 19 -28 2
-47 -11 -12 -10 -12 3 -2 14 10 16 6 15 -33 -1 -25 -3 -45 -4 -45 -8 0 -41 46
-42 58 0 6 -7 12 -15 12 -18 0 -19 -12 -3 -28 16 -16 -3 -16 -36 2 -22 11 -24
15 -12 25 16 13 15 84 -2 104 -8 10 -6 16 9 25 22 14 26 37 4 28 -8 -3 -15 -1
-15 4 0 6 9 10 20 10 11 0 20 5 20 10 0 6 -4 10 -9 10 -13 0 -39 87 -30 101 4
7 -1 21 -12 32 -21 23 -24 37 -9 37 12 0 9 92 -4 101 -4 4 3 30 18 58 14 28
23 58 20 66 -5 11 -2 13 10 9 9 -3 17 -11 17 -18z m-732 -645 c9 -6 10 -11 2
-15 -6 -4 -16 -17 -22 -29 -11 -21 -11 -21 14 2 32 29 60 24 31 -5 -11 -11
-19 -25 -17 -31 2 -6 -4 -19 -14 -29 -13 -12 -14 -19 -5 -22 14 -4 7 -22 -9
-22 -6 0 -7 4 -4 10 3 5 -7 12 -22 16 -57 12 -58 13 -34 38 13 14 18 25 11 28
-6 2 2 17 17 35 31 36 32 37 52 24z m771 -1 c0 -5 -4 -10 -10 -10 -5 0 -10 -4
-10 -10 0 -5 9 -10 20 -10 11 0 20 5 20 12 0 24 13 -3 15 -32 2 -25 0 -30 -13
-25 -13 5 -12 2 3 -15 10 -11 16 -23 12 -26 -9 -9 -47 16 -47 31 0 8 -3 15 -8
15 -4 0 -12 16 -18 35 -9 29 -8 35 5 38 27 8 31 7 31 -3z m-1565 -529 c0 -16
-4 -27 -9 -24 -5 3 -6 0 -4 -8 3 -8 12 -13 19 -11 7 2 19 -5 26 -14 15 -21 17
-38 3 -29 -6 3 -13 -1 -16 -9 -3 -9 -10 -16 -16 -16 -5 0 -16 -7 -24 -15 -19
-18 -53 -20 -50 -2 1 7 12 23 24 35 24 24 29 42 11 42 -6 0 -3 7 5 16 9 8 16
26 16 40 0 13 3 24 8 24 4 0 7 -13 7 -29z m1445 -881 c-11 -11 -17 -26 -14
-34 3 -8 -2 -25 -11 -38 -17 -23 -17 -22 -11 20 4 25 2 42 -4 42 -5 0 -7 -6
-4 -14 3 -8 1 -17 -5 -21 -13 -8 -43 19 -33 30 4 5 0 6 -9 2 -13 -4 -16 -1
-11 15 4 15 11 19 31 15 14 -2 37 -1 51 3 35 10 42 2 20 -20z M2192 9218 c-17
-22 -70 -238 -58 -238 3 0 10 19 16 43 6 23 15 51 20 62 20 45 44 145 35 145
-1 0 -7 -6 -13 -12z M4220 9160 c0 -6 -4 -8 -10 -5 -23 14 -8 -14 16 -30 22
-14 23 -19 12 -32 -11 -14 -10 -15 12 -8 32 10 34 11 26 30 -3 9 -11 13 -18 9
-8 -5 -9 -2 -5 9 4 11 -1 20 -13 27 -14 8 -20 8 -20 0z M2400 8618 c-18 -29
-49 -78 -70 -108 -45 -68 -52 -80 -46 -80 12 0 133 180 149 223 11 29 2 19
-33 -35z M2910 8083 c-19 -2 -42 -7 -50 -10 -8 -3 -24 -8 -34 -10 -19 -3 -87
-41 -96 -53 -10 -14 -49 -30 -72 -30 -21 -1 -22 -2 -6 -14 17 -12 17 -14 0
-28 -9 -9 -28 -19 -42 -23 -14 -4 -33 -13 -43 -20 -17 -12 -16 -13 8 -19 14
-4 61 -3 105 0 66 6 85 11 107 32 25 23 30 24 89 16 61 -10 112 -4 148 17 13
7 16 7 11 0 -11 -19 24 -24 57 -8 24 12 36 13 46 5 11 -9 12 -6 6 18 -9 37
-13 42 -24 24 -9 -15 -40 -23 -40 -10 0 5 5 12 10 15 21 13 8 43 -30 70 -40
28 -79 35 -150 28z M2807 7741 c-32 -11 -61 -22 -64 -24 -3 -3 24 -5 59 -4 50
2 63 -1 63 -13 0 -8 -9 -15 -20 -15 -58 -1 -210 -64 -252 -104 -12 -12 -34
-26 -48 -31 -15 -6 -23 -15 -19 -24 3 -8 -5 -23 -17 -35 l-22 -20 25 4 c14 3
44 23 66 45 22 22 44 40 50 40 6 0 20 -20 31 -45 12 -28 27 -45 38 -46 72 -5
166 2 198 15 20 9 57 16 82 16 24 0 71 8 103 18 67 19 74 34 37 74 -13 14 -20
31 -17 39 4 8 12 24 18 35 9 18 7 25 -6 36 -66 54 -205 72 -305 39z m189 -145
c1 0 4 -10 8 -22 7 -23 -7 -40 -39 -46 -20 -3 -21 -2 -16 65 1 14 6 17 24 11
12 -3 23 -7 23 -8z M3248 6674 c-12 -13 -14 -23 -7 -41 10 -28 34 -55 42 -47
5 5 46 12 80 13 28 1 20 16 -30 55 -52 41 -62 43 -85 20z M3476 5561 c-3 -4
-10 -21 -16 -36 -9 -23 -8 -26 5 -21 22 8 18 -14 -7 -41 -12 -13 -17 -23 -11
-23 5 0 16 8 24 18 19 23 51 92 41 91 -20 -3 -33 2 -27 11 3 6 4 10 1 10 -3 0
-7 -4 -10 -9z M2986 5373 c-4 -4 -22 -6 -40 -5 -22 2 -38 -4 -52 -19 -10 -12
-18 -23 -17 -25 5 -8 -41 -54 -54 -54 -7 0 -13 -4 -13 -10 0 -15 14 -12 36 8
11 10 26 16 33 14 8 -3 11 0 7 7 -4 6 -3 11 3 11 5 0 11 -8 14 -17 3 -16 5
-16 12 2 5 11 13 23 19 27 6 4 7 10 3 14 -3 4 -14 1 -24 -7 -9 -8 -14 -9 -10
-2 4 6 1 14 -5 16 -7 3 -3 6 9 6 12 1 24 5 28 11 3 5 11 7 18 4 7 -2 21 2 32
10 11 9 17 16 14 16 -3 0 -9 -3 -13 -7z M2990 5241 c0 -13 -9 -21 -30 -26 -33
-7 -54 1 -44 17 4 7 2 8 -5 4 -6 -4 -9 -11 -6 -16 3 -5 1 -11 -5 -15 -18 -11
-10 -26 13 -25 12 1 27 1 32 0 23 -7 41 -5 51 5 16 16 25 45 13 45 -6 0 -9 7
-5 15 3 8 1 15 -4 15 -6 0 -10 -9 -10 -19z M2950 5145 c-9 -11 -9 -15 -1 -15
7 0 9 -4 6 -10 -4 -6 1 -7 12 -3 14 5 16 4 7 -8 -6 -8 -11 -27 -12 -43 -1 -16
-8 -36 -15 -45 -6 -9 5 -1 26 17 35 30 49 37 70 33 5 -1 6 3 3 8 -4 5 -22 7
-41 4 -34 -5 -48 8 -25 22 17 11 12 38 -6 31 -12 -4 -15 -2 -10 9 7 19 2 19
-14 0z M2933 4960 c-35 -31 -36 -64 -2 -73 10 -3 17 -1 14 3 -3 5 11 22 30 38
26 21 31 29 18 29 -10 0 -24 -4 -31 -10 -23 -18 -24 1 -1 22 13 12 19 21 13
21 -5 0 -23 -14 -41 -30z M2977 4886 c-26 -21 -28 -25 -16 -45 8 -11 22 -21
31 -21 10 0 18 -5 18 -11 0 -5 -4 -8 -9 -4 -5 3 -12 1 -16 -5 -3 -5 -1 -10 5
-10 6 0 8 -5 4 -11 -4 -7 0 -9 13 -5 12 4 27 -1 41 -14 29 -27 36 -26 76 15
41 41 39 42 -14 15 -22 -11 -40 -16 -40 -11 0 5 7 12 16 15 8 3 12 10 9 16 -3
5 3 10 13 10 11 0 22 7 25 15 5 11 1 12 -20 4 -21 -8 -24 -7 -19 6 5 14 4 14
-16 0 -13 -8 -30 -15 -39 -15 -15 0 -17 5 -20 55 -2 31 -6 31 -42 1z M2261
4438 c-4 -13 -21 -59 -36 -103 -37 -108 -58 -147 -124 -234 l-56 -74 -1 -141
c-2 -194 -1 -188 -27 -136 -18 34 -36 51 -76 72 -68 36 -124 36 -227 2 -94
-32 -140 -60 -214 -129 -30 -28 -73 -62 -94 -75 l-39 -23 -19 23 c-10 13 -16
29 -13 37 19 48 21 46 -27 41 -25 -3 -62 -17 -83 -31 -27 -18 -46 -24 -69 -20
-40 6 -59 -9 -93 -73 -65 -119 -101 -162 -174 -205 -93 -56 -132 -95 -125
-125 5 -20 -4 -30 -68 -73 -41 -27 -132 -83 -203 -124 -70 -41 -165 -96 -210
-123 -46 -27 -128 -73 -183 -103 l-100 -54 0 -1383 0 -1384 535 0 535 0 1 133
c1 72 3 143 5 157 7 52 8 930 1 1035 -30 435 -35 793 -17 1110 12 209 26 365
34 372 3 4 45 -9 94 -28 l87 -35 -1 -99 c-1 -55 -4 -253 -7 -440 -2 -187 -1
-403 3 -480 36 -641 43 -1030 27 -1487 l-9 -238 1297 0 1298 0 -7 245 c-4 135
-3 245 1 245 4 0 26 -12 48 -25 47 -29 138 -34 184 -10 16 8 31 12 34 8 3 -3
18 4 33 16 23 18 29 19 36 7 4 -8 8 -120 9 -250 l1 -236 1114 0 1114 0 0 78
c0 42 4 124 9 182 14 158 23 560 22 980 -1 579 12 852 59 1275 11 93 92 508
135 690 13 56 29 142 36 191 15 110 44 175 83 185 16 5 37 4 47 -1 22 -12 59
-121 59 -174 0 -23 -29 -167 -64 -321 -35 -154 -70 -314 -76 -355 -7 -41 -16
-91 -21 -111 -5 -20 -13 -83 -19 -140 -9 -91 -21 -185 -36 -269 -17 -101 -23
-384 -17 -880 4 -391 2 -622 -6 -750 -6 -102 -16 -255 -21 -340 -6 -85 -13
-174 -16 -197 l-5 -43 650 0 651 0 0 1613 0 1612 -150 58 c-135 53 -150 61
-150 82 0 50 -31 91 -109 143 -42 28 -101 63 -132 77 -62 28 -80 44 -98 92
-13 32 -67 63 -111 63 -10 0 -31 15 -45 34 -16 21 -39 37 -58 41 -18 4 -77 29
-132 57 -87 42 -112 50 -180 55 l-78 6 16 -24 c18 -26 23 -89 7 -89 -5 0 -10
-5 -10 -11 0 -6 9 -8 20 -4 11 3 20 2 20 -4 0 -5 -9 -12 -19 -16 -10 -3 -22
-16 -25 -28 -5 -18 -8 -19 -15 -8 -8 13 -12 13 -26 1 -27 -22 -45 -21 -122 6
-81 29 -62 33 -196 -39 -38 -21 -95 -61 -127 -90 -499 -452 -736 -680 -855
-821 -49 -59 -193 -220 -249 -280 -74 -80 -262 -317 -320 -404 -58 -89 -205
-359 -268 -492 -14 -30 -53 -111 -86 -180 -87 -184 -109 -234 -158 -370 -31
-85 -35 -110 -41 -232 -3 -76 -9 -138 -12 -138 -14 0 -81 101 -81 122 0 13 0
47 0 77 0 29 -8 77 -16 105 -9 28 -18 57 -20 64 -2 7 -8 10 -14 7 -16 -10 -9
-173 7 -179 18 -7 16 -43 -3 -50 -25 -9 -83 -7 -105 4 -10 6 -19 21 -20 33 0
12 -6 1 -14 -24 -7 -26 -16 -52 -20 -59 -4 -7 5 -5 24 4 17 9 31 14 31 12 0
-9 -64 -53 -86 -60 -19 -6 -21 -2 -23 51 -6 173 -77 421 -180 634 -50 102 -72
135 -119 180 -227 217 -467 376 -877 581 -110 55 -189 97 -175 95 14 -3 65
-13 114 -22 56 -10 131 -34 200 -65 61 -26 122 -51 136 -54 14 -3 81 -43 150
-88 69 -46 130 -85 136 -88 47 -23 368 -295 455 -386 76 -80 181 -219 172
-228 -4 -3 -1 -6 5 -6 6 0 19 -17 29 -37 9 -21 20 -40 23 -43 4 -3 13 -20 21
-38 16 -36 15 -36 49 -17 19 11 21 14 8 15 -10 0 -18 4 -18 9 0 8 -44 69 -74
104 -9 9 -16 20 -16 23 0 3 -16 21 -35 40 -19 18 -35 38 -35 42 0 5 -10 20
-23 33 -49 51 -94 118 -131 194 -8 17 -24 38 -35 47 -12 10 -21 25 -21 33 0 8
-4 15 -10 15 -5 0 -10 5 -10 11 0 7 -13 34 -30 61 -16 26 -30 57 -30 68 0 11
-4 20 -9 20 -4 0 -30 33 -56 73 -27 39 -65 92 -85 117 -20 25 -71 89 -113 142
-109 136 -255 281 -375 372 -162 122 -378 265 -508 334 -20 11 -22 17 -14 33
9 15 7 21 -5 25 -8 3 -15 12 -15 20 0 8 -5 14 -11 14 -5 0 -7 5 -4 10 3 6 2
10 -3 10 -5 0 -17 20 -27 45 -9 25 -23 51 -30 59 -15 15 -100 191 -120 251 -8
22 -21 67 -29 100 -8 33 -20 78 -27 100 -27 93 10 354 58 407 22 25 82 56 115
60 14 2 33 10 43 18 15 13 15 15 -3 29 -22 18 -38 71 -22 71 16 0 12 37 -5 44
-19 7 -21 82 -2 90 10 5 10 7 0 12 -7 3 -13 19 -13 34 0 37 -18 48 -29 18z
m-1017 -1131 c-17 -80 -72 -153 -96 -129 -10 10 41 122 69 154 22 25 35 12 27
-25z m2711 -2661 l39 -24 29 24 c30 25 88 32 117 14 10 -6 3 -8 -23 -3 -31 5
-42 2 -62 -17 -19 -18 -22 -26 -14 -37 9 -10 4 -13 -29 -13 -23 0 -44 5 -47
10 -3 6 0 10 7 10 7 0 -2 9 -20 20 -18 11 -47 20 -65 20 -24 0 -28 3 -17 10
23 15 42 12 85 -14z M2254 4071 c-41 -19 -56 -42 -70 -106 -5 -25 -2 -23 16
13 13 24 39 55 59 69 68 50 67 56 -5 24z"/>
</g>
</svg>
