<?xml version="1.0" encoding="utf-8"?>
<!-- Generator: Adobe Illustrator 15.0.2, SVG Export Plug-In . SVG Version: 6.00 Build 0)  -->
<!DOCTYPE svg PUBLIC "-//W3C//DTD SVG 1.0//EN" "http://www.w3.org/TR/2001/REC-SVG-20010904/DTD/svg10.dtd">
<svg version="1.0" id="Ebene_1" xmlns="http://www.w3.org/2000/svg" xmlns:xlink="http://www.w3.org/1999/xlink" x="0px" y="0px"
	 width="1077.17px" height="651.97px" viewBox="0 0 1077.17 651.97" enable-background="new 0 0 1077.17 651.97"
	 xml:space="preserve">
<g>
	<g>
		<path fill="#1D1D1B" d="M357.712,62.32c14.198,0.621,27.757-4.069,41.49-6.913c5.106-1.058,6.181-9.534-0.22-8.208
			c-13,2.692-25.742,7.121-39.183,6.532C354.941,53.519,351.461,62.046,357.712,62.32L357.712,62.32z"/>
	</g>
</g>
<g>
	<g>
		<path fill="#1D1D1B" d="M374.471,59.361c4.118,31.806,5.097,63.91,8.403,95.798c0.219,2.116,2.411,4.298,4.619,3.484
			c2.508-0.924,2.843-3.898,2.609-6.155c-3.307-31.892-4.285-63.983-8.403-95.798c-0.272-2.103-2.374-4.312-4.619-3.484
			C374.61,54.116,374.18,57.116,374.471,59.361L374.471,59.361z"/>
	</g>
</g>
<g>
	<g>
		<path fill="#1D1D1B" d="M406.87,44.703c3.263,39.448,0.773,79.464,8.403,118.487c1.036,5.297,10.565,2.721,9.656-1.927
			c-7.63-39.023-5.14-79.04-8.403-118.487C416.083,37.425,406.475,39.93,406.87,44.703L406.87,44.703z"/>
	</g>
</g>
<g>
	<g>
		<path fill="#1D1D1B" d="M413.302,78.015c7.309-1.873,14.492-4.192,21.849-5.882c4.654-1.07,3.723-10.935-1.528-9.728
			c-7.356,1.691-14.54,4.009-21.849,5.882C407.139,69.476,408.092,79.351,413.302,78.015L413.302,78.015z"/>
	</g>
</g>
<g>
	<g>
		<path fill="#1D1D1B" d="M427.506,35.943c8.285,41.237,8.411,83.548,14.948,125.038c0.907,5.757,9.811,2.111,9.076-2.551
			c-6.645-42.177-6.881-85.135-15.304-127.062C435.202,26.272,426.569,31.279,427.506,35.943L427.506,35.943z"/>
	</g>
</g>
<g>
	<g>
		<path fill="#1D1D1B" d="M469.513,152.708c-1.944-23.092-1.911-46.437-1.759-69.597c0.137-21.036,2.082-42.321-1.602-63.176
			c-3.117,1.054-6.234,2.108-9.352,3.163c21.788,45.367,39.875,92.809,47.502,142.765c0.75,4.907,10.508,2.746,9.748-2.23
			c-7.729-50.621-26.222-98.667-48.295-144.629c-1.911-3.978-10.12-1.188-9.352,3.163c3.761,21.295,1.528,43.091,1.491,64.574
			c-0.039,22.715-0.037,45.549,1.87,68.199C460.176,159.817,469.935,157.721,469.513,152.708L469.513,152.708z"/>
	</g>
</g>
<g>
	<g>
		<path fill="#1D1D1B" d="M464.27,82.083c6.091-1.088,11.706-3.006,17.264-5.719c2.265-1.105,1.441-4.093,0.003-5.435
			c-1.909-1.782-4.607-2.111-6.901-0.992c-4.1,2.001-8.488,3.562-12.988,4.365C455.229,75.449,459.121,83.003,464.27,82.083
			L464.27,82.083z"/>
	</g>
</g>
<g>
	<g>
		<path fill="#1D1D1B" d="M492.037,50.979c14.146-1.309,25.943-9.678,38.962-14.516c5.864-2.179-0.45-8.982-4.989-7.296
			c-12.151,4.515-23.503,12.838-36.668,14.056C482.815,43.827,486.895,51.455,492.037,50.979L492.037,50.979z"/>
	</g>
</g>
<g>
	<g>
		<path fill="#1D1D1B" d="M502.308,46.05c9.585,35.221,13.998,71.834,15.782,108.232c0.284,5.792,9.294,2.112,9.063-2.598
			c-1.817-37.067-6.389-74.388-16.15-110.255C509.617,36.336,501.051,41.433,502.308,46.05L502.308,46.05z"/>
	</g>
</g>
<g>
	<g>
		<path fill="#1D1D1B" d="M600.488,48.572c-5.511-5.929-11.74-4.307-16.355,1.889c-3.467,4.656-2.754,10.451-1.457,15.733
			c2.591,10.563,8.561,20.833,13.209,30.635c2.475,5.219,4.892,10.446,6.736,15.928c1.354,4.022,4.109,11.492-0.92,13.837
			c-9.773,4.557-16.484-15.585-17.26-22.131c-0.771-6.509-8.279-2.202-7.672,2.924c1.162,9.806,6.256,23.001,15.373,27.958
			c4.918,2.674,10.699,1.633,14.888-1.969c4.601-3.958,5.483-10.143,5.019-15.872c-0.908-11.158-7.102-21.812-11.614-31.853
			c-2.593-5.769-5.587-11.338-8.026-17.18c-1.244-2.981-2.387-6.071-2.939-9.262c-0.178-1.021-0.201-1.957-0.087-2.977
			c-0.326,0.843-0.162,0.699,0.492-0.431c1.411-1.894,2.955-1.707,4.462-0.086C598.303,59.982,603.701,52.027,600.488,48.572
			L600.488,48.572z"/>
	</g>
</g>
<g>
	<g>
		<path fill="#1D1D1B" d="M614.379,33.855c0.111,20.055,4.006,39.914,6.82,59.707c2.679,18.827,5.503,39.036,0.901,57.781
			c-1.2,4.89,8.267,8.085,9.446,3.282c4.67-19.026,2.271-39.04-0.361-58.186c-2.796-20.343-6.93-40.699-7.043-61.302
			C624.115,30.344,614.35,28.499,614.379,33.855L614.379,33.855z"/>
	</g>
</g>
<g>
	<g>
		<path fill="#1D1D1B" d="M621.372,74.771c7.884-1.798,15.646-4.084,23.529-5.882c4.905-1.119,3.915-11.052-0.861-9.963
			c-7.884,1.798-15.646,4.084-23.529,5.882C615.605,65.927,616.596,75.861,621.372,74.771L621.372,74.771z"/>
	</g>
</g>
<g>
	<g>
		<path fill="#1D1D1B" d="M636.226,28.717c1.966,38.856,14.247,77.378,10.068,116.478c-0.696,6.518,7.571,3.893,8.118-1.229
			c4.27-39.939-8.092-79.146-10.1-118.816c-0.121-2.386-2.607-3.487-4.623-2.598C637.289,23.611,636.099,26.213,636.226,28.717
			L636.226,28.717z"/>
	</g>
</g>
<g>
	<g>
		<path fill="#1D1D1B" d="M660.48,32.046c-0.685,42.54,8.267,84.434,9.243,126.891c0.115,5.015,10.114,4.865,9.999-0.142
			c-0.977-42.456-9.928-84.351-9.244-126.891C670.559,26.91,660.561,27.022,660.48,32.046L660.48,32.046z"/>
	</g>
</g>
<g>
	<g>
		<path fill="#1D1D1B" d="M680.473,56.129c14.473-0.447,27.393-9.699,41.358-12.717c4.616-0.998,5.583-10.656-0.099-9.428
			c-7.046,1.523-13.726,4.34-20.41,6.973c-5.94,2.338-12.426,5.319-18.904,5.52C677.638,46.624,675.205,56.292,680.473,56.129
			L680.473,56.129z"/>
	</g>
</g>
<g>
	<g>
		<path fill="#1D1D1B" d="M694.093,47.638c10.254,35.883,6.643,73.852,7.451,110.681c0.138,6.256,8.649,2.577,8.543-2.268
			c-0.824-37.541,2.778-76.269-7.675-112.849C700.816,37.618,692.795,43.099,694.093,47.638L694.093,47.638z"/>
	</g>
</g>
<g>
	<g>
		<path fill="#1D1D1B" d="M497.348,250.589c-0.895-6.39-1.592-12.8-2.775-19.147c-0.888-4.763-1.785-12.635-6.402-15.466
			c-6.295-3.86-11.172,6.755-12.863,10.858c-3.686,8.945-5.47,18.552-6.379,28.143c-1.919,20.244-0.578,42.767,7.635,61.614
			c2.726,6.255,9.839,17.46,18.059,11.983c7.503-4.999,9.752-15.765,11.92-23.875c0.578-2.161-1.077-4.49-3.36-4.271
			c-2.681,0.255-4.188,2.703-4.813,5.043c-0.684,2.56-3.745,15.678-6.752,15.081c-2.88-0.571-5.635-5.896-6.741-8.17
			c-1.583-3.257-2.747-6.712-3.784-10.174c-4.588-15.305-5.328-32.165-3.988-48.002c0.602-7.111,1.766-14.258,4.007-21.045
			c0.924-2.799,1.926-5.69,3.399-8.252c0.581-1.011-1.788-0.875-0.941,0.393c2.329,3.487,2.741,9.072,3.403,13.09
			c0.838,5.083,1.388,10.207,2.103,15.308C489.941,259.895,498.021,255.396,497.348,250.589L497.348,250.589z"/>
	</g>
</g>
<g>
	<g>
		<path fill="#1D1D1B" d="M505.324,221.055c-4.06,39.281,9.797,77.275,10.028,116.377c0.013,2.216,1.938,4.179,4.201,3.449
			c2.48-0.8,3.63-3.557,3.616-5.961c-0.226-38.192-14.1-75.557-10.14-113.875C513.702,214.541,505.913,215.36,505.324,221.055
			L505.324,221.055z"/>
	</g>
</g>
<g>
	<g>
		<path fill="#1D1D1B" d="M507.598,221.425c3.028-1.438,9.257-5.045,12.774-3.075c2.717,1.523,1.944,6.125,1.58,8.623
			c-1.358,9.323-6.439,18.732-11.644,26.44c-3.666,5.43,4.955,6.745,7.82,2.501c6.599-9.774,13.093-22.34,13.421-34.377
			c0.133-4.894-1.633-9.156-6.235-11.215c-5.999-2.685-14.274,1.103-19.601,3.632C500.627,216.369,501.651,224.249,507.598,221.425
			L507.598,221.425z"/>
	</g>
</g>
<g>
	<g>
		<path fill="#1D1D1B" d="M516.187,245.045c13.887,27.983,23.422,57.701,33.268,87.267c1.841,5.529,10.011,0.441,8.52-4.037
			c-10.059-30.206-19.771-60.615-33.959-89.203C521.654,234.315,514.057,240.753,516.187,245.045L516.187,245.045z"/>
	</g>
</g>
<g>
	<g>
		<path fill="#1D1D1B" d="M571.926,318.976c-5.121-47.306-7.572-95.147-4.258-142.671c-3.065,0.806-6.131,1.611-9.195,2.417
			c15.763,25.751,29.623,52.707,40.448,80.914c10.728,27.955,18.392,57.747,18.095,87.861c-0.051,5.229,9.485,2.3,9.532-2.469
			c0.298-30.253-7.528-60.028-18.042-88.189c-10.758-28.815-25.021-56.328-41.061-82.533c-2.07-3.382-8.92-1.552-9.196,2.417
			c-3.364,48.235-1.054,96.703,4.146,144.723C562.97,326.763,572.442,323.741,571.926,318.976L571.926,318.976z"/>
	</g>
</g>
<g>
	<g>
		<path fill="#1D1D1B" d="M541.281,246.748c18.867,1.499,36.781-4.712,54.496-10.335c5.939-1.885-0.566-8.645-5.134-7.195
			c-16.075,5.103-32.565,11.195-49.706,9.833C534.404,238.532,535.59,246.296,541.281,246.748L541.281,246.748z"/>
	</g>
</g>
<g>
	<g>
		<path fill="#1D1D1B" d="M593.667,198.426c0.782,13.085,10.731,21.512,20.712,28.547c9.399,6.626,23.403,13.139,27.426,24.783
			c0.707-2.214,1.415-4.427,2.123-6.641c-0.246,0.186-0.492,0.372-0.739,0.558c0.976-0.056,1.952-0.112,2.929-0.168
			c-0.112-0.042-0.225-0.085-0.336-0.127c0.653,0.847,1.307,1.693,1.961,2.54c-0.334-1.221-0.66-2.412-1.734-3.207
			c-4.685-3.466-8.547,5.336-4.754,8.142c-0.642-1.347-0.816-1.569-0.525-0.666c0.256,0.936,0.994,2.172,1.961,2.541
			c1.615,0.613,2.633,0.437,4.005-0.599c1.981-1.495,2.96-4.221,2.124-6.641c-4.073-11.792-14.961-18.814-24.843-25.445
			c-8.935-5.996-22.097-13.351-22.818-25.426C600.766,190.051,593.33,192.782,593.667,198.426L593.667,198.426z"/>
	</g>
</g>
<g>
	<g>
		<path fill="#1D1D1B" d="M640.018,194.867c-0.676,20.466,0.294,40.944,1.133,61.391c0.845,20.599,3.069,41.156,3.069,61.778
			c0,5.706,8.905,1.564,8.905-3.095c0-0.721,0-1.44,0-2.161c0-5.705-8.905-1.564-8.905,3.096c0,0.72,0,1.44,0,2.16
			c0,5.706,8.905,1.564,8.905-3.095c0-20.026-2.188-39.968-2.996-59.969c-0.85-21.05-1.902-42.129-1.205-63.2
			c0.083-2.519-2.947-3.187-4.805-2.543C641.65,190.085,640.102,192.315,640.018,194.867L640.018,194.867z"/>
	</g>
</g>
<g>
	<g>
		<path fill="#1D1D1B" d="M488.597,445.273c23.663,32.957,47.315,65.924,70.588,99.159c20.414,29.151,44.48,55.771,58.33,89.014
			c0.236-1.549,0.473-3.098,0.709-4.646c-0.17,0.322-0.34,0.646-0.51,0.968c1.287-0.894,2.574-1.787,3.861-2.68
			c1.037,0.332,1.049,0.23,0.029-0.304c-0.592-0.281-1.211-0.487-1.854-0.618c-4.625-1.225-8.613,7.86-3.412,9.236
			c2.723,0.721,4.451,1.984,6.92-0.608c3.537-3.712,1.822-7.289,0.039-11.33c-4.055-9.184-9.037-17.967-14.318-26.492
			c-10.592-17.094-23.033-32.966-35.107-49.018c-13.324-17.715-25.775-36.098-38.632-54.154
			c-13.232-18.587-26.541-37.119-39.849-55.654C492.292,433.829,485.801,441.38,488.597,445.273L488.597,445.273z"/>
	</g>
</g>
<g>
	<g>
		<path fill="#1D1D1B" d="M478.061,629.101c29.412-45.167,62.091-88.212,99.216-127.341c17.035-17.955,35.918-33.521,54.229-50.102
			c8.742-7.915,17.051-16.294,24.398-25.531c3.195-4.018,7.318-7.82,9.338-12.59c1.961-4.63,0.219-10.283-4.496-11.997
			c-1.344-0.489-2.867,0.376-3.557,1.518c-1.049,1.735-2.312,3.307-3.361,5.042c-2.477,4.097,2.525,12.045,5.746,6.716
			c1.049-1.735,2.312-3.306,3.361-5.042c-1.186,0.506-2.373,1.012-3.559,1.518c0.252,0.132,0.504,0.264,0.754,0.395
			c-0.637-0.957-1.273-1.914-1.912-2.871c0.393,1.688-3.23,4.483-4.205,5.634c-1.691,2.001-3.207,4.146-4.838,6.198
			c-3.457,4.346-7.289,8.389-11.186,12.34c-8.203,8.318-17.088,15.951-25.93,23.575c-17.779,15.327-34.406,31.431-50.236,48.776
			c-33.159,36.33-62.686,75.854-89.509,117.048C469.687,626.42,474.654,634.334,478.061,629.101L478.061,629.101z"/>
	</g>
</g>
<g>
	<g>
		<path fill="#1D1D1B" d="M423.252,488.6c3.173,23.271-3.182,46.44-1.681,69.747c0.247,3.848,4.826,3.553,7.338,2.293
			c13.039-6.535,25.924-13.397,39.128-19.598c5.542-2.602,3.187-9.741-2.506-7.068c-14.014,6.579-27.706,13.803-41.544,20.738
			c2.446,0.764,4.893,1.528,7.338,2.293c-1.5-23.308,4.854-46.478,1.681-69.748C432.278,481.909,422.612,483.908,423.252,488.6
			L423.252,488.6z"/>
	</g>
</g>
<g>
	<g>
		<path fill="#1D1D1B" d="M446.66,581.654c-3.152-33.315,12.216-64.836,15.966-97.479c-2.784,1.182-5.568,2.363-8.352,3.544
			c5.946,28.897,11.75,57.828,18.487,86.555c1.314,5.608,9.287-0.056,8.215-4.625c-6.736-28.727-12.541-57.657-18.487-86.555
			c-0.387-1.88-2.428-2.593-4.102-2.106c-2.576,0.747-3.963,3.146-4.25,5.65c-3.764,32.75-19.137,63.963-15.966,97.479
			C438.76,590.345,447.118,586.498,446.66,581.654L446.66,581.654z"/>
	</g>
</g>
<g>
	<g>
		<path fill="#1D1D1B" d="M616.887,501.869c7.561,18.271,7.121,39.126,7.123,58.541c0,5.033,9.922,6.167,9.922,1.254
			c-0.002-20.98,0.148-42.766-8.004-62.467C624.125,494.84,614.658,496.486,616.887,501.869L616.887,501.869z"/>
	</g>
</g>
<g>
	<g>
		<path fill="#1D1D1B" d="M618.611,503.853c7.348,3.233,14.1,7.661,20.363,12.659c6.217,4.963,12.672,11.493,14.457,19.493
			c3.24,14.514-15.74,24.283-25.785,30.193c-5.393,3.174,1.822,8.946,6.008,6.484c13.359-7.861,32.494-18.587,29.621-36.913
			c-1.463-9.342-9.27-17.141-16.107-22.994c-7.389-6.326-15.738-11.641-24.646-15.562
			C617.291,494.912,612.617,501.215,618.611,503.853L618.611,503.853z"/>
	</g>
</g>
<g>
	<g>
		<path fill="#1D1D1B" d="M636.699,532.099c11.559,19.896,22.08,40.588,28.965,62.606c1.566,5.005,7.164,5.222,7.471-0.467
			c1.734-32.229,7.461-64.07,10.002-96.229c0.189-2.41-0.502-5.229-2.939-6.322c-2.111-0.949-4.379,0.742-4.555,2.966
			c-2.605,32.996-8.385,65.657-10.166,98.729c2.49-0.156,4.98-0.312,7.471-0.467c-7.162-22.905-17.83-44.418-29.859-65.124
			C639.82,522.166,633.811,527.127,636.699,532.099L636.699,532.099z"/>
	</g>
</g>
</svg>
