<?xml version="1.0" encoding="UTF-8" standalone="no"?>
<!-- Created with Inkscape (http://www.inkscape.org/) -->
<svg
   xmlns:svg="http://www.w3.org/2000/svg"
   xmlns="http://www.w3.org/2000/svg"
   version="1.0"
   width="800"
   height="261.952"
   viewBox="0 0 800 261.952"
   id="Layer_1"
   xml:space="preserve"><defs
   id="defs18" />
<g
   id="g3">
	<path
   d="M 307.209,228.51 C 277.442,209.334 237.042,205.968 171.889,224.045 C 102.432,240.366 79.274,250.83 48.861,229.826 C 37.177,219.508 32.988,202.895 36.115,178.964 C 43.37,139.954 62.977,102.413 97.801,60.771 C 117.24,39.109 135.271,20.519 159.081,13.054 C 177.329,8.371 175.623,22.712 173.415,24.763 C 171.085,24.763 167.171,25.13 164.147,27.104 C 161.692,29.008 154.952,35.156 154.591,43.426 C 154.069,56.086 167.171,53.451 172.823,46.5 C 178.913,38.667 187.915,23.667 180.834,9.687 C 177.866,4.711 172.739,1.272 166.371,0.101 C 144.57,-1.145 124.264,9.248 105.526,20.738 C 64.543,49.207 31.76,88.655 13.21,131.835 C 2.515,157.888 -7.157,195.208 7.341,225.583 C 18.556,246.66 41.84,257.854 69.619,255.513 C 89.103,253.467 112.661,247.169 128.506,243.367 C 144.351,239.559 225.46,211.677 252.11,260.202 C 252.11,260.202 260.972,242.999 283.118,242.633 C 301.327,240.953 327.593,247.904 346.722,261.953 C 340.35,252.368 322.283,238.243 307.209,228.51 L 307.209,228.51 z "
   style="fill:#c10d0a;fill-rule:evenodd"
   id="path5" />
	<path
   d="M 180.16,65.674 C 164.99,55.721 134.5,74.749 110.079,107.388 C 87.747,136.665 78.105,170.692 88.598,186.428 C 104.209,204.942 133.189,178.011 145.513,163.596 L 147.103,161.912 C 155.484,152.909 161.959,142.078 168.226,131.685 C 168.226,131.685 173.986,122.171 174.261,121.731 C 177.821,121.075 182.109,120.05 186.941,118.659 C 186.871,118.877 168.453,149.836 170.332,165.201 C 170.917,169.889 170.47,187.014 187.191,192.209 C 209.475,195.944 227.269,178.669 242.967,163.301 C 242.967,163.301 245.642,160.741 247.155,159.28 C 246.772,160.814 246.273,162.859 246.273,162.859 C 239.748,185.547 248.542,190.307 254.044,192.064 C 270.669,196.897 290.531,172.743 290.594,172.743 C 290.079,180.352 288.573,186.646 296.593,191.696 C 304.164,194.406 311.825,190.381 317.647,186.501 C 338.622,171.718 355.52,148.444 369.169,128.688 L 360.463,128.688 C 360.361,128.833 338.98,159.57 325.097,166.304 C 325.075,166.304 322.549,167.548 321.093,166.523 C 319.292,164.985 320.002,161.544 321.116,159.281 C 321.186,159.132 374.718,66.04 374.718,66.04 L 349.442,66.04 C 349.442,66.04 346.681,70.725 346.456,71.018 C 346.286,70.871 345.88,70.213 345.599,69.845 C 329.939,48.183 294.476,81.557 267.777,120.197 C 257.497,135.055 244.41,151.812 230.841,163.887 C 230.841,163.887 210.739,182.327 202.148,169.087 C 199.008,163.524 199.974,155.398 201.744,150.057 C 211.745,121.588 228.979,95.755 248.588,80.164 C 254.124,75.849 260.141,74.603 263.127,76.432 C 265.972,78.118 266.431,82.287 264.631,85.142 C 260.064,84.996 256.406,86.385 253.43,89.459 C 247.57,95.607 245.534,101.536 247.397,107.099 C 256.448,119.979 274.498,94.51 273.625,78.995 C 273.314,73.432 270.345,68.164 265.916,65.6 C 259.316,61.65 249.245,62.673 242.729,65.822 C 234.005,69.114 220.195,80.603 212.134,89.533 C 201.986,100.732 184.582,113.172 179.139,111.779 C 180.924,107.021 195.625,76.943 180.16,65.674 L 180.16,65.674 z M 302.021,110.17 C 306.938,103.365 321.249,85.141 324.738,82.068 C 336.472,71.745 341.162,76.287 341.568,79.505 C 330.617,99.118 317.692,121.587 305.54,141.787 C 305.565,141.715 301.737,147.568 301.737,147.568 C 296.369,155.763 290.965,162.788 282.151,167.692 C 280.894,168.06 278.822,168.206 277.443,167.179 C 275.782,166.081 275.127,164.252 275.315,162.347 C 275.843,156.055 282.25,136.811 302.021,110.17 L 302.021,110.17 z M 164.516,121.952 C 164.516,121.952 164.296,122.613 164.187,122.829 C 164.158,122.829 153.167,140.758 153.167,140.758 C 146.533,149.614 138.25,160.741 127.897,166.082 C 124.827,167.107 120.586,167.766 118.424,165.061 C 113.841,159.571 116.203,151.961 118.122,145.813 L 118.801,143.617 C 124.303,128.689 133.033,115.513 141.53,103.291 C 141.636,103.219 141.873,103.146 141.959,103.146 C 141.979,103.219 142.013,103.219 142.029,103.366 C 147.361,113.61 157.359,118.365 164.835,120.564 C 164.88,120.564 164.928,120.637 164.928,120.784 C 164.929,121.001 164.807,121.296 164.516,121.952 L 164.516,121.952 z M 174.93,100.804 C 174.882,100.95 170.034,112.073 170.034,112.073 C 169.333,112.658 168.226,112.366 166.955,112.073 L 164.78,111.705 C 157.947,109.584 152.792,105.046 151.203,99.631 C 149.011,89.092 158.014,80.822 161.982,77.823 C 165.787,75.186 171.704,73.796 175.141,76.505 C 177.26,78.994 178.063,82.213 178.063,85.728 C 178.063,90.484 176.595,95.826 174.93,100.804 L 174.93,100.804 z "
   style="fill:#c10d0a;fill-rule:evenodd"
   id="path7" />
	<path
   d="M 494.47,134.759 C 492.034,129.491 486.248,126.124 480.082,126.489 C 460.058,128.32 440.473,144.787 430.191,168.423 C 424.795,180.574 421.85,190.598 419.918,206.553 C 426.144,199.383 438.844,187.6 453.256,181.16 C 453.256,181.16 455.217,165.864 465.217,152.251 C 469.001,146.615 476.575,137.541 485.078,139.954 C 492.506,142.445 489.896,163.01 480.022,182.911 C 472.716,197.55 461.536,212.192 450.224,222.289 C 440.223,230.779 425.426,241.024 412.48,233.12 C 404.326,228.292 400.167,218.191 401.046,205.164 C 404.943,168.206 421.765,136.737 445.84,100.877 C 470.665,67.578 498.028,33.401 534.891,15.175 C 542.41,11.37 549.374,10.492 555.392,12.834 C 555.392,12.834 520.788,31.862 504.293,67.065 C 500.097,75.995 494.261,88.067 500.138,98.753 C 503.209,104.314 508.663,104.754 513.052,104.461 C 533.271,99.776 546.334,80.895 557.007,63.625 C 563.195,50.525 568.695,37.498 568.695,23.007 C 568.695,21.251 568.604,18.91 568.455,17.152 C 578.115,12.031 597.922,21.104 597.922,21.104 C 613.401,26.229 646.36,51.479 657.478,56.307 C 662.901,50.014 671.813,40.501 676.831,35.743 L 669.567,31.278 C 657.937,24.179 645.644,17.445 633.543,10.786 C 606.064,-4.215 583.698,1.053 572.313,5.152 C 567.839,6.761 563.75,8.152 563.75,8.152 C 555.302,-1.069 541.448,-0.193 531.239,2.297 C 494.525,12.835 460.438,38.522 423.893,83.093 C 397.025,118.003 380.359,148.156 371.476,177.941 C 364.629,197.992 362.548,227.486 379.26,244.978 C 393.469,259.83 412.31,256.613 425.616,251.272 C 454.443,237.074 480.352,206.481 493.262,171.279 C 496.376,160.814 499.834,146.03 494.47,134.759 L 494.47,134.759 z M 560.756,24.471 C 556.94,68.236 522.921,93.926 514.504,95.972 C 509.404,96.995 500.7,94.728 508.469,76.361 C 519.913,51.622 539.448,30.62 560.41,19.861 C 560.919,21.691 560.906,22.859 560.756,24.471 L 560.756,24.471 z "
   style="fill:#c10d0a;fill-rule:evenodd"
   id="path9" />
	<path
   d="M 762.555,30.031 C 744.256,40.425 725.288,47.156 702.324,44.815 C 695.959,51.989 689.764,59.38 684.052,66.99 C 716.282,75.187 750.45,56.964 769.504,39.621 C 789.664,22.129 800,0.102 800,0.102 C 800,0.102 784.89,17.372 762.555,30.031 L 762.555,30.031 z "
   style="fill:#c10d0a;fill-rule:evenodd"
   id="path11" />
	<polygon
   points="416.729,66.04 392.725,66.04 379.185,88.948 403.184,88.948 416.729,66.04 "
   style="fill:#c10d0a;fill-rule:evenodd"
   id="polygon13" />
	<path
   d="M 702.228,230.779 C 699.647,232.535 696.021,231.069 697.377,227.045 C 700.754,216.798 714.18,195.722 714.18,195.722 L 751.576,129.199 L 725.96,129.199 C 724.744,131.395 722.139,135.93 722.139,135.93 C 720.955,133.956 717.411,129.636 715.951,128.688 C 709.693,124.733 700.51,126.637 694.176,130.222 C 666.637,146.326 646.544,178.157 630.699,202.968 C 630.699,202.968 614.018,230.557 604.757,232.608 C 597.529,233.194 598.274,223.461 598.587,221.192 C 601.382,204.796 607.874,189.211 614.414,175.085 C 627.714,165.865 642.895,153.79 656.69,140.545 C 686.628,111.927 711.867,79.506 715.556,72.261 C 715.556,72.261 711.563,73.067 706.848,73.212 C 683.816,105.34 636.684,152.035 622.395,158.986 C 628.725,143.761 669.622,71.09 704.425,36.328 L 709.902,31.057 C 718.37,22.787 727.145,14.298 733.983,12.907 C 734.705,12.834 735.635,12.907 736.438,14.593 C 736.743,21.032 734.346,25.79 731.596,31.205 L 727.743,39.11 C 727.743,39.11 733.202,38.085 736.787,36.911 C 740.947,29.084 745.553,20.299 743.856,9.836 C 743.289,6.469 740.852,3.908 737.667,3.322 C 727.285,1.346 715.969,9.028 706.866,15.251 L 706.498,15.469 C 659.697,52.135 620.176,104.975 585.626,177.137 C 583.122,179.037 573.447,181.307 571.801,180.209 C 575.213,173.184 579.509,163.742 581.66,153.495 C 582.032,150.568 582.377,147.569 582.377,144.642 C 582.377,138.344 580.866,132.418 575.222,128.32 C 568.606,125.026 560.429,126.564 554.916,129.051 C 530.218,139.296 511.759,164.621 498.44,185.476 C 491.276,198.726 484.133,212.918 482.155,229.168 C 480.762,241.9 483.598,250.096 490.836,254.197 C 498.282,258 507.652,254.047 511.332,252.146 C 536.353,238.973 553.835,212.555 567.617,188.402 C 568.165,188.329 575.689,188.112 581.379,186.646 C 581.456,186.646 581.488,186.646 581.614,186.723 C 581.288,187.816 578.347,196.601 578.347,196.601 C 569.613,222.215 565.574,239.635 573.824,249.95 C 585.613,264.516 605.129,249.441 621.006,229.531 C 617.598,253.389 629.963,257.123 639.388,255.295 C 650.215,252.368 662.28,240.802 667.879,234.876 C 666.082,241.828 666.571,254.27 676.419,255.513 C 683.17,256.761 688.222,253.322 694.069,250.173 C 715.038,238.756 740.139,200.477 746.656,189.941 L 738.111,189.941 C 728.846,203.626 717.057,222.066 702.228,230.779 L 702.228,230.779 z M 514.01,227.998 C 512.68,226.022 512.24,223.75 512.195,221.413 C 511.94,207.064 527.378,181.523 538.277,167.253 C 538.3,167.253 538.3,167.253 538.3,167.253 C 542.868,177.866 553.209,183.793 559.453,186.501 C 551.699,203.775 525.105,240.879 514.01,227.998 L 514.01,227.998 z M 563.829,178.891 C 563.089,179.405 550.048,175.013 547.529,162.938 C 545.391,152.542 552.549,144.419 559.476,140.323 C 562.449,137.981 566.927,137.177 570.212,138.344 C 573.261,140.395 574.087,144.057 574.087,148.004 C 574.087,150.423 573.766,152.909 573.483,155.178 C 573.483,155.178 573.429,155.618 573.42,155.691 C 571.247,163.813 567.921,171.79 563.829,178.891 L 563.829,178.891 z M 668.424,223.388 C 668.414,223.388 665.951,225.583 665.951,225.583 C 662.433,228.728 658.813,232.095 654.443,230.411 C 653.236,229.972 652.387,228.364 652.183,227.116 C 651.984,218.114 656.039,209.774 659.969,201.652 L 660.977,199.528 C 672.285,180.647 685.429,158.399 704.733,142.959 C 707.986,140.612 711.516,138.639 715.242,140.177 C 716.099,140.98 717.097,142.372 717.097,143.761 C 717.097,144.202 716.707,145.372 716.48,145.736 C 711.089,154.448 705.954,163.596 700.961,172.377 C 691.203,189.723 681.08,207.651 668.424,223.388 L 668.424,223.388 z "
   style="fill:#c10d0a;fill-rule:evenodd"
   id="path15" />
</g>
</svg>