<?xml version="1.0" encoding="UTF-8" standalone="no"?>
<!-- Created with Inkscape (http://www.inkscape.org/) -->

<svg
   xmlns:dc="http://purl.org/dc/elements/1.1/"
   xmlns:cc="http://creativecommons.org/ns#"
   xmlns:rdf="http://www.w3.org/1999/02/22-rdf-syntax-ns#"
   xmlns:svg="http://www.w3.org/2000/svg"
   xmlns="http://www.w3.org/2000/svg"
   xmlns:sodipodi="http://sodipodi.sourceforge.net/DTD/sodipodi-0.dtd"
   xmlns:inkscape="http://www.inkscape.org/namespaces/inkscape"
   version="1.0"
   width="800"
   height="261.952"
   viewBox="0 0 800 261.952"
   id="Layer_1"
   xml:space="preserve"
   inkscape:version="0.48.2 r9819"
   sodipodi:docname="coke.svg"><sodipodi:namedview
   pagecolor="#ffffff"
   bordercolor="#666666"
   borderopacity="1"
   objecttolerance="10"
   gridtolerance="10"
   guidetolerance="10"
   inkscape:pageopacity="0"
   inkscape:pageshadow="2"
   inkscape:window-width="1505"
   inkscape:window-height="958"
   id="namedview11"
   showgrid="false"
   inkscape:zoom="1.050338"
   inkscape:cx="238.03851"
   inkscape:cy="130.976"
   inkscape:window-x="160"
   inkscape:window-y="24"
   inkscape:window-maximized="0"
   inkscape:current-layer="Layer_1" /><metadata
   id="metadata13"><rdf:RDF><cc:Work
       rdf:about=""><dc:format>image/svg+xml</dc:format><dc:type
         rdf:resource="http://purl.org/dc/dcmitype/StillImage" /><dc:title></dc:title></cc:Work></rdf:RDF></metadata><defs
   id="defs18">
	
	
	
	
	
	
</defs>
<path
   d="M307.209 228.51L301.499634766 225.101148682L295.520375 222.071095703L289.250537109 219.428092529L282.6694375 217.180390625L275.756392578 215.336241455L268.49071875 213.903896484L260.851732422 212.891607178L252.81875 212.307625L244.371087891 212.160201416L235.4880625 212.457587891L226.148990234 213.208035889L216.3331875 214.419796875L206.019970703 216.101122314L195.18865625 218.260263672L183.818560547 220.905472412L171.889 224.045L147.908292969 229.840806641L127.64053125 234.787390625L118.702884277 236.848433838L110.458128906 238.584623047L102.827816895 239.958442139L95.7335 240.932375L89.0967299805 241.468905518L82.8390585937 241.530517578L76.8820375977 241.079695068L71.14721875 240.078921875L68.3386200562 239.360579987L65.5561538086 238.490681885L62.7900139771 237.464538055L60.0303945312 236.277458984L54.4914926758 233.401737061L48.861 229.826L46.7580383301 227.817355713L44.8304785156 225.659673828L43.0780583496 223.351455811L41.500515625 220.891203125L40.0975881348 218.277417236L38.8690136719 215.508599609L37.8145300293 212.583251709L36.933875 209.499875L36.226786377 206.256970947L35.6930019531 202.853041016L35.3322595215 199.28658667L35.144296875 195.556109375L35.1288518066 191.660110596L35.2856621094 187.597091797L35.6144655762 183.365554443L36.115 178.964L37.6207619629 171.66547998L39.4202207031 164.393230469L41.517572998 157.139092285L43.917015625 149.89490625L46.6227453613 142.652513184L49.6389589844 135.403753906L52.9698532715 128.140469238L56.619625 120.8545L60.5924709473 113.537687012L64.8925878906 106.181871094L69.5241726074 98.7788930664L74.491421875 91.32059375L79.7985324707 83.7988139648L85.4497011719 76.2053945312L91.4491247559 68.5321762695L97.801 60.771L105.038662109 52.8074785156L112.228546875 45.226328125L119.454876953 38.1219199219L126.801875 31.588625L130.546944092 28.5656359863L134.353763672 25.7208144531L138.232861572 23.0659567871L142.194765625 20.612859375L146.250003662 18.3733186035L150.409103516 16.3591308594L154.682593018 14.5820925293L159.081 13.054L162.273413086 12.3912299805L165.026648438 12.1284648438L167.369200195 12.2198344727L169.3295625 12.61946875L170.936229492 13.2814975586L172.217695313 14.1600507813L173.202454102 15.2092583008L173.919 16.38325L174.395827148 17.6361557617L174.661429688 18.9221054688L174.744301758 20.1952290039L174.6729375 21.40965625L174.181476563 23.4789414063L173.818368164 24.242059082L173.415 24.763L171.40915625 24.8511875L169.04125 25.19325L166.54321875 25.9054375L165.317886719 26.43665625L164.147 27.104L161.6689375 29.29459375L160.13975 30.9245351563L158.58375 32.87775L157.12590625 35.1293710938L155.8911875 37.65453125L155.0045625 40.4283632813L154.591 43.426L154.64763623 45.6231921387L154.992714844 47.4779902344L155.595365723 49.0064768066L156.42471875 50.224734375L157.449903809 51.148845459L158.640050781 51.7948925781L159.964289551 52.178958252L161.39175 52.317125L162.891562012 52.2254753418L164.432855469 51.9200917969L165.984760254 51.4170568848L167.51640625 50.732453125L168.99692334 49.8823630371L170.395441406 48.8828691406L171.681090332 47.7500539551L172.823 46.5L175.206150391 43.2426621094L177.639703125 39.409359375L179.901060547 35.0960332031L180.897604248 32.7893430176L181.767625 30.398625L182.483298096 27.9358718262L183.016798828 25.4130761719L183.34030249 22.8422307129L183.425984375 20.235328125L183.246019775 17.604361084L182.772583984 14.9613222656L181.977852295 12.3182043457L180.834 9.687L179.621589844 7.89447460937L178.21753125 6.254609375L176.632582031 4.77597070313L174.8775 3.467125L172.963042969 2.33663867188L170.89996875 1.393078125L168.699035156 0.645009765625L166.371 0.101L162.300849854 0.00119580078125L158.265845703 0.15873828125L154.266094482 0.558185058594L150.301703125 1.18409375L146.372778564 2.02102197266L142.479427734 3.05352734375L138.621757568 4.26616748047L134.799875 5.6435L127.263900391 8.83047265625L119.872359375 12.49090625L112.626107422 16.5012617187L105.526 20.738L97.9392541504 26.2028283691L90.5535332031 31.9143613281L83.3776745605 37.8619831543L76.420515625 44.035078125L69.6908937988 50.4230305176L63.1976464844 57.0152246094L56.949611084 63.8010446777L50.955625 70.769875L45.2245256348 77.9110998535L39.7651503906 85.2141035156L34.5863366699 92.6682702637L29.696921875 100.262984375L25.1057434082 107.987630127L20.8216386719 115.831591797L16.8534450684 123.784253662L13.21 131.835L9.29253710938 142.097445312L7.45453735352 147.558079102L5.742234375 153.20275L4.18953491211 159.004780273L2.83034570313 164.937492187L1.69857348633 170.974208008L0.828125 177.08825L0.252906982422 183.25294043L0.006826171875 189.441601562L0.123789306641 195.627555664L0.637703125 201.784125L1.58247436523 207.884631836L2.99200976563 213.902398437L4.90021606445 219.81074707L7.341 225.583L9.58339697266 229.418229492L12.0975664063 233.016476563L14.8724135742 236.372391602L17.89684375 239.480625L21.159762207 242.335827148L24.6500742188 244.932648438L28.3566850586 247.265739258L32.2685 249.32975L36.3744243164 251.119331055L40.6633632812 252.629132812L45.124222168 253.853805664L49.74590625 254.788L54.5173208008 255.426366211L59.4273710937 255.763554688L64.4649624023 255.79421582L69.619 255.513L77.0934472656 254.559617188L84.811703125 253.2866875L92.6356386719 251.773289062L100.427125 250.0985L115.360234375 246.5810625L128.506 243.367L137.273291016 241.006783203L143.512935303 239.348295654L150.756078125 237.567140625L158.827343994 235.81050708L167.551357422 234.225583984L176.75274292 232.959560303L186.256125 232.159625L191.066259918 231.980437042L195.886128174 231.972967041L200.693807831 232.155613617L205.467376953 232.546775391L210.184913605 233.164850983L214.82449585 234.028239014L219.364201752 235.155338104L223.782109375 236.564546875L228.056296783 238.274263947L232.164842041 240.302887939L236.085823212 242.668817474L239.797318359 245.390451172L243.277405548 248.486187653L246.504162842 251.974425537L249.455668304 255.873563446L252.11 260.202L252.534042969 259.46209375L253.84071875 257.5083125L256.081847656 254.7395625L257.569025879 253.174232422L259.30925 251.55475L261.308997559 249.930978516L263.574746094 248.35278125L266.112973145 246.870021484L268.93015625 245.5325625L272.032772949 244.390267578L275.427300781 243.493L279.120217285 242.890623047L283.118 242.633L286.622895996 242.418770264L290.294371094 242.404583984L294.110168457 242.588195557L298.04803125 242.967359375L302.085702637 243.539829834L306.200925781 244.303361328L310.371443848 245.255708252L314.575 246.394625L318.789337402 247.717865967L322.992199219 249.223185547L327.161328613 250.908338135L331.27446875 252.771078125L335.309362793 254.809159912L339.243753906 257.020337891L343.055385254 259.402366455L346.722 261.953L343.812984375 258.163257813L339.9796875 254.0525625L335.394234375 249.725585938L330.22875 245.287L324.655359375 240.841476563L318.8461875 236.4936875L312.973359375 232.348304688L307.209 228.51L307.209 228.51L307.209 228.51"
   style="fill:none;fill-rule:evenodd;stroke:#000000;stroke-opacity:1"
   id="path5"
   inkscape:connector-curvature="0" /><path
   d="M180.16 65.674L178.693582428 64.8253424683L177.141315674 64.1436811523L175.50711618 63.6262017212L173.794900391 63.2700898438L172.008584747 63.072531189L170.152085693 63.0307114258L166.244203125 63.40303125L162.102584229 64.364534668L157.758560547 65.8927070313L153.243463623 67.9650336914L148.588625 70.559L143.825376221 73.6520913086L138.985048828 77.2217929688L134.098974365 81.245590332L129.198484375 85.70096875L124.3149104 90.5654135742L119.479583984 95.8164101563L114.72383667 101.431443848L110.079 107.388L106.042278564 112.927476318L102.313884766 118.544529297L98.9047243652 124.205407471L95.825703125 129.876359375L93.0877268066 135.523633545L90.7017011719 141.113478516L88.6785319824 146.612142822L87.029125 151.985875L85.7643859863 157.200923584L84.8952207031 162.223537109L84.4325349121 167.019964111L84.387234375 171.556453125L84.7702248535 175.799252686L85.5924121094 179.714611328L86.8647019043 183.268777588L87.6730433044 184.899866241L88.598 186.428L90.0997819519 188.032316681L91.6744001465 189.380967041L93.316356842 190.484564056L95.0201542969 191.353720703L96.7802947693 191.999049957L98.5912805176 192.431164795L100.4476138 192.660678192L102.343796875 192.698203125L104.274332001 192.55435257L106.233721436 192.239739502L110.217072266 191.140677734L114.249867432 189.485921631L118.288125 187.360375L122.287863037 184.84894165L126.205099609 182.036525391L129.995852783 179.008030029L133.616140625 175.848359375L137.021981201 172.642417236L140.169392578 169.475107422L145.513 163.596L147.103 161.912L150.159847656 158.454613281L153.05790625 154.85240625L155.817074219 151.131933594L158.45725 147.31975L163.46021875 139.52646875L168.226 131.685L174.261 121.731L180.124 120.470625L186.941 118.659L184.052078125 123.862453125L181.159607422 129.429662109L177.905625 136.249875L174.743001953 143.780103516L173.337472412 147.641789795L172.124609375 151.477359375L171.161021729 155.218938721L170.503318359 158.798654297L170.208108154 162.148632568L170.332 165.201L170.861625 170.668203125L171.514515625 174.436880859L172.031291016 176.455060303L172.7105 178.514875L173.578802734 180.580631104L174.662859375 182.616634766L175.989330078 184.587192139L177.584875 186.456609375L179.476154297 188.189192627L181.689828125 189.749248047L184.252556641 191.101081787L187.191 192.209L191.317217285 192.668696533L195.341707031 192.669541016L199.267976074 192.245103271L203.09953125 191.428953125L206.839879395 190.2546604L210.492527344 188.755794922L214.060981934 186.965926514L217.54875 184.918625L220.959338379 182.647460205L224.296253906 180.186001953L230.76309375 174.826484375L236.977324219 169.108630859L242.967 163.301L247.155 159.28L246.273 162.859L245.22453833 166.906550049L244.507853516 170.555775391L244.09568335 173.828538818L243.960765625 176.746703125L244.075838135 179.332131104L244.413638672 181.606685547L244.946905029 183.592229248L245.648375 185.310625L246.490786377 186.783735596L247.446876953 188.033423828L248.489384521 189.08155249L249.591046875 189.949984375L251.862787109 191.235208984L254.044 192.064L255.611374146 192.433792633L257.19349707 192.643469971L260.385117187 192.621400391L263.585116211 192.075634521L266.75975 191.084015625L269.875274414 189.724386963L272.897945313 188.074591797L275.794018555 186.212473389L278.52975 184.215875L283.385210937 180.130611328L287.194375 176.441546875L290.594 172.743L290.186265625 178.204296875L290.151154297 180.752103516L290.392875 183.179125L291.034673828 185.486193359L292.199796875 187.674140625L293.017119385 188.723703857L294.011490234 189.743798828L295.198315186 190.734529541L296.593 191.696L299.432576172 192.409984375L302.257984375 192.5731875L305.046619141 192.266234375L307.775875 191.56975L310.423146484 190.564359375L312.965828125 189.3306875L315.381314453 187.949359375L317.647 186.501L321.532237305 183.632615479L325.323132812 180.582814453L329.020899414 177.369188232L332.62675 174.009328125L339.567554687 166.921271484L346.15525 159.459375L352.399539062 151.764369141L358.310125 143.976984375L363.896710937 136.237951172L369.169 128.688L360.463 128.688L356.846328125 133.679703125L352.888708984 138.878091797L347.947875 145.025125L342.361056641 151.481017578L336.465484375 157.605984375L333.507300049 160.344437744L330.598388672 162.760240234L327.780904053 164.773418701L325.097 166.304L323.63275 166.797875L322.32978125 166.921203125L321.682175781 166.807876953L321.093 166.523L320.531212891 165.863064453L320.180140625 165.060828125L320.015091797 164.152396484L320.011375 163.173875L320.389171875 161.150984375L321.116 159.281L374.718 66.04L349.442 66.04L346.456 71.018L345.599 69.845L344.073730194 67.9739069214L342.437657959 66.4161772461L340.696014069 65.1626978149L338.854029297 64.2043554688L336.916934418 63.5320370483L334.889960205 63.1366293945L332.778337433 63.0090193481L330.587296875 63.14009375L328.322069305 63.5207394409L325.987885498 64.1418432617L323.589976227 64.9942920532L321.133572266 66.0689726563L318.623904388 67.3567719116L316.066203369 68.8485766602L310.827625 72.40775L305.45968335 76.6735874023L300.004224609 81.5731835938L294.503094971 87.0336333008L288.998140625 92.98203125L283.531207764 99.345472168L278.144142578 106.051050781L272.87879126 113.025861816L267.777 120.197L259.577015625 131.593734375L255.150404297 137.366345703L250.542375 143.085625L245.780173828 148.674451172L240.891046875 154.055703125L235.902240234 159.152259766L230.841 163.887L227.565828125 166.561375L224.027560547 169.023328125L221.945334717 170.278533203L219.716125 171.452L217.386239502 172.470310547L215.001986328 173.260046875L212.609673584 173.747791016L210.255609375 173.860125L207.986101807 173.523630859L205.847458984 172.664890625L204.841683136 172.016735107L203.885989014 171.210486328L202.986165131 170.236967041L202.148 169.087L201.156519531 166.891179688L200.51128125 164.51775L200.173589844 162.029382813L200.10475 159.48875L200.266066406 156.958523438L200.61884375 154.501375L201.124386719 152.179976563L201.744 150.057L203.702763184 144.751810059L205.823933594 139.519542969L208.10039502 134.371340332L210.52503125 129.31834375L213.090726074 124.371694824L215.790363281 119.542535156L218.61682666 114.842006348L221.563 110.28125L224.62176709 105.871407715L227.786011719 101.623621094L231.048617676 97.5490317383L234.40246875 93.65878125L237.84044873 89.9640112305L241.355441406 86.4758632813L244.940330566 83.2054790039L248.588 80.164L250.6796875 78.6897460938L252.7753125 77.50328125L254.83371875 76.6046757813L256.81375 75.994L258.67425 75.6713242188L260.3740625 75.63671875L261.87203125 75.8902539063L263.127 76.432L264.082279297 77.1732246094L264.815359375 78.102734375L265.327728516 79.1760332031L265.620875 80.348625L265.696287109 81.5760136719L265.555453125 82.813703125L265.199861328 84.0171972656L264.631 85.142L262.960541016 85.1594960938L261.372640625 85.32265625L259.864638672 85.6332382813L258.433875 86.093L257.077689453 86.7036992188L255.793421875 87.46709375L254.578412109 88.3849414063L253.43 89.459L251.411896484 91.7539472656L249.753171875 94.026640625L248.454705078 96.2753574219L247.517375 98.498375L246.942060547 100.693970703L246.729640625 102.860421875L246.880994141 104.996005859L247.397 107.099L248.271043396 108.195623505L249.192702637 109.076390381L250.156865051 109.750145172L251.158417969 110.225732422L252.192248718 110.511996674L253.253244629 110.617782471L254.33629303 110.551934357L255.43628125 110.323296875L257.666626465 109.413031982L259.903378906 107.957744141L262.105637207 106.028189697L264.2325 103.695125L266.243065918 101.029306396L268.096433594 98.1014902344L269.75170166 94.9824328613L271.16796875 91.742890625L272.304333496 88.453619873L273.119894531 85.1853769531L273.573750488 82.0089182129L273.625 78.995L273.386121094 76.9274082031L272.91209375 74.915703125L272.216957031 72.9881152344L271.31475 71.172875L270.219511719 69.4982128906L268.94528125 67.992359375L267.506097656 66.6835449219L265.916 65.6L263.292019531 64.3462988281L260.42496875 63.525453125L257.397183594 63.1040996094L254.291 63.048875L251.188753906 63.3264160156L248.17278125 63.903359375L245.325417969 64.7463417969L242.729 65.822L239.240255859 67.4197265625L235.401671875 69.659875L231.340220703 72.4163984375L227.182875 75.56325L223.056607422 78.9743828125L219.088390625 82.52375L215.405197266 86.0853046875L212.134 89.533L208.025908203 93.7613554688L203.462765625 97.92940625L198.669771484 101.860503906L193.872125 105.378L189.295025391 108.305246094L185.163671875 110.46559375L183.335524658 111.202978027L181.703263672 111.682394531L180.295038818 111.881762207L179.139 111.779L182.22634375 104.152515625L184.324160156 98.0714902344L185.290725098 94.6902790527L186.11825 91.168125L186.743626465 87.569670166L187.103746094 83.9595566406L187.135500488 80.4024265137L186.77578125 76.962921875L185.96147998 73.7056848145L185.364139709 72.1656172791L184.629488281 70.6953574219L183.749637146 69.3029855042L182.716697754 67.9965817871L181.522781555 66.784226532L180.16 65.674L180.16 65.674L180.16 65.674M302.021 110.17L307.15425 103.34034375L313.915 94.7195L320.408 86.79840625L322.961828125 83.8786835937L324.738 82.068L326.856251953 80.3026843262L328.813453125 78.8620527344L330.613646484 77.7223908691L332.260875 76.859984375L333.759181641 76.2511188965L335.112609375 75.8720800781L336.325201172 75.6991535645L337.401 75.708625L338.344048828 75.8767800293L339.158390625 76.1799042969L340.417125 77.096203125L341.209546875 78.2678066406L341.568 79.505L324.004375 110.425875L314.756015625 126.291640625L305.54 141.787L301.737 147.568L297.65153125 153.480015625L295.504886719 156.243630859L293.23625 158.864125L290.806082031 161.330353516L288.17484375 163.631171875L285.302996094 165.755435547L282.151 167.692L281.079 167.911515625L279.84275 167.958625L278.583625 167.744171875L277.443 167.179L276.383328125 166.228671875L275.685625 165.065625L275.334609375 163.751265625L275.315 162.347L275.803197266 159.391224609L276.930265625 155.286296875L278.783919922 150.097314453L281.451875 143.889375L285.021845703 136.727576172L289.581546875 128.677015625L295.218693359 119.802791016L302.021 110.17L302.021 110.17L302.021 110.17M164.516 121.952L164.187 122.829L153.167 140.758L147.875734375 147.699921875L144.985876953 151.254197266L141.926625 154.738125L138.693044922 158.057287109L135.280203125 161.117265625L131.683166016 163.823642578L127.897 166.082L125.42571875 166.73528125L122.82 166.97025L121.561941406 166.843035156L120.38453125 166.50584375L119.325855469 165.923542969L118.424 165.061L117.644270508 164.007655762L117.016492188 162.909871094L116.1735 160.60196875L115.808445313 158.179269531L115.83475 155.68375L116.165835938 153.157386719L116.715125 150.64215625L118.122 145.813L118.801 143.617L121.008802734 138.099566406L123.478671875 132.73703125L126.170048828 127.520042969L129.042375 122.43925L132.055091797 117.485300781L135.167640625 112.64884375L141.53 103.291L141.959 103.146L142.029 103.366L143.081674805 105.223141846L144.233179687 106.955931641L146.7905625 110.065640625L149.616914062 112.729498047L152.628 114.981875L155.739585938 116.857142578L158.8674375 118.389671875L161.927320313 119.613833984L164.835 120.564L164.928 120.784L164.516 121.952L164.516 121.952L164.516 121.952M174.93 100.804L170.034 112.073L169.43590625 112.361L168.70825 112.40225L166.955 112.073L164.78 111.705L162.29996875 110.799335938L159.999375 109.685125L157.90034375 108.380414063L156.025 106.90325L154.39546875 105.271679688L153.033875 103.50375L151.96234375 101.617507813L151.203 99.631L150.919229004 97.6822602539L150.874066406 95.7910976563L151.043737793 93.961909668L151.40446875 92.19909375L151.932484863 90.5070473633L152.604011719 88.8901679688L154.2825 85.8995L156.249738281 83.2622695313L158.31553125 81.01365625L160.289683594 79.1888398438L161.982 77.823L163.49890625 76.8981484375L165.16 76.123625L166.91146875 75.5328515625L168.6995 75.15925L170.47028125 75.0362421875L172.17 75.19725L173.74484375 75.6756953125L175.141 76.505L176.491515625 78.50184375L177.396625 80.73175L177.904421875 83.15403125L178.063 85.728L177.807609375 89.39003125L177.120875 93.18275L176.121953125 97.01709375L174.93 100.804L174.93 100.804L174.93 100.804"
   style="fill:none;fill-rule:evenodd;stroke:#000000;stroke-opacity:1"
   id="path7"
   inkscape:connector-curvature="0" /><path
   d="M494.47 134.759L493.405269531 132.876185547L492.06128125 131.193046875L490.472839844 129.731041016L488.67475 128.511625L486.701816406 127.556255859L484.58884375 126.886390625L482.370636719 126.523486328L480.082 126.489L476.334808594 127.002005127L472.610890625 127.847103516L468.923230469 129.013357178L465.2848125 130.489828125L461.708621094 132.265578369L458.207640625 134.329669922L454.794855469 136.671164795L451.48325 139.279125L448.285808594 142.142612549L445.215515625 145.250689453L442.285355469 148.592417725L439.5083125 152.156859375L436.897371094 155.933076416L434.465515625 159.910130859L432.225730469 164.077084717L430.191 168.423L428.279582031 172.895660156L426.58109375 177.26334375L425.078683594 181.620480469L423.7555 186.0615L422.594691406 190.680832031L421.57940625 195.57290625L420.692792969 200.832152344L419.918 206.553L422.546917969 203.667460937L425.72696875 200.466125L429.402347656 197.065664063L433.51725 193.58275L438.015871094 190.134054687L442.84240625 186.83625L447.941050781 183.806007812L453.256 181.16L453.71865625 178.557296875L454.403816406 175.602376953L455.4865 171.810375L457.037933594 167.380263672L459.12934375 162.511015625L461.831957031 157.401603516L463.434723145 154.819014893L465.217 152.251L466.808068359 150.005494141L468.720921875 147.612578125L470.922033203 145.247154297L473.377875 143.084125L476.054919922 141.298392578L477.46591626 140.601669678L478.919640625 140.064859375L480.4119021 139.709824463L481.938509766 139.558427734L483.495272705 139.632531982L485.078 139.954L486.353794434 140.62829248L487.398386719 141.698746094L488.215840332 143.137912598L488.81021875 144.91834375L489.185585449 147.012591309L489.346003906 149.393207031L489.295537598 152.032742676L489.03825 154.90375L488.57820459 157.978780762L487.919464844 161.230386719L487.066094238 164.631119629L486.02215625 168.15353125L484.791714355 171.77017334L483.378832031 175.453597656L481.787572754 179.176355957L480.022 182.911L477.107964844 188.391882813L473.87459375 193.81975L470.365738281 199.141304687L466.62525 204.30325L462.696980469 209.252289063L458.62478125 213.935125L454.452503906 218.298460938L450.224 222.289L446.261794922 225.516140625L441.927859375 228.6745625L437.300087891 231.531015625L434.900355713 232.773113281L432.456375 233.85225L429.977882568 234.739269531L427.474615234 235.405015625L424.956309814 235.820332031L422.432703125 235.9560625L419.913531982 235.783050781L417.408533203 235.272140625L414.927443604 234.394175781L412.48 233.12L410.998196045 232.153530029L409.611552734 231.066912109L407.129859375 228.546984375L405.047142578 225.587720703L403.375625 222.216625L402.127529297 218.461201172L401.315078125 214.348953125L400.950494141 209.907384766L401.046 205.164L401.926767578 198.296287109L403.10215625 191.54275L404.563857422 184.888916016L406.3035625 178.3203125L408.312962891 171.822466797L410.58375 165.38090625L413.107615234 158.981158203L415.87625 152.60875L418.881345703 146.249208984L422.11459375 139.8880625L425.567685547 133.510837891L429.2323125 127.1030625L437.1629375 114.13796875L445.84 100.877L455.281941406 88.3815878906L465.04340625 76.001078125L470.069455566 69.9155412598L475.205980469 63.9326855469L480.463179199 58.0771628418L485.85125 52.373625L491.380391113 46.846723877L497.060800781 41.5211113281L502.902677246 36.421439209L508.91621875 31.572359375L515.111623535 26.9985236816L521.499089844 22.7245839844L528.088815918 18.7751921387L534.891 15.175L537.683845703 13.8859003906L540.420078125 12.874640625L543.095115234 12.1446542969L545.704375 11.699375L548.243275391 11.5422363281L550.707234375 11.676671875L553.091669922 12.1061152344L555.392 12.834L553.872892578 13.7203652344L549.727390625 16.357171875L543.573224609 20.7109863281L539.93593335 23.5213234863L536.028125 26.748375L531.927015869 30.3879616699L527.709822266 34.4359042969L523.453760498 38.8880236816L519.236046875 43.740140625L515.133897705 48.9880759277L511.224529297 54.6276503906L507.585157959 60.6546848145L504.293 67.065L501.047140625 74.280875L499.584787109 78.198L498.438125 82.2505L497.763634766 86.3853125L497.652354248 88.4670039062L497.717796875 90.549375L497.979522705 92.6257929687L498.457091797 94.689625L499.170064209 96.7342382812L500.138 98.753L501.39459375 100.606898438L502.8341875 102.032125L504.416375 103.080101562L506.10075 103.80225L507.84690625 104.249992187L509.6144375 104.47475L513.052 104.461L516.760366699 103.420062256L520.307996094 102.069560547L523.701869629 100.432649658L526.94896875 98.532484375L530.056274902 96.3922194824L533.030769531 94.0350097656L535.879434082 91.4840100098L538.60925 88.762375L541.22719873 85.8932595215L543.740261719 82.8998183594L548.47965625 76.632578125L552.883285156 70.1458925781L557.007 63.625L561.4438125 53.789671875L563.424492188 48.8372441406L565.1715 43.837625L566.628445313 38.7728027344L567.7389375 33.624765625L568.446585938 28.3755019531L568.695 23.007L568.455 17.152L570.377847168 16.3524680176L572.494636719 15.8515253906L574.761490723 15.6150895996L577.13453125 15.609078125L579.569880371 15.7994084473L582.023660156 16.1519980469L586.811 17.207625L591.145527344 18.5032988281L594.67621875 19.766359375L597.922 21.104L601.019556396 22.2908781738L604.469201172 23.8900410156L608.213335205 25.8420935059L612.194359375 28.087640625L620.636681641 33.2216386719L629.335375 38.816875L645.658703125 49.490421875L652.361751953 53.6184121094L655.147025635 55.1723288574L657.478 56.307L662.084078125 51.108109375L667.306375 45.449375L672.452734375 40.078453125L676.831 35.743L669.567 31.278L660.733546875 26.01765625L651.731625 20.867L633.543 10.786L628.452038086 8.20560595703L623.489507813 6.06886328125L618.664004883 4.34436865234L613.984125 3.00071875L609.458463867 2.00651025391L605.095617188 1.33033984375L600.904180664 0.940804199219L596.89275 0.8065L593.069920898 0.896023925781L589.444289062 1.17797265625L586.024450195 1.62094287109L582.819 2.19353125L577.085648437 3.60194921875L572.313 5.152L563.75 8.152L562.104858154 6.53931567383L560.346271484 5.15085351563L558.487498291 3.97418725586L556.541796875 2.996890625L554.522425537 2.20653735352L552.442642578 1.59070117188L550.315706299 1.13695581055L548.154875 0.832875L543.784560547 0.624001953125L539.437765625 0.864671875L535.220556641 1.45547460938L531.239 2.297L524.384668701 4.45131420898L517.584458984 6.96615429688L510.830922119 9.84699145508L504.116609375 13.099296875L497.434072021 16.728541748L490.775861328 20.7401972656L484.134528564 25.1397346191L477.502625 29.932625L470.872701904 35.1243395996L464.237310547 40.7203496094L457.589002197 46.7261262207L450.920328125 53.147140625L444.2238396 59.9888640137L437.492087891 67.2567675781L430.717624268 74.9563225098L423.893 83.093L414.290994141 95.9698378906L405.617078125 108.452140625L397.842904297 120.591341797L394.284362061 126.548352295L390.940125 132.438875L387.806649658 138.269339111L384.880392578 144.046173828L382.157810303 149.77580835L379.635359375 155.464671875L377.309496338 161.119193604L375.176677734 166.745802734L373.233360107 172.350928467L371.476 177.941L370.251463623 181.805987061L369.159177734 185.860880859L368.219689697 190.074267822L367.453546875 194.414734375L366.881296631 198.850866943L366.523486328 203.351251953L366.40066333 207.88447583L366.533375 212.419125L366.942168701 216.923785889L367.647591797 221.367044922L368.67019165 225.717488525L370.030515625 229.943703125L371.749111084 234.014275146L373.846525391 237.897791016L376.343305908 241.562837158L379.26 244.978L381.975986572 247.554896729L384.785642578 249.731658203L387.674074951 251.531641357L390.626390625 252.978203125L393.627696533 254.094700439L396.663099609 254.904490234L399.717706787 255.430929443L402.776625 255.697375L405.824961182 255.727183838L408.847822266 255.543712891L411.830315186 255.170319092L414.757546875 254.630359375L420.386654297 253.144169922L425.616 251.272L430.984406006 248.420623535L436.269654297 245.202253906L441.456977783 241.634155762L446.531609375 237.73359375L451.478781982 233.51783252L456.283728516 229.004136719L460.931681885 224.209770996L465.407875 219.152L469.697540771 213.848088379L473.785912109 208.315300781L477.658221924 202.570901855L481.299703125 196.63215625L484.695588623 190.516328613L487.831111328 184.240683594L490.69150415 177.82248584L493.262 171.279L494.427972656 167.16746875L495.51878125 162.7428125L496.427011719 158.0968125L497.04525 153.32125L497.266082031 148.50790625L496.98209375 143.7485625L496.617225098 141.417822266L496.085871094 139.135L495.37460498 136.911568359L494.47 134.759L494.47 134.759L494.47 134.759M560.756 24.471L560.311467682 28.520844696L559.700182861 32.4637614746L558.932363739 36.2987306213L558.018228516 40.0247324219L556.967995392 43.6407471619L555.791882568 47.145755127L553.102890625 53.818671875L550.032998291 60.0353249512L546.663951172 65.7875566406L543.077494873 71.0672092285L539.355375 75.866125L535.579337158 80.1761462402L531.831126953 83.9891152344L528.19248999 87.2968742676L524.745171875 90.091265625L521.570918213 92.3641315918L518.751474609 94.1073144531L516.36858667 95.3126564941L514.504 95.972L512.461775391 96.1763867187L510.316953125 95.92221875L509.279592041 95.5762651367L508.304810547 95.0593789063L507.422018311 94.3527954102L506.660625 93.43775L506.050040283 92.2954780273L505.619673828 90.9072148438L505.398935303 89.2541958008L505.417234375 87.31765625L505.703980713 85.078831543L506.288583984 82.5189570313L507.200453857 79.6192680664L508.469 76.361L510.707939453 71.7678188477L513.12675 67.2717539063L515.715669922 62.8823354492L518.4649375 58.60909375L521.364791016 54.461559082L524.40546875 50.4492617188L527.577208984 46.5817319336L530.87025 42.8685L534.274830078 39.3190961914L537.7811875 35.9430507813L541.379560547 32.749894043L545.0601875 29.74915625L548.813306641 26.9503676758L552.62915625 24.3630585938L556.497974609 21.9967592773L560.41 19.861L560.830125 22.24775L560.756 24.471L560.756 24.471L560.756 24.471"
   style="fill:none;fill-rule:evenodd;stroke:#000000;stroke-opacity:1"
   id="path9"
   inkscape:connector-curvature="0" /><path
   d="M762.555 30.031L755.655017578 33.7464824219L748.653328125 37.055171875L741.510943359 39.8936816406L737.874806396 41.116810791L734.188875 42.198625L730.448275635 43.1312009277L726.648134766 43.9066152344L722.783578857 44.5169445801L718.849734375 44.954265625L714.841727783 45.2106550293L710.754685547 45.2781894531L706.583734131 45.1489455566L702.324 44.815L692.943125 55.739L688.421671875 61.32353125L684.052 66.99L687.078719849 67.6818995361L690.113672852 68.2239931641L696.195789062 68.8787578125L702.273370117 68.9942841797L708.3214375 68.6105625L714.315012695 67.7675830078L720.229117187 66.5053359375L726.038772461 64.8638115234L731.719 62.883L737.244821289 60.6028916016L742.591257812 58.0634765625L747.733331055 55.3047451172L752.6460625 52.3666875L757.304473633 49.2892939453L761.683585937 46.1125546875L765.758420898 42.8764599609L769.504 39.621L773.16875 36.294590332L776.6025 32.9008007812L779.8045 29.4785405273L782.774 26.06671875L788.0125 19.4300273437L792.312 13.302L795.6665 7.99391015625L798.07 3.81703125L800.0 0.102L797.290078125 2.998234375L794.041279297 6.23390039062L789.653125 10.319375L784.218017578 14.9982402344L777.828359375 20.014078125L770.576552734 25.1104707031L766.656219482 27.6087443848L762.555 30.031L762.555 30.031L762.555 30.031"
   style="fill:none;fill-rule:evenodd;stroke:#000000;stroke-opacity:1"
   id="path11"
   inkscape:connector-curvature="0" /><polygon
   points="379.185,88.948 403.184,88.948 416.729,66.04 416.729,66.04 392.725,66.04 "
   style="fill:none;fill-rule:evenodd;stroke:#000000;stroke-opacity:1"
   id="polygon13" /><path
   d="M702.228 230.779L701.222912109 231.287765625L700.190484375 231.50225L699.201345703 231.430234375L698.326125 231.0795L697.635451172 230.457828125L697.199953125 229.573L697.090259766 228.432796875L697.377 227.045L699.068572266 222.757080078L701.427140625 217.827828125L704.177607422 212.631130859L707.044875 207.540875L712.029421875 199.175234375L714.18 195.722L751.576 129.199L725.96 129.199L722.139 135.93L720.8779375 134.09896875L719.1485 131.92425L717.3673125 129.94190625L715.951 128.688L713.478417969 127.471355469L710.79928125 126.75503125L707.981253906 126.490066406L705.092 126.6275L702.199183594 127.118371094L699.37046875 127.91371875L696.673519531 128.964582031L694.176 130.222L689.098914551 133.420247314L684.191660156 136.953775391L679.449552246 140.789263428L674.86790625 144.893390625L670.442037598 149.232836182L666.167261719 153.774279297L662.038894043 158.48439917L658.05225 163.329875L654.20264502 168.277385986L650.485394531 173.293611328L643.42921875 183.398921875L636.846246094 193.379240234L630.699 202.968L627.947890625 207.310828125L624.932654297 211.805490234L621.200875 217.018875L617.034986328 222.328400391L614.877511475 224.824658936L612.717421875 227.111484375L610.590021729 229.111053955L608.530615234 230.745544922L606.574506592 231.937134521L604.757 232.608L603.493131592 232.601290771L602.403818359 232.378779297L601.476748291 231.966514893L600.699609375 231.390546875L600.0600896 230.676924561L599.545876953 229.851697266L598.844125 227.970625L598.495857422 225.955724609L598.402578125 224.015390625L598.587 221.192L599.801294922 215.08278125L601.319421875 209.0571875L603.098619141 203.1228125L605.096125 197.28725L607.269177734 191.55809375L609.575015625 185.9429375L614.414 175.085L624.690640625 167.661015625L635.366375 159.324375L646.134921875 150.233046875L651.458287109 145.453740234L656.69 140.545L667.663572266 129.691583984L677.999140625 118.821234375L687.499232422 108.273548828L695.966375 98.388125L703.203095703 89.5045605469L709.011921875 81.962453125L713.195380859 76.1014003906L715.556 72.261L712.970125 72.682125L710.197765625 73.002234375L706.848 73.212L702.260980225 79.3934475098L697.192529297 85.8367519531L691.726059814 92.4623562012L685.944984375 99.190703125L679.932715576 105.942235596L673.772666016 112.637396484L661.342875 125.540375L649.322912109 137.263181641L643.675147705 142.483127686L638.380078125 147.169359375L633.521115967 151.24231958L629.181673828 154.622451172L625.445164307 157.230197021L622.395 158.986L623.977030029 155.481397217L626.309662109 150.770083984L632.988484375 138.286046875L641.954970703 122.651330078L647.147182861 114.001667236L652.732625 104.983375L658.651735107 95.7361335449L664.844951172 86.3996230469L671.252711182 77.1135236816L677.815453125 68.017515625L684.47361499 59.2512790527L691.167634766 50.9544941406L697.837950439 43.2668410645L704.425 36.328L709.902 31.057L716.2755 24.927765625L719.439679688 22.0467167969L722.55375 19.402375L725.591414063 17.0804863281L728.526375 15.166796875L731.332335937 13.7470527344L733.983 12.907L734.558265625 12.902546875L735.180125 13.090375L735.817171875 13.608015625L736.438 14.593L736.430306641 16.9333945312L736.196828125 19.14359375L735.765091797 21.2509960937L735.162625 23.283L733.555609375 27.23040625L731.596 31.205L727.743 39.11L730.920625 38.45075L733.861453125 37.749875L736.787 36.911L739.885171875 30.849875L741.299251953 27.6635L742.517875 24.362L743.461951172 20.9369375L744.052390625 17.379875L744.210103516 13.682375L743.856 9.836L743.557910156 8.61343945312L743.09765625 7.480140625L742.488386719 6.44980273437L741.74325 5.536125L740.875394531 4.75280664062L739.89796875 4.113546875L738.824121094 3.63204492187L737.667 3.322L735.710197998 3.06196557617L733.736115234 3.01200585937L731.749361572 3.15583618164L729.754546875 3.477171875L725.759173828 4.58722070312L721.786875 6.211875L717.874529297 8.22085742187L714.059015625 10.483890625L706.866 15.251L706.498 15.469L697.807561279 22.5341826172L689.284365234 29.9830546875L680.925029541 37.8202275391L672.726171875 46.0503125L664.684409912 54.6779208984L656.796361328 63.7076640625L649.058643799 73.1441533203L641.467875 82.992L634.020672607 93.2558154297L626.713654297 103.940210937L619.543437744 115.049797852L612.506640625 126.5891875L605.599880615 138.562991211L598.819775391 150.975820312L592.162942627 163.832286133L585.626 177.137L584.380546875 177.859542969L582.6409375 178.57296875L578.39175 179.79725L576.238421875 180.220496094L574.3034375 180.45940625L572.764921875 180.470175781L571.801 180.209L574.478421875 174.51225L577.203375 168.06025L579.691890625 161.004125L580.758744141 157.296742187L581.66 153.495L582.158 149.0685L582.377 144.642L582.301050781 142.30053125L582.05271875 140.011L581.601277344 137.79046875L580.916 135.656L579.966160156 133.62465625L578.72103125 131.7135L577.149886719 129.93959375L575.222 128.32L572.676080078 127.303666016L570.033328125 126.694828125L567.343255859 126.447982422L564.655375 126.517625L562.019197266 126.858251953L559.484234375 127.424359375L557.099998047 128.170443359L554.916 129.051L550.357969971 131.143883301L545.944556641 133.561566406L541.674150146 136.275411621L537.545140625 139.25678125L533.555918213 142.477037598L529.704873047 145.907542969L525.990395264 149.519659668L522.410875 153.28475L518.964702393 157.17417627L515.650267578 161.159300781L509.410171875 169.30209375L503.677708984 177.484027344L498.44 185.476L493.1513125 195.6075625L490.660625 200.838507812L488.35275 206.197L486.28796875 211.696117187L484.5265625 217.3489375L483.1288125 223.168539062L482.155 229.168L481.831197266 233.730736328L481.905890625 237.873390625L482.381107422 241.601130859L483.258875 244.919125L484.541220703 247.832541016L486.230171875 250.346546875L488.327755859 252.466310547L490.836 254.197L492.252812988 254.821566406L493.703566406 255.27871875L496.66228125 255.74825L499.622917969 255.72053125L502.49625 255.3105L505.193050781 254.63309375L507.62409375 253.80325L511.332 252.146L515.9360271 249.524634277L520.368982422 246.615558594L524.636489502 243.441492676L528.744171875 240.02515625L532.697653076 236.389269043L536.502556641 232.556550781L540.164506104 228.549721191L543.689125 224.3915L547.082036865 220.104606934L550.348865234 215.711761719L556.526765625 206.69909375L562.267814453 197.535253906L567.617 188.402L572.56975 188.046375L576.90528125 187.528578125L581.379 186.646L581.614 186.723L578.347 196.601L575.306660156 205.824283203L572.79546875 214.292140625L570.902417969 222.017333984L570.215505371 225.605419678L569.7165 229.012625L569.416525879 232.240545166L569.326707031 235.290775391L569.45816748 238.164910889L569.82203125 240.864546875L570.429422363 243.391278564L571.291464844 245.746701172L572.419282715 247.932409912L573.824 249.95L576.122213379 252.339825684L577.334030212 253.285577209L578.584878906 254.071277344L579.872678284 254.701468201L581.195347168 255.180691895L583.93696875 255.70440625L586.793094238 255.678757324L589.747074219 255.140082031L592.782259277 254.124717285L595.882 252.669L599.029646973 250.80926709L602.208550781 248.581855469L605.402062012 246.023102051L608.59353125 243.16934375L611.766309082 240.05691748L614.903746094 236.722160156L617.989192871 233.201408691L621.006 229.531L620.54727124 233.772102051L620.430810547 237.562878906L620.629206299 240.924661621L621.115046875 243.87878125L621.860920654 246.446568848L622.839416016 248.649355469L624.023121338 250.508472168L625.384625 252.04525L626.896515381 253.28102002L628.531380859 254.237113281L630.261809814 254.93486084L632.060390625 255.39559375L633.89971167 255.640643066L635.752361328 255.691339844L637.590927979 255.569015137L639.388 255.295L641.430689453 254.648435303L643.491109375 253.820310547L647.62 251.703046875L651.684390625 249.110541016L655.594 246.210125L659.258546875 243.169130859L662.58775 240.154890625L667.879 234.876L667.326095703 237.707748047L667.070390625 240.858609375L667.194771484 244.133009766L667.782125 247.335375L668.275318604 248.84842749L668.915337891 250.270130859L669.712543701 251.57603833L670.677296875 252.741703125L671.819958252 253.742678467L673.150888672 254.554517578L674.680448975 255.152773682L676.419 255.513L678.875855469 255.771017578L681.20265625 255.647953125L683.428628906 255.202130859L685.583 254.491875L687.694996094 253.575509766L689.79384375 252.511359375L694.069 250.173L698.043563477 247.730854736L702.081695312 244.739119141L706.150120117 241.277781006L710.2155625 237.426828125L714.24474707 233.266248291L718.204398437 228.876029297L722.061241211 224.336158936L725.782 219.726625L732.682164062 210.618517578L738.6386875 202.191609375L743.385367187 195.085802734L746.656 189.941L738.111 189.941L730.6809375 200.87003125L726.595851562 206.578941406L722.256 212.2245L717.655335937 217.636996094L712.7878125 222.64671875L710.252088867 224.947505371L707.647382812 227.083957031L704.972938477 229.034859863L702.228 230.779L702.228 230.779L702.228 230.779M514.01 227.998L513.171640625 226.464109375L512.620625 224.840875L512.310546875 223.149953125L512.195 221.413L512.326150391 218.596890381L512.79546875 215.551373047L513.573318359 212.309352783L514.6300625 208.903734375L515.936064453 205.367422607L517.4616875 201.733322266L521.05325 194.303375L525.16765625 186.877130859L529.5678125 179.717828125L534.016625 173.088705078L538.277 167.253L538.3 167.253L539.221742676 169.188381592L540.264332031 171.016083984L542.65421875 174.357046875L545.353996094 177.293080078L548.248 179.841375L551.220566406 182.019123047L554.15603125 183.843515625L556.938730469 185.331744141L559.453 186.501L557.786727295 189.955213135L555.729193359 193.771923828L553.330699463 197.848864014L550.641546875 202.083765625L547.712036865 206.374360596L544.592470703 210.618380859L541.333149658 214.71355835L537.984375 218.557625L534.596447998 222.048312744L531.219669922 225.083353516L527.904342041 227.560479248L524.700765625 229.377421875L523.156603363 230.006365753L521.659241943 230.43191333L520.214969025 230.641281097L518.830072266 230.621685547L517.510839325 230.36034317L516.263557861 229.844470459L515.094515533 229.061283905L514.01 227.998L514.01 227.998L514.01 227.998M563.829 178.891L563.019466797 178.848357422L561.324171875 178.313234375L559.010572266 177.253087891L556.346125 175.635375L553.598287109 173.427552734L552.276677002 172.092180908L551.034515625 170.597078125L549.905235107 168.938176514L548.922267578 167.111408203L548.119045166 165.112705322L547.529 162.938L547.234736572 161.015814941L547.144392578 159.149472656L547.244012451 157.34154248L547.519640625 155.59459375L547.957321533 153.911195801L548.543099609 152.293917969L550.103125 149.268L552.088072266 146.537394531L554.386296875 144.12265625L556.886154297 142.044339844L559.476 140.323L560.656152344 139.517689453L561.94578125 138.861640625L563.313269531 138.359927734L564.727 138.017625L566.155355469 137.839806641L567.56671875 137.831546875L568.929472656 137.997919922L570.212 138.344L571.253900391 139.186050781L572.103765625 140.16359375L572.777966797 141.261089844L573.292875 142.463L573.910296875 145.11790625L574.087 148.004L573.891125 151.64725L573.483 155.178L573.42 155.691L571.580109375 161.743890625L569.344125 167.673875L566.748328125 173.412421875L563.829 178.891L563.829 178.891L563.829 178.891M668.424 223.388L665.951 225.583L663.28325 227.900984375L661.916046875 228.936712891L660.5165 229.807875L659.077015625 230.452677734L657.59 230.809328125L656.047859375 230.816033203L654.443 230.411L653.609359375 229.886453125L652.936875 229.066875L652.452453125 228.095609375L652.183 227.116L652.299228516 223.770414063L652.762953125 220.4816875L653.522857422 217.244617188L654.527625 214.054L655.725939453 210.904632812L657.066484375 207.7913125L659.969 201.652L660.977 199.528L669.8698125 184.894921875L674.701085937 177.402994141L679.8565 169.953125L685.386726562 162.664552734L691.3424375 155.656515625L694.49568457 152.294959717L697.774304687 149.048251953L701.184631836 145.931297119L704.733 142.959L707.223421875 141.317890625L708.505212891 140.641833984L709.810125 140.111125L711.137208984 139.762525391L712.485515625 139.632796875L713.854095703 139.758701172L715.242 140.177L715.893390625 140.8804375L716.490875 141.74925L716.927671875 142.7279375L717.097 143.761L716.873625 144.777375L716.48 145.736L708.57125 159.030625L700.961 172.377L693.5401875 185.452296875L685.77925 198.485875L681.70771875 204.905779297L677.4749375 211.217765625L673.0555 217.389337891L668.424 223.388L668.424 223.388L668.424 223.388"
   style="fill:none;fill-rule:evenodd;stroke:#000000;stroke-opacity:1"
   id="path15"
   inkscape:connector-curvature="0" />
</svg>