<?xml version="1.0" encoding="UTF-8" standalone="no"?>
<!-- Generator: Adobe Illustrator 15.1.0, SVG Export Plug-In . SVG Version: 6.00 Build 0)  -->

<svg
   xmlns:dc="http://purl.org/dc/elements/1.1/"
   xmlns:cc="http://creativecommons.org/ns#"
   xmlns:rdf="http://www.w3.org/1999/02/22-rdf-syntax-ns#"
   xmlns:svg="http://www.w3.org/2000/svg"
   xmlns="http://www.w3.org/2000/svg"
   xmlns:sodipodi="http://sodipodi.sourceforge.net/DTD/sodipodi-0.dtd"
   xmlns:inkscape="http://www.inkscape.org/namespaces/inkscape"
   version="1.1"
   id="Layer_1"
   x="0px"
   y="0px"
   width="566.929px"
   height="566.929px"
   viewBox="-37.525 -37.525 566.929 566.929"
   enable-background="new -37.525 -37.525 566.929 566.929"
   xml:space="preserve"
   inkscape:version="0.48.2 r9819"
   sodipodi:docname="nivea.svg"><sodipodi:namedview
   pagecolor="#ffffff"
   bordercolor="#666666"
   borderopacity="1"
   objecttolerance="10"
   gridtolerance="10"
   guidetolerance="10"
   inkscape:pageopacity="0"
   inkscape:pageshadow="2"
   inkscape:window-width="1125"
   inkscape:window-height="857"
   id="namedview11"
   showgrid="false"
   inkscape:zoom="0.41627786"
   inkscape:cx="283.46451"
   inkscape:cy="283.46451"
   inkscape:window-x="2252"
   inkscape:window-y="87"
   inkscape:window-maximized="0"
   inkscape:current-layer="Layer_1" /><metadata
   id="metadata15"><rdf:RDF><cc:Work
       rdf:about=""><dc:format>image/svg+xml</dc:format><dc:type
         rdf:resource="http://purl.org/dc/dcmitype/StillImage" /></cc:Work></rdf:RDF></metadata><defs
   id="defs13">
	
	
	
</defs>
<path
   style="fill:none;stroke:#000000;stroke-miterlimit:10"
   inkscape:connector-curvature="0"
   id="path5"
   d="M514.527 243.879L513.129367188 271.557115967L509.0271875 298.435630859L502.356539063 324.378482666L493.2535 349.249609375L481.854148438 372.912948975L468.2945625 395.232439453L452.710820313 416.072018799L435.239 435.295625L416.015179687 452.767196045L395.1754375 468.350669922L372.855851562 481.909984619L349.1925 493.309078125L324.321460938 502.411888428L298.3788125 509.082353516L271.500632813 513.184411377L243.823 514.582L216.145168701 513.184411377L189.266771484 509.082353516L163.323890869 502.411888428L138.452609375 493.309078125L114.789009521 481.909984619L92.4691738281 468.350669922L71.6291848145 452.767196045L52.405125 435.295625L34.9330769043 416.072018799L19.3491230469 395.232439453L5.78934594727 372.912948975L-5.610171875 349.249609375L-14.7133479004 324.378482666L-21.3840996094 298.435630859L-25.4863444824 271.557115967L-26.884 243.879L-25.4863444824 216.200685547L-21.3840996094 189.321953125L-14.7133479004 163.378869141L-5.610171875 138.5075L5.78934594727 114.843912109L19.3491230469 92.524171875L34.9330769043 71.6843457031L52.405125 52.4605L71.6291848145 34.9887011719L92.4691738281 19.405015625L114.789009521 5.84550976563L138.452609375 -5.55375L163.323890869 -14.6566972656L189.266771484 -21.327265625L216.145168701 -25.4293886719L243.823 -26.827L271.500632813 -25.4293886719L298.3788125 -21.327265625L324.321460938 -14.6566972656L349.1925 -5.55375L372.855851562 5.84550976562L395.1754375 19.405015625L416.015179687 34.9887011719L435.239 52.4605L452.710820313 71.6843457031L468.2945625 92.524171875L481.854148438 114.843912109L493.2535 138.5075L502.356539063 163.378869141L509.0271875 189.321953125L513.129367188 216.200685547L514.527 243.879L514.527 243.879L514.527 243.879"
   stroke-miterlimit="10" /><path
   style="fill:none;stroke:#000000;stroke-miterlimit:10"
   inkscape:connector-curvature="0"
   id="path7"
   d="M231.8 201.554L213.528 166.542L188.23 166.542L231.8 249.601L275.248 166.542L250.074 166.542L231.8 201.554L231.8 201.554L231.8 201.554L231.8 201.554M391.024 185.072L426.541 247.693L399.199 247.693L394.858 239.002L391.024 239.002L379.394 239.002L363.93 239.002L359.717 247.693L332.369 247.693L379.394 164.497L391.024 185.072L391.024 185.072L391.024 185.072L391.024 185.072M391.024 172.416L393.572 171.268L394.729 168.587L393.572 166.027L391.024 164.88L388.336 166.027L387.313 168.587L388.336 171.268L391.024 172.416L391.024 172.416L391.024 172.416L391.024 172.416M391.024 164.115L389.3435 164.416L387.957 165.389L386.86975 166.793625L386.549 168.586L386.852875 170.3715L387.822 171.779L389.276 172.8185L391.024 173.186L394.221 171.905L395.1905 170.386875L395.494 168.586L394.221 165.389L391.024 164.115L391.024 164.115L391.024 164.115L391.024 164.115M391.024 169.354L391.404 169.486L391.661 169.864L391.784 170.504L391.912 171.146L393.063 171.146L393.063 171.014L393.063 170.885L393.063 170.757L393.063 170.247L392.555 169.097L391.911 168.837L392.811 168.455L393.062 167.563L392.425 166.41L391.403 166.153L391.023 166.153L390.38 166.153L388.978 166.153L388.978 171.142L390.38 171.142L390.38 169.35L390.637 169.35L390.895 169.35L391.023 169.35L391.023 169.354L391.024 169.354L391.024 169.354M391.024 167.052L390.638 167.052L390.381 167.052L390.381 168.459L390.896 168.459L391.024 168.459L391.526 168.333L391.784 167.691L391.404 167.18L391.024 167.052L391.024 167.052L391.024 167.052L391.024 167.052M379.395 208.71L371.603 223.791L379.395 223.791L387.186 223.791L379.395 208.71L379.395 208.71L379.395 208.71L379.395 208.71M183.24 247.69L183.24 166.542L159.603 166.542L159.603 247.69L183.24 247.69L183.24 247.69L183.24 247.69L183.24 247.69M330.195 188.267L330.195 166.542L280.233 166.542L280.233 247.69L330.195 247.69L330.195 226.09L303.998 226.09L303.998 215.483L330.195 215.483L330.195 198.487L303.998 198.487L303.998 188.266L330.195 188.266L330.195 188.267L330.195 188.267L330.195 188.267M145.542 166.542L121.904 166.542L121.904 198.103L81.397 161.302L81.397 247.691L105.037 247.691L105.037 217.529L145.542 253.695L145.542 166.542L145.542 166.542L145.542 166.542L145.542 166.542"
   stroke-miterlimit="10" /><path
   style="fill:none;stroke:#000000;stroke-miterlimit:10"
   inkscape:connector-curvature="0"
   id="path9"
   d="M218.229 247.236L219.6013125 249.53959375L220.22325 252.19625L219.909 257.704L216.427609375 264.193898438L212.2161875 270.4383125L201.99625 281.8815L190.0351875 291.4151875L177.119 298.421L173.764 298.421L173.764 297.578L184.754359375 290.539390625L195.703375 282.026375L200.631255859 277.188751953L204.911453125 271.948671875L208.331517578 266.294849609L210.679 260.216L210.216375 256.03625L207.32 253.115L202.4139375 252.866578125L198.01 254.413375L189.702 258.987L174.931859375 272.77065625L168.399439453 280.297347656L162.579625 288.2375L157.580544922 296.583777344L153.510328125 305.32884375L150.477103516 314.465363281L148.589 323.986L148.71296875 329.0763125L149.95875 333.7575L152.50540625 337.7464375L156.532 340.76L161.125103516 341.712705078L165.554765625 341.693140625L173.963375 339.358625L181.837046875 334.999296875L189.255 329.858L204.88175 315.54325L211.8376875 307.665125L217.783 299.256L218.013703125 296.959L216.901625 294.8645L216.019984375 292.758L216.942 290.425L218.93525 290.017375L221.137 290.032L222.208 293.28225L222.814 296.747L226.045046875 299.8221875L229.694875 302.789L232.002015625 306.1863125L232.101619141 308.214804687L231.205 310.553L227.5705 317.501875L224.941 324.819L227.025375 326.665375L228.245546875 326.960578125L229.529 326.498L234.169839844 322.621314453L238.29221875 318.249453125L245.82375 309.039875L253.80790625 300.908609375L258.496066406 297.884638672L263.929 295.895L267.559 296.09375L270.637 297.578L272.230375 300.746875L271.93 304.293L267.539109375 310.37665625L261.930125 315.16525L249.663 323.144L251.169125 325.560125L253.471 327.344L257.575123047 327.199710937L261.356359375 326.1660625L268.108375 322.065L274.043453125 316.3094375L279.478 310.168L291.618 296.288L294.57625 296.64525L296.654 298.414L293.665875 306.053125L290.389 313.516L291.225 314.362L300.475125 304.983875L305.328984375 300.429859375L310.521 296.742L314.2205 297.146625L316.789 299.649L316.042296875 303.758796875L314.304375 307.744375L312.452265625 311.667515625L311.363 315.59L312.2 315.59L321.523 305.896125L326.558375 301.554921875L331.89 297.97L336.0035 298.005875L337.6185 299.065046875L338.605 300.936L337.400171875 304.55125L335.429875 307.83575L331.498 314.359L329.69975 318.976875L329.34925 321.428078125L329.826 323.981L330.65134375 325.05465625L331.823 325.31625L334.408 325.267L342.3448125 317.35715625L349.658 308.60975L357.5284375 300.84746875L362.041648437 297.905339844L367.137 295.893L372.043875 296.367375L374.026921875 297.638578125L375.528 299.649L375.007001953 303.858845703L373.355578125 307.523265625L370.816833984 310.726083984L367.633875 313.551125L360.307734375 318.403171875L353.322 322.75L354.1875 325.227875L356.232 326.946L362.588171875 326.774765625L368.289875 324.364875L373.415390625 320.519296875L378.043 316.041L379.329 317.27L373.551296875 323.927953125L366.984875 329.626375L359.557265625 333.341609375L355.497869141 334.135638672L351.196 334.05L347.63225 331.467L345.327 327.789L344.81325 323.08825L345.771 318.56L345.327 318.113L342.361673828 320.390359375L339.566515625 323.459625L334.074625 330.0475L331.171853516 332.602921875L328.027171875 334.023875L324.537560547 333.828765625L320.6 331.536L319.506765625 326.570125L320.459625 321.71225L325.189 312.682L328.26575 308.412L330.669 303.845L327.45534375 304.54925L324.55125 306.64625L319.314 311.846L310.288375 322.56275L302.141 333.656L299.610125 333.95875L297.503 332.37L300.00034375 324.668296875L303.16125 317.239125L310.084 302.61L308.997875 301.81325L307.569 301.774L299.854546875 309.13240625L293.064375 317.0445L281.16 333.656L278.93825 333.955L276.967 332.82L276.967 329.019L281.61075 318.485125L286.592 308.039L285.856375 307.634L284.91 307.649L270.429875 323.381L262.547953125 330.20975L258.196783203 332.7584375L253.477 334.499L248.44025 334.16325L244.245 331.984L242.119734375 329.126609375L241.294875 325.642875L242.121 318.554L241.727 318.111L227.015 333.213L222.771375 334.467625L218.233 334.049L215.934 332.267125L214.433 329.856L214.079064453 326.487564453L214.572828125 323.390078125L217.361375 317.772875L221.314484375 312.534234375L224.948 307.204L225.4055625 304.96903125L224.79925 302.882L221.589 299.652L207.206625 317.515875L198.959203125 325.993171875L190.098 333.657L180.98859375 340.288671875L171.633 346.433125L166.713644531 348.855740234L161.55365625 350.596265625L156.093339844 351.467939453L150.273 351.284L146.179359375 349.076953125L142.699875 345.752875L140.069953125 341.725859375L138.525 337.41L138.384802734 329.562232422L139.370296875 322.099484375L141.328236328 314.976462891L144.105375 308.147875L151.504265625 295.192828125L160.341 282.872L170.793375 270.8259375L182.409 259.89925L195.156375 251.0204375L201.944625 247.639140625L209.004 245.118L213.93075 245.361375L218.229 247.236L218.229 247.236L218.229 247.236M259.735 301.781L255.744109375 303.1511875L252.596125 306.07875L248.434 313.522L247.918375 317.113125L248.827 320.237L257.842875 314.369625L261.393953125 310.617265625L262.255283203 308.276501953L262.25 305.527L259.735 301.781L259.735 301.781L259.735 301.781M355.385 306.817L352.113875 313.06575L351.500515625 316.53615625L352.031 320.237L363.776 312.242L365.25671875 310.618796875L365.97825 308.755125L365.455 304.684L364.573880859 302.841847656L363.415671875 301.93759375L360.606375 302.272L357.703890625 304.34565625L355.385 306.817L355.385 306.817L355.385 306.817"
   stroke-miterlimit="10" />
</svg>