<?xml version="1.0" encoding="utf-8"?>
<!-- Generator: Adobe Illustrator 15.1.0, SVG Export Plug-In . SVG Version: 6.00 Build 0)  -->
<!DOCTYPE svg PUBLIC "-//W3C//DTD SVG 1.1//EN" "http://www.w3.org/Graphics/SVG/1.1/DTD/svg11.dtd">
<svg version="1.1"
	 id="svg2589" sodipodi:docname="Pioneer_plaque.svg" inkscape:version="0.48.2 r9819" xmlns:inkscape="http://www.inkscape.org/namespaces/inkscape" xmlns:sodipodi="http://sodipodi.sourceforge.net/DTD/sodipodi-0.dtd" xmlns:rdf="http://www.w3.org/1999/02/22-rdf-syntax-ns#" xmlns:svg="http://www.w3.org/2000/svg" xmlns:cc="http://creativecommons.org/ns#" xmlns:dc="http://purl.org/dc/elements/1.1/"
	 xmlns="http://www.w3.org/2000/svg" xmlns:xlink="http://www.w3.org/1999/xlink" x="0px" y="0px" width="2960px" height="2326px"
	 viewBox="0 0 2960 2326" enable-background="new 0 0 2960 2326" xml:space="preserve">
<sodipodi:namedview  id="namedview588" borderopacity="1" inkscape:window-height="1051" bordercolor="#666666" pagecolor="#ffffff" objecttolerance="10" gridtolerance="10" guidetolerance="10" inkscape:pageopacity="0" inkscape:pageshadow="2" inkscape:window-width="1620" showgrid="false" inkscape:cy="1163" inkscape:zoom="0.22" inkscape:cx="1480" inkscape:window-x="2004" inkscape:window-y="22" inkscape:window-maximized="0" inkscape:current-layer="svg2589">
	</sodipodi:namedview>
<g id="layer1">
	<path id="path2632" fill="none" stroke="#000000" stroke-linecap="round" stroke-linejoin="round" d="M2481.357,797.176
		c2.046-10.843,4.092-20.271,3.196-32.123 M2549.877,701.939c1.929,4.949-4.02,11.814-9.967,18.68
		c6.894-1.923,13.803-5.819,18.774-13.679 M2560.519,724.722c-2.978,3.927-5.933,4.892-8.881,4.869 M2493.296,777.523
		c3.887,5.951,1.87,12.846,6.733,19.792 M2496.891,822.957c-14.741-0.11-42.288,3.633-45.186-3.299 M2507.672,826.985
		c5.867,3.992,12.835-7.801,18.709-4.796 M2545.069,820.355c33.4,2.224,51.163-7.515,61.021-11.39 M2510.731,812.202
		c7.781,10.916,15.922-26.533,21.877-34.386 M2645.696,1167.579c6.996-15.741,6.131-31.541,11.169-48.284
		c15.07-44.308,16.382-88.717,5.9-133.215c-10.452-48.446,3.693-100.656-20.555-144.271c-9.674-20.801-43.939-38.825-81.146-57.857
		c-11.734-7.984-13.554-27.74-12.374-54.383 M2619.869,1071.638c-5.678-29.655-27.196-43.636-27.064-61.402
		c-4.709-27.674,31.705-34.312,3.905-129.281 M2618.474,994.633c1.776,25.679,3.544,52.344,1.389,77.992
		c-6.087,25.619-2.375,55.26-5.535,83.862c-8.947,13.752-13.978,29.509-15.093,47.268c-4.04,14.776-5.125,28.588-2.258,39.468
		c10.804,1.067,14.902-21.605,20-46.245c-1.042,7.89-1.101,15.786-2.134,22.688c4.818,12.868,6.696,24.728-0.271,36.521
		c-4.07,18.725,0.836,19.749,6.755,16.832c1.899,8.897,4.862,6.945,9.813,2.047c2.955-0.965,6.894-1.923,11.881-11.756
		c1.973-0.973,3.953-2.933,5.955-7.853c6.945-8.832,7.018-18.703,5.125-28.588c0.161-21.715-2.634-42.465-10.335-64.239
		 M2606.951,958.024c1.906,7.911,12.498,37.604,22.194,55.443 M2534.342,941.688c41.901,48.681,95.359-3.236,61.283-46.923
		 M2578.589,939.058c5.911-1.93,6.924-5.871,5.978-10.813C2580.614,931.176,2577.621,937.076,2578.589,939.058z M2437.048,940.962
		c5.896,0.044,7.884-2.902,5.962-8.839 M2490.096,944.319c-39.604,39.188-88.501,6.249-58.609-48.806
		c1.02-4.928,2.047-10.843,0.117-15.793 M2437.906,957.749c-1.166,24.669-10.215,52.24-13.346,76.895 M2483.388,788.308
		c-10.913,13.737-22.786,24.507-37.564,29.332c-29.542,7.677-48.36,27.278-50.589,62.797c3.529,54.317-0.68,91.796-10.676,114.424
		c-10.986,23.608-14.109,47.276-12.319,70.979c-0.358,48.365,9.09,99.766-10.88,142.062c-2.992,5.9-3.029,10.835,0.866,15.8
		c7.774,11.903,11.604,25.752,22.333,36.689c4.885,3.985,8.779,8.949,13.664,12.935 M2430.04,1090.949
		c2.89,7.918,6.771,14.857,11.64,20.816 M2568.148,1021.896c0.073-9.871,3.08-17.745,9.006-21.649 M2489.116,1076.584
		c-0.029,3.948,4.877,4.972,6.857,3.012C2496.986,1075.655,2492.079,1074.632,2489.116,1076.584z M2565.451,1120.586
		c2.992-5.9,4.994-10.82,6.021-16.735 M2543.487,1166.816l1.974-0.973 M2535.567,1174.653
		c-14.822,10.748-21.797,23.528-21.914,39.321c-13.671-11.947-27.334-24.882-37.016-44.696
		c-8.743-13.885-19.466-25.811-30.196-36.748 M2373.138,1209.964c4.841,9.907,4.761,20.765,9.595,31.659
		c2.919,3.97,5.859,4.979,9.762,8.956 M2443.781,960.755c7.569,39.54-8.345,65.086-29.151,87.634
		c-9.959,17.693-15.026,38.385-15.202,62.074c2.729,29.634-11.248,59.142-12.45,88.746c4.388,71.104,29.486,132.492,55.591,190.926
		 M2456.013,1432.681c-15.644-10.976-23.346-32.749-24.109-62.367 M2449.09,1438.552c-4.855-7.934-7.753-14.864-7.688-23.748
		 M2499.211,1438.926c0.109-14.806,2.148-24.662,7.121-32.521 M2460.862,1441.601c9.82,1.061,12.819-5.827,10.927-15.712
		c-0.953-3.956-0.924-7.904,0.088-11.845 M2439.474,1409.854c-23.886,40.293,38.745,209.555,28.684,241.066 M2514.629,1214.969
		c2.517,58.258-8.447,78.905-5.718,108.538c-0.103,13.819,9.506,43.504,2.459,66.154c-11.939,19.653,5.692,27.682,7.313,74.087
		c-12.217,57.161-1.684,94.75-13.247,196.335 M2503.837,1610.716c19.407,33.706,24.175,53.483,13.32,59.325
		c-8.882,4.869-18.746,9.731-28.61,14.593 M2468.244,1639.076c-5.933,4.891-9.988,21.642-17.895,27.505
		c-8.91,8.817-26.666,17.568-29.68,26.43c-4.979,8.847,4.892,2.998,9.827,0.073c-23.776,25.487-6.087,25.619,3.902,3.978
		c-17.837,19.608-23.931,46.215,7.818,5.981c-28.728,30.386-18.937,35.394,6.835,5.974c-2.984,4.913-14.873,17.656-17.857,22.569
		c4.855,7.934,15.725,0.118,26.594-7.698c9.82,1.061,17.755-8.751,24.759-25.479c3.036-11.822,8.016-20.669,13.964-27.534
		 M2748.968,1688.553c10.744,8.964,17.573,15.925,23.403,24.852c4.863,6.946,4.797,15.83-7.862-0.059
		c15.579,19.858,12.587,25.759-3.997,8.854c20.5,18.907,17.464,30.73-4.95,4.898c26.353,24.874,23.346,32.749-6.945,8.832
		c8.794,6.976,17.588,13.95,21.489,17.929c-3.996,8.854-11.858,8.795-20.682,5.768c-7.833-4.007-13.649-14.908-22.494-14.975
		c-13.729-4.051-19.355-40.615-28.113-52.526 M2681.346,1662.383c-7.135,34.495-7.135,34.495,22.275,44.586 M2639.66,1451.818
		c-8.787-7.962-12.659-15.888-12.586-25.758 M2608.175,1456.52c-19.955,40.322,38.471,113.804,50.052,142.516
		c11.604,25.752,21.212,55.437,33.783,83.169 M2614.952,1470.389c-8.677-22.768-43.823-54.617-58.847-149.491
		c-2.875-9.893-32.91-68.355-40.516-102.961 M2671.036,1461.924c5.198-38.458-10.343-63.252-12.897-116.574
		c-3.74-25.692,3.409-62.162-4.219-93.806 M2674.109,1445.166c35.976,52.585,30.272,159.149,40.894,184.894
		c2.772,23.711,30.107,48.593,38.77,73.335 M2659.301,1453.939c1.98-1.959,3.968-4.905,3.997-8.854 M2645.286,1222.854
		c-5.933,4.891-6.96,10.806-4.077,19.711c-1.056,9.863-5.061,19.705-10.047,29.538 M2645.008,1260.361l4.18-33.53
		 M2620.336,1273.996c5.992-12.787,12.981-27.542,13.055-37.412c-1.922-5.938-0.896-11.852,1.121-18.746 M2466.618,663.808
		c19.75-12.685,28.756-34.334,28.837-45.191c-14.778,4.825-26.638,13.62-40.564,36.22c-9.894,8.81-1.144,21.708-9.182,45.338
		c-10.979,22.621,28.077,57.462,4.066,114.534 M2608.046,809.968c-2.816-17.789-9.535-39.556-7.438-57.308
		c2.28-42.429-3.324-81.954-26.699-110.755c-14.596-19.852-28.208-39.694-43.969-34.877c-26.55,1.776-36.473,14.534-39.553,32.279
		c1.827,18.769,12.602,23.784,28.311,25.876c14.698,6.032,16.598,14.93,19.48,23.836c7.781,10.916,16.619,11.969,23.44,19.917
		c1.79,23.703-2.36,53.285,4.351,76.039"/>
	<path id="path2644" fill="none" stroke="#000000" stroke-linecap="round" stroke-linejoin="round" d="M2466.604,668.774
		c-3.989,7.531-4.048,16.774-3.123,24.341c-2.979,3.759-1.049,8.498-0.096,12.285c-3.064,15.099,1.769,25.529,7.577,36.911
		c4.841,9.485,9.696,17.08,15.542,23.737c40.301-0.657,57.133-16.603,60.293-43.986"/>
	<path id="path2666" fill="none" stroke="#000000" stroke-linecap="round" stroke-linejoin="round" d="M2059.823,1184.468
		c-1.106,16.7,9.558,36.436,14.333,55.146c5.611,38.371,4.329,78.658,10.924,117.037c-0.153,20.639,24.16,55.219,31.811,83.777"/>
	<path id="path2694" fill="none" stroke="#000000" stroke-linecap="round" stroke-linejoin="round" d="M2175.219,1122.886
		c-5.885-2.973-1.676-70.769-19.307-85.583c7.906-10.779,7.004-30.438,2.183-53.063c-9.76-16.747-2.784-40.307,7.144-64.836
		 M2143.3,756.167c-1.003,4.91,1.93,8.854,8.806,9.864 M1996.467,612.078c-5.809-21.646,3.96-33.559,8.836-11.745 M2091.641,650.796
		c6.904-5.869,12.833-13.707,13.836-18.617 M2100.418,667.539c-15.801,18.609-36.523,39.164-50.271,36.159
		c-23.595,1.869-31.356-22.732-42.067-47.347c2.002-8.837-1.897-16.715-4.813-24.59c2.002-8.837,2.046-19.647-3.855-18.688
		 M1835.228,626.162l6.876,1.011 M1968.753,1382.488c-14.878,33.354-0.453,111.056,23.748,201.572
		c5.788,26.56-0.192,47.175-12.059,64.816 M2026.582,1661.842c-15.749,5.833-26.611,18.565-33.571,38.193
		c-4.979,15.704-16.784,18.604-31.514,15.596c-10.854,10.767-21.682,14.654-32.444,2.816c-3.923-1.981-6.855-5.925-7.818-10.843
		c0.016-3.932,0.028-6.88,1.023-9.824c-0.959-5.9,0.048-11.794,4.003-17.674c4.954-9.808,11.85-13.711,20.694-13.675
		c7.867-0.951,27.615-23.476,43.412-41.102 M1941.974,1683.119c-6.896,3.902-13.796,8.788-19.716,14.661 M1939.049,1677.21
		c-3.935,0.967-7.874,2.916-10.831,4.87 M1949.808,1690.03c-9.844,3.891-16.764,13.69-26.615,19.548 M1959.615,1694.984
		c-6.915,8.817-22.652,11.701-31.541,22.476c5.912-3.907,16.728-4.846,18.709-8.769 M2032.559,1642.21
		c3.964-7.847,0.169-41.277,4.12-46.175 M2050.016,1458.496c-0.088,21.621-3.124,43.23-10.096,65.807 M2038.985,1512.506
		c-0.168,41.277,4.582,81.592,12.275,122.9c9.688,34.438-19.796,34.318-43.407,40.119 M2132.6,1692.741
		c-30.383-20.763-22.524-19.748-15.537-46.255 M2118.447,1548.211c3.808,30.482-4.191,63.865-2.358,96.306
		c15.669,13.823,20.498,34.481,15.473,61.98c-2.997,11.781,1.885,19.663,13.662,23.643c4.85,15.745,14.658,20.699,29.428,13.88
		c3.928,0.998,7.867-0.951,10.835-5.854c2.948,0.013,4.926-2.928,6.907-6.851c2.957-1.954,5.913-3.907,5.941-10.787
		c-0.931-12.78-6.783-23.615-12.637-34.45c-10.71-24.613-19.467-46.271-32.231-49.271c5.905-1.941,10.835-5.853,9.9-17.65
		c-2.884-15.736-1.837-31.457,4.124-47.158c16.972-64.796,26.082-129.625-1.172-194.602 M2095.493,1392.833
		c-9.98,37.306-5.219,74.672,12.319,112.091 M2144.576,1406.793c2.973-5.885,0.053-12.777,4.971-13.739 M2164.336,1381.32
		c4.028-23.571,4.116-45.192,2.234-65.84 M2158.628,1335.104c1.031-11.789,5.989-22.58,13.899-34.342
		c7.951-21.589,11.967-42.212,11.068-62.854 M2148.653,1371.428c-0.951-7.866,1.043-14.737,3.036-21.609 M2104.487,1356.506
		c-1.998,7.854,0.907,18.677,8.737,26.571c-3.001,12.765-0.101,24.57,10.714,23.632 M2041.56,1363.129
		c17.522,41.35,16.396,76.726,2.504,109.102 M2034.524,1401.43c-2.888-14.754-3.807-30.482,6.077-44.201
		c-0.95-7.867,1.048-15.722,5.007-22.585c0.12-29.483,1.223-58.964-2.56-95.343c4.99-18.653,7.028-36.336,6.121-55.013
		 M1974.581,1399.22c-12.66-28.554-21.393-56.107-22.271-81.664 M1990.431,1368.816c-0.943-9.831-4.834-19.676-12.656-29.535
		c7.822,9.859,15.665,14.806,23.522,15.82 M1944.644,1030.699c-10.851,9.784-9.924,21.426-7.04,37.162
		c2.885,15.737-9.96,32.393-10.024,48.117c-2.154,46.184,10.438,91.443,11.232,137.639c-2.126,39.304,10.55,63.926,29.151,81.692
		 M2089.045,1115.812c25.649-23.482,24.515-56.078,40.308-72.722 M2080.871,1122.5l2.961-2.936 M1973.049,1054.049
		c17.622,16.779,17.445,60.022,41.971,70.934 M2058.247,1127.322c-7.911,11.762-5.003,21.602-3.089,34.386
		c2.881,16.72-16.779,17.622-18.689,3.855c-3.883-11.81,5.993-23.563,1.119-33.411 M2072.014,1125.413
		c-5.921,5.872-8.9,13.723-5.018,25.532c3.858,17.706,0.851,32.437-20.771,32.349c-15.729,0.918-20.614-5.981-23.515-17.787
		c-2.884-15.736,5.953-13.735-0.83-37.351 M2216.453,1133.864c0.918,15.729,1.837,31.458-1.176,47.171
		c0.942,9.831-3.021,17.678-7.967,25.521c-5.969,17.666-16.815,26.467-29.628,35.26c-3.936,0.967-7.862-0.032-10.807-1.026
		c-2.948-0.013-5.897-0.024-7.858-1.016c-6.876-1.011-6.859-4.941-4.874-9.848c14.847-25.492,18.854-44.149,15.966-58.903
		 M2205.406,1191.806c-7.911,11.761-10.907,23.543-9.968,34.357 M2170.807,1240.805c16.768-14.674,19.825-41.197,26.74-50.014
		 M2190.696,1183.883c-9.876,11.754-9.977,36.323-29.708,54.916 M2185.08,1115.063c-8.882,8.809-24.65,19.556-29.637,37.226
		c-2.006,9.82-21.705,20.551-20.747,26.451c2.864,20.651,28.541-9.711,44.274-11.613 M2185.681,967.645
		c-6.983,25.524-5.134,54.033-0.341,83.537c3.892,9.844-0.172,42.26-1.251,65.844 M2196.371,997.172
		c1.035-12.771-3.835-23.603-16.57-33.482c-10.751-14.786-7.734-31.481-14.562-44.286c-4.857-13.779,0.177-43.243-3.67-63.897
		 M2223.536,842.982c16.563,35.448,6.591,70.789,9.483,84.56c0.898,20.644,18.385,70.838,6.427,111.084
		c-10.932,29.439-11.079,65.804-21.044,99.178 M1936.508,854.588c0.867,28.505,5.669,56.043,14.397,84.58
		c5.816,19.68,1.813,37.354-3.169,54.041c-11.861,16.66-7,31.577,3.768,42.433 M2038.054,1020.27
		c3.927,0.999,4.836,0.024,5.831-2.92 M2061.143,899.322c17.679,3.021,29.199,69.898,47.856,73.906 M1993.03,972.755
		c34.434-8.704,15.055-76.598,58.289-74.455 M2021.948,870.661c-49.144,0.782-86.47-4.284-82.354-49.477
		c0.044-10.811-0.914-16.712-3.826-25.568 M2056.402,857.042c-5.929,7.839-14.794,12.717-27.57,12.664 M2172.572,808.376
		c-12.965,46.139-8.115,61.884-63.147,60.677c-18.677,0.906-41.27-2.135-46.151-10.017 M2049.967,747.924
		c4.894,4.935,9.816,2.989,13.775-3.875 M2046.12,727.27l10.782,6.924l18.777-25.477 M1964.489,741.679
		c13.803-10.755,27.598-19.544,41.385-26.367c8.865-4.878,9.908-19.616,9.984-38.289 M2031.31,743.917
		c-14.737-1.043-28.505,0.866-41.293,3.763c-21.63,1.877-26.472-15.833-61.92,0.73c-23.644,13.662-32.541,26.402-33.575,39.175
		 M1904.341,789.591c-13.747-3.005-31.489,9.7-42.345,20.466 M1868.623,872.001c2.131-40.286-24.236-81.672-18.176-121.942
		c0.101-24.569,3.141-47.162,15.981-62.835c7.895-7.83,12.845-16.655,14.842-24.51c5.93-7.838,10.867-13.715,15.798-17.626
		c7.922-14.71-10.759-12.82-27.519-0.112c-2.973,5.885-9.876,11.754-18.745,17.614c-21.654,7.774-23.668,19.56-21.754,32.344
		c-0.967-3.935-2.921-6.892-3.892-9.844 M1804.429,707.61c-9.065,54.018-19.219,133.583-6.579,167.051 M1904.99,871.167
		c-5.929,7.838-21.681,14.653-30.566,24.445 M1922.015,793.595c25.493,14.846,24.401,41.377,7.586,67.845
		c-8.925,19.619-32.54,26.403-54.194,34.177c-21.669,11.706-36.419,13.611-50.17,11.589c-29.477-2.086-27.471-11.905-24.374-48.257
		 M1915.93,839.762l11.834-9.78 M1969.936,851.775c4.886,6.899,14.733,2.026,5.904-1.941 M1966.357,765.273
		c3.932,0.017,7.875-2.916,9.856-6.839 M2061.539,802.026c1.975-1.958,2.969-4.902,2.006-9.82 M2061.455,822.665
		c0.987-0.979,2.965-3.92,2.977-6.868 M2134.071,850.479c-7.871,1.934-0.032,7.862,4.897,3.951 M2077.509,742.14
		c18.673,0.076,38.293,9.002,56.994,2.198 M2217.555,863.597c3.033-20.627,9.025-44.189,4.188-62.883
		c-9.668-39.352-36.095-65.995-73.474-58.285 M2117.563,560.483c16.615,22.672,16.551,38.397,4.709,50.143
		c1.894,17.698-4.031,24.554-11.914,29.436c-0.02,4.914-2.992,10.799-4.978,15.704c-8.901,13.724-4.083,37.33-2.21,59.943
		 M2092.037,553.499c3.062-27.506-16.515-47.242-49.994-31.653c-5.937,9.804-11.829,8.797-18.713,9.752
		c-9.824-1.023-12.8,5.845-15.772,11.729c-2.002,8.837-10.854,10.767-16.768,14.673c-3.955,5.881-4.962,11.774-1.056,17.687
		c-8.893,11.758-10.906,23.543-0.14,34.398c-2.002,8.837,1.917,11.801,5.845,12.8c-1.99,5.889-1.027,10.807,3.867,15.741
		c0.934,11.797,4.85,15.744,9.751,18.713 M1808.32,717.454c-11.693-24.618-22.403-49.231-17.39-73.781
		c-6.779-24.599-5.716-44.25,3.148-49.128c6.876,1.011,3.827,25.568,9.645,45.248c0.088-21.621-0.767-53.074,14.99-60.873
		c7.85,2.98-5.03,28.481-0.213,52.089c5.019-25.533,9.069-55.001,16.964-62.831c10.803,2.01-4.083,37.33,3.69,58.983
		c4-16.691,0.185-45.208,11.02-51.061c10.763,11.837,2.736,52.1,9.512,77.681 M1826.383,626.127
		c-3.939,1.949-6.884,0.954-7.883,4.882 M1799.787,640.76l8.861-3.895 M2156.14,740.495c-12.708-16.76-44.105-29.664-53.864-46.412
		 M2117.438,590.95c2.893,13.771-1.095,27.514-11.962,41.229c1.019-8.842,3.024-18.661-9.712-28.542
		c-14.714-6.939-17.605-20.71-9.655-42.3c-15.801,18.609-29.576,22.484-42.324,15.553 M2092.11,535.81
		c15.74-3.867,22.557,11.886,24.422,36.463 M2055.602,571.041c-15.685-9.892-32.545,27.387-48.257,24.374"/>
	<path id="path2696" fill="none" stroke="#000000" stroke-linecap="round" stroke-linejoin="round" d="M2105.612,1503.245
		c-2.163,26.521,2.539,55.058,11.172,83.623"/>
	<path id="path2718" fill="none" stroke="#000000" stroke-linecap="round" stroke-linejoin="round" d="M2196.356,1724.073
		c-1.93-4.929-9.748-10.884-10.687-16.787"/>
	<path id="path2720" fill="none" stroke="#000000" stroke-linecap="round" stroke-linejoin="round" d="M2176.803,1710.168
		c-1.02,4.907,14.632,14.852,13.583,23.689"/>
	<path id="path2722" fill="none" stroke="#000000" stroke-linecap="round" stroke-linejoin="round" d="M2168.904,1715.023
		c8.794,6.945,11.654,18.761,18.49,24.709"/>
	<path id="path2724" fill="none" stroke="#000000" stroke-linecap="round" stroke-linejoin="round" d="M2161.966,1722.835
		c5.845,6.923,12.688,11.888,13.612,19.758"/>
	<path id="path2726" fill="none" stroke="#000000" stroke-linecap="round" stroke-linejoin="round" d="M2172.645,1740.605
		c-14.749,0.873-11.757-5.002-7.774-11.853"/>
	<path id="path3347" fill="none" stroke="#000000" stroke-linecap="round" stroke-linejoin="round" d="M1980.263,1749.826
		c13.323,18.555,27.118,36.903,41.378,55.029l1.282-102.488 M2022.923,498.357V22.625
		c-394.826,502.286-412.488,1129.228-106.395,1631.06"/>
	<path id="path4151" fill="none" stroke="#000000" stroke-linecap="round" d="M312.104,2135.011
		c0.009,58.069-47.06,105.15-105.129,105.159c-58.069,0.008-105.15-47.061-105.158-105.129c0-0.011,0-0.021,0-0.03
		c-0.008-58.069,47.06-105.15,105.129-105.159c58.069-0.008,105.15,47.061,105.158,105.13
		C312.104,2134.991,312.104,2135.001,312.104,2135.011z"/>
	<path id="path4153" fill="none" stroke="#000000" stroke-linecap="round" d="M709.388,237.097
		c0.009,55.129-44.675,99.827-99.804,99.836c-55.13,0.008-99.828-44.675-99.836-99.805c0-0.01,0-0.021,0-0.031
		c-0.009-55.129,44.675-99.827,99.804-99.836c55.13-0.008,99.827,44.675,99.836,99.805
		C709.388,237.076,709.388,237.087,709.388,237.097z"/>
	<path id="path4155" fill="none" stroke="#000000" stroke-linecap="round" d="M609.569,105.334v53.903"/>
	<path id="rect4157" fill="none" stroke="#000000" stroke-linecap="round" d="M1472.496,555.19h201.337
		c2.472,0,4.476,2.004,4.476,4.476v713.082c0,2.472-2.004,4.475-4.476,4.475h-201.337c-2.472,0-4.475-2.003-4.475-4.475V559.666
		C1468.022,557.194,1470.025,555.19,1472.496,555.19z"/>
	<path id="path4162" fill="none" stroke="#000000" stroke-linecap="round" d="M616.391,160.263c0,3.769-3.055,6.823-6.822,6.823
		c-3.769,0-6.823-3.055-6.823-6.823c0-3.768,3.055-6.823,6.823-6.823C613.336,153.44,616.391,156.495,616.391,160.263z"/>
	<path id="path4164" fill="none" stroke="#000000" stroke-linecap="round" d="M609.841,261.903v-52.703"/>
	<path id="path4166" fill="none" stroke="#000000" stroke-linecap="round" d="M616.391,208.024c0,3.769-3.055,6.823-6.822,6.823
		c-3.769,0-6.823-3.055-6.823-6.823c0-3.768,3.055-6.823,6.823-6.823C613.336,201.201,616.391,204.256,616.391,208.024z"/>
	<path id="path4168" fill="none" stroke="#000000" stroke-linecap="round" d="M1089.598,237.097
		c0.009,55.129-44.676,99.827-99.805,99.836c-55.129,0.008-99.827-44.675-99.836-99.805c0-0.01,0-0.021,0-0.031
		c-0.008-55.129,44.676-99.827,99.805-99.836c55.129-0.008,99.827,44.675,99.836,99.805
		C1089.598,237.076,1089.598,237.087,1089.598,237.097z"/>
	<path id="path4170" fill="none" stroke="#000000" stroke-linecap="round" d="M989.778,105.334v53.903"/>
	<path id="path4172" fill="none" stroke="#000000" stroke-linecap="round" d="M996.601,103.796c0,3.769-3.055,6.823-6.823,6.823
		c-3.768,0-6.822-3.055-6.822-6.823c0-3.768,3.055-6.823,6.822-6.823C993.546,96.973,996.601,100.028,996.601,103.796z"/>
	<path id="path4174" fill="none" stroke="#000000" stroke-linecap="round" d="M990.051,261.903v-52.703"/>
	<path id="path4176" fill="none" stroke="#000000" stroke-linecap="round" d="M996.601,208.024c0,3.769-3.055,6.823-6.823,6.823
		c-3.768,0-6.822-3.055-6.822-6.823c0-3.768,3.055-6.823,6.822-6.823C993.546,201.201,996.601,204.256,996.601,208.024z"/>
	<path id="path4178" fill="none" stroke="#000000" stroke-linecap="round" d="M720.701,237.097h153.39"/>
	<path id="path4180" fill="none" stroke="#000000" stroke-linecap="round" d="M797.397,245.669v15.293"/>
	<path id="path4182" fill="none" stroke="#000000" stroke-linecap="round" d="M529.376,2172.951c0.002,5.263-4.263,9.53-9.525,9.533
		c-5.263,0.002-9.53-4.264-9.532-9.525c0-0.003,0-0.005,0-0.008c-0.002-5.263,4.263-9.53,9.525-9.532
		c5.262-0.002,9.53,4.263,9.532,9.525C529.376,2172.947,529.376,2172.949,529.376,2172.951z"/>
	<path id="path4184" fill="none" stroke="#000000" stroke-linecap="round" d="M744.42,2172.951c0.002,5.263-4.263,9.53-9.525,9.533
		c-5.262,0.002-9.53-4.264-9.532-9.525c0-0.003,0-0.005,0-0.008c-0.002-5.263,4.263-9.53,9.525-9.532s9.53,4.263,9.532,9.525
		C744.42,2172.947,744.42,2172.949,744.42,2172.951z"/>
	<path id="path4186" fill="none" stroke="#000000" stroke-linecap="round" d="M960.698,2172.951c0.002,5.263-4.263,9.53-9.525,9.533
		c-5.263,0.002-9.53-4.264-9.532-9.525c0-0.003,0-0.005,0-0.008c-0.002-5.263,4.263-9.53,9.525-9.532s9.53,4.263,9.532,9.525
		C960.698,2172.947,960.698,2172.949,960.698,2172.951z"/>
	<path id="path4188" fill="none" stroke="#000000" stroke-linecap="round" d="M1176.309,2172.951
		c0.002,5.263-4.263,9.53-9.525,9.533c-5.263,0.002-9.53-4.264-9.532-9.525c0-0.003,0-0.005,0-0.008
		c-0.002-5.263,4.263-9.53,9.525-9.532s9.53,4.263,9.532,9.525C1176.309,2172.947,1176.309,2172.949,1176.309,2172.951z"/>
	<path id="path4190" fill="none" stroke="#000000" stroke-linecap="round" d="M1398.575,2172.951
		c0.007,18.494-14.979,33.492-33.474,33.498c-18.493,0.008-33.491-14.979-33.498-33.472c0-0.009,0-0.018,0-0.026
		c-0.007-18.493,14.979-33.49,33.473-33.498c18.494-0.006,33.492,14.98,33.499,33.473
		C1398.575,2172.936,1398.575,2172.943,1398.575,2172.951z"/>
	<path id="path4192" fill="none" stroke="#000000" stroke-linecap="round" d="M1617.514,2172.619
		c0.007,18.31-14.83,33.158-33.141,33.165c-18.31,0.007-33.158-14.831-33.165-33.14c0-0.01,0-0.018,0-0.025
		c-0.007-18.311,14.83-33.158,33.141-33.166c18.31-0.006,33.158,14.831,33.165,33.141
		C1617.514,2172.603,1617.514,2172.61,1617.514,2172.619z"/>
	<path id="path4194" fill="none" stroke="#000000" stroke-linecap="round" d="M1821.147,2172.619
		c0.004,10.592-8.578,19.181-19.17,19.185s-19.182-8.579-19.186-19.171c0-0.005,0-0.01,0-0.014
		c-0.004-10.592,8.578-19.182,19.17-19.186s19.182,8.579,19.186,19.17C1821.147,2172.609,1821.147,2172.613,1821.147,2172.619z"/>
	<path id="path4196" fill="none" stroke="#000000" stroke-linecap="round" d="M2040.086,2172.619
		c0.004,10.592-8.579,19.181-19.171,19.185s-19.182-8.579-19.186-19.171c0-0.005,0-0.01,0-0.014
		c-0.004-10.592,8.579-19.182,19.171-19.186s19.182,8.579,19.186,19.17C2040.086,2172.609,2040.086,2172.613,2040.086,2172.619z"/>
	<path id="path4198" fill="none" stroke="#000000" stroke-linecap="round" d="M2247.711,2172.619
		c0.002,5.078-4.113,9.197-9.191,9.199c-5.079,0.002-9.198-4.113-9.2-9.192c0-0.003,0-0.005,0-0.007
		c-0.002-5.079,4.114-9.198,9.192-9.199c5.079-0.002,9.198,4.113,9.199,9.191
		C2247.711,2172.614,2247.711,2172.616,2247.711,2172.619z"/>
	<path id="path4200" fill="none" stroke="#000000" stroke-linecap="round" d="M2365.226,910.551h-102.969 M2797.625,910.551
		h-109.807"/>
	<path id="path4207" fill="none" stroke="#000000" stroke-linecap="round" d="M2429.431,765.865L2138.48,651.518 M2797.475,910.514
		l-118.953-46.751"/>
	<path id="path4209" fill="none" stroke="#000000" stroke-linecap="round" d="M2344.641,1103.22l-100.637,42.803 M2797.578,910.58
		l-110.171,46.856"/>
	<path id="path4211" fill="none" stroke="#000000" stroke-linecap="round" d="M2245.496,1162.784h99.993 M2679.114,1162.784h128.934
		 M838.061,1162.784h1060.87"/>
	<path id="path4213" fill="none" stroke="#000000" stroke-linecap="round" d="M2847.809,604.704h75.76"/>
	<path id="path4215" fill="none" stroke="#000000" stroke-linecap="round" d="M2847.809,1762.979h75.76"/>
	<path id="path4217" fill="none" stroke="#000000" stroke-linecap="round" d="M1527.192,2172.619h114.109"/>
	<path id="path4219" fill="none" stroke="#000000" stroke-linecap="round" d="M2810.935,1153.195v19.178"/>
	<path id="path4221" fill="none" stroke="#000000" stroke-linecap="round" d="M2887.39,1131.446v15.684"/>
	<path id="path4223" fill="none" stroke="#000000" stroke-linecap="round" d="M2887.39,1163.389v15.019"/>
	<path id="path4225" fill="none" stroke="#000000" stroke-linecap="round" d="M2887.39,1195.664v4.204"/>
	<path id="path4227" fill="none" stroke="#000000" stroke-linecap="round" d="M2887.39,1211.469v0.212"/>
	<path id="path4229" fill="none" stroke="#000000" stroke-linecap="round" d="M2894.899,1235.947h-15.018"/>
	<path id="path4231" fill="none" stroke="#000000" stroke-linecap="round" d="M794.65,1133.429l39.847,28.336 M723.631,1083.401
		l58.557,41.243"/>
	<path id="path4235" fill="none" stroke="#000000" stroke-linecap="round" d="M673.016,1047.688l9.9,7.035"/>
	<path id="path4237" fill="none" stroke="#000000" stroke-linecap="round" d="M658.836,1037.638l9.9,7.034"/>
	<path id="path4239" fill="none" stroke="#000000" stroke-linecap="round" d="M644.709,1027.679l9.899,7.035"/>
	<path id="path4241" fill="none" stroke="#000000" stroke-linecap="round" d="M589.419,988.705l9.899,7.035"/>
	<path id="path4243" fill="none" stroke="#000000" stroke-linecap="round" d="M510.335,932.959l9.9,7.035"/>
	<path id="path4245" fill="none" stroke="#000000" stroke-linecap="round" d="M496.442,923.222l9.9,7.035"/>
	<path id="path4247" fill="none" stroke="#000000" stroke-linecap="round" d="M478.129,910.257l9.899,7.034"/>
	<path id="path4249" fill="none" stroke="#000000" stroke-linecap="round" d="M463.948,900.317l9.9,7.034"/>
	<path id="path4251" fill="none" stroke="#000000" stroke-linecap="round" d="M442.878,885.465l9.899,7.034"/>
	<path id="path4253" fill="none" stroke="#000000" stroke-linecap="round" d="M414.552,865.441l9.899,7.034"/>
	<path id="path4255" fill="none" stroke="#000000" stroke-linecap="round" d="M572.807,977.052l9.9,7.034"/>
	<path id="path4257" fill="none" stroke="#000000" stroke-linecap="round" d="M558.94,967.276l9.9,7.035"/>
	<path id="path4259" fill="none" stroke="#000000" stroke-linecap="round" d="M686.08,1064.329l3.506-4.96l3.504-4.958"/>
	<path id="path4263" fill="none" stroke="#000000" stroke-linecap="round" d="M692.562,1068.897l3.505-4.96l3.504-4.958"/>
	<path id="path4265" fill="none" stroke="#000000" stroke-linecap="round" d="M698.698,1073.224l3.506-4.96l3.503-4.958"/>
	<path id="path4267" fill="none" stroke="#000000" stroke-linecap="round" d="M704.797,1077.522l3.506-4.96l3.503-4.958"/>
	<path id="path4269" fill="none" stroke="#000000" stroke-linecap="round" d="M634.729,1028.131l3.506-4.96l3.503-4.958"/>
	<path id="path4271" fill="none" stroke="#000000" stroke-linecap="round" d="M627.958,1023.358l3.505-4.96l3.504-4.958"/>
	<path id="path4273" fill="none" stroke="#000000" stroke-linecap="round" d="M621.747,1018.98l3.505-4.96l3.504-4.958"/>
	<path id="path4275" fill="none" stroke="#000000" stroke-linecap="round" d="M615.545,1014.609l3.506-4.961l3.504-4.957"/>
	<path id="path4277" fill="none" stroke="#000000" stroke-linecap="round" d="M609.344,1010.237l3.506-4.96l3.503-4.958"/>
	<path id="path4279" fill="none" stroke="#000000" stroke-linecap="round" d="M602.74,1005.583l3.505-4.961l3.504-4.958"/>
	<path id="path4281" fill="none" stroke="#000000" stroke-linecap="round" d="M549.302,967.914l3.506-4.96l3.504-4.958"/>
	<path id="path4283" fill="none" stroke="#000000" stroke-linecap="round" d="M542.989,963.464l3.506-4.96l3.504-4.958"/>
	<path id="path4285" fill="none" stroke="#000000" stroke-linecap="round" d="M536.729,959.051l3.505-4.96l3.504-4.958"/>
	<path id="path4287" fill="none" stroke="#000000" stroke-linecap="round" d="M530.267,954.496l3.506-4.96l3.503-4.958"/>
	<path id="path4289" fill="none" stroke="#000000" stroke-linecap="round" d="M524.041,950.107l3.505-4.96l3.504-4.958"/>
	<path id="path4291" fill="none" stroke="#000000" stroke-linecap="round" d="M455.517,901.805l3.505-4.96l3.504-4.958"/>
	<path id="path4293" fill="none" stroke="#000000" stroke-linecap="round" d="M434.584,887.05l3.506-4.96l3.504-4.958"/>
	<path id="path4295" fill="none" stroke="#000000" stroke-linecap="round" d="M427.311,881.923l3.506-4.96l3.503-4.959"/>
	<path id="path4297" fill="none" stroke="#000000" stroke-linecap="round" d="M724.656,1091.521l3.506-4.96l3.503-4.958"/>
	<path id="path4317" fill="none" stroke="#000000" stroke-linecap="round" d="M1318.636,522.255l-483.278,640.819"/>
	<path id="path4321" fill="none" stroke="#000000" stroke-linecap="round" d="M1296.912,540.958l4.845,3.664l4.843,3.661"/>
	<path id="path4335" fill="none" stroke="#000000" stroke-linecap="round" d="M1322.636,506.872l4.845,3.663l4.843,3.662"/>
	<path id="path4337" fill="none" stroke="#000000" stroke-linecap="round" d="M1328.299,499.368l4.845,3.663l4.843,3.661"/>
	<path id="path4339" fill="none" stroke="#000000" stroke-linecap="round" d="M1333.604,492.338l4.845,3.664l4.843,3.661"/>
	<path id="path4341" fill="none" stroke="#000000" stroke-linecap="round" d="M1338.865,485.365l4.845,3.664l4.843,3.661"/>
	<path id="path4343" fill="none" stroke="#000000" stroke-linecap="round" d="M1364.083,451.949l4.845,3.663l4.843,3.661"/>
	<path id="path4345" fill="none" stroke="#000000" stroke-linecap="round" d="M1382.295,427.816l4.845,3.663l4.843,3.662"/>
	<path id="path4347" fill="none" stroke="#000000" stroke-linecap="round" d="M1387.536,420.872l4.845,3.663l4.842,3.661"/>
	<path id="path4349" fill="none" stroke="#000000" stroke-linecap="round" d="M1392.669,414.069l4.845,3.664l4.843,3.662"/>
	<path id="path4351" fill="none" stroke="#000000" stroke-linecap="round" d="M1398.101,406.872l4.845,3.663l4.843,3.662"/>
	<path id="path4353" fill="none" stroke="#000000" stroke-linecap="round" d="M1403.81,399.307l4.845,3.663l4.843,3.662"/>
	<path id="path4355" fill="none" stroke="#000000" stroke-linecap="round" d="M1445.002,344.722l4.845,3.664l4.843,3.662"/>
	<path id="path4357" fill="none" stroke="#000000" stroke-linecap="round" d="M1450.285,337.722l4.844,3.664l4.843,3.662"/>
	<path id="path4359" fill="none" stroke="#000000" stroke-linecap="round" d="M1455.8,330.414l4.845,3.664l4.843,3.661"/>
	<path id="path4361" fill="none" stroke="#000000" stroke-linecap="round" d="M1473.415,307.072l4.845,3.664l4.842,3.661"/>
	<path id="path4363" fill="none" stroke="#000000" stroke-linecap="round" d="M1514.668,252.406l4.845,3.664l4.843,3.662"/>
	<path id="path4365" fill="none" stroke="#000000" stroke-linecap="round" d="M1519.887,245.491l4.844,3.664l4.843,3.662"/>
	<path id="path4367" fill="none" stroke="#000000" stroke-linecap="round" d="M1525.616,237.898l4.845,3.664l4.843,3.661"/>
	<path id="path4369" fill="none" stroke="#000000" stroke-linecap="round" d="M1530.901,230.896l4.845,3.663l4.843,3.662"/>
	<path id="path4371" fill="none" stroke="#000000" stroke-linecap="round" d="M1540.287,228.541l3.663-4.844l3.661-4.843"/>
	<path id="path4373" fill="none" stroke="#000000" stroke-linecap="round" d="M1507.533,271.944l3.663-4.845l3.662-4.843"/>
	<path id="path4375" fill="none" stroke="#000000" stroke-linecap="round" d="M1495.652,287.688l3.663-4.845l3.662-4.842"/>
	<path id="path4377" fill="none" stroke="#000000" stroke-linecap="round" d="M1483.3,304.056l3.663-4.845l3.662-4.843"/>
	<path id="path4379" fill="none" stroke="#000000" stroke-linecap="round" d="M1465.092,328.184l3.663-4.845l3.661-4.843"/>
	<path id="path4381" fill="none" stroke="#000000" stroke-linecap="round" d="M1437.79,364.361l3.664-4.845l3.661-4.842"/>
	<path id="path4383" fill="none" stroke="#000000" stroke-linecap="round" d="M1425.376,380.812l3.664-4.844l3.661-4.843"/>
	<path id="path4385" fill="none" stroke="#000000" stroke-linecap="round" d="M1413.516,396.529l3.663-4.845l3.661-4.843"/>
	<path id="path4387" fill="none" stroke="#000000" stroke-linecap="round" d="M1374.501,448.228l3.663-4.845l3.661-4.843"/>
	<path id="path4389" fill="none" stroke="#000000" stroke-linecap="round" d="M1358.402,469.562l3.663-4.845l3.662-4.843"/>
	<path id="path4391" fill="none" stroke="#000000" stroke-linecap="round" d="M1347.733,483.699l3.663-4.844l3.661-4.843"/>
	<path id="path4750" fill="none" stroke="#000000" stroke-linecap="round" d="M1417,2108l-581.643-944.926"/>
	<path id="path4754" fill="none" stroke="#000000" stroke-linecap="round" d="M1412.644,2089.479l-5.178,3.175l-5.175,3.175"/>
	<path id="path4756" fill="none" stroke="#000000" stroke-linecap="round" d="M1161.917,1710.135l-5.178,3.176l-5.175,3.174"/>
	<path id="path4758" fill="none" stroke="#000000" stroke-linecap="round" d="M1211.867,1791.296l-5.178,3.175l-5.175,3.175"/>
	<path id="path4760" fill="none" stroke="#000000" stroke-linecap="round" d="M1215.813,1797.707l-5.178,3.175l-5.175,3.175"/>
	<path id="path4762" fill="none" stroke="#000000" stroke-linecap="round" d="M1231.316,1822.896l-5.178,3.176l-5.175,3.174"/>
	<path id="path4764" fill="none" stroke="#000000" stroke-linecap="round" d="M1237.926,1833.638l-5.178,3.175l-5.175,3.174"/>
	<path id="path4766" fill="none" stroke="#000000" stroke-linecap="round" d="M1265.672,1878.721l-5.178,3.175l-5.175,3.174"/>
	<path id="path4768" fill="none" stroke="#000000" stroke-linecap="round" d="M1281.072,1903.742l-5.178,3.175l-5.175,3.175"/>
	<path id="path4770" fill="none" stroke="#000000" stroke-linecap="round" d="M1285.6,1911.1l-5.178,3.176l-5.175,3.174"/>
	<path id="path4772" fill="none" stroke="#000000" stroke-linecap="round" d="M1318.652,1964.803l-5.178,3.175l-5.176,3.175"/>
	<path id="path4774" fill="none" stroke="#000000" stroke-linecap="round" d="M1340.51,2000.318l-5.178,3.176l-5.176,3.174"/>
	<path id="path4776" fill="none" stroke="#000000" stroke-linecap="round" d="M1345.323,2008.14l-5.178,3.176l-5.175,3.174"/>
	<path id="path4778" fill="none" stroke="#000000" stroke-linecap="round" d="M1349.936,2015.636l-5.178,3.175l-5.175,3.175"/>
	<path id="path4780" fill="none" stroke="#000000" stroke-linecap="round" d="M1354.483,2023.023l-5.178,3.175l-5.175,3.174"/>
	<path id="path4782" fill="none" stroke="#000000" stroke-linecap="round" d="M1370.948,2061.365l3.175,5.178l3.175,5.176"/>
	<path id="path4784" fill="none" stroke="#000000" stroke-linecap="round" d="M1361.899,2046.66l3.175,5.178l3.174,5.176"/>
	<path id="path4786" fill="none" stroke="#000000" stroke-linecap="round" d="M1352.883,2031.975l3.175,5.178l3.174,5.175"/>
	<path id="path4788" fill="none" stroke="#000000" stroke-linecap="round" d="M1325.998,1988.292l3.175,5.178l3.175,5.175"/>
	<path id="path4790" fill="none" stroke="#000000" stroke-linecap="round" d="M1316.741,1973.251l3.175,5.178l3.175,5.176"/>
	<path id="path4792" fill="none" stroke="#000000" stroke-linecap="round" d="M1293.901,1936.138l3.175,5.178l3.174,5.175"/>
	<path id="path4794" fill="none" stroke="#000000" stroke-linecap="round" d="M1283.316,1918.977l3.176,5.178l3.174,5.175"/>
	<path id="path4796" fill="none" stroke="#000000" stroke-linecap="round" d="M1306.271,1956.238l3.175,5.194"/>
	<path id="path4798" fill="none" stroke="#000000" stroke-linecap="round" d="M1264.709,1888.707l3.176,5.178l3.174,5.176"/>
	<path id="path4800" fill="none" stroke="#000000" stroke-linecap="round" d="M1249.887,1864.622l3.175,5.178l3.174,5.176"/>
	<path id="path4802" fill="none" stroke="#000000" stroke-linecap="round" d="M1237.285,1844.147l3.175,5.178l3.175,5.175"/>
	<path id="path4804" fill="none" stroke="#000000" stroke-linecap="round" d="M1213.19,1805.031l3.175,5.178l3.174,5.176"/>
	<path id="path4806" fill="none" stroke="#000000" stroke-linecap="round" d="M1196.612,1778.096l3.176,5.178l3.174,5.176"/>
	<path id="path4808" fill="none" stroke="#000000" stroke-linecap="round" d="M1187.256,1762.857l3.175,5.178l3.175,5.176"/>
	<path id="path4810" fill="none" stroke="#000000" stroke-linecap="round" d="M1177.933,1747.709l3.175,5.178l3.174,5.175"/>
	<path id="path4812" fill="none" stroke="#000000" stroke-linecap="round" d="M1168.657,1732.639l3.175,5.178l3.175,5.175"/>
	<path id="path4814" fill="none" stroke="#000000" stroke-linecap="round" d="M1159.529,1717.805l3.175,5.178l3.174,5.175"/>
	<path id="path4816" fill="none" stroke="#000000" stroke-linecap="round" d="M804.218,944.525l31.14,218.549"/>
	<path id="path4820" fill="none" stroke="#000000" stroke-linecap="round" d="M798.268,902.77l0.857,6.013l0.857,6.011"/>
	<path id="path4822" fill="none" stroke="#000000" stroke-linecap="round" d="M792.925,865.283l0.857,6.014l0.857,6.01"/>
	<path id="path4824" fill="none" stroke="#000000" stroke-linecap="round" d="M787.754,828.986l0.857,6.013l0.857,6.01"/>
	<path id="path4826" fill="none" stroke="#000000" stroke-linecap="round" d="M784.896,808.93l0.857,6.013l0.857,6.01"/>
	<path id="path4828" fill="none" stroke="#000000" stroke-linecap="round" d="M780.931,781.103l0.857,6.013l0.857,6.011"/>
	<path id="path4830" fill="none" stroke="#000000" stroke-linecap="round" d="M775.703,744.421l0.857,6.013l0.857,6.01"/>
	<path id="path4832" fill="none" stroke="#000000" stroke-linecap="round" d="M771.817,717.154l0.857,6.014l0.857,6.01"/>
	<path id="path4834" fill="none" stroke="#000000" stroke-linecap="round" d="M768.946,696.993l0.857,6.013l0.857,6.011"/>
	<path id="path4836" fill="none" stroke="#000000" stroke-linecap="round" d="M765.23,670.916l0.857,6.014l0.856,6.01"/>
	<path id="path4838" fill="none" stroke="#000000" stroke-linecap="round" d="M762.665,652.926l0.857,6.013l0.857,6.01"/>
	<path id="path4840" fill="none" stroke="#000000" stroke-linecap="round" d="M760.077,634.76l0.857,6.013l0.856,6.01"/>
	<path id="path4842" fill="none" stroke="#000000" stroke-linecap="round" d="M757.348,615.614l0.857,6.013l0.856,6.01"/>
	<path id="path4844" fill="none" stroke="#000000" stroke-linecap="round" d="M753.508,588.662l0.857,6.013l0.857,6.011"/>
	<path id="path4846" fill="none" stroke="#000000" stroke-linecap="round" d="M748.45,553.17l0.857,6.014l0.857,6.01"/>
	<path id="path4848" fill="none" stroke="#000000" stroke-linecap="round" d="M745.223,530.524l0.856,6.014l0.857,6.01"/>
	<path id="path4850" fill="none" stroke="#000000" stroke-linecap="round" d="M742.325,510.188l0.857,6.013l0.857,6.01"/>
	<path id="path4852" fill="none" stroke="#000000" stroke-linecap="round" d="M735.259,503.651l6.013-0.857l6.011-0.857"/>
	<path id="path4854" fill="none" stroke="#000000" stroke-linecap="round" d="M745.399,574.81l6.014-0.857l6.01-0.857"/>
	<path id="path4856" fill="none" stroke="#000000" stroke-linecap="round" d="M746.646,583.561l6.014-0.857l6.01-0.857"/>
	<path id="path4858" fill="none" stroke="#000000" stroke-linecap="round" d="M750.312,609.287l6.014-0.857l6.01-0.857"/>
	<path id="path4860" fill="none" stroke="#000000" stroke-linecap="round" d="M761.828,690.105l6.014-0.856l6.01-0.857"/>
	<path id="path4862" fill="none" stroke="#000000" stroke-linecap="round" d="M768.632,737.849l6.013-0.857l6.011-0.857"/>
	<path id="path4864" fill="none" stroke="#000000" stroke-linecap="round" d="M772.568,765.465l6.013-0.857l6.01-0.857"/>
	<path id="path4866" fill="none" stroke="#000000" stroke-linecap="round" d="M773.859,774.529l6.014-0.857l6.01-0.856"/>
	<path id="path4868" fill="none" stroke="#000000" stroke-linecap="round" d="M777.809,802.251l6.014-0.857l6.01-0.857"/>
	<path id="path4870" fill="none" stroke="#000000" stroke-linecap="round" d="M784.638,850.169l6.013-0.857l6.01-0.857"/>
	<path id="path4872" fill="none" stroke="#000000" stroke-linecap="round" d="M785.874,858.85l6.014-0.857l6.01-0.857"/>
	<path id="path4874" fill="none" stroke="#000000" stroke-linecap="round" d="M789.78,886.256l6.014-0.857l6.01-0.857"/>
	<path id="path4876" fill="none" stroke="#000000" stroke-linecap="round" d="M791.037,895.076l6.013-0.857l6.01-0.857"/>
	<path id="path4878" fill="none" stroke="#000000" stroke-linecap="round" d="M795.306,925.037l6.014-0.857l6.01-0.857"/>
	<path id="path4880" fill="none" stroke="#000000" stroke-linecap="round" d="M801.85,970.959l6.014-0.857l6.01-0.857"/>
	<path id="path2591" fill="none" stroke="#000000" stroke-linecap="round" d="M877.784,1176.08l-42.427-13.006"/>
	<path id="path3365" fill="none" stroke="#000000" stroke-linecap="round" d="M894.364,1181.161l507.711,155.61"/>
	<path id="path3367" fill="none" stroke="#000000" stroke-linecap="round" d="M1433.11,1346.284l5.811,1.771l5.807,1.77"/>
	<path id="path3369" fill="none" stroke="#000000" stroke-linecap="round" d="M1449.79,1351.396l5.81,1.771l5.808,1.77"/>
	<path id="path3371" fill="none" stroke="#000000" stroke-linecap="round" d="M1467.248,1356.768l5.81,1.771l5.808,1.77"/>
	<path id="path3373" fill="none" stroke="#000000" stroke-linecap="round" d="M1499.73,1366.723l5.81,1.771l5.808,1.77"/>
	<path id="path3375" fill="none" stroke="#000000" stroke-linecap="round" d="M1516.33,1371.811l5.81,1.771l5.808,1.77"/>
	<path id="path3377" fill="none" stroke="#000000" stroke-linecap="round" d="M1532.844,1376.873l5.811,1.771l5.807,1.77"/>
	<path id="path3379" fill="none" stroke="#000000" stroke-linecap="round" d="M1589.446,1394.221l5.81,1.771l5.808,1.77"/>
	<path id="path3381" fill="none" stroke="#000000" stroke-linecap="round" d="M1605.848,1399.248l5.81,1.771l5.808,1.77"/>
	<path id="path3383" fill="none" stroke="#000000" stroke-linecap="round" d="M1632.042,1407.276l5.81,1.771l5.808,1.77"/>
	<path id="path3385" fill="none" stroke="#000000" stroke-linecap="round" d="M1648.382,1412.284l5.81,1.771l5.808,1.77"/>
	<path id="path3387" fill="none" stroke="#000000" stroke-linecap="round" d="M1664.411,1417.197l5.81,1.771l5.808,1.77"/>
	<path id="path3389" fill="none" stroke="#000000" stroke-linecap="round" d="M1696.632,1427.072l5.81,1.771l5.808,1.769"/>
	<path id="path3391" fill="none" stroke="#000000" stroke-linecap="round" d="M1736.383,1439.256l5.81,1.771l5.808,1.77"/>
	<path id="path3393" fill="none" stroke="#000000" stroke-linecap="round" d="M1762.174,1447.141l5.81,1.771l5.808,1.77"/>
	<path id="path3395" fill="none" stroke="#000000" stroke-linecap="round" d="M1788.05,1455.092l5.81,1.771l5.808,1.77"/>
	<path id="path3397" fill="none" stroke="#000000" stroke-linecap="round" d="M1426.224,1350.526l1.771-5.811l1.77-5.808"/>
	<path id="path3399" fill="none" stroke="#000000" stroke-linecap="round" d="M1485.303,1368.634l1.771-5.81l1.77-5.808"/>
	<path id="path3401" fill="none" stroke="#000000" stroke-linecap="round" d="M1493.317,1371.09l1.771-5.81l1.77-5.808"/>
	<path id="path3403" fill="none" stroke="#000000" stroke-linecap="round" d="M1551.514,1388.927l1.771-5.81l1.77-5.808"/>
	<path id="path3405" fill="none" stroke="#000000" stroke-linecap="round" d="M1558.711,1391.133l1.771-5.811l1.77-5.807"/>
	<path id="path3407" fill="none" stroke="#000000" stroke-linecap="round" d="M1566.214,1393.433l1.771-5.811l1.77-5.808"/>
	<path id="path3409" fill="none" stroke="#000000" stroke-linecap="round" d="M1573.532,1395.676l1.771-5.811l1.77-5.808"/>
	<path id="path3411" fill="none" stroke="#000000" stroke-linecap="round" d="M1580.58,1397.836l1.771-5.811l1.77-5.808"/>
	<path id="path3413" fill="none" stroke="#000000" stroke-linecap="round" d="M1624.233,1411.215l1.771-5.811l1.77-5.807"/>
	<path id="path3415" fill="none" stroke="#000000" stroke-linecap="round" d="M1680.837,1428.563l1.771-5.81l1.77-5.808"/>
	<path id="path3417" fill="none" stroke="#000000" stroke-linecap="round" d="M1688.631,1430.952l1.771-5.81l1.77-5.808"/>
	<path id="path3419" fill="none" stroke="#000000" stroke-linecap="round" d="M1711.487,1437.957l1.771-5.81l1.77-5.808"/>
	<path id="path3421" fill="none" stroke="#000000" stroke-linecap="round" d="M1719.912,1440.54l1.771-5.81l1.77-5.808"/>
	<path id="path3423" fill="none" stroke="#000000" stroke-linecap="round" d="M1728.489,1443.168l1.771-5.81l1.77-5.808"/>
	<path id="path3425" fill="none" stroke="#000000" stroke-linecap="round" d="M1753.881,1450.951l1.771-5.81l1.77-5.808"/>
	<path id="path3427" fill="none" stroke="#000000" stroke-linecap="round" d="M1779.846,1458.909l1.771-5.81l1.77-5.808"/>
	<path id="path3429" fill="none" stroke="#000000" stroke-linecap="round" d="M451.735,1199.609l383.623-36.535"/>
	<path id="path3433" fill="none" stroke="#000000" stroke-linecap="round" d="M419.335,1202.695l6.046-0.574l6.044-0.574"/>
	<path id="path3435" fill="none" stroke="#000000" stroke-linecap="round" d="M386.443,1205.824l6.046-0.574l6.044-0.574"/>
	<path id="path3437" fill="none" stroke="#000000" stroke-linecap="round" d="M368.61,1207.522l6.047-0.574l6.044-0.573"/>
	<path id="path3439" fill="none" stroke="#000000" stroke-linecap="round" d="M326.309,1211.551l6.047-0.574l6.044-0.574"/>
	<path id="path3441" fill="none" stroke="#000000" stroke-linecap="round" d="M307.858,1213.308l6.047-0.573l6.043-0.574"/>
	<path id="path3443" fill="none" stroke="#000000" stroke-linecap="round" d="M288.515,1215.15l6.047-0.574l6.044-0.574"/>
	<path id="path3445" fill="none" stroke="#000000" stroke-linecap="round" d="M271.845,1216.737l6.047-0.573l6.044-0.574"/>
	<path id="path3447" fill="none" stroke="#000000" stroke-linecap="round" d="M252.686,1218.562l6.046-0.574l6.044-0.574"/>
	<path id="path3449" fill="none" stroke="#000000" stroke-linecap="round" d="M227.698,1220.941l6.047-0.573l6.044-0.574"/>
	<path id="path3451" fill="none" stroke="#000000" stroke-linecap="round" d="M202.056,1223.387l6.047-0.573l6.043-0.574"/>
	<path id="path3453" fill="none" stroke="#000000" stroke-linecap="round" d="M172.98,1226.152l6.047-0.573l6.044-0.574"/>
	<path id="path3455" fill="none" stroke="#000000" stroke-linecap="round" d="M155.814,1227.787l6.047-0.573l6.044-0.574"/>
	<path id="path3457" fill="none" stroke="#000000" stroke-linecap="round" d="M138.748,1229.413l6.047-0.574l6.044-0.574"/>
	<path id="path3459" fill="none" stroke="#000000" stroke-linecap="round" d="M121.583,1231.047l6.046-0.573l6.044-0.574"/>
	<path id="path3461" fill="none" stroke="#000000" stroke-linecap="round" d="M100.518,1233.057l6.047-0.574l6.044-0.573"/>
	<path id="path3463" fill="none" stroke="#000000" stroke-linecap="round" d="M78.115,1235.188l6.046-0.574l6.044-0.574"/>
	<path id="path3465" fill="none" stroke="#000000" stroke-linecap="round" d="M96.084,1239.58l-0.574-6.046l-0.574-6.044"/>
	<path id="path3467" fill="none" stroke="#000000" stroke-linecap="round" d="M194.331,1230.225l-0.574-6.047l-0.574-6.044"/>
	<path id="path3469" fill="none" stroke="#000000" stroke-linecap="round" d="M222.144,1227.575l-0.573-6.046l-0.574-6.044"/>
	<path id="path3471" fill="none" stroke="#000000" stroke-linecap="round" d="M249.115,1225.007l-0.573-6.047l-0.574-6.044"/>
	<path id="path3473" fill="none" stroke="#000000" stroke-linecap="round" d="M347.203,1215.666l-0.574-6.047l-0.574-6.044"/>
	<path id="path3475" fill="none" stroke="#000000" stroke-linecap="round" d="M354.327,1214.987l-0.574-6.047l-0.574-6.044"/>
	<path id="path3477" fill="none" stroke="#000000" stroke-linecap="round" d="M362.102,1214.247l-0.573-6.047l-0.574-6.044"/>
	<path id="path3479" fill="none" stroke="#000000" stroke-linecap="round" d="M408.177,1209.859l-0.574-6.047l-0.574-6.044"/>
	<path id="path3481" fill="none" stroke="#000000" stroke-linecap="round" d="M415.617,1209.15l-0.573-6.047l-0.574-6.044"/>
	<path id="path3483" fill="none" stroke="#000000" stroke-linecap="round" d="M440.445,1206.786l-0.574-6.047l-0.574-6.044"/>
	<path id="path3485" fill="none" stroke="#000000" stroke-linecap="round" d="M490.014,1202.065l-0.573-6.047l-0.574-6.044"/>
	<path id="path3487" fill="none" stroke="#000000" stroke-linecap="round" d="M805.757,1481.026l29.601-317.952"/>
	<path id="path3491" fill="none" stroke="#000000" stroke-linecap="round" d="M800.802,1534.239l-0.556,6.049l-0.555,6.046"/>
	<path id="path3493" fill="none" stroke="#000000" stroke-linecap="round" d="M798.902,1554.651l-0.556,6.048l-0.555,6.046"/>
	<path id="path3495" fill="none" stroke="#000000" stroke-linecap="round" d="M797.074,1574.268l-0.555,6.049l-0.555,6.045"/>
	<path id="path3497" fill="none" stroke="#000000" stroke-linecap="round" d="M793.908,1608.271l-0.556,6.049l-0.555,6.046"/>
	<path id="path3499" fill="none" stroke="#000000" stroke-linecap="round" d="M790.445,1645.463l-0.555,6.049l-0.555,6.046"/>
	<path id="path3501" fill="none" stroke="#000000" stroke-linecap="round" d="M787.044,1681.986l-0.556,6.048l-0.555,6.046"/>
	<path id="path3503" fill="none" stroke="#000000" stroke-linecap="round" d="M785.156,1702.255l-0.555,6.049l-0.555,6.045"/>
	<path id="path3505" fill="none" stroke="#000000" stroke-linecap="round" d="M782.653,1729.139l-0.555,6.049l-0.555,6.045"/>
	<path id="path3507" fill="none" stroke="#000000" stroke-linecap="round" d="M780.032,1757.105l-0.556,6.048l-0.554,6.046"/>
	<path id="path3509" fill="none" stroke="#000000" stroke-linecap="round" d="M777.357,1786.012l-0.555,6.049l-0.555,6.046"/>
	<path id="path3511" fill="none" stroke="#000000" stroke-linecap="round" d="M775.559,1805.323l-0.555,6.048l-0.555,6.046"/>
	<path id="path3513" fill="none" stroke="#000000" stroke-linecap="round" d="M767.698,1824.231l6.048,0.556l6.046,0.555"/>
	<path id="path3515" fill="none" stroke="#000000" stroke-linecap="round" d="M766.885,1832.966l6.048,0.556l6.046,0.555"/>
	<path id="path3517" fill="none" stroke="#000000" stroke-linecap="round" d="M766.06,1841.827l6.048,0.555l6.046,0.555"/>
	<path id="path3519" fill="none" stroke="#000000" stroke-linecap="round" d="M772.07,1777.287l6.048,0.555l6.046,0.555"/>
	<path id="path3521" fill="none" stroke="#000000" stroke-linecap="round" d="M774.749,1748.508l6.049,0.556l6.045,0.555"/>
	<path id="path3523" fill="none" stroke="#000000" stroke-linecap="round" d="M777.446,1719.554l6.049,0.556l6.045,0.555"/>
	<path id="path3525" fill="none" stroke="#000000" stroke-linecap="round" d="M781.724,1673.607l6.049,0.555l6.045,0.555"/>
	<path id="path3527" fill="none" stroke="#000000" stroke-linecap="round" d="M782.531,1664.95l6.048,0.555l6.046,0.555"/>
	<path id="path3529" fill="none" stroke="#000000" stroke-linecap="round" d="M785.158,1636.726l6.049,0.555l6.045,0.555"/>
	<path id="path3531" fill="none" stroke="#000000" stroke-linecap="round" d="M785.975,1627.958l6.049,0.556l6.045,0.555"/>
	<path id="path3533" fill="none" stroke="#000000" stroke-linecap="round" d="M788.337,1602.586l6.049,0.556l6.046,0.555"/>
	<path id="path3535" fill="none" stroke="#000000" stroke-linecap="round" d="M789.151,1593.852l6.049,0.556l6.045,0.555"/>
	<path id="path3537" fill="none" stroke="#000000" stroke-linecap="round" d="M795.54,1525.234l6.049,0.556l6.045,0.555"/>
	<path id="path3539" fill="none" stroke="#000000" stroke-linecap="round" d="M796.338,1516.669l6.048,0.556l6.046,0.555"/>
	<path id="path3541" fill="none" stroke="#000000" stroke-linecap="round" d="M797.155,1507.902l6.048,0.555l6.046,0.555"/>
	<path id="path3543" fill="none" stroke="#000000" stroke-linecap="round" d="M797.987,1498.965l6.049,0.555l6.045,0.555"/>
	<path id="path3545" fill="none" stroke="#000000" stroke-linecap="round" d="M801.486,1461.389l6.049,0.556l6.045,0.555"/>
	<path id="path2681" fill="none" stroke="#000000" stroke-linecap="round" d="M984.308,1124.807l-148.95,38.268"/>
	<path id="path3456" fill="none" stroke="#000000" stroke-linecap="round" d="M1020.546,1115.496l-5.883,1.514l-5.879,1.514"/>
	<path id="path3458" fill="none" stroke="#000000" stroke-linecap="round" d="M1039.018,1110.749l-5.882,1.515l-5.879,1.514"/>
	<path id="path3460" fill="none" stroke="#000000" stroke-linecap="round" d="M1057.164,1106.087l-5.883,1.515l-5.879,1.514"/>
	<path id="path3462" fill="none" stroke="#000000" stroke-linecap="round" d="M1074.765,1101.564l-5.882,1.515l-5.879,1.514"/>
	<path id="path3464" fill="none" stroke="#000000" stroke-linecap="round" d="M1092.828,1096.917l-5.882,1.515l-5.879,1.514"/>
	<path id="path3466" fill="none" stroke="#000000" stroke-linecap="round" d="M1127.5,1088.015l-5.882,1.514l-5.879,1.514"/>
	<path id="path3468" fill="none" stroke="#000000" stroke-linecap="round" d="M1153.16,1081.421l-5.882,1.515l-5.879,1.514"/>
	<path id="path3470" fill="none" stroke="#000000" stroke-linecap="round" d="M1171.055,1076.823l-5.882,1.515l-5.88,1.514"/>
	<path id="path3472" fill="none" stroke="#000000" stroke-linecap="round" d="M1197.956,1069.911l-5.882,1.515l-5.88,1.514"/>
	<path id="path3474" fill="none" stroke="#000000" stroke-linecap="round" d="M1224.938,1062.979l-5.882,1.515l-5.88,1.514"/>
	<path id="path3476" fill="none" stroke="#000000" stroke-linecap="round" d="M1250.517,1056.406l-5.882,1.515l-5.879,1.514"/>
	<path id="path3478" fill="none" stroke="#000000" stroke-linecap="round" d="M1269.534,1051.52l-5.882,1.515l-5.88,1.514"/>
	<path id="path3480" fill="none" stroke="#000000" stroke-linecap="round" d="M1290.498,1046.133l-5.882,1.515l-5.879,1.514"/>
	<path id="path3482" fill="none" stroke="#000000" stroke-linecap="round" d="M1333.852,1034.987l-5.882,1.515l-5.879,1.514"/>
	<path id="path3484" fill="none" stroke="#000000" stroke-linecap="round" d="M1361.93,1027.779l-5.883,1.515l-5.879,1.514"/>
	<path id="path3486" fill="none" stroke="#000000" stroke-linecap="round" d="M1396.226,1018.968l-5.882,1.514l-5.879,1.514"/>
	<path id="path3488" fill="none" stroke="#000000" stroke-linecap="round" d="M1414.706,1014.213l-5.882,1.515l-5.879,1.514"/>
	<path id="path3490" fill="none" stroke="#000000" stroke-linecap="round" d="M1376.332,1017.808l1.514,5.882l1.514,5.88"/>
	<path id="path3492" fill="none" stroke="#000000" stroke-linecap="round" d="M1367.771,1020.008l1.515,5.882l1.514,5.879"/>
	<path id="path3494" fill="none" stroke="#000000" stroke-linecap="round" d="M1339.865,1027.178l1.515,5.882l1.514,5.879"/>
	<path id="path3496" fill="none" stroke="#000000" stroke-linecap="round" d="M1313.377,1033.983l1.514,5.882l1.515,5.88"/>
	<path id="path3498" fill="none" stroke="#000000" stroke-linecap="round" d="M1304.864,1036.171l1.514,5.882l1.515,5.88"/>
	<path id="path3500" fill="none" stroke="#000000" stroke-linecap="round" d="M1296.473,1038.327l1.515,5.882l1.514,5.879"/>
	<path id="path3502" fill="none" stroke="#000000" stroke-linecap="round" d="M1230.813,1055.198l1.515,5.882l1.514,5.879"/>
	<path id="path3504" fill="none" stroke="#000000" stroke-linecap="round" d="M1204.519,1061.954l1.514,5.882l1.515,5.879"/>
	<path id="path3506" fill="none" stroke="#000000" stroke-linecap="round" d="M1177.86,1068.804l1.514,5.882l1.514,5.88"/>
	<path id="path3508" fill="none" stroke="#000000" stroke-linecap="round" d="M1132.59,1080.436l1.515,5.882l1.514,5.879"/>
	<path id="path3510" fill="none" stroke="#000000" stroke-linecap="round" d="M1108.29,1086.679l1.515,5.882l1.514,5.88"/>
	<path id="path3512" fill="none" stroke="#000000" stroke-linecap="round" d="M1099.943,1088.824l1.515,5.882l1.514,5.879"/>
	<path id="path3514" fill="none" stroke="#000000" stroke-linecap="round" d="M1001.903,1114.015l1.514,5.882l1.514,5.879"/>
	<path id="path3516" fill="none" stroke="#000000" stroke-linecap="round" d="M912.305,1137.036l1.514,5.882l1.514,5.879"/>
	<path id="path3518" fill="none" stroke="#000000" stroke-linecap="round" d="M852.854,1117.501l-17.496,45.577"/>
	<path id="path3522" fill="none" stroke="#000000" stroke-linecap="round" d="M1005.002,721.105l-2.171,5.672l-2.17,5.67"/>
	<path id="path3524" fill="none" stroke="#000000" stroke-linecap="round" d="M991.737,755.697l-2.171,5.673l-2.169,5.67"/>
	<path id="path3526" fill="none" stroke="#000000" stroke-linecap="round" d="M985.212,772.659l-2.171,5.673l-2.17,5.67"/>
	<path id="path3528" fill="none" stroke="#000000" stroke-linecap="round" d="M977.23,793.453l-2.171,5.673l-2.169,5.67"/>
	<path id="path3530" fill="none" stroke="#000000" stroke-linecap="round" d="M970.703,810.456l-2.171,5.673l-2.17,5.67"/>
	<path id="path3532" fill="none" stroke="#000000" stroke-linecap="round" d="M964.17,827.512l-2.171,5.673l-2.17,5.67"/>
	<path id="path3534" fill="none" stroke="#000000" stroke-linecap="round" d="M950.581,862.876l-2.171,5.673l-2.17,5.67"/>
	<path id="path3536" fill="none" stroke="#000000" stroke-linecap="round" d="M943.788,880.606l-2.171,5.673l-2.17,5.67"/>
	<path id="path3538" fill="none" stroke="#000000" stroke-linecap="round" d="M927.914,921.96l-2.171,5.672l-2.169,5.671"/>
	<path id="path3540" fill="none" stroke="#000000" stroke-linecap="round" d="M919.814,943.063l-2.171,5.673l-2.17,5.67"/>
	<path id="path3542" fill="none" stroke="#000000" stroke-linecap="round" d="M900.323,993.836l-2.171,5.673l-2.169,5.67"/>
	<path id="path3544" fill="none" stroke="#000000" stroke-linecap="round" d="M893.914,1010.532l-2.171,5.673l-2.169,5.67"/>
	<path id="path3546" fill="none" stroke="#000000" stroke-linecap="round" d="M874.297,1061.637l-2.171,5.673l-2.169,5.67"/>
	<path id="path3548" fill="none" stroke="#000000" stroke-linecap="round" d="M862.035,1093.582l-2.171,5.673l-2.17,5.67"/>
	<path id="path3550" fill="none" stroke="#000000" stroke-linecap="round" d="M852.986,1100.208l5.673,2.171l5.67,2.17"/>
	<path id="path3552" fill="none" stroke="#000000" stroke-linecap="round" d="M861.152,1078.934l5.673,2.171l5.67,2.17"/>
	<path id="path3554" fill="none" stroke="#000000" stroke-linecap="round" d="M871.281,1052.546l5.672,2.171l5.67,2.17"/>
	<path id="path3556" fill="none" stroke="#000000" stroke-linecap="round" d="M874.501,1044.158l5.673,2.171l5.67,2.169"/>
	<path id="path3558" fill="none" stroke="#000000" stroke-linecap="round" d="M877.649,1035.959l5.672,2.171l5.67,2.17"/>
	<path id="path3560" fill="none" stroke="#000000" stroke-linecap="round" d="M880.755,1027.866l5.673,2.171l5.67,2.17"/>
	<path id="path3562" fill="none" stroke="#000000" stroke-linecap="round" d="M897.543,984.133l5.672,2.17l5.67,2.17"/>
	<path id="path3564" fill="none" stroke="#000000" stroke-linecap="round" d="M900.59,976.193l5.673,2.171l5.67,2.17"/>
	<path id="path3566" fill="none" stroke="#000000" stroke-linecap="round" d="M903.765,967.924l5.673,2.17l5.67,2.17"/>
	<path id="path3568" fill="none" stroke="#000000" stroke-linecap="round" d="M906.863,959.854l5.673,2.171l5.67,2.17"/>
	<path id="path3570" fill="none" stroke="#000000" stroke-linecap="round" d="M924.692,913.407l5.673,2.171l5.67,2.17"/>
	<path id="path3572" fill="none" stroke="#000000" stroke-linecap="round" d="M927.971,904.864l5.673,2.171l5.67,2.17"/>
	<path id="path3574" fill="none" stroke="#000000" stroke-linecap="round" d="M931.118,896.666l5.672,2.171l5.67,2.17"/>
	<path id="path3576" fill="none" stroke="#000000" stroke-linecap="round" d="M948.083,852.47l5.673,2.171l5.67,2.17"/>
	<path id="path3578" fill="none" stroke="#000000" stroke-linecap="round" d="M951.131,844.531l5.672,2.171l5.67,2.169"/>
	<path id="path3580" fill="none" stroke="#000000" stroke-linecap="round" d="M988.425,747.377l5.673,2.171l5.67,2.169"/>
	<path id="path3582" fill="none" stroke="#000000" stroke-linecap="round" d="M991.299,739.889l5.673,2.171l5.67,2.169"/>
	<path id="path3584" fill="none" stroke="#000000" stroke-linecap="round" d="M1001.285,713.874l5.673,2.171l5.67,2.17"/>
	<path id="path3586" fill="none" stroke="#000000" stroke-linecap="round" d="M849.096,1147.578l-13.738,15.496"/>
	<path id="path3590" fill="none" stroke="#000000" stroke-linecap="round" d="M896.144,1094.485l-4.03,4.544l-4.028,4.542"/>
	<path id="path3592" fill="none" stroke="#000000" stroke-linecap="round" d="M908.506,1080.531l-4.03,4.544l-4.028,4.542"/>
	<path id="path3594" fill="none" stroke="#000000" stroke-linecap="round" d="M931.966,1054.053l-4.03,4.544l-4.029,4.542"/>
	<path id="path3596" fill="none" stroke="#000000" stroke-linecap="round" d="M944.336,1040.091l-4.031,4.544l-4.028,4.542"/>
	<path id="path3598" fill="none" stroke="#000000" stroke-linecap="round" d="M963.42,1018.54l-4.031,4.544l-4.028,4.542"/>
	<path id="path3600" fill="none" stroke="#000000" stroke-linecap="round" d="M988.145,990.643l-4.03,4.545l-4.028,4.541"/>
	<path id="path3602" fill="none" stroke="#000000" stroke-linecap="round" d="M1006.409,970.017l-4.03,4.544l-4.028,4.542"/>
	<path id="path3604" fill="none" stroke="#000000" stroke-linecap="round" d="M1037.945,934.423l-4.03,4.544l-4.028,4.542"/>
	<path id="path3606" fill="none" stroke="#000000" stroke-linecap="round" d="M1056.068,913.979l-4.03,4.544l-4.028,4.541"/>
	<path id="path3608" fill="none" stroke="#000000" stroke-linecap="round" d="M1069.256,899.092l-4.03,4.544l-4.028,4.542"/>
	<path id="path3610" fill="none" stroke="#000000" stroke-linecap="round" d="M1087.34,878.681l-4.03,4.544l-4.028,4.541"/>
	<path id="path3612" fill="none" stroke="#000000" stroke-linecap="round" d="M1118.957,842.994l-4.03,4.544l-4.028,4.542"/>
	<path id="path3614" fill="none" stroke="#000000" stroke-linecap="round" d="M1131.967,828.311l-4.03,4.544l-4.028,4.541"/>
	<path id="path3616" fill="none" stroke="#000000" stroke-linecap="round" d="M1145.094,813.494l-4.03,4.544l-4.028,4.541"/>
	<path id="path3618" fill="none" stroke="#000000" stroke-linecap="round" d="M1100.198,854.999l4.544,4.03l4.542,4.028"/>
	<path id="path3620" fill="none" stroke="#000000" stroke-linecap="round" d="M1094.233,861.731l4.544,4.03l4.542,4.028"/>
	<path id="path3622" fill="none" stroke="#000000" stroke-linecap="round" d="M1088.58,868.111l4.544,4.03l4.542,4.028"/>
	<path id="path3624" fill="none" stroke="#000000" stroke-linecap="round" d="M1069.546,889.596l4.544,4.03l4.542,4.028"/>
	<path id="path3626" fill="none" stroke="#000000" stroke-linecap="round" d="M1038.255,924.914l4.544,4.03l4.542,4.028"/>
	<path id="path3628" fill="none" stroke="#000000" stroke-linecap="round" d="M1019.067,946.571l4.544,4.031l4.542,4.028"/>
	<path id="path3630" fill="none" stroke="#000000" stroke-linecap="round" d="M1013.012,953.406l4.544,4.03l4.541,4.028"/>
	<path id="path3632" fill="none" stroke="#000000" stroke-linecap="round" d="M1007.471,959.66l4.544,4.03l4.541,4.028"/>
	<path id="path3634" fill="none" stroke="#000000" stroke-linecap="round" d="M988.583,980.979l4.544,4.03l4.542,4.028"/>
	<path id="path3636" fill="none" stroke="#000000" stroke-linecap="round" d="M970.388,1001.516l4.544,4.031l4.541,4.028"/>
	<path id="path3638" fill="none" stroke="#000000" stroke-linecap="round" d="M964.47,1008.195l4.544,4.03l4.542,4.028"/>
	<path id="path3640" fill="none" stroke="#000000" stroke-linecap="round" d="M945.67,1029.414l4.544,4.031l4.542,4.028"/>
	<path id="path3642" fill="none" stroke="#000000" stroke-linecap="round" d="M914.322,1064.798l4.544,4.03l4.542,4.028"/>
	<path id="path3644" fill="none" stroke="#000000" stroke-linecap="round" d="M879.099,1104.554l4.544,4.03l4.542,4.028"/>
	<path id="path3646" fill="none" stroke="#000000" stroke-linecap="round" d="M908.48,1071.392l4.544,4.03l4.542,4.028"/>
	<path id="path3648" fill="none" stroke="#000000" stroke-linecap="round" d="M848.412,1177.953l-13.055-14.879"/>
	<path id="path3652" fill="none" stroke="#000000" stroke-linecap="round" d="M862.356,1193.824l-4.012-4.561l-4.009-4.559"/>
	<path id="path3654" fill="none" stroke="#000000" stroke-linecap="round" d="M888.8,1223.968l-4.012-4.562l-4.009-4.559"/>
	<path id="path3656" fill="none" stroke="#000000" stroke-linecap="round" d="M912.561,1251.053l-4.011-4.562l-4.01-4.559"/>
	<path id="path3658" fill="none" stroke="#000000" stroke-linecap="round" d="M924.861,1265.072l-4.012-4.561l-4.009-4.559"/>
	<path id="path3660" fill="none" stroke="#000000" stroke-linecap="round" d="M942.217,1284.856l-4.012-4.561l-4.009-4.559"/>
	<path id="path3662" fill="none" stroke="#000000" stroke-linecap="round" d="M953.865,1298.134l-4.012-4.561l-4.009-4.559"/>
	<path id="path3664" fill="none" stroke="#000000" stroke-linecap="round" d="M977.952,1325.591l-4.011-4.561l-4.01-4.56"/>
	<path id="path3666" fill="none" stroke="#000000" stroke-linecap="round" d="M989.349,1338.604l-4.011-4.561l-4.01-4.559"/>
	<path id="path3668" fill="none" stroke="#000000" stroke-linecap="round" d="M1000.94,1351.793l-4.012-4.561l-4.01-4.559"/>
	<path id="path3670" fill="none" stroke="#000000" stroke-linecap="round" d="M1018.799,1372.15l-4.012-4.561l-4.009-4.559"/>
	<path id="path3672" fill="none" stroke="#000000" stroke-linecap="round" d="M1037.399,1393.375l-4.012-4.561l-4.009-4.559"/>
	<path id="path3674" fill="none" stroke="#000000" stroke-linecap="round" d="M1065.381,1425.249l-4.011-4.561l-4.01-4.559"/>
	<path id="path3676" fill="none" stroke="#000000" stroke-linecap="round" d="M1087.945,1450.992l-4.011-4.561l-4.01-4.56"/>
	<path id="path3678" fill="none" stroke="#000000" stroke-linecap="round" d="M1114.263,1471.781l-4.562,4.011l-4.559,4.01"/>
	<path id="path3680" fill="none" stroke="#000000" stroke-linecap="round" d="M1108.446,1465.15l-4.561,4.012l-4.559,4.009"/>
	<path id="path3682" fill="none" stroke="#000000" stroke-linecap="round" d="M1102.809,1458.725l-4.561,4.012l-4.559,4.01"/>
	<path id="path3684" fill="none" stroke="#000000" stroke-linecap="round" d="M1097.055,1452.167l-4.561,4.011l-4.559,4.01"/>
	<path id="path3686" fill="none" stroke="#000000" stroke-linecap="round" d="M1080.073,1432.808l-4.562,4.012l-4.559,4.009"/>
	<path id="path3688" fill="none" stroke="#000000" stroke-linecap="round" d="M1074.381,1426.32l-4.562,4.011l-4.559,4.01"/>
	<path id="path3690" fill="none" stroke="#000000" stroke-linecap="round" d="M1057.553,1407.139l-4.562,4.011l-4.559,4.01"/>
	<path id="path3692" fill="none" stroke="#000000" stroke-linecap="round" d="M1051.705,1400.474l-4.561,4.011l-4.559,4.01"/>
	<path id="path3694" fill="none" stroke="#000000" stroke-linecap="round" d="M1046.123,1394.109l-4.562,4.012l-4.559,4.01"/>
	<path id="path3696" fill="none" stroke="#000000" stroke-linecap="round" d="M1029.124,1374.733l-4.561,4.012l-4.559,4.009"/>
	<path id="path3698" fill="none" stroke="#000000" stroke-linecap="round" d="M1009.808,1352.715l-4.561,4.012l-4.559,4.009"/>
	<path id="path3700" fill="none" stroke="#000000" stroke-linecap="round" d="M969.227,1306.457l-4.561,4.012l-4.559,4.01"/>
	<path id="path3702" fill="none" stroke="#000000" stroke-linecap="round" d="M963.613,1300.058l-4.561,4.012l-4.56,4.009"/>
	<path id="path3704" fill="none" stroke="#000000" stroke-linecap="round" d="M933.353,1265.566l-4.561,4.011l-4.559,4.009"/>
	<path id="path3706" fill="none" stroke="#000000" stroke-linecap="round" d="M904.45,1232.621l-4.561,4.011l-4.559,4.009"/>
	<path id="path3708" fill="none" stroke="#000000" stroke-linecap="round" d="M898.557,1225.902l-4.561,4.012l-4.559,4.009"/>
	<path id="path3710" fill="none" stroke="#000000" stroke-linecap="round" d="M880.279,1205.067l-4.561,4.012l-4.559,4.009"/>
	<path id="path3712" fill="none" stroke="#000000" stroke-linecap="round" d="M862.73,1185.064l-4.561,4.011l-4.559,4.01"/>
	<path id="path3716" fill="none" stroke="#000000" stroke-linecap="round" d="M826.191,1174.207l9.167-11.133"/>
	<path id="path3720" fill="none" stroke="#000000" stroke-linecap="round" d="M804.288,1200.752l3.871-4.68l3.869-4.679"/>
	<path id="path3722" fill="none" stroke="#000000" stroke-linecap="round" d="M786.543,1222.322l3.871-4.681l3.869-4.678"/>
	<path id="path3724" fill="none" stroke="#000000" stroke-linecap="round" d="M768.38,1244.328l3.871-4.681l3.869-4.678"/>
	<path id="path3726" fill="none" stroke="#000000" stroke-linecap="round" d="M745.292,1272.381l3.871-4.681l3.87-4.678"/>
	<path id="path3728" fill="none" stroke="#000000" stroke-linecap="round" d="M722.043,1300.594l3.871-4.68l3.869-4.678"/>
	<path id="path3730" fill="none" stroke="#000000" stroke-linecap="round" d="M709.436,1315.858l3.871-4.68l3.869-4.679"/>
	<path id="path3732" fill="none" stroke="#000000" stroke-linecap="round" d="M686.572,1343.64l3.871-4.68l3.87-4.679"/>
	<path id="path3734" fill="none" stroke="#000000" stroke-linecap="round" d="M662.615,1372.676l3.871-4.68l3.869-4.679"/>
	<path id="path3736" fill="none" stroke="#000000" stroke-linecap="round" d="M650.346,1387.601l3.871-4.681l3.869-4.678"/>
	<path id="path3738" fill="none" stroke="#000000" stroke-linecap="round" d="M632.309,1409.489l3.871-4.681l3.87-4.678"/>
	<path id="path3740" fill="none" stroke="#000000" stroke-linecap="round" d="M614.21,1431.452l3.872-4.681l3.869-4.678"/>
	<path id="path3742" fill="none" stroke="#000000" stroke-linecap="round" d="M602.025,1446.24l3.871-4.681l3.87-4.678"/>
	<path id="path3744" fill="none" stroke="#000000" stroke-linecap="round" d="M590.984,1459.604l3.871-4.681l3.87-4.678"/>
	<path id="path3746" fill="none" stroke="#000000" stroke-linecap="round" d="M580.028,1472.934l3.872-4.681l3.869-4.678"/>
	<path id="path3748" fill="none" stroke="#000000" stroke-linecap="round" d="M580.398,1482.035l-4.68-3.871l-4.679-3.869"/>
	<path id="path3750" fill="none" stroke="#000000" stroke-linecap="round" d="M574.442,1489.263l-4.68-3.871l-4.678-3.869"/>
	<path id="path3752" fill="none" stroke="#000000" stroke-linecap="round" d="M631.996,1419.419l-4.68-3.872l-4.678-3.869"/>
	<path id="path3754" fill="none" stroke="#000000" stroke-linecap="round" d="M650.297,1397.211l-4.68-3.872l-4.679-3.869"/>
	<path id="path3756" fill="none" stroke="#000000" stroke-linecap="round" d="M680.91,1360.061l-4.68-3.871l-4.679-3.869"/>
	<path id="path3758" fill="none" stroke="#000000" stroke-linecap="round" d="M686.079,1353.788l-4.68-3.872l-4.679-3.869"/>
	<path id="path3760" fill="none" stroke="#000000" stroke-linecap="round" d="M703.615,1332.508l-4.68-3.871l-4.679-3.869"/>
	<path id="path3762" fill="none" stroke="#000000" stroke-linecap="round" d="M709.405,1325.481l-4.68-3.871l-4.679-3.869"/>
	<path id="path3764" fill="none" stroke="#000000" stroke-linecap="round" d="M740.022,1288.328l-4.681-3.872l-4.678-3.869"/>
	<path id="path3766" fill="none" stroke="#000000" stroke-linecap="round" d="M745.447,1281.744l-4.681-3.871l-4.678-3.869"/>
	<path id="path3768" fill="none" stroke="#000000" stroke-linecap="round" d="M762.394,1261.179l-4.681-3.872l-4.678-3.869"/>
	<path id="path3770" fill="none" stroke="#000000" stroke-linecap="round" d="M768.104,1254.249l-4.68-3.872l-4.679-3.869"/>
	<path id="path3772" fill="none" stroke="#000000" stroke-linecap="round" d="M785.441,1233.21l-4.681-3.871l-4.678-3.869"/>
	<path id="path3774" fill="none" stroke="#000000" stroke-linecap="round" d="M804.023,1210.66l-4.68-3.871l-4.679-3.869"/>
	<path id="path3776" fill="none" stroke="#000000" stroke-linecap="round" d="M821.468,1189.49l-4.681-3.872l-4.678-3.869"/>
	<path id="path3778" fill="none" stroke="#000000" stroke-linecap="round" d="M791.968,1177.283l43.39-14.209"/>
	<path id="path3782" fill="none" stroke="#000000" stroke-linecap="round" d="M760.191,1187.688l5.773-1.885l5.771-1.885"/>
	<path id="path3784" fill="none" stroke="#000000" stroke-linecap="round" d="M724.974,1199.22l5.773-1.886l5.771-1.884"/>
	<path id="path3786" fill="none" stroke="#000000" stroke-linecap="round" d="M691.017,1210.328l5.774-1.885l5.771-1.885"/>
	<path id="path3788" fill="none" stroke="#000000" stroke-linecap="round" d="M673.959,1215.913l5.773-1.885l5.771-1.885"/>
	<path id="path3790" fill="none" stroke="#000000" stroke-linecap="round" d="M631.243,1229.899l5.774-1.885l5.771-1.885"/>
	<path id="path3792" fill="none" stroke="#000000" stroke-linecap="round" d="M599.574,1240.27l5.773-1.886l5.771-1.885"/>
	<path id="path3794" fill="none" stroke="#000000" stroke-linecap="round" d="M573.445,1248.835l5.773-1.886l5.771-1.884"/>
	<path id="path3796" fill="none" stroke="#000000" stroke-linecap="round" d="M547.944,1257.185l5.774-1.886l5.771-1.884"/>
	<path id="path3798" fill="none" stroke="#000000" stroke-linecap="round" d="M522.075,1265.655l5.773-1.886l5.771-1.885"/>
	<path id="path3800" fill="none" stroke="#000000" stroke-linecap="round" d="M473.039,1281.711l5.774-1.886l5.771-1.885"/>
	<path id="path3802" fill="none" stroke="#000000" stroke-linecap="round" d="M457.102,1286.929l5.774-1.885l5.771-1.885"/>
	<path id="path3804" fill="none" stroke="#000000" stroke-linecap="round" d="M441.054,1292.174l5.773-1.886l5.771-1.885"/>
	<path id="path3806" fill="none" stroke="#000000" stroke-linecap="round" d="M413.806,1301.105l5.774-1.886l5.771-1.884"/>
	<path id="path3808" fill="none" stroke="#000000" stroke-linecap="round" d="M400.584,1311.826l-1.886-5.774l-1.885-5.771"/>
	<path id="path3810" fill="none" stroke="#000000" stroke-linecap="round" d="M408.768,1309.146l-1.886-5.774l-1.885-5.771"/>
	<path id="path3812" fill="none" stroke="#000000" stroke-linecap="round" d="M434.587,1300.692l-1.886-5.774l-1.885-5.771"/>
	<path id="path3814" fill="none" stroke="#000000" stroke-linecap="round" d="M492.967,1281.577l-1.885-5.774l-1.885-5.771"/>
	<path id="path3816" fill="none" stroke="#000000" stroke-linecap="round" d="M500.724,1279.037l-1.885-5.774l-1.885-5.771"/>
	<path id="path3818" fill="none" stroke="#000000" stroke-linecap="round" d="M509.282,1276.234l-1.886-5.773l-1.885-5.771"/>
	<path id="path3820" fill="none" stroke="#000000" stroke-linecap="round" d="M517.254,1273.625l-1.886-5.774l-1.885-5.771"/>
	<path id="path3822" fill="none" stroke="#000000" stroke-linecap="round" d="M543.125,1265.153l-1.885-5.773l-1.885-5.771"/>
	<path id="path3824" fill="none" stroke="#000000" stroke-linecap="round" d="M568.838,1256.734l-1.886-5.773l-1.885-5.771"/>
	<path id="path3826" fill="none" stroke="#000000" stroke-linecap="round" d="M594.872,1248.21l-1.886-5.773l-1.885-5.771"/>
	<path id="path3828" fill="none" stroke="#000000" stroke-linecap="round" d="M620.318,1239.879l-1.886-5.774l-1.885-5.771"/>
	<path id="path3830" fill="none" stroke="#000000" stroke-linecap="round" d="M628.657,1237.147l-1.885-5.773l-1.885-5.771"/>
	<path id="path3832" fill="none" stroke="#000000" stroke-linecap="round" d="M653.046,1229.162l-1.886-5.773l-1.885-5.771"/>
	<path id="path3834" fill="none" stroke="#000000" stroke-linecap="round" d="M661.073,1226.534l-1.885-5.774l-1.885-5.771"/>
	<path id="path3836" fill="none" stroke="#000000" stroke-linecap="round" d="M669.05,1223.922l-1.885-5.773l-1.885-5.771"/>
	<path id="path3838" fill="none" stroke="#000000" stroke-linecap="round" d="M712.244,1209.779l-1.885-5.774l-1.885-5.771"/>
	<path id="path3840" fill="none" stroke="#000000" stroke-linecap="round" d="M720.263,1207.153l-1.886-5.773l-1.885-5.771"/>
	<path id="path3842" fill="none" stroke="#000000" stroke-linecap="round" d="M746.402,1198.595l-1.886-5.773l-1.884-5.771"/>
	<path id="path3844" fill="none" stroke="#000000" stroke-linecap="round" d="M808.779,1178.171l-1.885-5.774l-1.885-5.771"/>
	<path id="path3852" fill="none" stroke="#000000" stroke-linecap="round" d="M576.256,1167.538l-6.059,0.434l-6.055,0.434"/>
	<path id="path3854" fill="none" stroke="#000000" stroke-linecap="round" d="M559.045,1168.745l-6.059,0.433l-6.056,0.434"/>
	<path id="path3856" fill="none" stroke="#000000" stroke-linecap="round" d="M509.179,1172.241l-6.059,0.433l-6.056,0.434"/>
	<path id="path3858" fill="none" stroke="#000000" stroke-linecap="round" d="M483.687,1174.027l-6.059,0.434l-6.055,0.434"/>
	<path id="path3860" fill="none" stroke="#000000" stroke-linecap="round" d="M463.963,1175.41l-6.059,0.434l-6.055,0.434"/>
	<path id="path3862" fill="none" stroke="#000000" stroke-linecap="round" d="M446.261,1176.651l-6.059,0.434l-6.055,0.433"/>
	<path id="path3864" fill="none" stroke="#000000" stroke-linecap="round" d="M408.782,1179.279l-6.058,0.433l-6.056,0.434"/>
	<path id="path3866" fill="none" stroke="#000000" stroke-linecap="round" d="M385.177,1180.934l-6.059,0.434l-6.056,0.433"/>
	<path id="path3868" fill="none" stroke="#000000" stroke-linecap="round" d="M359.787,1182.714l-6.059,0.433l-6.056,0.434"/>
	<path id="path3870" fill="none" stroke="#000000" stroke-linecap="round" d="M341.696,1183.981l-6.058,0.434l-6.056,0.433"/>
	<path id="path3872" fill="none" stroke="#000000" stroke-linecap="round" d="M321.494,1185.398l-6.059,0.433l-6.056,0.434"/>
	<path id="path3874" fill="none" stroke="#000000" stroke-linecap="round" d="M294.219,1187.311l-6.059,0.433l-6.056,0.434"/>
	<path id="path3876" fill="none" stroke="#000000" stroke-linecap="round" d="M275.497,1188.605l-6.059,0.433l-6.056,0.434"/>
	<path id="path3878" fill="none" stroke="#000000" stroke-linecap="round" d="M237.492,1191.287l-6.059,0.433l-6.056,0.434"/>
	<path id="path3880" fill="none" stroke="#000000" stroke-linecap="round" d="M217.551,1192.667l-6.059,0.434l-6.055,0.434"/>
	<path id="path3882" fill="none" stroke="#000000" stroke-linecap="round" d="M200.328,1193.892l-6.059,0.434l-6.055,0.433"/>
	<path id="path3884" fill="none" stroke="#000000" stroke-linecap="round" d="M172.739,1195.826l-6.059,0.433l-6.056,0.434"/>
	<path id="path3886" fill="none" stroke="#000000" stroke-linecap="round" d="M154.987,1197.07l-6.059,0.434l-6.055,0.434"/>
	<path id="path3888" fill="none" stroke="#000000" stroke-linecap="round" d="M177.395,1189.411l0.433,6.059l0.434,6.056"/>
	<path id="path3890" fill="none" stroke="#000000" stroke-linecap="round" d="M257.162,1183.819l0.434,6.058l0.434,6.056"/>
	<path id="path3892" fill="none" stroke="#000000" stroke-linecap="round" d="M249.21,1184.377l0.433,6.058l0.434,6.056"/>
	<path id="path3894" fill="none" stroke="#000000" stroke-linecap="round" d="M241.445,1184.921l0.434,6.059l0.434,6.056"/>
	<path id="path3896" fill="none" stroke="#000000" stroke-linecap="round" d="M300.924,1180.751l0.434,6.059l0.434,6.056"/>
	<path id="path3898" fill="none" stroke="#000000" stroke-linecap="round" d="M363.972,1176.332l0.433,6.058l0.434,6.056"/>
	<path id="path3900" fill="none" stroke="#000000" stroke-linecap="round" d="M390.584,1174.466l0.433,6.059l0.434,6.056"/>
	<path id="path3902" fill="none" stroke="#000000" stroke-linecap="round" d="M416.177,1172.672l0.434,6.059l0.434,6.055"/>
	<path id="path3904" fill="none" stroke="#000000" stroke-linecap="round" d="M424.331,1172.101l0.433,6.058l0.434,6.056"/>
	<path id="path3906" fill="none" stroke="#000000" stroke-linecap="round" d="M488.094,1167.63l0.434,6.059l0.433,6.056"/>
	<path id="path3908" fill="none" stroke="#000000" stroke-linecap="round" d="M515.156,1165.733l0.434,6.058l0.434,6.056"/>
	<path id="path3910" fill="none" stroke="#000000" stroke-linecap="round" d="M523.135,1165.174l0.433,6.059l0.434,6.056"/>
	<path id="path3912" fill="none" stroke="#000000" stroke-linecap="round" d="M530.785,1164.638l0.433,6.058l0.434,6.056"/>
	<path id="path3914" fill="none" stroke="#000000" stroke-linecap="round" d="M538.21,1164.117l0.434,6.059l0.433,6.055"/>
	<path id="path3916" fill="none" stroke="#000000" stroke-linecap="round" d="M582.913,1160.983l0.434,6.058l0.433,6.056"/>
	<path id="path3918" fill="none" stroke="#000000" stroke-linecap="round" d="M620.292,1172.064l0.433,6.058l0.434,6.056"/>
	<path id="path3850" fill="none" stroke="#000000" stroke-linecap="round" d="M835.4,1163.074l-47.805,3.35 M592.013,1180.135
		l182.167-12.77"/>
	<path id="path4091" fill="none" stroke="#000000" stroke-linecap="round" d="M505.935,2123.768h9.723"/>
	<path id="path4093" fill="none" stroke="#000000" stroke-linecap="round" d="M533.56,2123.768h9.723"/>
	<path id="path4095" fill="none" stroke="#000000" stroke-linecap="round" d="M497.796,2118.906v9.723 M495.962,2118.716h3.668
		 M495.962,2128.703h3.668"/>
	<path id="path4102" fill="none" stroke="#000000" stroke-linecap="round" d="M524.843,2118.906v9.723 M523.009,2118.716h3.668
		 M523.009,2128.703h3.668"/>
	<path id="path4104" fill="none" stroke="#000000" stroke-linecap="round" d="M715.935,2223.768h9.723"/>
	<path id="path4106" fill="none" stroke="#000000" stroke-linecap="round" d="M735.685,2223.768h9.723"/>
	<path id="path4108" fill="none" stroke="#000000" stroke-linecap="round" d="M707.796,2218.906v9.723 M705.962,2218.716h3.668
		 M705.962,2228.703h3.668"/>
	<path id="path4110" fill="none" stroke="#000000" stroke-linecap="round" d="M753.968,2218.906v9.723 M752.134,2218.716h3.668
		 M752.134,2228.703h3.668"/>
	<path id="path4112" fill="none" stroke="#000000" stroke-linecap="round" d="M763.343,2218.906v9.723 M761.509,2218.716h3.668
		 M761.509,2228.703h3.668"/>
	<path id="path4124" fill="none" stroke="#000000" stroke-linecap="round" d="M968.06,2123.768h9.723"/>
	<path id="path4126" fill="none" stroke="#000000" stroke-linecap="round" d="M941.06,2123.768h9.723"/>
	<path id="path4128" fill="none" stroke="#000000" stroke-linecap="round" d="M924.546,2118.906v9.723 M922.712,2118.716h3.668
		 M922.712,2128.703h3.668"/>
	<path id="path4130" fill="none" stroke="#000000" stroke-linecap="round" d="M932.968,2118.906v9.723 M931.134,2118.716h3.668
		 M931.134,2128.703h3.668"/>
	<path id="path4132" fill="none" stroke="#000000" stroke-linecap="round" d="M960.093,2118.906v9.723 M958.259,2118.716h3.668
		 M958.259,2128.703h3.668"/>
	<path id="path4134" fill="none" stroke="#000000" stroke-linecap="round" d="M1376.696,2123.768h9.723"/>
	<path id="path4136" fill="none" stroke="#000000" stroke-linecap="round" d="M1337.696,2123.768h9.723"/>
	<path id="path4138" fill="none" stroke="#000000" stroke-linecap="round" d="M1310.557,2118.906v9.723 M1308.722,2118.716h3.669
		 M1308.722,2128.703h3.669"/>
	<path id="path4140" fill="none" stroke="#000000" stroke-linecap="round" d="M1395.578,2118.906v9.723 M1393.744,2118.716h3.668
		 M1393.744,2128.703h3.668"/>
	<path id="path4142" fill="none" stroke="#000000" stroke-linecap="round" d="M1404.787,2118.906v9.723 M1402.953,2118.716h3.668
		 M1402.953,2128.703h3.668"/>
	<path id="path4144" fill="none" stroke="#000000" stroke-linecap="round" d="M1357.071,2123.768h9.723"/>
	<path id="path4146" fill="none" stroke="#000000" stroke-linecap="round" d="M1318.071,2123.768h9.723"/>
	<path id="path4148" fill="none" stroke="#000000" stroke-linecap="round" d="M1412.446,2123.768h9.723"/>
	<path id="path4154" fill="none" stroke="#000000" stroke-linecap="round" d="M1760.307,2118.906v9.723 M1758.472,2118.716h3.669
		 M1758.472,2128.703h3.669"/>
	<path id="path4163" fill="none" stroke="#000000" stroke-linecap="round" d="M1797.071,2123.768h9.723"/>
	<path id="path4167" fill="none" stroke="#000000" stroke-linecap="round" d="M1769.807,2118.906v9.723 M1767.972,2118.716h3.669
		 M1767.972,2128.703h3.669"/>
	<path id="path4169" fill="none" stroke="#000000" stroke-linecap="round" d="M1778.807,2118.906v9.723 M1776.972,2118.716h3.669
		 M1776.972,2128.703h3.669"/>
	<path id="path4171" fill="none" stroke="#000000" stroke-linecap="round" d="M1788.307,2118.906v9.723 M1786.472,2118.716h3.669
		 M1786.472,2128.703h3.669"/>
	<path id="path4173" fill="none" stroke="#000000" stroke-linecap="round" d="M1816.307,2118.906v9.723 M1814.472,2118.716h3.669
		 M1814.472,2128.703h3.669"/>
	<path id="path4175" fill="none" stroke="#000000" stroke-linecap="round" d="M1825.807,2118.906v9.723 M1823.972,2118.716h3.669
		 M1823.972,2128.703h3.669"/>
	<path id="path4177" fill="none" stroke="#000000" stroke-linecap="round" d="M1834.807,2118.906v9.723 M1832.972,2118.716h3.669
		 M1832.972,2128.703h3.669"/>
	<path id="path4179" fill="none" stroke="#000000" stroke-linecap="round" d="M1844.307,2118.906v9.723 M1842.472,2118.716h3.669
		 M1842.472,2128.703h3.669"/>
	<path id="path4181" fill="none" stroke="#000000" stroke-linecap="round" d="M2187.807,2118.906v9.723 M2185.973,2118.716h3.668
		 M2185.973,2128.703h3.668"/>
	<path id="path4185" fill="none" stroke="#000000" stroke-linecap="round" d="M2197.235,2118.906v9.723 M2195.401,2118.716h3.669
		 M2195.401,2128.703h3.669"/>
	<path id="path4187" fill="none" stroke="#000000" stroke-linecap="round" d="M2206.663,2118.906v9.723 M2204.829,2118.716h3.669
		 M2204.829,2128.703h3.669"/>
	<path id="path4189" fill="none" stroke="#000000" stroke-linecap="round" d="M2216.092,2118.906v9.723 M2214.258,2118.716h3.668
		 M2214.258,2128.703h3.668"/>
	<path id="path4191" fill="none" stroke="#000000" stroke-linecap="round" d="M2225.521,2118.906v9.723 M2223.687,2118.716h3.668
		 M2223.687,2128.703h3.668"/>
	<path id="path4193" fill="none" stroke="#000000" stroke-linecap="round" d="M2234.949,2118.906v9.723 M2233.115,2118.716h3.668
		 M2233.115,2128.703h3.668"/>
	<path id="path4195" fill="none" stroke="#000000" stroke-linecap="round" d="M2244.378,2118.906v9.723 M2242.544,2118.716h3.668
		 M2242.544,2128.703h3.668"/>
	<path id="path4197" fill="none" stroke="#000000" stroke-linecap="round" d="M2253.807,2118.906v9.723 M2251.973,2118.716h3.668
		 M2251.973,2128.703h3.668"/>
	<path id="path4199" fill="none" stroke="#000000" stroke-linecap="round" d="M2263.071,2123.768h9.723"/>
	<path id="path4201" fill="none" stroke="#000000" stroke-linecap="round" d="M2282.071,2123.768h9.723"/>
	<path id="path4203" fill="none" stroke="#000000" stroke-linecap="round" d="M1142.853,2223.768h9.723"/>
	<path id="path4205" fill="none" stroke="#000000" stroke-linecap="round" d="M1162.603,2223.768h9.723"/>
	<path id="path4208" fill="none" stroke="#000000" stroke-linecap="round" d="M1134.715,2218.906v9.723 M1132.88,2218.716h3.669
		 M1132.88,2228.703h3.669"/>
	<path id="path4210" fill="none" stroke="#000000" stroke-linecap="round" d="M1190.347,2218.906v9.723 M1188.513,2218.716h3.668
		 M1188.513,2228.703h3.668"/>
	<path id="path4212" fill="none" stroke="#000000" stroke-linecap="round" d="M1199.631,2218.906v9.723 M1197.796,2218.716h3.669
		 M1197.796,2228.703h3.669"/>
	<path id="path4214" fill="none" stroke="#000000" stroke-linecap="round" d="M1181.063,2218.906v9.723 M1179.229,2218.716h3.668
		 M1179.229,2228.703h3.668"/>
	<path id="path4216" fill="none" stroke="#000000" stroke-linecap="round" d="M1582.795,2223.768h9.723"/>
	<path id="path4220" fill="none" stroke="#000000" stroke-linecap="round" d="M1546.406,2218.906v9.723 M1544.572,2218.716h3.669
		 M1544.572,2228.703h3.669"/>
	<path id="path4222" fill="none" stroke="#000000" stroke-linecap="round" d="M1564.85,2218.906v9.723 M1563.016,2218.716h3.668
		 M1563.016,2228.703h3.668"/>
	<path id="path4224" fill="none" stroke="#000000" stroke-linecap="round" d="M1574.073,2218.906v9.723 M1572.238,2218.716h3.669
		 M1572.238,2228.703h3.669"/>
	<path id="path4226" fill="none" stroke="#000000" stroke-linecap="round" d="M1555.628,2218.906v9.723 M1553.794,2218.716h3.668
		 M1553.794,2228.703h3.668"/>
	<path id="path4228" fill="none" stroke="#000000" stroke-linecap="round" d="M1602.406,2218.906v9.723 M1600.572,2218.716h3.669
		 M1600.572,2228.703h3.669"/>
	<path id="path4230" fill="none" stroke="#000000" stroke-linecap="round" d="M1620.85,2218.906v9.723 M1619.016,2218.716h3.668
		 M1619.016,2228.703h3.668"/>
	<path id="path4232" fill="none" stroke="#000000" stroke-linecap="round" d="M1611.628,2218.906v9.723 M1609.794,2218.716h3.668
		 M1609.794,2228.703h3.668"/>
	<path id="path4234" fill="none" stroke="#000000" stroke-linecap="round" d="M1987.545,2223.768h9.723"/>
	<path id="path4236" fill="none" stroke="#000000" stroke-linecap="round" d="M1951.156,2218.906v9.723 M1949.322,2218.716h3.669
		 M1949.322,2228.703h3.669"/>
	<path id="path4242" fill="none" stroke="#000000" stroke-linecap="round" d="M1960.378,2218.906v9.723 M1958.544,2218.716h3.668
		 M1958.544,2228.703h3.668"/>
	<path id="path4250" fill="none" stroke="#000000" stroke-linecap="round" d="M1968.545,2223.768h9.723"/>
	<path id="path4252" fill="none" stroke="#000000" stroke-linecap="round" d="M2007.545,2223.768h9.723"/>
	<path id="path4254" fill="none" stroke="#000000" stroke-linecap="round" d="M2027.045,2223.768h9.723"/>
	<path id="path4256" fill="none" stroke="#000000" stroke-linecap="round" d="M2063.795,2223.768h9.723"/>
	<path id="path4258" fill="none" stroke="#000000" stroke-linecap="round" d="M2084.295,2223.768h9.723"/>
	<path id="path4260" fill="none" stroke="#000000" stroke-linecap="round" d="M2046.656,2218.906v9.723 M2044.822,2218.716h3.669
		 M2044.822,2228.703h3.669"/>
	<path id="path4262" fill="none" stroke="#000000" stroke-linecap="round" d="M2055.878,2218.906v9.723 M2054.044,2218.716h3.668
		 M2054.044,2228.703h3.668"/>
	<path id="path4264" fill="none" stroke="#000000" stroke-linecap="round" d="M970,2192c40.429,36.873,99.003,50,138,50l188,1
		c13.671,0,23.333,0.148,35,1c167.854,0,230.136-128.884,244.671-257.25"/>
	<path id="path4266" fill="none" stroke="#000000" stroke-linecap="round" stroke-linejoin="round" d="M1549.5,2005.75l27.5-20.5
		l11.5,33.75"/>
	<g id="g4280" transform="matrix(0.8710114,-0.4912629,0.4912629,0.8710114,-393.18462,878.83213)">
		<path id="rect4272" fill="none" stroke="#000000" stroke-linecap="round" stroke-linejoin="round" d="M1249.525,1848.001l12.45,0
			c1.671,0,3.025,1.354,3.025,3.025l0,35.201c0,1.67-1.355,3.024-3.025,3.024l-12.451,0c-1.671,0.001-3.024-1.354-3.025-3.024
			l0-35.201C1246.5,1849.355,1247.854,1848.001,1249.525,1848.001z"/>
		<path id="path4274" fill="none" stroke="#000000" stroke-linejoin="round" d="M1218.499,1832.75
			c32.407,23.361,23.785,62.574,0,77.751L1218.499,1832.75z"/>
		<path id="path4276" fill="none" stroke="#000000" stroke-linejoin="round" d="M1218.25,1900.001l-53.25-30.75l53-26.75"/>
		<path id="path4278" fill="none" stroke="#000000" d="M1168.5,1869.251l49.25,0"/>
	</g>
	<path id="path4286" fill="none" stroke="#000000" stroke-linecap="round" d="M2062,645.5c2.342,4.311,3.144,12.086-3.082,11.021
		c-2.967-0.507-6.004-0.903-7.602,0.089c-2.643,1.641-4.867,2.343-7.689,1.061c-2.592-1.177-5.39-0.926-8.928-0.796
		c-5.557,0.204-4.671-4.847-1.591-10.783"/>
	<path id="path4288" fill="none" stroke="#000000" stroke-linecap="round" d="M2042,682c3.527,2.123,8.055,2.125,12.25,0.25"/>
	<path id="path4290" fill="none" stroke="#000000" stroke-linecap="round" d="M2042.124,646.975
		c0.625-5.421,2.061-10.847,1.768-16.263c-0.209-3.862-1.219-6.978-1.768-9.899"/>
	<path id="path4292" fill="none" stroke="#000000" stroke-linecap="round" d="M2087.026,615.509
		c-2.78-2.065-5.346-2.607-7.778-2.828c-1.854-0.169-4.219-0.394-6.718-0.354c-2.062,0.033-2.748-0.409-6.321-0.25
		c-2.442,0.109-5.642,1.237-6.761,2.726"/>
	<path id="path4294" fill="none" stroke="#000000" stroke-linecap="round" d="M2013.875,611.375
		c2.936,3.104,7.429,1.503,10.875,0.625c3.781-0.963,10.343-1.087,13.75,4.25"/>
	<path id="path4296" fill="none" stroke="#000000" stroke-linecap="round" d="M2479.47,722.812
		c4.325,5.723,9.993,5.408,15.733,1.237c7.568,2.339,9.395-1.05,8.131-7.071"/>
	<path id="path4298" fill="none" stroke="#000000" stroke-linecap="round" d="M2489.25,748.75c2.797,1.315,7.451,1.612,10.868,0.088
		"/>
	<path id="path4300" fill="none" stroke="#000000" stroke-linecap="round" d="M2477.305,692.915
		c-1.69-2.653-4.565-2.899-7.204-3.026c-1.627,0.046-3.208,0.936-5.48-0.311"/>
	<path id="path4302" fill="none" stroke="#000000" stroke-linecap="round" d="M2519.658,689.962
		c-1.782-2.018-5.996-1.771-8.546-1.621c-3.222,0.396-6.06,0.582-7.955,1.975c-1.89,1.043-3.454,1.934-4.678,1.643"/>
	<path id="path4304" fill="none" stroke="#000000" stroke-linecap="round" d="M2485.354,698.957
		c1.569,4.921,0.691,9.842,0.512,14.763"/>
	<path id="path4308" fill="none" stroke="#000000" stroke-miterlimit="10" d="M2508.815,740.801
		c2.604-0.871,2.774-2.854,0.612-4.023c-1.586-0.857-3.514-0.478-5.386,0c-1.73,0.442-4.824,0.938-5.833,0.146
		c-2.553-2.001-4.929-2.312-6.895-1.207c-1.252,0.703-3.401,0.777-4.772,0.354c-2.971-0.918-4.028,0.904-7.425,2.216
		c-2.684,1.036-1.378,5.023,2.828,3.648c1.954-0.639,4.209-0.204,5.833,0.177c1.809,0.424,3.779,0.839,5.562,0.323
		c2.174-0.629,4.987-1.813,6.459-1.414C2502.376,741.719,2506.245,741.659,2508.815,740.801z"/>
	<path id="path4310" fill="none" stroke="#000000" stroke-linecap="round" d="M2504.395,705.135
		c0.214-6.198,10.48-7.913,17.324-4.066"/>
	<path id="path4312" fill="none" stroke="#000000" stroke-miterlimit="10" d="M2516.592,702.218c0.012,2.343-2.195,4.25-4.93,4.26
		c-2.733,0.009-4.958-1.883-4.969-4.226c0-0.012,0-0.023,0-0.034c-0.012-2.344,2.195-4.251,4.93-4.26
		c2.733-0.01,4.958,1.882,4.969,4.226C2516.592,702.194,2516.592,702.206,2516.592,702.218z"/>
	<path id="path4314" fill="none" stroke="#000000" stroke-linecap="round" d="M2482.475,706.195
		c-4.976-7.479-9.853-6.947-15.953-6.541"/>
	<path id="path4316" fill="none" stroke="#000000" stroke-miterlimit="10" d="M2478.748,704.633
		c-0.498,2.289-3.066,3.672-5.736,3.088c-2.671-0.583-4.433-2.913-3.936-5.202c0.003-0.012,0.006-0.022,0.008-0.034
		c0.498-2.289,3.066-3.672,5.736-3.089c2.671,0.584,4.433,2.913,3.936,5.203C2478.753,704.609,2478.75,704.621,2478.748,704.633z"/>
	<path id="path4318" fill="none" stroke="#000000" stroke-miterlimit="10" d="M2062.277,674.021c7.752-1.9,6.232-5.449,0.442-5.833
		c-1.15-0.076-3.299-0.841-4.686-1.061c-1.938-0.309-4.628-0.443-6.54,0c-1.808,0.418-4.083,1.454-6.718,0
		c-2.239-1.236-5.973-0.601-7.778,0.354c-2.051,1.083-7.602,1.414-7.602,1.414c-3.578,2.446-3.128,4.446-0.354,6.187
		c0,0,3.848-0.506,5.48-0.729c2.544-0.347,6.03-1.695,8.132-0.441c2.231,1.332,6.199,0.795,8.662-0.037
		C2054.608,672.764,2059.441,674.717,2062.277,674.021L2062.277,674.021z"/>
	<path id="path4320" fill="none" stroke="#000000" stroke-linecap="round" stroke-linejoin="round" d="M2062.453,627.353
		c2.623-6.635,14.185-11.585,19.445-1.237"/>
	<path id="path4322" fill="none" stroke="#000000" stroke-miterlimit="10" d="M2079.071,624.171
		c0.011,2.636-2.908,4.779-6.521,4.787c-3.611,0.008-6.549-2.122-6.561-4.759c0-0.01,0-0.019,0-0.028
		c-0.01-2.636,2.909-4.779,6.521-4.787c3.612-0.009,6.55,2.122,6.561,4.758C2079.071,624.151,2079.071,624.161,2079.071,624.171z"/>
	<path id="path4324" fill="none" stroke="#000000" stroke-linecap="round" stroke-linejoin="round" d="M2037.207,627.482
		c-4.426-7.235-14.973-7.47-19.457-2.232"/>
	<path id="path4326" fill="none" stroke="#000000" stroke-miterlimit="10" d="M2033.816,625.231c0.011,2.636-2.83,4.779-6.345,4.787
		s-6.373-2.122-6.383-4.759c0-0.01,0-0.019,0-0.028c-0.011-2.636,2.83-4.779,6.345-4.787s6.372,2.122,6.383,4.759
		C2033.816,625.212,2033.816,625.222,2033.816,625.231z"/>
</g>
</svg>
