<?xml version="1.0" encoding="utf-8"?>
<!-- Generator: Adobe Illustrator 15.1.0, SVG Export Plug-In . SVG Version: 6.00 Build 0)  -->
<!DOCTYPE svg PUBLIC "-//W3C//DTD SVG 1.1//EN" "http://www.w3.org/Graphics/SVG/1.1/DTD/svg11.dtd">
<svg version="1.1"
	 id="svg12284" inkscape:version="0.44.1" sodipodi:version="0.32" sodipodi:docbase="F:\" sodipodi:docname="C 172 line drawing oblique.svg" xmlns:inkscape="http://www.inkscape.org/namespaces/inkscape" xmlns:sodipodi="http://sodipodi.sourceforge.net/DTD/sodipodi-0.dtd" xmlns:rdf="http://www.w3.org/1999/02/22-rdf-syntax-ns#" xmlns:svg="http://www.w3.org/2000/svg" xmlns:cc="http://web.resource.org/cc/" xmlns:dc="http://purl.org/dc/elements/1.1/"
	 xmlns="http://www.w3.org/2000/svg" xmlns:xlink="http://www.w3.org/1999/xlink" x="0px" y="0px" width="1600px" height="1200px"
	 viewBox="0 0 1600 1200" enable-background="new 0 0 1600 1200" xml:space="preserve">
<sodipodi:namedview  width="1600px" height="1200px" pagecolor="#ffffff" id="base" inkscape:guide-bbox="true" borderopacity="1.0" inkscape:pageopacity="0.0" inkscape:pageshadow="2" inkscape:zoom="0.49497475" inkscape:cx="411.75711" inkscape:cy="544.41238" inkscape:document-units="px" inkscape:current-layer="layer4" inkscape:window-width="1280" inkscape:window-height="977" inkscape:window-x="-4" inkscape:window-y="-4" borderlayer="true" showguides="true" bordercolor="#666666">
	</sodipodi:namedview>
<g id="layer1" inkscape:label="Ebene 1" inkscape:groupmode="layer">
</g>
<g id="layer4" inkscape:label="umriss" inkscape:groupmode="layer">
	<path id="path14357" sodipodi:nodetypes="ccc" fill="none" stroke="#1A171B" d="M914.791,956.005
		c21.048,17.975,39.387,3.346,48.856-20.455C952.122,943.367,929.2,955.091,914.791,956.005z"/>
	<path id="path12585" sodipodi:nodetypes="ccc" fill="none" stroke="#1A171B" d="M561.507,1025.004
		c22.55,16.051,39.528-0.139,46.864-24.681C597.579,1009.126,575.78,1022.823,561.507,1025.004z"/>
	<path id="path12336" sodipodi:nodetypes="cccccccccccs" fill="none" stroke="#1A171B" d="M800,521.429l95.714,4.285L1070,457.143
		c0,0,110.034-69.341,135.714-90c13.767-19.267,93.571-211.429,93.571-211.429c31.905-27.381,58.81-29.762,89.286-37.143
		l-41.429,245.714c11.19,5.476,5.952,15.238-10.715,25.714l49.286-14.286c0,0,148.324,66.284,147.143,80
		c-8.546,18.025-47.995,43.927-81.429,50.715c-41.783-3.907-160.714-46.071-214.285-60.715"/>
	<path id="path12338" sodipodi:nodetypes="cc" fill="none" stroke="#1A171B" d="M1266.428,455.714l-198.571,186.429"/>
	<path id="path12340" sodipodi:nodetypes="ccscc" fill="none" stroke="#1A171B" d="M926.969,581.761l660.275,303.953
		c0,0-95.655,76.552-148.673,78.572c-8.565,0.326-405.715-131.429-405.715-131.429S749.243,703.99,725,693.571"/>
	<path id="path12342" sodipodi:nodetypes="ccc" fill="none" stroke="#1A171B" d="M967.857,804.286l-197.856,70l-32.857,18.571"/>
	<path id="path12344" sodipodi:nodetypes="cccc" fill="none" stroke="#1A171B" d="M737.958,893.521
		c-55.771,24.633-115.028,48.081-179.387,61.603c-19.582,0.562-37.144,3.65-55.715-0.837c-22.554-5.988-39.3-14.755-58.824-28.319"
		/>
	<path id="path12346" sodipodi:nodetypes="ccccccscc" fill="none" stroke="#1A171B" d="M417.575,890.463
		c-10.981-16.522-15.397-45.166-1.126-64.719c34.762-38.899,69.523-68.707,116.407-100.03
		c10.779-38.86,18.528-66.608,41.429-101.428L311.01,506.97L34.561,348.846c0,0-24.803-12.175-15.152-36.306
		c15.495-38.747,115.296-60.52,115.296-60.52c225.689,82.731,441.278,168.494,671.01,269.408"/>
	<path id="path12348" sodipodi:nodetypes="ccccc" fill="none" stroke="#1A171B" d="M1144.805,406.653l-73.969-49.755
		c-9.221-6.249-19.105-9.048-20.245-21.357c31.905-31.4,55.729-31.486,89.653-40.664l84.979,26.97"/>
	<path id="path12350" sodipodi:nodetypes="cc" fill="none" stroke="#1A171B" d="M355.44,527.95
		c2.856,5.714,163.983,203.406,163.983,203.406"/>
	<path id="path12352" sodipodi:nodetypes="cc" fill="none" stroke="#1A171B" d="M404.776,550.735l129.121,165.601"/>
	<path id="path12354" sodipodi:nodetypes="cc" fill="none" stroke="#1A171B" d="M948.572,796.429l-178.571,65"/>
	<path id="path1893" sodipodi:nodetypes="cc" fill="none" stroke="#1A171B" d="M1237.143,445c1.429-18.571,99.285-55,99.285-55"/>
	<path id="path2781" fill="none" stroke="#1A171B" d="M1310.714,400l197.857,77.857"/>
	<path id="path2783" sodipodi:nodetypes="cc" fill="none" stroke="#1A171B" d="M1352.857,147.857
		c-1.429,5-63.571,240.714-63.571,240.714"/>
	<path id="path2785" sodipodi:nodetypes="cc" fill="none" stroke="#1A171B" d="M1296.428,163.571
		c20,9.286,90.715-37.143,90.715-37.143"/>
	<path id="path2787" sodipodi:nodetypes="cccc" fill="none" stroke="#1A171B" d="M1070,457.857
		c-3.572,0-87.857,57.856-87.857,57.856c-7.878,4.673-6.958,12.269,5,7.857L1345,365.714"/>
	<path id="path3674" sodipodi:nodetypes="cc" fill="none" stroke="#1A171B" d="M1089.285,308.571
		c4.286,2.857,119.286,54.286,119.286,54.286"/>
	<path id="path4561" sodipodi:nodetypes="cccc" fill="none" stroke="#1A171B" d="M724.698,693.026
		c-7.765-8.335,2.425-28.695,10.693-37.499c29.124,11.178,292.944,134.351,292.944,134.351l411.132,145.462"/>
	<path id="path4563" fill="none" stroke="#1A171B" d="M1425.324,952.513c-5.05-26.264,122.229-76.771,122.229-76.771"/>
	<path id="path4565" sodipodi:nodetypes="cc" fill="none" stroke="#1A171B" d="M1524.32,883.822l-355.573-166.675"/>
	<path id="path4567" sodipodi:nodetypes="csccsc" fill="none" stroke="#1A171B" d="M1191.98,703.005
		c0,0-38.386,24.244-41.416,20.203S874.792,597.949,874.792,597.949s30.385-6.479,52.527-16.162
		c8.286-8.848-2.785-12.663-17.173-22.224c-13.799-9.17-105.056-38.386-105.056-38.386"/>
	<path id="path4569" fill="none" stroke="#1A171B" d="M25.254,331.269c-4.041-23.233,116.167-66.67,116.167-66.67"/>
	<path id="path4571" sodipodi:nodetypes="cccc" fill="none" stroke="#1A171B" d="M34.345,313.086l306.076,169.706
		c0,0,206.071,82.327,266.681,114.146c-11.534,5.392-18.153,9.05-32.815,26.704"/>
	<path id="path4573" sodipodi:nodetypes="cc" fill="none" stroke="#1A171B" d="M721.248,538.35
		c-39.814,10.785-82.485,31.57-119.442,54.498"/>
	<path id="path4575" sodipodi:nodetypes="ccsc" fill="none" stroke="#1A171B" d="M539.421,408.041
		c-5.051,1.01-59.599,14.142-59.599,14.142S733.37,538.35,737.411,535.319c4.04-3.03,67.428-14.142,67.428-14.142"/>
	<path id="path4577" fill="none" stroke="#1A171B" d="M494.975,417.132L131.32,269.649"/>
	<path id="path4579" sodipodi:nodetypes="cc" fill="none" stroke="#1A171B" d="M667.364,852.854
		c-37.887,26.103-129.972,72.485-161.991,57.405"/>
	<path id="path4581" sodipodi:nodetypes="cc" fill="none" stroke="#1A171B" d="M409.458,838.488
		c53.876-25.448,180.686,92.507,92.494,116.116"/>
	<path id="path4583" sodipodi:nodetypes="csc" fill="none" stroke="#1A171B" d="M522.524,734.023
		c66.314-5.102,149.095,51.096,146.197,107.372c-2,39.549-7.266,72.456-17.367,85.589"/>
	<path id="path4585" sodipodi:nodetypes="cc" fill="none" stroke="#1A171B" d="M751.553,847.457
		c0-5.051,2.612-138.463,2.612-138.463"/>
	<path id="path4587" sodipodi:nodetypes="cc" fill="none" stroke="#1A171B" d="M738.299,891.802
		c-5.428-13.009,14.928-32.692,31.386-29.784"/>
	<path id="path1901" sodipodi:nodetypes="cc" fill="none" stroke="#1A171B" d="M861.865,603.466
		c-39.814,10.784-82.486,31.569-119.443,54.497"/>
	<path id="path1903" sodipodi:nodetypes="cc" fill="none" stroke="#1A171B" d="M597.87,601.414l131.827,60.282"/>
	<path id="path1905" sodipodi:nodetypes="cc" fill="none" stroke="#1A171B" d="M602.337,621.926l113.565,51.443"/>
	<path id="path1907" sodipodi:nodetypes="cccc" fill="none" stroke="#1A171B" d="M532.914,724.451
		c51.76-6.86,117.665,42.375,137.469,53.645c22.597,1.979,44.199,4.061,69.914-11.653c1.723-24.048,1.403-24.019,2.134-64.783"/>
	<path id="path1909" sodipodi:nodetypes="csc" fill="none" stroke="#1A171B" d="M548.138,715.051
		c18.681-32.706,43.167-19.734,89.121-6.212c46.497,13.683,72.748,44.301,68.455,61.443"/>
	<path id="path1911" sodipodi:nodetypes="cc" fill="none" stroke="#1A171B" d="M653.513,682.446l-42.706,17.728"/>
	<path id="path1913" sodipodi:nodetypes="cc" fill="none" stroke="#1A171B" d="M595.88,635.036l-2.273,60.108"/>
	<path id="path1915" sodipodi:nodetypes="cc" fill="none" stroke="#1A171B" d="M581.508,665.809l-0.419,28.16"/>
	<path id="path1917" sodipodi:nodetypes="ccccc" fill="none" stroke="#1A171B" d="M648.564,589.834
		c12.843-6.11,37.249-14.573,52.843-20.75c6.962-2.627,36.171-1.283,22.871,10.057c-19.137,7.728-39.473,19.487-62.28,26.818
		C624.927,604.913,643.513,590.174,648.564,589.834z"/>
	<path id="path1923" sodipodi:nodetypes="ccscsc" fill="none" stroke="#1A171B" d="M913.393,884.464
		c-18.215,8.572-35,60-14.465,70.715c23.731,5.051,77.544-22.291,94.822-46.607c14.464-20.357,17.143-46.25,0-46.785
		c-18.215,5.356-36.808,10.3-53.036,10C930.107,871.59,922.322,878.571,913.393,884.464z"/>
	<path id="path1925" sodipodi:nodetypes="ccsc" fill="none" stroke="#1A171B" d="M564.726,954.855
		c-28.326,11.658-44.285,69.352-15.477,71.45c37.144-1.436,65.484-32.872,83.362-46.652c26.317-20.285,12.843-48.831,12.843-48.831"
		/>
	<path id="path1927" sodipodi:nodetypes="ccc" fill="none" stroke="#1A171B" d="M907.064,777.807
		c-8.218,11.703-25.851,18.925-32.93,27.157c4.286,10,7.128,14.618,7.128,14.618"/>
	<path id="path1929" sodipodi:nodetypes="cc" fill="none" stroke="#1A171B" d="M839.784,826.141
		c0.158-17.98,27.994-22.605,36.147-24.019"/>
	<path id="path2818" sodipodi:nodetypes="cc" fill="none" stroke="#1A171B" d="M648.701,950.078
		c-32.078,31.153-81.989,70.213-114.01,60.183"/>
	<path id="path2826" sodipodi:nodetypes="cc" fill="none" stroke="#1A171B" d="M1003.518,888.031
		c-30.563,25.346-98.657,61.374-113.758,44.021"/>
	<path id="path2828" sodipodi:nodetypes="cc" fill="none" stroke="#1A171B" d="M860.65,842.153
		c1.263,2.021,41.921,52.023,41.921,52.023"/>
	<path id="path2830" sodipodi:nodetypes="cc" fill="none" stroke="#1A171B" d="M889.692,832.052
		c1.263,3.283,29.294,47.982,29.294,47.982"/>
	<path id="path3717" sodipodi:nodetypes="cccc" fill="none" stroke="#1A171B" d="M764.685,712.097
		c0.253,6.944,0.127,33.082,0.379,39.175c0.253,5.082,2.904,4.767,7.197,3.756c12.375-4.04,34.093-16.92,43.185-20.202"/>
	<path id="path5489" sodipodi:nodetypes="ccccc" fill="none" stroke="#1A171B" d="M710.742,619.268
		c12.842-6.11,35.228-18.614,50.821-24.791c6.962-2.627,37.687-0.778,24.388,10.562c-19.137,7.727-38.969,23.022-61.775,30.354
		C687.105,634.347,705.692,619.606,710.742,619.268z"/>
	<path id="path5491" sodipodi:nodetypes="cc" fill="none" stroke="#1A171B" d="M823.636,841.788
		c13.431-15.828,23.628-20.608,31.097-10.886"/>
	<path id="path5493" sodipodi:nodetypes="cscc" fill="none" stroke="#1A171B" d="M408.727,920.928
		c23.731,5.051,58.804,9.446,70.831-4.938c13.506-16.154-12.404-54.331-29.548-54.867
		C434.144,864.648,410.17,895.379,408.727,920.928z"/>
	<path id="path5495" sodipodi:nodetypes="cc" fill="none" stroke="#1A171B" d="M474.12,921.628
		c46.539,17.172,39.063-16.018,3.283-36.113"/>
	<path id="path5497" sodipodi:nodetypes="cc" fill="none" stroke="#1A171B" d="M425.02,878.047
		c-7.647-9.597-8.001-29.655,17.931-14.647"/>
	<path id="path5499" sodipodi:nodetypes="ccccc" fill="none" stroke="#1A171B" d="M811.607,522.5
		c8.036,0.179,83.394,3.036,83.394,3.036L934.107,540l-72.321,0.357L811.607,522.5z"/>
	<path id="path6386" sodipodi:nodetypes="cscccc" fill="none" stroke="#1A171B" d="M883.393,547.143
		c1.071,0.179,56.287-4.052,63.035-0.893c56.072,26.25,39.822,42.857,32.144,58.75c-9.644-2.679-50.894-23.393-50.894-23.393
		s16.429-5.536-23.928-25.357C890.539,549.735,888.387,550.822,883.393,547.143z"/>
	<path id="path11698" sodipodi:nodetypes="cccccccscc" fill="none" stroke="#1A171B" d="M597.857,601.071
		c-27.755,16.649-51.902,69.765-64.643,123.571c55.595-6.429,114.762,42.5,136.786,53.571c32.143,5.477,51.785-1.547,69.643-11.428
		L742.5,702.5l-14.644-7.857c-5.238-2.262-5.833-6.31-6.071-12.143c0,0,2.143-8.929,4.643-13.571
		c1.447-2.687,3.572-7.143,3.572-7.143L597.857,601.071z"/>
</g>
</svg>
