<?xml version="1.0" encoding="utf-8"?>
<!-- Generator: Adobe Illustrator 15.1.0, SVG Export Plug-In . SVG Version: 6.00 Build 0)  -->
<!DOCTYPE svg PUBLIC "-//W3C//DTD SVG 1.1//EN" "http://www.w3.org/Graphics/SVG/1.1/DTD/svg11.dtd">
<svg version="1.1" id="Ebene_1" xmlns="http://www.w3.org/2000/svg" xmlns:xlink="http://www.w3.org/1999/xlink" x="0px" y="0px"
	 width="550px" height="400px" viewBox="0 0 550 400" enable-background="new 0 0 550 400" xml:space="preserve">
<path fill-rule="evenodd" clip-rule="evenodd" fill="none" stroke="#FFFFFF" stroke-linecap="round" stroke-linejoin="round" stroke-miterlimit="3" d="
	M260.15,334.65c-0.433-0.367-0.917-0.801-1.45-1.301v38.5h-27.35h-10.6H151.3H2V60.65v-7.3V2h145.45H258.7v45.2v65.45v46.2v4.25
	v111.55c0.633-0.4,1.267-0.834,1.9-1.301 M258.7,47.2c-7.133-5.9-23.85-12.617-50.15-20.15c0.167,0.434,0.75,1.383,1.75,2.85
	c0.633,0.9,0.95,1.95,0.95,3.15c0,0.833-0.167,2.05-0.5,3.65c-0.133,0.633-0.417,1.85-0.85,3.65c0.067-0.467-0.117-0.9-0.55-1.3
	c-0.367-0.333-0.7-0.5-1-0.5c-0.2,0-0.483,0.034-0.85,0.1c-0.367,0.1-0.617,0.15-0.75,0.15c0,0.3,0.35,0.983,1.05,2.05
	c0.667,1,1.067,1.667,1.2,2c0.533,1.367,0.817,2.1,0.85,2.2c0.433,0.9,1.183,1.3,2.25,1.2c1.1-0.1,2.117,0.417,3.05,1.55
	c0.967,1.133,1.883,2.333,2.75,3.6c0.9,1.267,3.833,3.95,8.8,8.05c4.4,3.667,7.033,6.283,7.9,7.85c1.533,0.7,2.5,1.817,2.9,3.35
	c0.2,0.733,0.55,1.5,1.05,2.3c0.7,1.167,1.1,1.883,1.2,2.15c1.633,1.667,2.967,3.783,4,6.35c1.933,4.8,3.083,7.55,3.45,8.25
	c1.8,3.566,4.233,8.7,7.3,15.4c1.367,2.8,2.767,5.316,4.2,7.55 M200.25,2.4c0.133,0.9,0.467,1.883,1,2.95
	c0.6,1.167,1.05,2.05,1.35,2.65c1.1,2.233,1.45,4.4,1.05,6.5c-0.433,2.1,0.033,4.217,1.4,6.35c0.367,0.6,0.967,1.517,1.8,2.75
	c0.7,1.1,1.267,2.25,1.7,3.45c-9.233-2.4-18.35-3.667-27.35-3.8c-0.067,0-0.117,0-0.15,0c9.467,6.533,17.367,13.567,23.7,21.1
	c11.933,18.633,21.967,40.2,30.1,64.7c0.066,0.267,0.25,0.883,0.55,1.85c0.434,1.233,0.65,2.383,0.65,3.45
	c0,1.633-0.316,2.767-0.95,3.4c-0.533,0.533-1.383,0.8-2.55,0.8c-0.466,0-1.65-0.083-3.55-0.25c-1.933-0.2-2.95-0.3-3.05-0.3
	c-0.267,0-0.45,0-0.55,0c-0.133,0.033-0.217,0.117-0.25,0.25c0.8,1.233,1.517,2.733,2.15,4.5c0.534,1.467,0.8,2.45,0.8,2.95
	c0,0.466-0.6,0.983-1.8,1.55c-1.233,0.533-1.9,0.833-2,0.9v0.9h0.1c0.067,0.034,0.1,0.1,0.1,0.2c0.4,0,0.867-0.117,1.4-0.35
	c0.667-0.3,1.1-0.467,1.3-0.5h1.35c0.233,0.967,0.45,1.934,0.65,2.9v1.35c-0.167,0.033-0.667,0.2-1.5,0.5
	c-0.833,0.3-1.3,0.5-1.4,0.6v0.7h2.25c0.067-0.067,0.15-0.167,0.25-0.3c0.133-0.1,0.317-0.15,0.55-0.15
	c1.7,2.033,2.55,3.117,2.55,3.25c0,0.7-0.533,1.283-1.6,1.75c-1.167,0.333-1.833,0.533-2,0.6v0.7h1.15
	c0.833-0.3,1.466-0.45,1.9-0.45c0.133,0,0.533,0.367,1.2,1.1c0.767,0.833,1.15,1.466,1.15,1.9c0,0.1-0.083,0.283-0.25,0.55
	c-0.2,0.3-0.35,0.6-0.45,0.9 M181.05,23.25c-11.133-0.1-22.216,1.417-33.25,4.55c0.2,0.267,0.3,0.617,0.3,1.05
	c-0.6,1.167-1.233,2.467-1.9,3.9c-1.233,2.8-1.95,4.95-2.15,6.45c0.333,0.933,1.133,1.6,2.4,2c1.267,0.367,1.966,0.716,2.1,1.05
	c0.067,0.367,0.317,1.2,0.75,2.5c0.4,1.3,1.117,2.2,2.15,2.7h0.05c-0.167,0.5-0.25,0.85-0.25,1.05c0,0.4,0.383,0.833,1.15,1.3
	c0.8,0.5,1.2,1.1,1.2,1.8c0,0.733,0.15,1.417,0.45,2.05c0.333,0.7,0.534,1.217,0.6,1.55c0.333,2.233,2.133,2.966,5.4,2.2L172,55
	c0.533,0.4,1.15,1.733,1.85,4c0.767,2.333,1.15,4.167,1.15,5.5c0,1.033-0.667,2.8-2,5.3s-2,4.467-2,5.9c0,0.7,0,1.083,0,1.15
	c0.033,0.1,0.15,0.533,0.35,1.3c0.3,0.8,1.45,5.633,3.45,14.5c0.2,1.167,0.55,2.8,1.05,4.9c0.4,1.6,0.6,2.667,0.6,3.2
	c0,0.5-0.067,0.967-0.2,1.4c-0.1,0.233-0.267,0.717-0.5,1.45c-0.133,0.233-0.533,1.4-1.2,3.5c-0.233,0.8-0.35,1.7-0.35,2.7
	c0,0.534,0.333,1.05,1,1.55c0.667,0.5,1,1.267,1,2.3c0,1.6-0.367,3.15-1.1,4.65c-0.733,1.467-1.1,2.5-1.1,3.1
	c0,0.867,0.417,1.65,1.25,2.35c0.8,0.667,1.2,1.283,1.2,1.85c0,1.333,0.066,2.533,0.2,3.6c0.1,1.066,0.15,1.917,0.15,2.55
	c0,0.533-0.183,1.333-0.55,2.4c-0.4,1.033-0.6,2.167-0.6,3.4c0,0.967-0.033,1.633-0.1,2c0,0.2,0.117,1.017,0.35,2.45
	c0.033,0.267,0.133,0.767,0.3,1.5c0.1,0.667,0.15,1.233,0.15,1.7v0.05c0,0.433-0.133,0.833-0.4,1.2c-0.034,0.066-0.367,0.45-1,1.15
	c-1.067,1.2-1.684,2.717-1.85,4.55c-0.2,2.233-0.6,4.05-1.2,5.45c-0.233,0.5-0.433,0.883-0.6,1.15c0,0.033-0.017,0.067-0.05,0.1
	h78.35c-0.067-0.2-0.133-0.4-0.2-0.6 M171.25,158.85h-66l4.2,4.25h59.3c0.167-0.167,0.317-0.35,0.45-0.55c0.2-0.3,0.4-0.767,0.6-1.4
	c0.2-0.6,0.417-1.017,0.65-1.25C170.783,159.467,171.05,159.117,171.25,158.85z M183.6,235.45c2.2-0.566,3.3-1.967,3.3-4.2
	c0-1.434-0.383-2.55-1.15-3.35c-1.1-0.9-2-1.784-2.7-2.65c-0.5-0.634-1.867-1.934-4.1-3.9c-1.567-1.366-2.35-2.483-2.35-3.35
	c0-0.366,0.083-0.934,0.25-1.7c0.167-0.833,0.25-1.5,0.25-2c0-0.934-0.383-2.05-1.15-3.35c-0.767-1.3-1.15-1.983-1.15-2.05
	c0-0.2,0.25-0.517,0.75-0.95c0.667-0.566,1.1-0.95,1.3-1.15c0.4-0.2,1.65,0.117,3.75,0.95c1.033,0.4,2.033,0.8,3,1.2
	c0.733,0,1.833-0.5,3.3-1.5c1.533-1.101,2.467-1.767,2.8-2c0.5-0.267,1.8-1.566,3.9-3.9c2.2-2.466,3.717-3.966,4.55-4.5
	c1.9-1.233,3.35-2.466,4.35-3.7c1.833-2.267,3.133-3.767,3.9-4.5c0.833-0.867,2.3-2.467,4.4-4.8c2.467-2.733,4.1-4.517,4.9-5.35
	l-0.3,5.5c0.5,2.633,1.117,4.017,1.85,4.15c0.767,0.1,1.05,1.483,0.85,4.15c-0.167,2.6-0.2,4.767-0.1,6.5c0,0.033,0,0.067,0,0.1
	c-0.6,0.566-1.7,1.483-3.3,2.75c-1.7,1.301-3.133,2.601-4.3,3.9c-1.133,1.3-2.283,2.333-3.45,3.1
	c-1.167,0.767-2.217,1.617-3.15,2.551c-0.833,1-1.316,2-1.45,3c-0.133,1.033-0.667,2.066-1.6,3.1
	c-0.967,1.033-1.483,1.816-1.55,2.35l-0.25-0.05c-0.3,0.5-1.133,1.601-2.5,3.3c-1.534,1.934-2.434,3.184-2.7,3.75
	c-0.633,1.301-1.267,2.434-1.9,3.4c-1.033,1.6-1.867,2.4-2.5,2.4l0.05,0.25c0,0.267-0.1,0.583-0.3,0.949
	c-0.6,1.233-2.033,2.817-4.3,4.75c-0.533,0.467-1.033,1.15-1.5,2.051c-0.267,0.5-0.65,1.216-1.15,2.149
	c-0.066,0.134-0.6,1.033-1.6,2.7c-0.767,1.333-1.333,2.25-1.7,2.75c-0.333,0.467-0.867,1.15-1.6,2.05
	c-0.6,0.9-1.183,1.917-1.75,3.05c-1.667,3.434-2.633,6.884-2.9,10.351c-0.033,0.1-0.05,3.533-0.05,10.3c0,2.634-0.316,4.5-0.95,5.6
	c-0.667,1.067-1,2.117-1,3.15c0,0.033,0.367,0.833,1.1,2.4c0.767,1.8,1.283,3.283,1.55,4.449c0.167,0.767,0.417,1.717,0.75,2.851
	c0.323,1.194,0.648,2.702,0.975,4.524c-0.117,0.117-0.175,0.259-0.175,0.426c11.133,0.933,21.983,0.483,32.55-1.351
	c-2.133-1.533-4.684-3.399-7.65-5.6c-1.267-0.934-2.717-2.3-4.35-4.101c-1.233-1.433-2.283-2.75-3.15-3.949
	c-3.034-4.2-4.867-6.851-5.5-7.95c-1.133-1.934-1.7-3.717-1.7-5.351c0-1.466,0.183-2.966,0.55-4.5c0.5-1.866,0.9-3.517,1.2-4.949
	c0.367-1.801,1.5-3.467,3.4-5c2.434-2.034,3.983-3.4,4.65-4.101c0.034-0.066,0.067-0.116,0.1-0.149c0.633-0.9,2.283-1.983,4.95-3.25
	c4.133-2,6.25-3.034,6.35-3.101c1.667-1.133,3.667-2.233,6-3.3c2.3-1.1,4.617-2.167,6.95-3.2c2.3-1.033,5.7-2.733,10.2-5.1
	c4.5-2.334,7.45-3.783,8.85-4.351c0.7-0.267,1.966-0.233,3.8,0.101c2.267,0.399,3.65,0.6,4.15,0.6c0.833,0,1.4-0.083,1.7-0.25
	c0-0.899,0.017-1.383,0.05-1.45c0.067-0.066,0.35-0.1,0.85-0.1c0.967,0,1.583,0.25,1.85,0.75c0.233,0.533,0.633,0.8,1.2,0.8
	c0.7,0,1.25-0.733,1.65-2.2c0.3-1.166,0.45-2.35,0.45-3.55c0-1.1-0.066-1.883-0.2-2.35h-1.15c-0.6,0.6-1.316,0.899-2.15,0.899
	c-0.7,0-1.167-0.316-1.4-0.949c-0.233-0.801-0.95-1.167-2.15-1.101c-1.233,0-2.017-0.25-2.35-0.75
	c-0.367-0.533-0.617-1.217-0.75-2.05c-0.133-0.8,0.867-9.333,3-25.6c1.833-14.267,2.85-23.533,3.05-27.8h-81.05
	c-1,1.433-1.783,2.733-2.35,3.9c-0.2,0.233-0.45,0.617-0.75,1.15c-0.367,0.533-0.917,1.1-1.65,1.7c-0.467,0.4-0.867,1.083-1.2,2.05
	c-0.2,0.5-0.4,1.033-0.6,1.6c-0.067,0.1-0.517,0.95-1.35,2.55c-0.867,1.633-1.3,2.55-1.3,2.75c0,0.4,0.067,0.833,0.2,1.3
	c0.1,0.367,0.133,0.833,0.1,1.4c-0.5,0.133-1.117,0.583-1.85,1.35c-0.4,0.433-0.933,1.05-1.6,1.85c-0.367,0.3-0.717,1.1-1.05,2.4
	c-0.233,0.967-0.633,1.45-1.2,1.45c-2.167,0-3.75,0.067-4.75,0.2s-1.95,0.2-2.85,0.2c-1.267,0-2.183-0.317-2.75-0.95
	c-0.6-0.633-1-0.95-1.2-0.95c-0.567,0-0.883,0-0.95,0c-0.533,0.034-0.8,0.083-0.8,0.15c-0.033,0-0.067,0-0.1,0
	c-0.6-0.034-1.017-0.317-1.25-0.85c-0.067-0.167-0.2-0.783-0.4-1.85c-0.333-1.833-1.434-2.75-3.3-2.75c-1.233,0-2.3,0.4-3.2,1.2
	c-0.9,0.8-1.567,1.2-2,1.2c-0.3-0.066-0.533-0.1-0.7-0.1l-20.45-20.95h-8.55l26.15,27.1c2.342,2.509,3.776,4.042,4.3,4.6
	c0.333,0.3,0.717,0.917,1.15,1.85c0.233,0.5,0.5,1.117,0.8,1.85c0.133,0.233,0.6,0.533,1.4,0.9c0.7,0.3,1.05,0.684,1.05,1.15
	l-0.7,1.65c-0.466,1.1-0.7,1.783-0.7,2.05c0,0.5,0.85,1.634,2.55,3.4c0.867,0.866,1.767,1.716,2.7,2.55
	c0.133,0.2,0.633,0.816,1.5,1.85c0.8,1,1.4,1.733,1.8,2.2c0.434,0.467,1.033,1.017,1.8,1.65c1.267,1.066,2.183,1.866,2.75,2.399
	c0.1,0.066,0.483,0.184,1.15,0.351c0.6,0.1,1.1,0.383,1.5,0.85c0.2,0.2,0.316,0.566,0.35,1.1c0.066,0.5,0.183,0.834,0.35,1
	c0.7,2.301,1.684,3.483,2.95,3.551c0.333,0,0.817,0,1.45,0c0.566,0.066,1.033,0.35,1.4,0.85c0.233,0.3,0.85,0.634,1.85,1
	c0.9,0.333,1.383,0.65,1.45,0.95c0.167,0.366,0.767,0.517,1.8,0.45c1.2-0.034,2.066,0.149,2.6,0.55c0.5,0.399,1.117,0.666,1.85,0.8
	c0.467,0.066,1.25,0.15,2.35,0.25c0.467,0.1,1.017,0.616,1.65,1.55c0.767,1.134,1.517,1.9,2.25,2.3c0.434,0.267,1.7,1.384,3.8,3.351
	c1.466,1.399,2.767,2.1,3.9,2.1c1.033,0,1.85-0.267,2.45-0.8c0.7-0.634,0.983-1.583,0.85-2.85 M249.4,158
	c-4.7-3.667-7.617-5.95-8.75-6.85c-4.033-3.2-6.583-5.4-7.65-6.6 M258.7,163.1h-8.9 M258.7,158.85h-9.1
	c0.167,0.8,0.25,1.717,0.25,2.75c0,0.4-0.017,0.9-0.05,1.5 M2,53.35l28.45,29c3.367-35.667,23.8-59.033,61.3-70.1
	c17.867-4.9,34.7-6.133,50.5-3.7c0.1,0.034,0.217,0.05,0.35,0.05c0.833-2.7,2.45-4.9,4.85-6.6 M147.8,27.8
	c-0.083,0.024-0.167,0.049-0.25,0.075c-18.116,5.215-36.116,14.84-54,28.875c-16.966,13-29.517,30.217-37.65,51.65l49.35,50.45
	 M142.25,8.55c-1.067,3.167-1.617,5.4-1.65,6.7s1.167,3.6,3.6,6.9c2.466,3.267,3.583,5.175,3.35,5.725 M152.05,88.05
	c6.7,6.733,10.05,14.833,10.05,24.3s-3.35,17.483-10.05,24.05c-6.566,6.7-14.583,10.05-24.05,10.05c-9.5,0-17.6-3.35-24.3-10.05
	c-6.567-6.566-9.85-14.583-9.85-24.05s3.283-17.567,9.85-24.3c6.7-6.566,14.8-9.85,24.3-9.85
	C137.467,78.2,145.483,81.483,152.05,88.05z M149.7,90.4c6.1,6.1,9.15,13.434,9.15,22c0,8.6-3.05,15.883-9.15,21.85
	c-5.967,6.067-13.233,9.1-21.8,9.1c-8.6,0-15.95-3.033-22.05-9.1c-5.934-5.967-8.9-13.25-8.9-21.85c0-8.566,2.966-15.9,8.9-22
	c6.1-5.967,13.45-8.95,22.05-8.95C136.467,81.45,143.733,84.433,149.7,90.4z M147.05,93.1c5.367,5.333,8.05,11.783,8.05,19.35
	c0,7.533-2.684,13.917-8.05,19.15c-5.2,5.333-11.583,8-19.15,8c-7.533,0-13.983-2.667-19.35-8c-5.233-5.233-7.85-11.617-7.85-19.15
	c0-7.567,2.617-14.017,7.85-19.35c5.367-5.233,11.817-7.85,19.35-7.85C135.467,85.25,141.85,87.867,147.05,93.1z M2,60.65L30,89.6
	c0.067-2.467,0.217-4.883,0.45-7.25L55.9,108.4c-0.767,1.9-1.483,3.867-2.15,5.9l43.05,44.55h8.45 M2.4,299.1
	c20.967-17.966,43.05-27.267,66.25-27.899l0.2-2.65c-19.1,2.033-33.1,2.851-42,2.45c-8.3,0.1-14.583-2.366-18.85-7.4
	c-2.567-3.966-1.283-13.699,3.85-29.199l18.6-75.7l3.6-8.3c0.333-13.967-0.8-28.183-3.4-42.65C30.017,101.417,29.8,95.367,30,89.6
	 M53.75,114.3c-4.4,13.3-7.217,28.15-8.45,44.55h51.5 M127.65,104.9c2.1,0,3.883,0.717,5.35,2.15c1.5,1.467,2.25,3.267,2.25,5.4
	c0,2.1-0.75,3.883-2.25,5.35c-1.467,1.467-3.25,2.2-5.35,2.2s-3.9-0.733-5.4-2.2c-1.433-1.466-2.15-3.25-2.15-5.35
	c0-2.133,0.717-3.934,2.15-5.4C123.75,105.617,125.55,104.9,127.65,104.9z M127.65,108.75c1.033,0,1.9,0.35,2.6,1.05
	c0.733,0.733,1.1,1.617,1.1,2.65c0,1.033-0.367,1.9-1.1,2.6c-0.7,0.733-1.567,1.1-2.6,1.1s-1.917-0.367-2.65-1.1
	c-0.7-0.7-1.05-1.566-1.05-2.6c0-1.034,0.35-1.917,1.05-2.65C125.733,109.1,126.617,108.75,127.65,108.75z M151.3,371.85
	c0.267-1.033,0.867-2.033,1.8-3c1.267-1.333,2.667-1.916,4.2-1.75c0.034-0.066,0.684-0.05,1.95,0.051l2.95,0.3
	c1.466,0.233,2.233,0.35,2.3,0.35c1.033,0,2.017-0.316,2.95-0.95c0.833-0.566,2.133-0.75,3.9-0.55c1.733,0.167,2.8,0.101,3.2-0.2
	c0.4-0.3,0.934-0.683,1.6-1.149c0.667-0.467,1.067-0.851,1.2-1.15c0.167-0.3,0.683-0.483,1.55-0.55c0.9-0.1,1.467-0.217,1.7-0.35
	c0.633-0.4,1.167-0.801,1.6-1.2c0.2-0.167,0.783-0.7,1.75-1.601c1.5-1.199,2.5-2.017,3-2.449c0.8-0.733,1.2-1.617,1.2-2.65
	c0-1.066-0.333-2.184-1-3.35c-0.833-1.4-1.316-2.434-1.45-3.101c0-0.066-0.367-1.083-1.1-3.05c-0.667-1.767-1-2.967-1-3.6
	c0-1.434,0.467-2.95,1.4-4.551c0.933-1.566,1.4-3.399,1.4-5.5c0-2.166-0.25-3.683-0.75-4.55c-0.2-0.366-0.767-0.899-1.7-1.6
	c-1.633-1.267-2.517-4.65-2.65-10.15c0-0.866-0.15-2.517-0.45-4.95c-0.267-2.333-0.4-3.833-0.4-4.5
	c-0.034-0.767-0.25-1.55-0.65-2.35c-0.433-0.8-1.033-1.55-1.8-2.25c-0.7-0.333-1.3-0.684-1.8-1.05c-1.034-0.7-1.55-1.45-1.55-2.25
	c0-0.134,0.033-0.351,0.1-0.65c0.033-0.066,0.05-0.116,0.05-0.149c-15.233-1.267-31.017-5.101-47.35-11.5
	C77.983,266.5,50.6,225.566,45.3,163.1h55.6l-4.1-4.25 M53.75,114.3L30,89.6 M207.35,296.05c3-0.533,5.983-1.166,8.95-1.899
	c0-0.634,0.017-1.4,0.05-2.301c0.033-0.8,0.2-1.35,0.5-1.649c0.267-0.267,0.4-0.733,0.4-1.4c0-2.1-0.683-3.866-2.05-5.3
	c-0.767-0.866-1.217-1.4-1.35-1.6c-0.434-0.634-0.65-2.134-0.65-4.5c0-2.367,0.816-4.384,2.45-6.051c1.6-1.633,4.65-5.133,9.15-10.5
	c0.1,0.934,0.317,2.067,0.65,3.4c0,0.866-0.367,2.134-1.1,3.8c-0.4,1-1.2,2.816-2.4,5.45c-2.3,5.8-3.45,12.05-3.45,18.75
	c0,0.333,0.017,0.767,0.05,1.3c13.934-3.8,27.317-10.1,40.15-18.899v58.699c-1.5-1.366-3.434-3.166-5.8-5.399
	c-3.4-3.267-5.717-5.467-6.95-6.601c-3.333-3.1-6.284-5.616-8.85-7.55c-2.567-1.967-5.317-3.75-8.25-5.35
	c-2.533-1.367-3.934-2.084-4.2-2.15c-0.033-0.066-0.083-0.133-0.15-0.2l-0.05-0.05c-2.333-1.1-4.05-1.916-5.15-2.45
	c-1.867-0.966-3.483-1.883-4.85-2.75h-0.15v0.051c-0.032,0.032-0.049,0.065-0.05,0.1c0,0.033,0,0.083,0,0.15
	c0.033,0.966,0.083,2.149,0.15,3.55c0.033,0.866,0.1,2.149,0.2,3.85c0.033,0.4,0.066,1.25,0.1,2.55c0.066,1.767,0.1,4.301,0.1,7.601
	c0,0.7,0.2,1.7,0.6,3c0.4,1.267,0.6,1.967,0.6,2.1c0,0.2-0.2,1.05-0.6,2.55s-0.6,3.25-0.6,5.25c0,0.801,0.184,3.117,0.55,6.95
	c0.333,3.834,0.5,7.417,0.5,10.75c0,3.967,0.6,7.834,1.8,11.601c1.467,4.466,2.5,8.116,3.1,10.949 M216.3,294.15
	c0.767-0.2,1.517-0.4,2.25-0.601c0.133,1.467,0.45,3.717,0.95,6.75c0.2,1.101,1.033,2.283,2.5,3.55c1.367,1.2,2.183,1.934,2.45,2.2
	 M207.35,296.05c3.267,2.334,5.55,3.934,6.85,4.8h0.05h0.05c0.133-0.699,0.534-1.517,1.2-2.449c0.667-0.967,0.95-1.801,0.85-2.5
	c-0.033-0.367-0.05-0.95-0.05-1.75 M224.65,306.8c0,0.566,0.05,1.351,0.15,2.351c0,0.6-0.15,1.283-0.45,2.05
	c-0.3,0.767-0.483,1.633-0.55,2.6c-0.1,0.967,0.517,4.4,1.85,10.3c1.367,5.934,2.117,9.351,2.25,10.25
	c0.167,0.9,0.15,1.801-0.05,2.7c-0.1,0.566-0.133,1.533-0.1,2.9l0.35,2.75c0.2,0.6,0.583,1.783,1.15,3.55c0.533,1.667,0.8,3,0.8,4
	c0,0.3-0.066,0.95-0.2,1.95c-0.033,0.934,0.15,1.517,0.55,1.75s0.767,0.633,1.1,1.2c0.333,0.533,0.5,1.066,0.5,1.6
	c0,0.066,0.017,0.134,0.05,0.2c0.067,0.399,0.117,1,0.15,1.8c0.033,0.934,0.066,1.434,0.1,1.5c0.067,0.167,0.317,0.583,0.75,1.25
	c0.333,0.5,0.5,0.866,0.5,1.1c0,0.2-0.2,0.834-0.6,1.9c-0.434,1.066-0.65,2.05-0.65,2.95c0,1-0.167,2-0.5,3
	c-0.233,0.7-0.383,1.166-0.45,1.399 M214.25,301c0-0.034,0-0.067,0-0.1l-0.05-0.051 M214.25,300.85v0.051h0.05 M181.05,23.25
	c-12.066-7.6-24.883-12.483-38.45-14.65"/>
</svg>
